<?xml version="1.0" encoding="UTF-8"?><svg id="Layer_2" xmlns="http://www.w3.org/2000/svg" viewBox="0 0 819.46 687.32"><defs><style>.cls-1{fill:#101114;}</style></defs><g id="DESIGN"><path class="cls-1" d="M468.09,687.32h-116.71c-1.56-.57-2.97-1.09-4.53-1.66l-246.27-209.17L0,156.27c.4-2.25.73-4.12,1.14-6.37l60.33-78.19c1.25-.84,2.4-1.62,3.65-2.46L311.21,0h197.04l246.1,69.25c1.25.84,2.4,1.62,3.65,2.46l60.33,78.19c.4,2.25.73,4.12,1.14,6.37l-100.57,320.21-246.27,209.17c-1.56.57-2.97,1.09-4.53,1.66ZM370.84,627.32h77.77l218.22-185.34,87.09-277.31-32.72-42.41-221.24-62.26h-180.47l-221.24,62.26-32.72,42.41,87.09,277.31,218.22,185.34Z"/><path class="cls-1" d="M404.49,482.55l-157.6-157.59c0-3.87,0-6.03,0-9.9l32.53-32.53c3.87,0,6.03,0,9.9,0l116.87,116.87,172.99-204.38c3.85-.32,6.01-.5,9.87-.82l35.11,29.72c.32,3.85.5,6.01.82,9.87l-210.2,248.34-10.29.43Z"/></g></svg>