<?xml version="1.0" encoding="UTF-8"?><svg id="Layer_2" xmlns="http://www.w3.org/2000/svg" viewBox="0 0 710 745.45"><defs><style>.cls-1{fill:#101114;}</style></defs><g id="DESIGN"><path class="cls-1" d="M649.53,0H60.47c-1.72.71-3.23,1.34-4.95,2.05L2.05,55.52l-2.05,4.95v426.55c.71,1.72,1.34,3.23,2.05,4.95l53.47,53.47c1.72.71,3.23,1.34,4.95,2.05h263.65v137.95h-163l-7,7v46l7,7h386l7-7v-46l-7-7h-163v-137.95h265.41c1.72-.71,3.23-1.34,4.95-2.05l53.47-53.47c.71-1.72,1.34-3.23,2.05-4.95V60.47l-2.05-4.95-53.47-53.47c-1.72-.71-3.23-1.34-4.95-2.05ZM650,465.07l-22.43,22.43H82.43l-22.43-22.43V82.43l22.43-22.43h545.15l22.43,22.43v382.65Z"/><rect class="cls-1" x="150.31" y="330" width="60" height="100"/><rect class="cls-1" x="324.12" y="230" width="60" height="200"/><rect class="cls-1" x="497.92" y="137.58" width="60" height="292.42"/></g></svg>