<?xml version="1.0" encoding="UTF-8"?><svg id="Layer_2" xmlns="http://www.w3.org/2000/svg" viewBox="0 0 660 765.78"><defs><style>.cls-1{fill:#101114;}</style></defs><g id="DESIGN"><path class="cls-1" d="M599.53,105.78h-239.53v-45.78h48.71l7-7V7l-7-7h-157.43l-7,7v46l7,7h48.71v45.78H60.47c-1.72.71-3.23,1.34-4.95,2.05L2.05,161.3c-.71,1.72-1.34,3.23-2.05,4.95v539.05c.71,1.72,1.34,3.23,2.05,4.95l53.47,53.47c1.72.71,3.23,1.34,4.95,2.05h539.05c1.72-.71,3.23-1.34,4.95-2.05l53.47-53.47,2.05-4.95V166.25l-2.05-4.95-53.47-53.47c-1.72-.71-3.23-1.34-4.95-2.05ZM600,683.35l-22.43,22.43H82.43l-22.43-22.43V188.21l22.43-22.43h495.15l22.43,22.43v495.15Z"/><path class="cls-1" d="M353,261.41h-46l-7,7v225.66l7,7h200.16l7-7v-46l-7-7h-147.16v-172.66l-7-7Z"/></g></svg>