<?xml version="1.0" encoding="UTF-8"?><svg id="Layer_2" xmlns="http://www.w3.org/2000/svg" viewBox="0 0 670 724.79"><defs><style>.cls-1{fill:#101114;}</style></defs><g id="DESIGN"><path class="cls-1" d="M618.67,402.3h-51.22c-1.32.4-2.56.77-3.88,1.18l-175.43,116.93v-10.64c-.55-1.54-1.06-2.93-1.61-4.47l-5.3-6.39c-6.49-7.81-11.81-13.94-16.95-19.86-5.15-5.93-10.02-11.53-16.07-18.82l-6.9-8.31c-1.88-.88-3.5-1.64-5.39-2.53H51.31c-1.88.89-3.5,1.64-5.39,2.53L1.61,505.29c-.55,1.54-1.06,2.94-1.61,4.47v154.65l1.61,4.47,44.31,53.38c1.88.88,3.5,1.64,5.39,2.53h342.03l27.12-9.69,246.9-197.17c.92-1.92,1.71-3.55,2.63-5.47v-44.37c-.48-1.44-.93-2.77-1.41-4.21l-44.33-58.79c-1.97-.98-3.62-1.81-5.59-2.79ZM610,486.95l-219.15,175.01-7.91,2.82H76.2l-16.2-19.51v-116.38l16.2-19.51h235c2.72,3.17,5.27,6.11,7.79,9.01,3.05,3.51,6.01,6.91,9.16,10.62v17.45h-115.47v60h154.55l216.27-144.15h8.76l17.74,23.53v1.12Z"/><path class="cls-1" d="M158.73,305.85l53.08,40.36c1.45.49,2.79.94,4.24,1.43h236.98l7-7v-46l-7-7h-219.12l-17.94-13.64v-28.45h178.72l7-7v-46l-7-7h-178.73v-23.45h178.73l7-7v-46l-7-7h-178.73v-28.45l17.94-13.64h219.12l7-7V7l-7-7h-236.98c-1.45.49-2.79.94-4.24,1.43l-53.08,40.36c-.97,1.96-1.79,3.61-2.76,5.57v54.73h-25.37l-7,7v46l7,7h25.37v23.45h-25.37l-7,7v46l7,7h25.37v54.74l2.76,5.57Z"/></g></svg>