<?xml version="1.0" encoding="UTF-8"?><svg id="Layer_2" xmlns="http://www.w3.org/2000/svg" viewBox="0 0 660.02 828.85"><defs><style>.cls-1{fill:#101114;}</style></defs><g id="DESIGN"><path class="cls-1" d="M600.02,828.85l60-.14-.87-368.9c-.71-1.71-1.34-3.22-2.05-4.93l-53.39-53.39c-1.72-.71-3.23-1.34-4.95-2.05H60.44c-1.72.71-3.23,1.34-4.95,2.05L2.05,454.92l-2.05,4.97.87,368.96,60-.14-.16-67.39h539.15l.16,67.53ZM82.39,459.43h494.41l22.4,22.4.18,77.02H60.23l-.18-77.08,22.34-22.34ZM60.57,701.32l-.2-82.47h539.15l.2,82.47H60.57Z"/><path class="cls-1" d="M150.24,179.79c0,99.13,80.65,179.79,179.79,179.79s179.79-80.65,179.79-179.79c0-6.64-.37-13.2-1.08-19.66h38.55l7-7v-46l-7-7h-56.11C461.75,40.85,400.57,0,330.02,0s-131.72,40.85-161.15,100.13h-56.96l-7,7v46l7,7h39.4c-.71,6.46-1.08,13.01-1.08,19.66ZM449.81,179.79c0,66.05-53.74,119.79-119.79,119.79s-119.79-53.74-119.79-119.79c0-6.69.56-13.26,1.62-19.66h236.33c1.06,6.4,1.62,12.96,1.62,19.66ZM330.02,60c35.49,0,67.43,15.52,89.38,40.13h-178.76c21.95-24.61,53.89-40.13,89.38-40.13Z"/></g></svg>