<?xml version="1.0" encoding="UTF-8"?><svg id="Layer_2" xmlns="http://www.w3.org/2000/svg" viewBox="0 0 860.04 918.13"><defs><style>.cls-1{fill:#101114;}</style></defs><g id="DESIGN"><path class="cls-1" d="M858.44,462.69l-13.83-16.82-37.02-35.97-57.28-36.81-74.35-16.38-70.24,18.67-54.59,36.33-35.8,34.63-13.6,16.13c-.57,1.54-1.08,2.94-1.65,4.48l-.13,30.73.1.12v278.22l-.08,19.8,1.59,4.48,13.83,16.82,37.02,35.97,57.28,36.81,74.35,16.38,70.24-18.67,54.59-36.33,35.8-34.63,13.6-16.13c.57-1.54,1.08-2.94,1.65-4.48l.08-19.91v-285s-.07,0-.07,0l.1-23.96-1.59-4.48ZM560.05,557.33l49.64,31.9,74.35,16.38,70.24-18.67,45.73-30.43v71.67l-28.9,27.95-41.79,27.81-46.57,12.38-49.62-10.93-43.18-27.75-29.89-29.04v-71.27ZM588.93,458.63l41.79-27.81,46.57-12.38,49.62,10.93,43.18,27.75,24.51,23.82-23.53,22.75-41.79,27.81-46.57,12.38-49.62-10.93-43.18-27.75-24.51-23.82,23.53-22.75ZM800,776.38l-28.93,27.97-41.79,27.81-46.57,12.38-49.62-10.93-43.18-27.75-29.87-29.02v-67.09s49.67,31.92,49.67,31.92l74.35,16.38,70.24-18.67,45.7-30.42v67.41Z"/><path class="cls-1" d="M360,509.42V60.47c-.71-1.72-1.34-3.23-2.05-4.95L304.48,2.05l-4.95-2.05H60.47l-4.95,2.05L2.05,55.52c-.71,1.72-1.34,3.23-2.05,4.95v448.95c.71,1.72,1.34,3.23,2.05,4.95l53.47,53.47,4.95,2.05h239.05l4.95-2.05,53.47-53.47c.71-1.72,1.34-3.23,2.05-4.95ZM300,487.47l-22.43,22.43H82.43l-22.43-22.43V82.43l22.43-22.43h195.15l22.43,22.43v405.04Z"/><path class="cls-1" d="M101.58,314.95h158.83l7-7v-46l-7-7H101.58l-7,7v46l7,7Z"/><path class="cls-1" d="M101.58,189.79h158.83l7-7v-46l-7-7H101.58l-7,7v46l7,7Z"/><path class="cls-1" d="M101.58,440.1h158.83l7-7v-46l-7-7H101.58l-7,7v46l7,7Z"/><path class="cls-1" d="M276.81,750.34l32.68,32.68h-75.28l-22.43-22.43v-140.49l-7-7h-46l-7,7v162.44l2.05,4.95,53.47,53.47,4.95,2.05h97.24l-32.68,32.68v9.9s32.53,32.53,32.53,32.53c3.87,0,6.03,0,9.9,0l100.16-100.16v-9.9l-100.16-100.16c-3.87,0-6.03,0-9.9,0l-32.53,32.53c0,3.87,0,6.03,0,9.9Z"/><path class="cls-1" d="M581.52,175.85l-32.68-32.68h75.28l22.43,22.43v140.49l7,7h46l7-7v-162.44l-2.05-4.95-53.47-53.47c-1.72-.71-3.23-1.34-4.95-2.05h-97.23l32.68-32.68c0-3.87,0-6.03,0-9.9l-32.53-32.53c-3.87,0-6.03,0-9.9,0l-100.16,100.16v9.9l100.16,100.16c3.87,0,6.03,0,9.9,0l32.53-32.53c0-3.87,0-6.03,0-9.9Z"/></g></svg>