<?xml version="1.0" encoding="UTF-8"?><svg id="Layer_2" xmlns="http://www.w3.org/2000/svg" viewBox="0 0 968.33 910.3"><defs><style>.cls-1{fill:#101114;}</style></defs><g id="DESIGN"><path class="cls-1" d="M715.03,396.91l-13.9-38.55-12.57-34.87-23.38-64.83h-57.78l-24.46,39.19-38.53-68.69-21.63-38.55-12.36-22.05h-50.2l-12.65,22.05-22.13,38.55-39.73,69.22-24.79-39.72h-57.78l-23.38,64.84-12.57,34.86-13.9,38.55-43.13,119.63.97,9.57,3.24,31.83,4.11,6.72,22.73,37.15,38.55,63.02,17.76,29.03,17.12,27.99,14.6,10.56,15.28,11.05,8.53,2,38.55,9.06,81.73,19.21h21.67l81.73-19.21,38.55-9.06,8.53-2,15.28-11.05,14.6-10.56,17.12-27.99,17.76-29.03,38.55-63.02,22.73-37.15,4.11-6.72,3.24-31.83.97-9.57-43.13-119.63ZM679.02,532.69l-19.56,31.98-63.48,103.78-4.85,3.51-87.68,20.6v1.31h-38.55v-1.31l-87.69-20.6-4.85-3.51-63.48-103.78-19.55-31.98-.66-6.5.03-.08,46.58-129.2,7.71-21.4,10.08,16.16,3.27,5.23,4.44,7.11h53.21l4.09-7.11,22.13-38.55,24.71-43.05,19.95-34.76,18.6,33.15,25.05,44.66,21.62,38.55,4,7.11h53.46l4.44-7.11,3.27-5.23,10.08-16.16,7.71,21.4,46.58,129.2.03.08-.66,6.5Z"/><path class="cls-1" d="M968.33,381.12v-200.06l-7-7h-109.04V7l-7-7H123.04l-7,7v167.06H7l-7,7v200.06l7,7h109.04v134.06H7l-7,7v200.06l7,7h109.04v167.06l7,7h722.25l7-7v-167.06h109.04l7-7v-200.06l-7-7h-109.04v-134.06h109.04l7-7ZM620.21,40h192.08v134.06h-192.08V40ZM156.04,40h192.08v134.06h-192.08V40ZM40,348.12v-134.06h192.08v134.06h.01-.01s0,0,0,0H40ZM928.33,562.18v134.06h-192.08v-48.57l-29.71,48.57-10.29,16.82-14.18,23.18h130.22v134.06h-192.08v-94.35l-40,9.4v84.95h-192.09v-84.95l-40-9.4v94.35h-192.08v-134.06h130.22l-14.18-23.18-10.29-16.82-29.71-48.57v48.57H40v-134.06h140.25l-4.07-40h-20.14v-134.06h64.12l11.75-32.6h0s2.66-7.4,2.66-7.4h0l37.5-104.02v-30.04h128.3l22.96-40h-35.22V40h192.09v134.06h-35.22l22.96,40h128.3v30.04l37.5,104.02h0l2.66,7.41h0s11.75,32.59,11.75,32.59h64.12v134.06h-20.14l-4.07,40h140.25ZM736.25,348.12h0s-.01,0-.01,0h.01v-134.06h192.08v134.06h-192.08Z"/></g></svg>