<?xml version="1.0" encoding="UTF-8"?><svg id="Layer_2" xmlns="http://www.w3.org/2000/svg" viewBox="0 0 670 876.03"><defs><style>.cls-1{fill:#101114;}</style></defs><g id="DESIGN"><path class="cls-1" d="M299.88,259.72c-71.6,0-129.86-58.25-129.86-129.86S228.28,0,299.88,0s129.86,58.25,129.86,129.86-58.25,129.86-129.86,129.86ZM299.88,60c-38.52,0-69.86,31.34-69.86,69.86s31.34,69.86,69.86,69.86,69.86-31.34,69.86-69.86-31.34-69.86-69.86-69.86Z"/><path class="cls-1" d="M469.41,552.32H130.36l-4.95-2.05-53.47-53.47c-.71-1.72-1.34-3.23-2.05-4.95v-139.05l2.05-4.95,53.47-53.47,4.95-2.05h339.06l4.95,2.05,53.47,53.47,2.05,4.95v139.05l-2.05,4.95-53.47,53.47c-1.72.71-3.23,1.34-4.95,2.05ZM152.31,492.32h295.15l22.43-22.43v-95.15l-22.43-22.43H152.31l-22.43,22.43v95.15l22.43,22.43Z"/><path class="cls-1" d="M393.34,876.03H51.31c-1.88-.88-3.5-1.64-5.39-2.53L1.61,820.12c-.55-1.54-1.06-2.94-1.61-4.47v-154.65c.55-1.54,1.06-2.94,1.61-4.47l44.31-53.38,5.39-2.53h284.61c1.88.88,3.5,1.64,5.39,2.53l6.9,8.31c6.06,7.29,10.92,12.9,16.07,18.83,5.14,5.92,10.46,12.04,16.95,19.85l5.3,6.39,1.61,4.47v10.64l177.19-118.1h53.34c1.97.98,3.62,1.81,5.59,2.79l44.33,58.79,1.41,4.21v44.37c-.92,1.92-1.71,3.55-2.63,5.47l-246.9,197.17-27.12,9.69ZM76.2,816.03h306.75l7.9-2.82,219.15-175.01v-1.12l-17.74-23.53h-8.76l-216.27,144.15h-147.55l-7-7v-46l7-7h108.47v-17.45c-3.16-3.7-6.11-7.1-9.16-10.61-2.52-2.9-5.08-5.84-7.79-9.01H76.2l-16.2,19.51v116.38l16.2,19.51Z"/></g></svg>