<?xml version="1.0" encoding="UTF-8"?><svg id="Layer_2" xmlns="http://www.w3.org/2000/svg" viewBox="0 0 660.22 999.01"><defs><style>.cls-1{fill:#101114;}</style></defs><g id="DESIGN"><path class="cls-1" d="M657.12,359.41l-26.52-17.78-70.64-37.83-102.22-36.21v-116.02h62.16l7-7v-46l-7-7h-122.16v167.92l-39.95-4.85V7l-7-7h-46l-7,7v247.11l-40.05,5.87V91.57h-122.16l-7,7v46l7,7h62.16v117.51l-99.83,36.62-68.51,36.52-25.92,16.94c-1.12,2.06-2.05,3.75-3.17,5.81l-.32,41.23.22.15v250.35l-.17,26.28,2.62,5.51,24.93,19.98,70.81,45.32,99.32,42.05v63.34h-62.16l-7,7v46l7,7h122.16v-112.68l39.95,5.8v179.72l7,7h46l7-7v-177.54l40.05-7.01v111.71h122.16l7-7v-46l-7-7h-62.16v-62.22l4.68-.82,101.81-44.64,68.66-43.74,24.38-19.05c.94-1.92,1.75-3.55,2.69-5.47l.17-26.36v-256.95s-.17,0-.17,0l.27-34.64c-1.1-2.08-2-3.79-3.1-5.87ZM60.22,442.45l40.07,21.46,105.72,37.45,131.24,15.94,123.85-18.15,101.24-37.14,37.79-20.14v77.79l-62.3,33.21-91.52,33.57-109.76,16.08-116.69-14.17-95.19-33.72-64.01-34.28-.42-.28v-77.61ZM122.47,360.6l75.27-27.61v59.93l7,7h46l7-7v-72.3l40.05-5.87v78.17l7,7h46l7-7v-77.84l39.95,4.85v72.99l7,7h46l7-7v-61.67l77.9,27.6,46.23,24.76-44.1,23.51-91.52,33.57-109.76,16.08-116.69-14.17-95.19-33.72-46.23-24.76,44.1-23.51ZM600.12,657.21l-1.91,1.49-62.33,39.71-90.95,39.87-104.22,18.25h-9.48l-110.2-15.99-94.56-40.03-63.85-40.87-2.42-1.94v-.71s0-68.81,0-68.81l40.12,21.49,105.72,37.45,131.24,15.94,123.85-18.15,101.24-37.14,37.74-20.12v69.57Z"/></g></svg>