<?xml version="1.0" encoding="UTF-8"?><svg id="Layer_2" xmlns="http://www.w3.org/2000/svg" viewBox="0 0 910 848.5"><defs><style>.cls-1{fill:#101114;}</style></defs><g id="DESIGN"><path class="cls-1" d="M667.11,371.7l-48.24-46.87-74.02-47.57-95.01-20.93-89.7,23.85-70.65,47.02-46.72,45.18-16.02,18.99c-.57,1.54-1.08,2.94-1.65,4.48l-.15,34.59.11.14v254.59l-.1,23.63c.55,1.54,1.05,2.94,1.59,4.48l16.33,19.86,48.24,46.87,74.02,47.57,95.01,20.93,89.7-23.85,70.65-47.02,46.72-45.18,16.02-18.99c.57-1.54,1.08-2.94,1.65-4.48l.1-23.77v-259.96h-.09l.12-29.22c-.55-1.54-1.05-2.94-1.59-4.48l-16.33-19.86ZM285.07,493.22l6.07,5.9,74.02,47.57,95.01,20.93,89.7-23.85,70.65-47.02,4.49-4.34v55.7l-1.67,1.98-40.6,39.27-57.85,38.5-66.04,17.55-70.28-15.48-59.92-38.51-41.53-40.35-2.04-2.48v-55.37ZM327.27,374.11l57.85-38.5,66.04-17.55,70.28,15.48,59.92,38.51,40.8,39.64-39.44,38.14-57.85,38.5-66.04,17.55-70.28-15.48-59.92-38.51-40.8-39.64,39.44-38.14ZM624.98,689.49l-1.65,1.96-40.6,39.27-57.85,38.5-66.04,17.55-70.28-15.48-59.92-38.51-41.52-40.35-2.06-2.51.02-4.6v-52.57l6.07,5.9,74.02,47.57,95.01,20.93,89.7-23.84,70.65-47.02,4.49-4.34v53.07l-.02,4.47Z"/><path class="cls-1" d="M869.3,230.19c-22.35-23.95-51.47-39.82-83.27-45.65-5.85-31.76-21.73-60.84-45.68-83.16-28.12-26.21-64.78-40.64-103.23-40.64-27.12,0-53.02,7-75.98,20.39C521.07,29.98,460.07,0,394.26,0c-107.99,0-197.4,81.12-210.49,185.62-10.8-2.35-21.86-3.53-33.11-3.46-39.66.2-77.13,15.74-105.53,43.77C16.73,253.97.71,291.25.02,330.9c-.71,40.97,14.7,79.62,43.39,108.82,28.7,29.21,67.06,45.29,108.01,45.29h30.84l7-7v-46c-2.73-2.73-4.27-4.27-7-7h-29.62c-24.93,0-49.09-9.64-66.54-27.45-17.26-17.62-26.53-40.91-26.1-65.62.86-49.26,41.65-89.54,90.94-89.78,12.44-.06,24.46,2.31,35.77,7.06l11.43,4.8c2.34-.23,4.27-.41,6.61-.64l34.29-23.01,3.1-5.83-.03-12.4c0-83.89,68.25-152.14,152.14-152.14,52.12,0,100.04,26.24,128.2,70.18l5.46,8.52c1.63,1.09,3.06,2.03,4.69,3.12l34.62,6.03c1.92-.48,3.6-.9,5.52-1.39l8.05-6.31c16.2-12.7,35.67-19.41,56.32-19.41,23.22,0,45.35,8.71,62.32,24.53,16.89,15.75,27.14,37.04,28.85,59.96l.64,8.52,2.03,4.43,21.49,21.47c1.53.7,2.91,1.33,4.43,2.03l8.52.63c22.94,1.69,44.26,11.92,60.02,28.82,15.88,17.02,24.61,39.24,24.57,62.54-.1,50.62-42.04,91.24-92.66,91.24h-35c-2.73,2.73-4.27,4.27-7,7v46c2.73,2.73,4.27,4.27,7,7h34.62c83.44,0,152.41-66.82,153.04-150.26.29-38.91-14.19-76.04-40.69-104.45Z"/></g></svg>