<?xml version="1.0" encoding="UTF-8"?><svg id="Layer_2" xmlns="http://www.w3.org/2000/svg" viewBox="0 0 910 871.7"><defs><style>.cls-1{fill:#101114;}</style></defs><g id="DESIGN"><path class="cls-1" d="M625,871.7l-.54-227.22-9.08-9.08h-321.32l-9.03,9.03.54,227.14-60,.14-.59-249.16,2.05-4.97,40.12-40.12c1.72-.71,3.23-1.34,4.95-2.05h365.23l4.95,2.05,40.08,40.08c.71,1.71,1.34,3.22,2.05,4.93l.59,249.1-60,.14Z"/><path class="cls-1" d="M455,515.01c-71.6,0-129.86-58.25-129.86-129.86s58.25-129.86,129.86-129.86,129.86,58.25,129.86,129.86-58.25,129.86-129.86,129.86ZM455,315.3c-38.52,0-69.86,31.34-69.86,69.86s31.34,69.86,69.86,69.86,69.86-31.34,69.86-69.86-31.34-69.86-69.86-69.86Z"/><path class="cls-1" d="M869.3,230.19c-22.35-23.95-51.47-39.82-83.27-45.65-5.85-31.76-21.73-60.84-45.68-83.16-28.12-26.21-64.78-40.64-103.23-40.64-27.12,0-53.02,7-75.98,20.39C521.07,29.98,460.07,0,394.26,0c-107.99,0-197.4,81.12-210.49,185.62-10.8-2.35-21.86-3.53-33.11-3.46-39.66.2-77.13,15.74-105.53,43.77C16.73,253.97.71,291.25.02,330.9c-.71,40.97,14.7,79.62,43.39,108.82,28.7,29.21,67.06,45.29,108.01,45.29h96.57c2.73-2.73,4.27-4.27,7-7v-46c-2.73-2.73-4.27-4.27-7-7h-95.35c-24.93,0-49.09-9.64-66.54-27.45-17.26-17.62-26.53-40.91-26.1-65.62.86-49.26,41.65-89.54,90.94-89.78,12.44-.06,24.46,2.31,35.77,7.06l11.43,4.8c2.34-.23,4.27-.41,6.61-.64l34.29-23.01,3.1-5.83-.03-12.4c0-83.89,68.25-152.14,152.14-152.14,52.12,0,100.04,26.24,128.2,70.18l5.46,8.52c1.63,1.09,3.06,2.03,4.69,3.12l34.62,6.03c1.92-.48,3.6-.9,5.52-1.39l8.05-6.31c16.2-12.7,35.67-19.41,56.32-19.41,23.22,0,45.35,8.71,62.32,24.53,16.89,15.75,27.14,37.04,28.85,59.96l.64,8.52c.7,1.52,1.33,2.91,2.03,4.43l21.49,21.47c1.53.7,2.91,1.33,4.43,2.03l8.52.63c22.94,1.69,44.26,11.92,60.02,28.82,15.88,17.02,24.61,39.24,24.57,62.54-.1,50.62-42.04,91.24-92.66,91.24h-95.34c-2.73,2.73-4.27,4.27-7,7v46c2.73,2.73,4.27,4.27,7,7h94.95c83.44,0,152.41-66.82,153.04-150.26.29-38.91-14.19-76.04-40.69-104.45Z"/></g></svg>