<?xml version="1.0" encoding="UTF-8"?><svg id="Layer_2" xmlns="http://www.w3.org/2000/svg" viewBox="0 0 660 603.3"><defs><style>.cls-1{fill:#101114;}</style></defs><g id="DESIGN"><path class="cls-1" d="M609.53,0H50.47c-1.72.71-3.23,1.34-4.95,2.05L2.05,45.52l-2.05,4.95v259.05l2.05,4.95,43.47,43.47,4.95,2.05h92.21v182.83c.71,1.72,1.34,3.23,2.05,4.95l53.47,53.47,4.95,2.05h253.69c1.72-.71,3.23-1.34,4.95-2.05l53.47-53.47,2.05-4.95v-182.83h92.21c1.72-.71,3.23-1.34,4.95-2.05l43.47-43.47,2.05-4.95V50.47l-2.05-4.95-43.47-43.47c-1.72-.71-3.23-1.34-4.95-2.05ZM202.68,520.87V210h158.21v333.3h-135.78l-22.43-22.43ZM434.89,543.3h-14V210h36.43v310.87l-22.43,22.43ZM600,287.57l-12.43,12.43h-70.25v-90h21.66l7-7v-46l-7-7h-21.66s-374.64,0-374.64,0h0s-21.66,0-21.66,0l-7,7v46l7,7h21.66v90h-70.25l-12.43-12.43V72.43l12.43-12.43h515.15l12.43,12.43v215.15Z"/></g></svg>