<?xml version="1.0" encoding="UTF-8"?><svg id="Layer_2" xmlns="http://www.w3.org/2000/svg" viewBox="0 0 660 863.93"><defs><style>.cls-1{fill:#101114;}</style></defs><g id="DESIGN"><path class="cls-1" d="M599.53,0H220.47c-1.72.71-3.23,1.34-4.95,2.05L2.05,215.52l-2.05,4.95v582.99l2.05,4.95,53.47,53.47c1.72.71,3.23,1.34,4.95,2.05h539.05l4.95-2.05,53.47-53.47c.71-1.72,1.34-3.23,2.05-4.95V60.47l-2.05-4.95-53.47-53.47c-1.72-.71-3.23-1.34-4.95-2.05ZM200,102.43v97.57h-97.57l97.57-97.57ZM600,781.51l-22.43,22.43H82.43l-22.43-22.43V260h193l7-7V60h317.57l22.43,22.43v699.08Z"/><path class="cls-1" d="M355.8,623.71h-86.83c-2.03-1.06-3.72-1.94-5.75-3l-75.17-108.03c.68-3.81,1.07-5.94,1.75-9.74l37.76-26.27c3.81.68,5.94,1.07,9.74,1.75l59.36,85.3h31.5l132.06-189.25,9.75-1.73,37.72,26.32,1.73,9.75-147.88,211.92-5.74,2.99Z"/></g></svg>