<?xml version="1.0" encoding="UTF-8"?><svg id="Layer_2" xmlns="http://www.w3.org/2000/svg" viewBox="0 0 710 745.45"><defs><style>.cls-1{fill:#101114;}</style></defs><g id="DESIGN"><path class="cls-1" d="M271.49,373.93v-28.45h178.72l7-7v-46l-7-7h-178.73v-23.45h178.73l7-7v-46l-7-7h-178.73v-28.45l17.94-13.64h219.12l7-7v-46l-7-7h-236.98c-1.45.49-2.79.94-4.24,1.43l-53.08,40.36c-.97,1.96-1.79,3.61-2.76,5.57v54.74s-25.37,0-25.37,0l-7,7v46l7,7h25.37v23.45h-25.37l-7,7v46l7,7h25.37v54.74c.97,1.96,1.79,3.61,2.76,5.57l53.08,40.36c1.45.49,2.79.94,4.24,1.43h236.98l7-7v-46l-7-7h-219.12l-17.94-13.64Z"/><path class="cls-1" d="M649.53,0H60.47c-1.72.71-3.23,1.34-4.95,2.05L2.05,55.52l-2.05,4.95v426.55c.71,1.72,1.34,3.23,2.05,4.95l53.47,53.47c1.72.71,3.23,1.34,4.95,2.05h263.65v137.95h-163l-7,7v46c2.73,2.73,4.27,4.27,7,7h386l7-7v-46l-7-7h-163v-137.95h265.41c1.72-.71,3.23-1.34,4.95-2.05l53.47-53.47c.71-1.72,1.34-3.23,2.05-4.95V60.47l-2.05-4.95-53.47-53.47c-1.72-.71-3.23-1.34-4.95-2.05ZM650,465.07l-22.43,22.43H82.43l-22.43-22.43V82.43l22.43-22.43h545.15l22.43,22.43v382.65Z"/></g></svg>