<?xml version="1.0" encoding="UTF-8"?><svg id="Layer_2" xmlns="http://www.w3.org/2000/svg" viewBox="0 0 660 820"><defs><style>.cls-1{fill:#101114;}</style></defs><g id="DESIGN"><path class="cls-1" d="M607.33,0H52.67l-4.88,1.98L2.12,46.31c-.74,1.74-1.39,3.28-2.12,5.02v575.51c.74,1.74,1.39,3.28,2.12,5.02l45.67,44.33c1.69.68,3.19,1.29,4.88,1.98h67.4v134.82l7,7h85.41c1.47-.5,2.81-.96,4.28-1.46l181.77-140.36h208.79c1.69-.68,3.19-1.29,4.88-1.98l45.67-44.33c.74-1.74,1.39-3.28,2.12-5.02V51.33c-.74-1.74-1.39-3.28-2.12-5.02L612.2,1.98l-4.88-1.98ZM600,604.43l-14.17,13.75h-207.76l-183.66,141.82h-14.33v-141.82h-105.91l-14.17-13.75V73.75l14.17-13.75h511.67l14.17,13.75v530.68Z"/><path class="cls-1" d="M254.15,435.99v-28.45h178.72l7-7v-46l-7-7h-178.73v-23.45h178.73l7-7v-46l-7-7h-178.73v-28.45l17.94-13.64h219.12l7-7v-46l-7-7h-236.98c-1.45.49-2.79.94-4.24,1.43l-53.08,40.36c-.97,1.96-1.79,3.61-2.76,5.57v54.74s-25.37,0-25.37,0l-7,7v46l7,7h25.37v23.45h-25.37l-7,7v46l7,7h25.37v54.74c.97,1.96,1.79,3.61,2.76,5.57l53.08,40.36c1.45.49,2.79.94,4.24,1.43h236.98l7-7v-46l-7-7h-219.12l-17.94-13.64Z"/></g></svg>