<?xml version="1.0" encoding="UTF-8"?><svg id="Layer_2" xmlns="http://www.w3.org/2000/svg" viewBox="0 0 610 885"><defs><style>.cls-1{fill:#101114;}</style></defs><g id="DESIGN"><path class="cls-1" d="M552.86,0H57.14c-1.72.71-3.23,1.34-4.95,2.05L2.05,52.19c-.71,1.72-1.34,3.23-2.05,4.95v770.72c.71,1.72,1.34,3.23,2.05,4.95l50.14,50.14c1.72.71,3.23,1.34,4.95,2.05h495.72c1.72-.71,3.23-1.34,4.95-2.05l50.14-50.14c.71-1.72,1.34-3.23,2.05-4.95V57.14c-.71-1.72-1.34-3.23-2.05-4.95l-50.14-50.14c-1.72-.71-3.23-1.34-4.95-2.05ZM79.09,60h134.24v29.03l7,7h169.33l7-7v-29.03h134.24l19.09,19.09v608.41H60V79.09l19.09-19.09ZM366.67,747.5v77.5h-123.33v-77.5h123.33ZM60,805.91v-58.41h123.33v77.5h-104.24l-19.09-19.09ZM530.91,825h-104.24v-77.5h123.33v58.41l-19.09,19.09Z"/><path class="cls-1" d="M431.4,633.68l47.76-47.76c.71-1.72,1.34-3.23,2.05-4.95V206.96c-.71-1.72-1.34-3.23-2.05-4.95l-47.76-47.76c-1.72-.71-3.23-1.34-4.95-2.05h-250.48c-1.72.71-3.23,1.34-4.95,2.05l-47.76,47.76c-.71,1.72-1.34,3.23-2.05,4.95v374c.71,1.72,1.34,3.23,2.05,4.95l47.76,47.76c1.72.71,3.23,1.34,4.95,2.05h250.48c1.72-.71,3.23-1.34,4.95-2.05ZM181.21,228.92l16.71-16.71h206.58l16.71,16.71v330.1l-16.71,16.71h-206.58l-16.71-16.71V228.92Z"/></g></svg>