<?xml version="1.0" encoding="UTF-8"?><svg id="Layer_2" xmlns="http://www.w3.org/2000/svg" viewBox="0 0 659.76 864.01"><defs><style>.cls-1{fill:#101114;}</style></defs><g id="DESIGN"><path class="cls-1" d="M325.38.01L2.72,215.93l-2.72,5.09v312.77h0c2.31,2.38,3.64,3.75,5.96,6.12,43.29.98,64.84,12.74,89.63,26.27,28.92,15.78,61.7,33.67,124.33,33.67s95.41-17.89,124.33-33.67c25.9-14.13,48.26-26.33,95.59-26.33s69.69,12.2,95.59,26.33c27.95,15.25,59.5,32.46,118.11,33.61,2.44-2.4,3.79-3.73,6.22-6.13v-53.81s0,0,0,0V221l-2.74-5.1L332.18,0c-2.47,0-4.32,0-6.8.01ZM599.73,530.53c-12.88-4.65-23.87-10.63-35.56-17.02-28.92-15.78-61.7-33.67-124.33-33.67s-95.41,17.89-124.33,33.67c-25.9,14.13-48.26,26.33-95.59,26.33s-69.69-12.2-95.59-26.33c-17.96-9.8-37.42-20.41-64.6-27.05v-236.66L328.87,69.85l270.86,180.03v280.66Z"/><path class="cls-1" d="M439.84,611.93c-62.63,0-95.41,17.89-124.33,33.67-25.9,14.13-48.26,26.33-95.59,26.33s-69.69-12.2-95.59-26.33c-27.79-15.17-59.15-32.28-117.14-33.59-2.82,2.75-4.37,4.25-7.19,7v46.01c2.64,2.72,4.17,4.28,6.81,6.99,42.72,1.12,64.15,12.81,88.77,26.25,28.92,15.78,61.7,33.67,124.33,33.67s95.41-17.89,124.33-33.67c25.9-14.13,48.26-26.33,95.59-26.33s69.69,12.2,95.59,26.33c27.79,15.17,59.15,32.27,117.15,33.58l7.19-7v-46.01l-6.81-6.99c-42.73-1.12-64.16-12.81-88.78-26.25-28.92-15.78-61.7-33.67-124.33-33.67Z"/><path class="cls-1" d="M439.84,744.01c-62.63,0-95.41,17.89-124.33,33.67-25.9,14.13-48.26,26.33-95.59,26.33s-69.69-12.2-95.59-26.33c-27.79-15.17-59.15-32.28-117.14-33.59-2.82,2.75-4.37,4.25-7.19,7v46.01c2.64,2.72,4.17,4.28,6.81,6.99,42.72,1.12,64.15,12.81,88.77,26.25,28.92,15.78,61.7,33.67,124.33,33.67s95.41-17.89,124.33-33.67c25.9-14.13,48.26-26.33,95.59-26.33s69.69,12.2,95.59,26.33c27.79,15.17,59.15,32.27,117.15,33.58l7.19-7v-46.01l-6.81-6.99c-42.73-1.12-64.16-12.81-88.78-26.25-28.92-15.78-61.7-33.67-124.33-33.67Z"/></g></svg>