<?xml version="1.0" encoding="UTF-8"?><svg id="Layer_2" xmlns="http://www.w3.org/2000/svg" viewBox="0 0 977.79 967.96"><defs><style>.cls-1{fill:#101114;}</style></defs><g id="DESIGN"><path class="cls-1" d="M643.61,716.08h-309.05l-4.95-2.05-68.47-68.47-2.05-4.95v-309.05l2.05-4.95,68.47-68.47,4.95-2.05h309.05l4.95,2.05,68.47,68.47,2.05,4.95v309.05l-2.05,4.95-68.47,68.47-4.95,2.05ZM356.51,656.08h265.15l37.43-37.43v-265.15l-37.43-37.43h-265.15l-37.43,37.43v265.15l37.43,37.43Z"/><path class="cls-1" d="M563.61,591.08h-149.05c-1.72-.71-3.23-1.34-4.95-2.05l-23.47-23.47c-.71-1.72-1.34-3.23-2.05-4.95v-149.05c.71-1.72,1.34-3.23,2.05-4.95l23.47-23.47c1.72-.71,3.23-1.34,4.95-2.05h149.05c1.72.71,3.23,1.34,4.95,2.05l23.47,23.47c.71,1.72,1.34,3.23,2.05,4.95v149.05c-.71,1.72-1.34,3.23-2.05,4.95l-23.47,23.47c-1.72.71-3.23,1.34-4.95,2.05ZM444.08,531.08h90v-90h-90v90Z"/><path class="cls-1" d="M970.79,330h-46l-7-7v-50.33l-211.13-212.67h-51.87l-7-7V7l7-7h73.94l4.97,2.07,242.06,243.83,2.03,4.93v72.17l-7,7Z"/><path class="cls-1" d="M845.79,330h-46l-7-7v-21.23l-116.77-116.77h-21.23l-7-7v-46l7-7h43.18l4.95,2.05,147.82,147.82,2.05,4.95v43.18l-7,7Z"/><path class="cls-1" d="M323,967.96h-73.94c-1.72-.72-3.25-1.35-4.97-2.07L2.03,722.06C1.33,720.35.7,718.84,0,717.13v-72.17c2.73-2.73,4.27-4.27,7-7h46c2.73,2.73,4.27,4.27,7,7v50.33l211.13,212.67h51.87l7,7v46l-7,7Z"/><path class="cls-1" d="M323,842.96h-43.18l-4.95-2.05-147.82-147.82-2.05-4.95v-43.18l7-7h46l7,7v21.23l116.77,116.77h21.23l7,7v46l-7,7Z"/></g></svg>