<?xml version="1.0" encoding="UTF-8"?><svg id="Layer_2" xmlns="http://www.w3.org/2000/svg" viewBox="0 0 660 860.64"><defs><style>.cls-1{fill:#101114;}</style></defs><g id="DESIGN"><path class="cls-1" d="M657.95,361.53l-73.47-73.47c-1.72-.71-3.23-1.34-4.95-2.05h-89.53v-151.64l89.58-92.45c-.06-3.87-.1-6.03-.16-9.9L546.38,0c-3.87.06-6.03.1-9.9.16l-106.49,109.91v175.94h-71.61V7.85l-7-7h-46c-2.73,2.73-4.27,4.27-7,7v278.15h-68.39V110.06L123.51.16c-3.87-.06-6.03-.1-9.9-.16l-33.04,32.01c-.06,3.87-.1,6.03-.16,9.9l89.58,92.45v151.64h-89.53c-1.72.71-3.23,1.34-4.95,2.05L2.05,361.53c-.71,1.72-1.34,3.23-2.05,4.95v299.05c.71,1.72,1.34,3.23,2.05,4.95l73.47,73.47c1.72.71,3.23,1.34,4.95,2.05h89.53s0,107.63,0,107.63l7,7h46c2.73-2.73,4.27-4.27,7-7v-107.64h68.39v107.64l7,7h46c2.73-2.73,4.27-4.27,7-7v-107.64h71.61v107.64c2.73,2.73,4.27,4.27,7,7h46l7-7v-107.64h89.53c1.72-.71,3.23-1.34,4.95-2.05l73.47-73.47c.71-1.72,1.34-3.23,2.05-4.95v-299.05c-.71-1.72-1.34-3.23-2.05-4.95ZM600,643.58l-42.43,42.43H102.43l-42.43-42.43v-27.57h540v27.57ZM600,556H60v-80h540v80ZM600,416H60v-27.57l42.43-42.43h455.15l42.43,42.43v27.57Z"/></g></svg>