<?xml version="1.0" encoding="UTF-8"?><svg id="Layer_2" xmlns="http://www.w3.org/2000/svg" viewBox="0 0 660.16 950.92"><defs><style>.cls-1{fill:#101114;}</style></defs><g id="DESIGN"><path class="cls-1" d="M657.57,490.75l-24.83-20.13-70.81-45.87-106.4-45.58-95.44-14.02v-51.55l176.82.02c1.72-.71,3.24-1.34,4.95-2.05l51.17-51.17,2.05-4.95v-65.45h4.53l4.95-2.05,53.47-53.47c.71-1.72,1.34-3.23,2.05-4.95V60.47l-2.05-4.95-53.47-53.47c-1.72-.71-3.23-1.34-4.95-2.05h-69.05c-1.72.71-3.23,1.34-4.95,2.05l-53.47,53.47c-.71,1.72-1.34,3.23-2.05,4.95v69.05l2.05,4.95,53.47,53.47,4.95,2.05h4.53v43.5l-20.12,20.12-154.87-.02v-63.6h4.52l4.95-2.05,53.47-53.47c.71-1.72,1.34-3.23,2.05-4.95V60.47c-.71-1.72-1.34-3.23-2.05-4.95L369.57,2.05c-1.72-.71-3.23-1.34-4.95-2.05h-69.05c-1.72.71-3.23,1.34-4.95,2.05l-53.47,53.47c-.71,1.72-1.34,3.23-2.05,4.95v69.05l2.05,4.95,53.47,53.47,4.95,2.05h4.53v63.6l-154.88-.02-20.12-20.12v-43.46h4.53l4.95-2.05,53.47-53.47c.71-1.72,1.34-3.23,2.05-4.95V60.47l-2.05-4.95L134.57,2.05c-1.72-.71-3.23-1.34-4.95-2.05H60.56c-1.72.71-3.23,1.34-4.95,2.05L2.14,55.52.09,60.47v69.05c.71,1.72,1.34,3.23,2.05,4.95l53.47,53.47c1.72.71,3.23,1.34,4.95,2.05h4.53v65.41c.71,1.72,1.34,3.23,2.05,4.95l51.17,51.17c1.71.71,3.23,1.34,4.95,2.05l176.84.02v50.14l-102.39,18.14-101.85,45.19-68.67,44.27-24.28,19.19c-.93,1.91-1.73,3.54-2.66,5.45l-.26,40.88.19.15v250.99l-.17,26.37c.91,1.92,1.68,3.56,2.59,5.48l24.83,20.13,70.81,45.87,106.4,45.58,132.64,19.48,125.19-22.18,101.85-45.19,68.67-44.27,24.28-19.19c.93-1.91,1.73-3.54,2.66-5.45l.17-26.46v-260.02s-.13,0-.13,0l.2-31.91c-.91-1.92-1.68-3.56-2.59-5.48ZM530.09,82.43l22.43-22.43h25.15l22.43,22.43v25.15l-22.43,22.43h-25.15l-22.43-22.43v-25.15ZM295.09,82.43l22.43-22.43h25.15l22.43,22.43v25.15l-22.43,22.43h-25.15l-22.43-22.43v-25.15ZM60.09,82.43l22.43-22.43h25.15l22.43,22.43v25.15l-22.43,22.43h-25.15l-22.43-22.43v-25.15ZM60.19,580.31l38.06,24.66,106.4,45.58,132.64,19.48,125.19-22.18,101.85-45.19,35.77-23.06v67.84l-2.05,1.62-62.32,40.18-90.91,40.33-108.43,19.21-115.29-16.93-94.51-40.49-63.84-41.35-2.55-2.07v-67.63ZM124.46,480.02l90.91-40.33,84.73-15.02v87.39l7,7h46l7-7v-86.26l78.99,11.6,94.51,40.49,56.62,36.68-54.5,35.14-90.91,40.33-108.43,19.21-115.29-16.93-94.51-40.49-56.62-36.68,54.5-35.14ZM600.09,788.8l-2.04,1.61-62.32,40.18-90.91,40.33-108.43,19.21-115.29-16.93-94.51-40.49-63.84-41.35-2.56-2.08v-1s0-68.44,0-68.44l38.06,24.66,106.4,45.58,132.64,19.48,125.19-22.18,101.85-45.19,35.77-23.06v69.67Z"/></g></svg>