<?xml version="1.0" encoding="UTF-8"?><svg id="Layer_2" xmlns="http://www.w3.org/2000/svg" viewBox="0 0 839.83 839.83"><defs><style>.cls-1{fill:#101114;}</style></defs><g id="DESIGN"><path class="cls-1" d="M276.73,233.33l-43.47,43.47-2.05,4.95v276.47l2.05,4.95,43.47,43.47,4.95,2.05h276.47c1.72-.71,3.23-1.34,4.95-2.05l43.47-43.47c.71-1.72,1.34-3.23,2.05-4.95v-276.47l-2.05-4.95-43.47-43.47c-1.72-.71-3.23-1.34-4.95-2.05h-276.47c-1.72.71-3.23,1.34-4.95,2.05ZM548.62,536.27l-12.43,12.43h-232.56l-12.43-12.43v-232.56l12.43-12.43h232.56l12.43,12.43v232.56Z"/><path class="cls-1" d="M839.83,291.84v-46l-7-7h-82.91v-68.38c-.71-1.72-1.34-3.23-2.05-4.95l-73.47-73.47c-1.72-.71-3.23-1.34-4.95-2.05h-68.46V7l-7-7h-46l-7,7v82.99h-40.71V7l-7-7h-46l-7,7v82.99h-40.71V7l-7-7h-46l-7,7v82.99h-40.71V7l-7-7h-46l-7,7v82.99h-68.46l-4.95,2.05-73.47,73.47-2.05,4.95v68.38H7l-7,7v46l7,7h82.91v40.71H7l-7,7v46l7,7h82.91v40.71H7l-7,7v46l7,7h82.91v40.71H7l-7,7v46l7,7h82.91v68.54l2.05,4.95,73.47,73.47,4.95,2.05h68.46v82.83l7,7h46l7-7v-82.83h40.71v82.83l7,7h46l7-7v-82.83h40.71v82.83l7,7h46l7-7v-82.83h40.71v82.83l7,7h46l7-7v-82.83h68.46c1.72-.71,3.23-1.34,4.95-2.05l73.47-73.47c.71-1.72,1.34-3.23,2.05-4.95v-68.54h82.91l7-7v-46l-7-7h-82.91v-40.71h82.91l7-7v-46l-7-7h-82.91v-40.71h82.91l7-7v-46l-7-7h-82.91v-40.71h82.91l7-7ZM689.91,647.56l-42.43,42.43H192.34l-42.43-42.43V192.42l42.43-42.43h455.15l42.43,42.43v455.15Z"/></g></svg>