<?xml version="1.0" encoding="UTF-8"?><svg id="Layer_2" xmlns="http://www.w3.org/2000/svg" viewBox="0 0 640 583.3"><defs><style>.cls-1{fill:#101114;}</style></defs><g id="DESIGN"><path class="cls-1" d="M195.14,583.3l-1.27-.53-50.66-50.66-.53-1.27v-190.84H42.46l-1.27-.53L.53,298.81l-.53-1.27V42.46l.53-1.27L41.19.53l1.27-.53h555.07l1.27.53,40.66,40.66.53,1.27v255.08l-.53,1.27-40.66,40.66-1.27.53h-100.22v190.84l-.53,1.27-50.66,50.66-1.27.53h-249.71ZM400.89,543.3h28.15l28.28-28.29V190h-56.43v353.3ZM182.68,515.02l28.29,28.28h149.92V190h-178.21v325.01ZM497.32,300h84.4l18.29-18.28V58.29l-18.28-18.29H58.28l-18.28,18.29v223.43l18.29,18.28h84.4v-110h-27.52l-1.14-1.14v-37.72l1.14-1.14h409.67l1.14,1.14v37.72l-1.14,1.14h-27.52v110Z"/></g></svg>