<?xml version="1.0" encoding="UTF-8"?><svg id="Layer_2" xmlns="http://www.w3.org/2000/svg" viewBox="0 0 890 851.67"><defs><style>.cls-1{fill:#101114;}</style></defs><g id="DESIGN"><polygon class="cls-1" points="624.45 630.33 609.52 615.39 279.91 615.39 265.02 630.29 265.54 851.58 225.54 851.67 224.98 614.51 225.51 613.23 262.82 575.92 264.09 575.39 625.34 575.39 626.62 575.92 663.89 613.19 664.42 614.46 664.98 851.58 624.98 851.67 624.45 630.33"/><path class="cls-1" d="M445,495.01c-66.09,0-119.86-53.77-119.86-119.86s53.77-119.86,119.86-119.86,119.86,53.77,119.86,119.86-53.77,119.86-119.86,119.86ZM445,295.3c-44.03,0-79.86,35.82-79.86,79.86s35.82,79.86,79.86,79.86,79.86-35.82,79.86-79.86-35.82-79.86-79.86-79.86Z"/><path class="cls-1" d="M141.43,465.01c-38.24,0-74.07-15.02-100.88-42.3C13.75,395.44-.64,359.34.02,321.07c.65-37.02,15.61-71.83,42.14-98.02,26.52-26.18,61.52-40.7,98.55-40.89h.91c10.1,0,20.2,1.08,30.03,3.23l10.69,2.33,1.36-10.86C196.33,76.03,282.55,0,384.26,0c62.56,0,120.52,28.17,159.01,77.3l5.38,6.87,7.53-4.39c21.64-12.63,45.51-19.03,70.95-19.03,35.92,0,70.15,13.48,96.41,37.96,22.39,20.87,37.14,47.72,42.66,77.66l1.25,6.78,6.78,1.24c29.96,5.49,56.85,20.23,77.76,42.63,24.78,26.56,38.28,61.2,38.01,97.55-.58,77.38-64.75,140.34-143.04,140.34h-90.81l-1.14-1.14v-37.71l1.14-1.14h91.2c56.49,0,102.55-45.41,102.66-101.22.05-25.85-9.63-50.5-27.25-69.38-17.49-18.74-41.15-30.1-66.6-31.97l-6.73-.5-1.17-.53-18.95-18.93-.53-1.16-.5-6.73c-1.9-25.44-13.27-49.07-32-66.53-18.83-17.55-43.38-27.21-69.14-27.21-22.91,0-44.52,7.45-62.49,21.54l-6.38,5-1.4.35-30.46-5.31-1.19-.79-4.32-6.75c-30-46.83-81.07-74.79-136.62-74.79-89.4,0-162.14,72.73-162.14,162.14l.02,9.92-.75,1.4-30.11,20.21-1.59.15-9.1-3.82c-12.39-5.2-25.58-7.84-39.19-7.84h-.49c-54.68.27-99.94,44.96-100.9,99.61-.48,27.4,9.8,53.25,28.95,72.79,18.96,19.35,45.82,30.45,73.68,30.45h91.21l1.14,1.14v37.71l-1.14,1.14h-92.43Z"/></g></svg>