<?xml version="1.0" encoding="UTF-8"?><svg id="Layer_2" xmlns="http://www.w3.org/2000/svg" viewBox="0 0 802.92 696.17"><defs><style>.cls-1{fill:#101114;}</style></defs><g id="DESIGN"><path class="cls-1" d="M201.44,696.17l-1.42-.82L0,348.9v-1.64L200.02.82l1.42-.82h400.04l1.42.82,200.02,346.44v1.64l-200.02,346.44-1.42.82H201.44ZM45.71,348.08l177.87,308.08h355.74l177.87-308.08L579.33,40H223.59L45.71,348.08Z"/><path class="cls-1" d="M307.85,511.85l-1.42-.82-93.61-162.13v-1.64l93.61-162.13,1.42-.82h187.21l1.42.82,93.61,162.13v1.64l-93.61,162.13-1.42.82h-187.21ZM258.54,348.08l71.46,123.77h142.92l71.46-123.77-71.46-123.77h-142.92l-71.46,123.77Z"/></g></svg>