<?xml version="1.0" encoding="UTF-8"?><svg id="Layer_2" xmlns="http://www.w3.org/2000/svg" viewBox="0 0 819.83 819.83"><defs><style>.cls-1{fill:#101114;}</style></defs><g id="DESIGN"><path class="cls-1" d="M273.67,588.7l-1.27-.53-40.66-40.66-.53-1.28v-272.49l.53-1.28,40.66-40.66,1.27-.53h272.49l1.27.53,40.66,40.66.53,1.28v272.49l-.53,1.28-40.66,40.66-1.27.53h-272.49ZM271.2,289.57v240.85l18.28,18.28h240.85l18.28-18.28v-240.85l-18.28-18.29h-240.85l-18.28,18.29Z"/><path class="cls-1" d="M542.12,819.83l-1.14-1.14v-88.69h-60.71v88.69l-1.14,1.14h-37.72l-1.14-1.14v-88.69h-60.71v88.69l-1.14,1.14h-37.72l-1.14-1.14v-88.69h-60.71v88.69l-1.14,1.14h-37.72l-1.14-1.14v-88.69h-76.47l-1.27-.53-70.66-70.66-.53-1.28v-76.55H1.14l-1.14-1.14v-37.72l1.14-1.14h88.77v-60.71H1.14l-1.14-1.14v-37.71l1.14-1.14h88.77v-60.71H1.14l-1.14-1.14v-37.71l1.14-1.14h88.77v-60.71H1.14l-1.14-1.14v-37.71l1.14-1.14h88.77v-76.39l.53-1.28,70.66-70.66,1.27-.53h76.47V1.14l1.14-1.14h37.72l1.14,1.14v88.85h60.71V1.14l1.14-1.14h37.72l1.14,1.14v88.85h60.71V1.14l1.14-1.14h37.72l1.14,1.14v88.85h60.71V1.14l1.14-1.14h37.72l1.14,1.14v88.85h76.47l1.27.53,70.66,70.66.53,1.27v76.39h88.77l1.14,1.14v37.72l-1.14,1.14h-88.77v60.71h88.77l1.14,1.14v37.72l-1.14,1.14h-88.77v60.71h88.77l1.14,1.14v37.71l-1.14,1.14h-88.77v60.71h88.77l1.14,1.14v37.72l-1.14,1.14h-88.77v76.55l-.53,1.28-70.66,70.66-1.27.53h-76.47v88.69l-1.14,1.14h-37.72ZM129.91,178.28v463.43l48.28,48.28h463.43l48.28-48.28V178.28l-48.28-48.29H178.2l-48.28,48.29Z"/></g></svg>