<?xml version="1.0" encoding="UTF-8"?><svg id="Layer_2" xmlns="http://www.w3.org/2000/svg" viewBox="0 0 650 856.03"><defs><style>.cls-1{fill:#101114;}</style></defs><g id="DESIGN"><path class="cls-1" d="M289.88,239.72c-66.09,0-119.86-53.77-119.86-119.86S223.79,0,289.88,0s119.86,53.77,119.86,119.86-53.77,119.86-119.86,119.86ZM289.88,40c-44.03,0-79.86,35.82-79.86,79.86s35.82,79.86,79.86,79.86,79.86-35.82,79.86-79.86-35.82-79.86-79.86-79.86Z"/><path class="cls-1" d="M122.35,532.32l-1.27-.53-50.66-50.66-.53-1.27v-135.08l.53-1.27,50.66-50.66,1.27-.53h335.08l1.27.53,50.66,50.66.53,1.27v135.08l-.53,1.27-50.66,50.66-1.27.53H122.35ZM109.88,360.61v103.43l28.28,28.28h303.43l28.28-28.28v-103.43l-28.28-28.28H138.17l-28.28,28.28Z"/><path class="cls-1" d="M43.54,856.03l-1.35-.63L.43,805.08l-.43-1.18v-151.15l.43-1.18,41.77-50.31,1.35-.63h280.15l1.35.63,5.47,6.59c6.17,7.43,11.05,13.05,16.22,19,5.11,5.88,10.39,11.96,16.8,19.68l4.19,5.04.43,1.18v27.58l190.22-126.79h47.96l1.38.69,41.93,55.61.38,1.12v40.46l-.65,1.36-243.81,194.7-23.92,8.55H43.54ZM40,666.53v123.6l21.5,25.9h313.18l11.11-3.97,224.21-179.05v-9.28l-22.76-30.18h-16.77l-216.27,144.16h-140.38l-1.14-1.14v-37.72l1.14-1.14h114.33v-31.13l-2.39-2.8c-3.11-3.65-6.02-7-9.02-10.46l-.19-.22c-2.5-2.88-5.05-5.81-7.75-8.96l-2.99-3.49H61.5l-21.5,25.9Z"/></g></svg>