<?xml version="1.0" encoding="UTF-8"?><svg id="Layer_2" xmlns="http://www.w3.org/2000/svg" viewBox="0 0 948.33 890.3"><defs><style>.cls-1{fill:#101114;}</style></defs><g id="DESIGN"><path class="cls-1" d="M465.65,743.74l-122.65-28.83-23.38-16.92-95.79-156.6-3.29-32.35,86.66-240.38h32.63l36.6,58.64,85.37-148.74h26.91l83.32,148.53,36.47-58.43h32.64l18.61,51.62,68.05,188.77-3.29,32.35-63.01,103-17.76,29.03-15.03,24.57-23.38,16.92-122.65,28.83h-17.04ZM258.33,513.39l.42,4.84,1.13,11.02,21.93,35.85,65.57,107.2,11.34,8.21,85.01,19.97h60.87l85-19.97,11.34-8.21,87.52-143.06,1.58-15.68-1.61-4.32-68.23-189.27-33.72,54.06h-30.66l-44.93-80.11-35.85-63.89-82.65,144h-30.54l-33.73-54.06-21.68,60.17-46.53,129.06-1.58,4.2Z"/><path class="cls-1" d="M117.18,890.3l-1.14-1.14v-172.92H1.14l-1.14-1.14v-191.78l1.14-1.14h114.9v-154.06H1.14l-1.14-1.14v-191.78l1.14-1.14h114.9V1.14l1.14-1.14h713.97l1.14,1.14v172.92h114.9l1.14,1.14v191.78l-1.14,1.14h-114.9v154.06h114.9l1.14,1.14v191.78l-1.14,1.14h-114.9v172.92l-1.14,1.14H117.18ZM600.21,870.3h212.08v-154.06h-122.38l26.34-43.06v23.06h212.08v-154.06h-139.18l2.03-20h21.11v-154.06h-67.09l-7.21-20h190.34v-154.06h-212.08v93.77l-20-55.48v-38.29h-132.51l-11.48-20h27.95V20h-212.09v154.06h27.95l-11.48,20h-132.51v38.29l-20,55.48v-93.77H20v154.06h190.34l-7.21,20h-67.09v154.06h21.11l2.04,20H20v154.06h212.08v-23.06l26.34,43.06h-122.38v154.06h212.08v-91.73l20,4.7v87.03h212.09v-87.03l20-4.7v91.73ZM600.21,174.06h212.08V20h-212.08v154.06ZM136.04,174.06h212.08V20h-212.08v154.06Z"/></g></svg>