<?xml version="1.0" encoding="UTF-8"?><svg id="Layer_2" xmlns="http://www.w3.org/2000/svg" viewBox="0 0 846.88 850.6"><defs><style>.cls-1{fill:#101114;}</style></defs><g id="DESIGN"><polygon class="cls-1" points="103.31 512.85 154.99 461.17 283.7 461.17 243.7 501.17 171.56 501.17 143.35 529.38 143.53 601.35 103.63 641.25 103.31 512.85"/><polygon class="cls-1" points="288.28 660.59 328.28 620.59 518.6 620.59 558.6 660.59 288.28 660.59"/><polygon class="cls-1" points="702.68 600.68 702.5 529.42 674.25 501.17 603.17 501.17 563.17 461.17 690.82 461.17 742.46 512.81 742.78 640.78 702.68 600.68"/><path class="cls-1" d="M309,207l-45.13-45.13h4.94l2.76-5.55c13.87-27.94,35.15-51.56,61.55-68.3,27.11-17.19,58.45-26.28,90.64-26.28s63.53,9.09,90.64,26.28c26.4,16.74,47.68,40.36,61.55,68.3l2.76,5.55h4.45l-44.74,45.13h-229.42ZM423.75,101.74c-36.9,0-72.19,15.85-96.84,43.47l-14.86,16.66h223.41l-14.86-16.66c-24.65-27.63-59.95-43.47-96.84-43.47Z"/><polygon class="cls-1" points="481.49 393.67 484 391.15 846.88 28.29 818.59 0 655.08 163.5 453.22 365.36 423.44 395.16 28.28 0 0 28.28 361.01 389.29 372.44 400.72 395.15 423.43 365.36 453.23 360.34 458.24 200.92 617.66 100.88 717.71 0 818.59 28.28 846.87 371.06 504.1 393.65 481.5 423.44 451.72 818.59 846.87 846.88 818.59 451.71 423.43 481.49 393.67"/><polygon class="cls-1" points="743.3 847.13 743.3 842.73 663.64 763.06 661.06 763.06 186.38 763.06 183.81 763.06 104.14 842.73 104.15 847.13 104.14 850.5 104.16 850.5 104.16 850.6 124.15 850.55 144.14 850.6 144.14 850.5 144.16 850.5 144.15 847.62 144.25 805.19 144.04 805.4 144.04 804.83 145.81 802.89 145.97 802.89 145.81 803.06 146.38 803.06 701.06 803.06 701.64 803.06 701.48 802.89 701.64 802.89 703.4 804.83 703.4 805.4 703.19 805.19 703.3 847.62 703.29 850.5 703.3 850.5 703.3 850.6 723.3 850.55 743.29 850.6 743.29 850.5 743.3 850.5 743.3 847.13"/></g></svg>