<?xml version="1.0" encoding="UTF-8"?><svg id="Layer_2" xmlns="http://www.w3.org/2000/svg" viewBox="0 0 639.99 808.83"><defs><style>.cls-1{fill:#101114;}</style></defs><g id="DESIGN"><path class="cls-1" d="M599.83,741.32H40.69l.16,67.42-40,.09-.85-356.97.53-1.28,50.62-50.62,1.27-.53h534.34l1.27.53,50.58,50.59.53,1.27.85,356.92-40,.09-.16-67.51ZM40.59,701.32h559.15l-.24-102.47H40.35l.24,102.47ZM40.04,467.64l.22,91.21h559.15l-.22-91.17-28.25-28.25H68.25l-28.21,28.21Z"/><path class="cls-1" d="M320.02,339.57c-93.62,0-169.79-76.17-169.79-169.79,0-6.13.34-12.38,1.02-18.57l1.21-11.09h-46.41l-1.14-1.14v-37.71l1.14-1.14h59.02l2.76-5.55c13.87-27.94,35.15-51.56,61.55-68.3C256.49,9.09,287.83,0,320.02,0s63.53,9.09,90.64,26.28c26.4,16.74,47.68,40.36,61.55,68.3l2.76,5.55h58.17l1.14,1.14v37.71l-1.14,1.14h-45.56l1.21,11.09c.68,6.19,1.02,12.44,1.02,18.57,0,93.62-76.17,169.79-169.79,169.79ZM191.99,148.5c-1.17,7.03-1.76,14.19-1.76,21.29,0,71.56,58.22,129.79,129.79,129.79s129.79-58.22,129.79-129.79c0-7.1-.59-14.26-1.76-21.29l-1.39-8.36h-253.29l-1.39,8.36ZM320.02,40c-36.9,0-72.19,15.85-96.84,43.47l-14.86,16.66h223.41l-14.86-16.66c-24.65-27.63-59.95-43.47-96.84-43.47Z"/></g></svg>