<?xml version="1.0" encoding="UTF-8"?><svg id="Layer_2" xmlns="http://www.w3.org/2000/svg" viewBox="0 0 640.12 930.79"><defs><style>.cls-1{fill:#101114;}</style></defs><g id="DESIGN"><path class="cls-1" d="M197.36,911.73l-104.41-44.73-69.65-45.12-22.64-18.36-.64-1.36.15-24.1v-255.83s-.16-.13-.16-.13l.22-33.79.66-1.35,22.11-17.48,67.61-43.59,100.02-44.38,109.45-19.39v-68.52l-184.85-.02-1.27-.53-48.36-48.35-.53-1.28v-73.42h-12.54l-1.27-.53L.59,118.81l-.53-1.28V52.46l.53-1.27L51.25.53l1.27-.53h65.08l1.27.53,50.66,50.66.53,1.27v65.08l-.53,1.28-50.66,50.66-1.27.53h-12.54v57.6l25.98,25.98,169.02.02v-83.6h-12.54l-1.27-.53-50.66-50.66-.53-1.28V52.46l.53-1.27L286.25.53l1.27-.53h65.08l1.27.53,50.66,50.66.53,1.27v65.08l-.53,1.28-50.66,50.66-1.27.53h-12.53v83.6l169.01.02,25.98-25.98v-57.64h-12.54l-1.27-.53-50.66-50.66-.53-1.28V52.46l.53-1.27L521.25.53l1.27-.53h65.08l1.27.53,50.66,50.66.53,1.27v65.08l-.53,1.28-50.66,50.66-1.27.53h-12.54v73.46l-.53,1.28-48.36,48.36-1.27.53-184.83-.02v70.19l102.7,15.08,104.41,44.73,69.65,45.12,22.64,18.36.64,1.36-.25,39.7h.2v250.02s-.15,24.12-.15,24.12l-.66,1.35-22.11,17.48-67.61,43.59-100.02,44.38-122.39,21.69-129.75-19.06ZM40.16,778.28l-.04,5.75,6.71,5.44,65,42.1,96.49,41.34,118.18,17.36,111.22-19.71,92.73-41.14,63.38-40.86,6.18-4.89.04-5.72v-87.16s-50.54,32.58-50.54,32.58l-100.02,44.38-122.39,21.69-129.75-19.06-104.42-44.73-52.79-34.19v86.83ZM40.16,642.71l6.67,5.41,65,42.1,96.49,41.34,118.18,17.36,111.22-19.71,92.73-41.14,63.38-40.86,6.22-4.92v-91.03l-50.54,32.58-100.02,44.38-122.39,21.69-129.75-19.06-104.41-44.73-52.78-34.19v90.78ZM202.39,420.05l-92.73,41.14-68.16,43.94,70.33,45.55,96.49,41.34,118.18,17.36,111.22-19.71,92.73-41.14,68.16-43.94-70.33-45.55-96.49-41.34-91.73-13.47v93.7l-1.14,1.14h-37.72l-1.14-1.14v-95.18l-97.67,17.31ZM510.06,68.28v33.43l28.28,28.28h33.43l28.28-28.28v-33.43l-28.28-28.28h-33.43l-28.28,28.28ZM275.06,68.28v33.43l28.28,28.28h33.43l28.28-28.28v-33.43l-28.28-28.28h-33.43l-28.28,28.28ZM40.06,68.28v33.43l28.28,28.28h33.43l28.28-28.28v-33.43l-28.28-28.28h-33.43l-28.28,28.28Z"/></g></svg>