<?xml version="1.0" encoding="UTF-8"?><svg id="Layer_2" xmlns="http://www.w3.org/2000/svg" viewBox="0 0 650 704.79"><defs><style>.cls-1{fill:#101114;}</style></defs><g id="DESIGN"><path class="cls-1" d="M43.55,704.79l-1.35-.63L.43,653.84l-.43-1.18v-151.15l.43-1.18,41.77-50.31,1.35-.63h280.15s1.35.63,1.35.63l5.47,6.59c6.11,7.37,11.01,13,16.19,18.96,5.14,5.92,10.42,12,16.83,19.72l4.18,5.04.43,1.18v27.58l189.74-126.47,1.05-.32h47.38l1.38.69,41.93,55.61.38,1.12v40.46l-.65,1.36-243.81,194.7-23.92,8.55H43.55ZM40,515.29v123.6l21.5,25.9h313.17l11.11-3.97,224.21-179.05v-9.28l-22.76-30.18h-16.77l-216.27,144.15h-141.52v-40h115.47v-31.13l-2.39-2.8c-3.18-3.73-6.15-7.15-9.22-10.69l-.1-.11c-2.47-2.84-4.98-5.73-7.65-8.84l-2.99-3.49H61.5s-21.5,25.9-21.5,25.9Z"/><polygon class="cls-1" points="207.69 327.63 206.56 327.25 156.65 289.31 155.97 287.93 155.97 225.54 124.75 225.54 123.6 224.4 123.6 186.68 124.75 185.54 155.97 185.54 155.97 142.09 124.75 142.09 123.6 140.95 123.6 103.24 124.75 102.09 155.97 102.09 155.97 39.7 156.65 38.33 206.56 .38 207.69 0 438.89 0 440.03 1.14 440.03 38.86 438.89 40 220.54 40 195.97 58.68 195.97 102.09 380.55 102.09 381.7 103.24 381.7 140.95 380.55 142.09 195.97 142.09 195.97 185.54 380.55 185.54 381.7 186.68 381.7 224.4 380.55 225.54 195.97 225.54 195.97 268.95 220.54 287.63 438.89 287.63 440.03 288.78 440.03 326.49 438.89 327.63 207.69 327.63"/></g></svg>