<?xml version="1.0" encoding="UTF-8"?><svg id="Layer_2" xmlns="http://www.w3.org/2000/svg" viewBox="0 0 640.16 979.01"><defs><style>.cls-1{fill:#101114;}</style></defs><g id="DESIGN"><path class="cls-1" d="M298.79,979.01l-1.14-1.14v-184.23l-59.95-8.7v114.24h-108.01l-1.14-1.14v-37.71l1.14-1.14h68.01v-79.97l-104.65-44.3-69.65-44.58-22.73-18.21-.65-1.37.15-23.98v-255.75s-.18-.12-.18-.12l.26-33.33.76-1.4,23.44-15.32,67.5-35.99,105.73-38.79v-134.49h-68.01l-1.14-1.14v-37.72l1.14-1.14h108.01v169.98l60.05-8.8V1.14l1.14-1.14h37.72l1.14,1.14v252.36l59.95,7.28V91.57h108.01l1.14,1.14v37.72l-1.14,1.14h-68.01v133.08l108.17,38.32,69.53,37.24,24.02,16.1.75,1.41-.33,42.19h.25v246.95s-.16,24-.16,24l-.67,1.36-22.2,17.34-67.6,43.07-100,43.84-11.76,2.06v80.62h68.01l1.14,1.14v37.71l-1.14,1.14h-108.01v-113.61l-60.05,10.52v181.8l-1.14,1.14h-37.72ZM40.18,646.99l-.04,5.49,6.62,5.3,65.01,41.61,96.52,40.86,112.19,16.28h11.07l106.26-18.61,92.76-40.67,63.38-40.38,6.09-4.76.04-5.46v-85.67s-51.83,27.63-51.83,27.63l-99.62,36.54-121.51,17.8-128.81-15.64-103.96-36.83-54.17-29.01v85.51ZM40.18,515.38l5.26,3.53,65.12,34.88,96.95,34.34,119.12,14.47,112.11-16.43,93.14-34.17,68.21-36.36v-100.45l-51.88,27.66-99.62,36.54-121.51,17.8-128.81-15.64-103.96-36.83-54.12-28.99v99.63ZM108.34,341.45l-61.22,32.64,63.4,33.96,96.95,34.34,119.12,14.47,112.11-16.43,93.14-34.17,61.22-32.64-63.4-33.96-91.95-32.57v71.68l-1.14,1.14h-37.72l-1.14-1.14v-77.7l-59.95-7.28v84.98l-1.14,1.14h-37.72l-1.14-1.14v-85.6l-60.05,8.8v76.8l-1.14,1.14h-37.72l-1.14-1.14v-70.1l-89.36,32.78Z"/></g></svg>