<?xml version="1.0" encoding="UTF-8"?><svg id="Layer_2" xmlns="http://www.w3.org/2000/svg" viewBox="0 0 590 865"><defs><style>.cls-1{fill:#101114;}</style></defs><g id="DESIGN"><path class="cls-1" d="M49.13,865l-1.27-.53L.53,817.15l-.53-1.27V49.13l.53-1.27L47.85.53l1.27-.53h491.74l1.27.53,47.33,47.33.53,1.27v766.74l-.53,1.27-47.33,47.33-1.27.53H49.13ZM406.67,825h118.38l24.95-24.95v-72.55h-143.33v97.5ZM223.33,825h143.33v-97.5h-143.33v97.5ZM40,800.05l24.95,24.95h118.38v-97.5H40v72.55ZM40,64.95v622.55h510V64.95l-24.95-24.95h-148.38v34.89l-1.14,1.14h-161.05l-1.14-1.14v-34.89H64.95l-24.95,24.95Z"/><path class="cls-1" d="M167.96,615.73l-1.27-.53-44.95-44.95-.53-1.27V198.95l.53-1.27,44.95-44.94,1.27-.53h246.5l1.27.53,44.95,44.95.53,1.27v370.02l-.53,1.28-44.95,44.95-1.27.53h-246.5ZM161.21,214.78v338.38l22.57,22.57h214.86l22.57-22.57V214.78l-22.57-22.57h-214.86l-22.57,22.57Z"/></g></svg>