<?xml version="1.0" encoding="UTF-8"?><svg id="Layer_2" xmlns="http://www.w3.org/2000/svg" viewBox="0 0 690 725.45"><defs><style>.cls-1{fill:#101114;}</style></defs><g id="DESIGN"><path class="cls-1" d="M155.26,725.45l-1.14-1.14v-37.71l1.14-1.14h168.86v-157.95H52.46l-1.27-.53L.53,476.31l-.53-1.27V52.46l.53-1.27L51.19.53l1.27-.53h585.08l1.27.53,50.66,50.66.53,1.27v422.58l-.53,1.27-50.66,50.66-1.27.53h-273.42v157.95h168.86l1.14,1.14v37.71l-1.14,1.14H155.26ZM40,68.28v390.93l28.29,28.28h553.43l28.29-28.28V68.28l-28.29-28.28H68.29l-28.29,28.28Z"/><rect class="cls-1" x="150.31" y="330" width="40" height="80"/><rect class="cls-1" x="324.12" y="230" width="40" height="180"/><rect class="cls-1" x="497.92" y="137.58" width="40" height="272.42"/></g></svg>