<?xml version="1.0" encoding="UTF-8"?><svg id="Layer_2" xmlns="http://www.w3.org/2000/svg" viewBox="0 0 690 725.45"><defs><style>.cls-1{fill:#101114;}</style></defs><g id="DESIGN"><polygon class="cls-1" points="263.2 427.57 262.07 427.19 212.17 389.24 211.49 387.87 211.49 325.47 180.26 325.47 179.12 324.33 179.12 286.62 180.26 285.47 211.48 285.47 211.48 242.03 180.26 242.03 179.12 240.88 179.12 203.17 180.26 202.03 211.48 202.03 211.48 139.63 212.17 138.26 262.07 100.31 263.2 99.93 494.4 99.93 495.54 101.08 495.54 138.79 494.4 139.93 276.05 139.93 251.48 158.61 251.48 202.03 436.07 202.03 437.21 203.17 437.21 240.88 436.07 242.03 251.48 242.03 251.48 285.47 436.07 285.47 437.21 286.62 437.21 324.33 436.07 325.47 251.49 325.47 251.49 368.89 276.05 387.57 494.4 387.57 495.54 388.71 495.54 426.42 494.4 427.57 263.2 427.57"/><path class="cls-1" d="M155.26,725.45l-1.14-1.14v-37.71l1.14-1.14h168.86v-157.95H52.46l-1.27-.53L.53,476.31l-.53-1.28V52.46l.53-1.27L51.19.53l1.28-.53h585.08l1.27.53,50.66,50.66.53,1.27v422.57l-.53,1.27-50.66,50.66-1.27.53h-273.42v157.95h168.86l1.14,1.14v37.71l-1.14,1.14H155.26ZM40,68.28v390.93l28.29,28.28h553.43l28.29-28.28V68.28l-28.29-28.28H68.29l-28.29,28.28Z"/></g></svg>