<?xml version="1.0" encoding="UTF-8"?><svg id="Layer_2" xmlns="http://www.w3.org/2000/svg" viewBox="0 0 640 800"><defs><style>.cls-1{fill:#101114;}</style></defs><g id="DESIGN"><path class="cls-1" d="M121.21,800l-1.14-1.14v-140.68H44.62l-1.26-.51L.54,616.1l-.54-1.29V43.36l.54-1.29L43.36.51l1.26-.51h550.75l1.26.51,42.82,41.56.54,1.29v571.46l-.54,1.29-42.82,41.56-1.26.51h-210.25l-183.16,141.43-1.14.39h-79.61ZM160.07,760h27.74l183.66-141.82h208.41l20.11-19.52V59.52l-20.11-19.52H60.11l-20.11,19.52v539.14l20.11,19.52h99.96v141.82Z"/><polygon class="cls-1" points="245.87 489.63 244.74 489.25 194.83 451.3 194.15 449.93 194.15 387.53 162.93 387.53 161.79 386.39 161.79 348.68 162.93 347.53 194.15 347.53 194.15 304.09 162.93 304.09 161.79 302.95 161.79 265.23 162.93 264.09 194.15 264.09 194.15 201.69 194.83 200.32 244.74 162.38 245.87 161.99 477.07 161.99 478.21 163.14 478.21 200.85 477.07 201.99 258.72 201.99 234.15 220.67 234.15 264.09 418.74 264.09 419.88 265.23 419.88 302.94 418.74 304.09 234.15 304.09 234.15 347.53 418.74 347.53 419.88 348.68 419.88 386.39 418.74 387.53 234.15 387.53 234.15 430.95 258.72 449.63 477.07 449.63 478.21 450.77 478.21 488.49 477.07 489.63 245.87 489.63"/></g></svg>