<?xml version="1.0" encoding="UTF-8"?><svg id="Layer_2" xmlns="http://www.w3.org/2000/svg" viewBox="0 0 840.03 898.13"><defs><style>.cls-1{fill:#101114;}</style></defs><g id="DESIGN"><path class="cls-1" d="M603.59,870.51l-54.93-35.3-35.9-34.88-12.37-15.04-.42-1.18.08-18.05v-281.86l-.08-.1.11-25.36.43-1.18,12.14-14.4,34.79-33.64,52.45-34.91,66.29-17.62,70.23,15.47,54.93,35.3,35.9,34.88,12.37,15.04.42,1.18-.14,32.25h.11v275s-.08,18.11-.08,18.11l-.43,1.18-12.14,14.4-34.79,33.64-52.45,34.91-66.29,17.62-70.23-15.47ZM540.05,771.07l33.62,32.66,45.53,29.26,53.74,11.84,50.52-13.43,43.92-29.23,32.61-31.54.02-4.66v-85.67l-59.87,39.84-66.29,17.62-70.23-15.47-63.57-40.85v89.63ZM540.05,622.83l33.64,32.68,45.53,29.26,53.74,11.84,50.51-13.43,43.92-29.23,32.61-31.53v-94.58l-59.89,39.86-66.29,17.62-70.23-15.47-63.54-40.83v93.81ZM616.55,411.58l-43.92,29.23-31.6,30.56,32.63,31.7,45.53,29.26,53.74,11.84,50.52-13.43,43.92-29.23,31.6-30.56-32.63-31.7-45.53-29.26-53.74-11.84-50.52,13.43Z"/><path class="cls-1" d="M52.46,549.89l-1.27-.53L.53,498.71l-.53-1.28V52.46l.53-1.27L51.19.53l1.27-.53h235.08l1.27.53,50.66,50.66.53,1.27v444.97l-.53,1.28-50.66,50.66-1.27.53H52.46ZM40,68.28v413.32l28.28,28.28h203.43l28.28-28.29V68.29l-28.28-28.29H68.28l-28.28,28.28Z"/><polygon class="cls-1" points="95.72 294.95 94.58 293.8 94.58 256.09 95.72 254.95 246.27 254.95 247.41 256.09 247.41 293.8 246.27 294.95 95.72 294.95"/><polygon class="cls-1" points="95.72 169.79 94.58 168.65 94.58 130.94 95.72 129.79 246.27 129.79 247.41 130.94 247.41 168.65 246.27 169.79 95.72 169.79"/><polygon class="cls-1" points="95.72 420.1 94.58 418.96 94.58 381.24 95.72 380.1 246.27 380.1 247.41 381.24 247.41 418.96 246.27 420.1 95.72 420.1"/><polygon class="cls-1" points="303.48 898.13 276.81 871.46 276.81 869.85 323.63 823.02 204.24 823.02 202.97 822.5 152.31 771.84 151.78 770.56 151.78 614.25 152.92 613.11 190.64 613.11 191.78 614.25 191.78 754.74 220.06 783.02 323.63 783.02 276.81 736.2 276.81 734.59 303.48 707.92 305.09 707.92 399.39 802.22 399.39 803.83 305.09 898.13 303.48 898.13"/><polygon class="cls-1" points="647.69 293.08 646.55 291.94 646.55 151.45 618.27 123.17 514.7 123.17 561.52 169.99 561.52 171.6 534.85 198.27 533.24 198.27 438.94 103.97 438.94 102.36 533.24 8.06 534.85 8.06 561.52 34.73 561.52 36.34 514.7 83.17 634.09 83.17 635.36 83.69 686.02 134.35 686.55 135.63 686.55 291.94 685.41 293.08 647.69 293.08"/></g></svg>