<svg width="958" height="948" viewBox="0 0 958 948" fill="none" xmlns="http://www.w3.org/2000/svg">
<path d="M624.08 676.08H334.08C312.6 654.6 300.56 642.56 279.08 621.08V331.08C300.56 309.6 312.6 297.56 334.08 276.08H624.08C645.56 297.56 657.6 309.6 679.08 331.08V621.08C657.6 642.56 645.56 654.6 624.08 676.08Z" stroke="#101114" stroke-width="40" stroke-miterlimit="10"/>
<path d="M544.08 551.08H414.08L404.08 541.08V411.08L414.08 401.08H544.08L554.08 411.08V541.08L544.08 551.08Z" stroke="#101114" stroke-width="40" stroke-miterlimit="10"/>
<path d="M637.79 20H709.15L937.79 250.31V320" stroke="#101114" stroke-width="40" stroke-miterlimit="10"/>
<path d="M637.79 145H678.44L812.79 279.35V320" stroke="#101114" stroke-width="40" stroke-miterlimit="10"/>
<path d="M320 927.96H248.64L20 697.65V627.96" stroke="#101114" stroke-width="40" stroke-miterlimit="10"/>
<path d="M320 802.96H279.35L145 668.61V627.96" stroke="#101114" stroke-width="40" stroke-miterlimit="10"/>
</svg>
