<?xml version="1.0" encoding="UTF-8"?><svg id="Layer_2" xmlns="http://www.w3.org/2000/svg" viewBox="0 0 640 843.93"><defs><style>.cls-1{fill:#101114;}</style></defs><g id="DESIGN"><path class="cls-1" d="M52.46,843.93l-1.27-.53L.53,792.75l-.53-1.27V212.46l.53-1.27L211.19.53l1.27-.53h375.08l1.27.53,50.66,50.66.53,1.27v739.01l-.53,1.27-50.66,50.66-1.27.53H52.46ZM40,775.65l28.29,28.28h503.43l28.28-28.29V68.29l-28.28-28.29H240v198.86l-1.14,1.14H40v535.65ZM68.28,200h131.72V68.29L68.28,200Z"/><polygon class="cls-1" points="261.42 603.71 260.03 602.98 188.62 500.36 188.91 498.77 219.87 477.23 221.46 477.52 281.43 563.71 323.38 563.71 456.05 373.57 457.64 373.29 488.57 394.87 488.86 396.46 344.75 602.98 343.35 603.71 261.42 603.71"/></g></svg>