<?xml version="1.0" encoding="UTF-8"?><svg id="Layer_2" xmlns="http://www.w3.org/2000/svg" viewBox="0 0 798.91 667.32"><defs><style>.cls-1{fill:#101114;}</style></defs><g id="DESIGN"><path class="cls-1" d="M342.88,667.32l-1.19-.44-242.71-206.15L0,145.62l.28-1.55,57.85-74.97.97-.66L302.32,0h194.28l243.22,68.44.97.66,57.85,74.97.28,1.55-98.97,315.12-242.72,206.15-1.19.44h-113.16ZM82.08,103.53l-37.93,49.16,89.52,285.04,223.22,189.59h85.12l223.22-189.59,89.52-285.04-37.93-49.16-225.76-63.53h-183.24l-225.76,63.53Z"/><polygon class="cls-1" points="246.62 310.81 246.62 309.19 273.29 282.52 274.9 282.52 396.53 404.15 573.86 194.63 575.47 194.5 604.26 218.86 604.39 220.47 399.71 462.31 398.18 462.37 246.62 310.81"/></g></svg>