<?xml version="1.0" encoding="UTF-8"?><svg id="Layer_2" xmlns="http://www.w3.org/2000/svg" viewBox="0 0 798.91 667.32"><defs><style>.cls-1{fill:#101114;}</style></defs><g id="DESIGN"><path class="cls-1" d="M342.88,667.32l-1.19-.44-242.71-206.15L0,145.62l.28-1.55,57.85-74.97.97-.66L302.32,0h194.28l243.22,68.44.97.66,57.85,74.97.28,1.55-98.97,315.12-242.71,206.15-1.19.44h-113.16ZM82.08,103.53l-37.93,49.16,89.52,285.04,223.22,189.59h105.38l-195.86-196.44v-1.11l197.66-98.74-195.96-173.9v-1.3l163.99-115.83h-124.25l-225.76,63.53ZM333.18,441.2l150.39,150.83,181.67-154.3,89.52-285.04-37.93-49.16-218.37-61.45-166.87,117.92,202.53,179.79v.97l-200.95,100.44Z"/></g></svg>