<svg width="890" height="829" viewBox="0 0 890 829" fill="none" xmlns="http://www.w3.org/2000/svg">
<path d="M245.069 394.32L254.719 382.88L298.379 340.65L362.629 297.89L440.499 277.19L523.139 295.4L590.109 338.44L634.989 382.05L644.989 394.21C644.959 400.49 644.949 403.35 644.919 409.63L635.269 421.07L591.609 463.3L527.359 506.06L449.489 526.76L366.849 508.55L299.879 465.51L254.999 421.9L244.999 409.74C245.029 403.46 245.039 400.6 245.069 394.32Z" stroke="#101114" stroke-width="40" stroke-miterlimit="10"/>
<path d="M245.069 415.25V675.2C245.039 681.48 245.029 684.34 244.999 690.62L254.999 702.78L299.879 746.39L366.849 789.43L449.489 807.64L527.359 786.94L591.609 744.18L635.269 701.95L644.919 690.51C644.949 684.23 644.959 681.37 644.989 675.09V415.26" stroke="#101114" stroke-width="40" stroke-miterlimit="10"/>
<path d="M644.929 549.15L635.279 560.6L591.619 602.82L527.369 645.58L449.499 666.28L366.849 648.08L299.879 605.04L254.999 561.43L244.999 549.27" stroke="#101114" stroke-width="40" stroke-miterlimit="10"/>
<path d="M179.269 445.01H141.429C73.6487 445.01 18.8387 389.47 20.0187 321.42C21.1587 255.74 75.1187 202.49 140.809 202.16C157.669 202.08 173.729 205.42 188.339 211.56C194.269 207.58 196.189 206.29 202.129 202.31C202.129 202.25 202.129 202.2 202.129 202.14C202.129 101.55 283.679 20 384.269 20C448.719 20 505.359 53.48 537.729 104C543.529 105.01 546.509 105.53 552.299 106.54C572.919 90.37 598.899 80.74 627.129 80.74C691.109 80.74 743.529 130.21 748.209 193C751.789 196.58 754.029 198.81 757.609 202.39C820.439 207.01 869.999 259.46 869.999 323.48C869.999 387.5 815.629 444.91 748.569 444.91H705.329" stroke="#101114" stroke-width="40" stroke-miterlimit="10"/>
</svg>
