<?xml version="1.0" encoding="UTF-8"?><svg id="Layer_2" xmlns="http://www.w3.org/2000/svg" viewBox="0 0 639.76 844"><defs><style>.cls-1{fill:#101114;}</style></defs><g id="DESIGN"><path class="cls-1" d="M209.91,579.85c-60.08,0-91.67-17.24-119.54-32.44-24.16-13.19-47.03-25.66-90.07-27.36l-.31-.32V213.52l.36-.68L318.42,0h.74s320.23,212.83,320.23,212.83l.36.67v365.97l-.21.21c-53.51-1.82-83.13-17.97-109.33-32.27-25.97-14.17-50.5-27.56-100.38-27.56s-74.41,13.38-100.38,27.56c-27.87,15.21-59.46,32.44-119.54,32.44ZM39.73,234.46v249.85l7.63,1.86c25.93,6.33,44.36,16.39,62.18,26.11,25.97,14.17,50.5,27.56,100.38,27.56s74.41-13.39,100.38-27.56c27.87-15.21,59.46-32.44,119.54-32.44s91.67,17.24,119.54,32.44c11.99,6.54,23.31,12.72,36.96,17.65l13.39,4.83V234.51L318.86,47.83,39.73,234.46Z"/><path class="cls-1" d="M209.91,711.92c-60.08,0-91.67-17.24-119.54-32.44-24.01-13.1-46.72-25.5-89.2-27.32l-1.17-1.2v-37.73l1.13-1.1c52.93,1.96,82.36,18.03,108.41,32.24,25.97,14.17,50.5,27.56,100.38,27.56s74.41-13.39,100.38-27.56c27.87-15.21,59.46-32.44,119.54-32.44s91.67,17.24,119.54,32.44c24.01,13.1,46.73,25.5,89.21,27.33l1.17,1.2v37.73l-1.13,1.1c-52.93-1.96-82.36-18.03-108.41-32.24-25.97-14.17-50.5-27.56-100.38-27.56s-74.41,13.38-100.38,27.56c-27.87,15.21-59.46,32.44-119.54,32.44Z"/><path class="cls-1" d="M209.91,844c-60.08,0-91.67-17.24-119.54-32.44-24.01-13.1-46.72-25.5-89.2-27.32l-1.17-1.2v-37.73l1.13-1.1c52.93,1.96,82.36,18.03,108.41,32.24,25.97,14.17,50.5,27.56,100.38,27.56s74.41-13.39,100.38-27.56c27.87-15.21,59.46-32.44,119.54-32.44s91.67,17.24,119.54,32.44c24.01,13.1,46.73,25.5,89.21,27.33l1.17,1.2v37.73l-1.13,1.1c-52.93-1.96-82.36-18.03-108.41-32.24-25.97-14.17-50.5-27.56-100.38-27.56s-74.41,13.38-100.38,27.56c-27.87,15.21-59.46,32.44-119.54,32.44Z"/></g></svg>