<?xml version="1.0" encoding="UTF-8"?><svg id="Layer_2" xmlns="http://www.w3.org/2000/svg" viewBox="0 0 640 840.58"><defs><style>.cls-1{fill:#101114;}</style></defs><g id="DESIGN"><path class="cls-1" d="M431.14,840.58l-1.14-1.14v-113.49h-91.61v113.49l-1.14,1.14h-37.72l-1.14-1.14v-113.49h-88.39s0,113.49,0,113.49l-1.14,1.14h-37.72l-1.14-1.14v-113.49h-97.54s-1.27-.52-1.27-.52L.53,654.75l-.53-1.27v-295.08l.53-1.27,70.66-70.66,1.27-.53h97.54V120.25L80.48,27.86l.03-1.61L107.6,0l1.62.03,100.78,104.02v181.89h88.39V1.93l1.14-1.14h37.72l1.14,1.14v284.01h91.61V104.05L530.78.03l1.62-.03,27.09,26.25.03,1.61-89.51,92.39v165.69h97.54l1.27.53,70.66,70.66.53,1.27v295.08l-.53,1.28-70.66,70.66-1.27.53h-97.54v113.49l-1.14,1.14h-37.72ZM40,637.66l48.28,48.28h463.43l48.28-48.28v-41.72H40v41.72ZM40,555.94h560v-100H40v100ZM40,374.22v41.71h560v-41.71l-48.28-48.28H88.28l-48.28,48.28Z"/></g></svg>