<svg width="640" height="835" viewBox="0 0 640 835" fill="none" xmlns="http://www.w3.org/2000/svg">
<path d="M560 715.15H80C56.57 691.72 43.43 678.58 20 655.15V375.15C43.43 351.72 56.57 338.58 80 315.15H560C583.43 338.58 596.57 351.72 620 375.15V655.15C596.57 678.58 583.43 691.72 560 715.15Z" stroke="#101114" stroke-width="40" stroke-miterlimit="10"/>
<path d="M187.29 715.15V834.2" stroke="#101114" stroke-width="40" stroke-miterlimit="10"/>
<path d="M320 715.15V834.2" stroke="#101114" stroke-width="40" stroke-miterlimit="10"/>
<path d="M452.71 715.15V834.2" stroke="#101114" stroke-width="40" stroke-miterlimit="10"/>
<path d="M320 0V315.15" stroke="#101114" stroke-width="40" stroke-miterlimit="10"/>
<path d="M190.57 315.15V121.36L87.6699 15.1499" stroke="#101114" stroke-width="40" stroke-miterlimit="10"/>
<path d="M449.43 315.15V121.36L552.33 15.1499" stroke="#101114" stroke-width="40" stroke-miterlimit="10"/>
<path d="M20 445.15H620" stroke="#101114" stroke-width="40" stroke-miterlimit="10"/>
<path d="M20 585.15H620" stroke="#101114" stroke-width="40" stroke-miterlimit="10"/>
</svg>
