<?xml version="1.0" encoding="UTF-8"?><svg id="Layer_2" xmlns="http://www.w3.org/2000/svg" viewBox="0 0 640 745.78"><defs><style>.cls-1{fill:#101114;}</style></defs><g id="DESIGN"><path class="cls-1" d="M52.46,745.78l-1.27-.53L.53,694.59l-.53-1.28V158.24l.53-1.27,50.66-50.66,1.27-.53h247.54V40h-54.57l-1.14-1.14V1.14l1.14-1.14h149.14l1.14,1.14v37.72l-1.14,1.14h-54.57v65.78h247.54l1.27.53,50.66,50.66.53,1.27v535.08l-.53,1.27-50.66,50.66-1.27.53H52.46ZM40,174.07v503.43l28.29,28.28h503.43l28.28-28.28V174.07l-28.28-28.29H68.28l-28.28,28.29Z"/><polygon class="cls-1" points="301.14 481.07 300 479.93 300 262.55 301.14 261.41 338.86 261.41 340 262.55 340 441.07 493.02 441.07 494.16 442.21 494.16 479.93 493.01 481.07 301.14 481.07"/></g></svg>