<svg width="890" height="832" viewBox="0 0 890 832" fill="none" xmlns="http://www.w3.org/2000/svg">
<path d="M244.999 444.98C158.529 445 162.969 445.01 141.429 445.01C73.6487 445.01 18.8387 389.47 20.0187 321.42C21.1587 255.74 75.1187 202.49 140.809 202.16C157.669 202.08 173.729 205.42 188.339 211.56C194.269 207.58 196.189 206.29 202.129 202.31C202.129 202.25 202.129 202.2 202.129 202.14C202.129 101.55 283.679 20 384.269 20C448.719 20 505.359 53.48 537.729 104C543.529 105.01 546.509 105.53 552.299 106.54C572.919 90.37 598.899 80.74 627.129 80.74C691.109 80.74 743.529 130.21 748.209 193C751.789 196.58 754.029 198.81 757.609 202.39C820.439 207.01 869.999 259.46 869.999 323.48C869.999 387.5 815.629 444.91 748.569 444.91C727.269 444.91 706.979 444.92 629.229 444.94" stroke="#101114" stroke-width="40" stroke-miterlimit="10"/>
<path d="M245.569 831.63L244.999 592.03C255.399 581.63 261.229 575.8 271.629 565.4H617.799C628.199 575.8 634.029 581.63 644.429 592.03L644.999 831.63" stroke="#101114" stroke-width="40" stroke-miterlimit="10"/>
<path d="M444.999 445.01C500.15 445.01 544.859 400.301 544.859 345.15C544.859 289.999 500.15 245.29 444.999 245.29C389.848 245.29 345.139 289.999 345.139 345.15C345.139 400.301 389.848 445.01 444.999 445.01Z" stroke="#101114" stroke-width="40" stroke-miterlimit="10"/>
</svg>
