<?xml version="1.0" encoding="UTF-8"?><svg id="Layer_2" xmlns="http://www.w3.org/2000/svg" viewBox="0 0 890 828.21"><defs><style>.cls-1{fill:#101114;}</style></defs><g id="DESIGN"><path class="cls-1" d="M359.05,808.19l-71.67-46.06-47.12-45.79-14.87-18.08-.42-1.18.09-21.88v-258.22l-.1-.12.12-29.22.43-1.18,14.55-17.26,45.7-44.2,68.52-45.6,85.76-22.8,90.89,20.02,71.67,46.06,47.12,45.79,14.87,18.08.42,1.18-.16,37.51h.13v249.96l-.09,21.96-.43,1.18-14.55,17.26-45.7,44.2-68.52,45.6-85.76,22.8-90.89-20.02ZM265.07,675.33l-.03,8.16,4.71,5.73,42.64,41.43,62.27,40.02,74.4,16.39,69.98-18.6,59.99-39.92,41.62-40.25,4.32-5.12.03-8.1v-76.69l-20.78,20.1-68.52,45.6-85.76,22.8-90.89-20.02-71.67-46.06-22.32-21.69v76.24ZM265.07,542.18l4.67,5.68,42.65,41.44,62.27,40.02,74.4,16.39,69.98-18.6,59.99-39.92,41.62-40.25,4.35-5.16v-82.93l-20.78,20.1-68.52,45.6-85.76,22.8-90.89-20.02-71.67-46.06-22.32-21.69v82.61ZM370.96,316.37l-59.99,39.92-47.51,45.95,48.92,47.53,62.27,40.02,74.4,16.39,69.98-18.6,59.99-39.92,47.51-45.95-48.92-47.53-62.27-40.02-74.4-16.39-69.98,18.6Z"/><path class="cls-1" d="M141.43,465.01c-38.24,0-74.07-15.02-100.88-42.3C13.75,395.44-.64,359.34.02,321.07c.65-37.02,15.61-71.83,42.14-98.02,26.52-26.18,61.52-40.7,98.55-40.89h.91c10.1,0,20.2,1.08,30.03,3.23l10.69,2.33,1.36-10.86C196.33,76.03,282.55,0,384.26,0c62.56,0,120.52,28.17,159.01,77.3l5.38,6.86,7.53-4.39c21.64-12.63,45.51-19.03,70.94-19.03,35.91,0,70.15,13.48,96.41,37.96,22.39,20.87,37.14,47.72,42.66,77.66l1.25,6.78,6.78,1.24c29.96,5.49,56.85,20.23,77.76,42.63,24.78,26.56,38.28,61.2,38.01,97.55-.58,77.38-64.75,140.34-143.04,140.34h-30.47l-1.14-1.14v-37.71l1.14-1.14h30.86c56.49,0,102.55-45.41,102.66-101.22.05-25.85-9.63-50.5-27.25-69.38-17.49-18.74-41.14-30.1-66.6-31.97l-6.73-.5-1.17-.53-18.95-18.93-.53-1.16-.5-6.73c-1.9-25.44-13.26-49.06-32-66.53-18.83-17.55-43.38-27.21-69.14-27.21-22.91,0-44.52,7.45-62.49,21.54l-6.38,5-1.4.35-30.46-5.31-1.19-.79-4.32-6.75c-30-46.83-81.07-74.78-136.62-74.78-89.4,0-162.14,72.73-162.14,162.14l.02,9.92-.75,1.4-30.11,20.21-1.59.15-9.1-3.82c-12.39-5.2-25.58-7.84-39.19-7.84h-.49c-54.68.27-99.94,44.96-100.9,99.61-.48,27.4,9.8,53.25,28.95,72.79,18.96,19.35,45.82,30.45,73.68,30.45h25.48l1.14,1.14v37.71l-1.14,1.14h-26.7Z"/></g></svg>