<?xml version="1.0" encoding="UTF-8"?><svg xmlns="http://www.w3.org/2000/svg" viewBox="0 0 1000 1000"><g id="DESIGN"><path d="M908.59,304.2l-60.33-78.19c-1.25-.84-2.4-1.62-3.65-2.46l-246.1-69.25h-197.04l-246.1,69.25c-1.25.84-2.4,1.62-3.65,2.46l-60.33,78.19c-.4,2.25-.73,4.12-1.14,6.37l100.57,320.21,246.27,209.17c1.56.57,2.97,1.09,4.53,1.66h116.71c1.56-.57,2.97-1.09,4.53-1.66l246.27-209.17,100.57-320.21c-.4-2.25-.73-4.12-1.14-6.37ZM242.89,596.27l-87.09-277.31,32.72-42.41,221.24-62.26h91.4l-142.16,100.45c-.25,4.5-.36,6.45-.61,10.95l188.52,167.3-188.83,94.42c-.77,4.71-1.06,6.49-1.83,11.2l182.46,183h-77.61l-218.22-185.34ZM757.11,596.27l-172.43,146.45-134.09-134.48,193.24-96.62c.65-4.91.87-6.58,1.52-11.5l-197.14-174.94,152.68-107.89,210.59,59.26,32.72,42.41-87.09,277.31Z" style="fill:#fff;"/></g></svg>