<?xml version="1.0" encoding="UTF-8"?><svg xmlns="http://www.w3.org/2000/svg" viewBox="0 0 1000 1000"><g id="DESIGN"><path d="M769.53,78.73h-379.05c-1.72.71-3.23,1.34-4.95,2.05l-213.47,213.47-2.05,4.95v582.99l2.05,4.95,53.47,53.47c1.72.71,3.23,1.34,4.95,2.05h539.05l4.95-2.05,53.47-53.47c.71-1.72,1.34-3.23,2.05-4.95V139.2l-2.05-4.95-53.47-53.47c-1.72-.71-3.23-1.34-4.95-2.05ZM370,181.16v97.57h-97.57l97.57-97.57ZM770,860.24l-22.43,22.43H252.43l-22.43-22.43V338.73h193l7-7v-193h317.57l22.43,22.43v699.08Z" style="fill:#fff;"/><path d="M525.8,702.44h-86.83c-2.03-1.06-3.72-1.94-5.75-3l-75.17-108.03c.68-3.81,1.07-5.94,1.75-9.74l37.76-26.27c3.81.68,5.94,1.07,9.74,1.75l59.36,85.3h31.5l132.06-189.25,9.75-1.73,37.72,26.32,1.73,9.75-147.88,211.92-5.74,2.99Z" style="fill:#fff;"/></g></svg>