<?xml version="1.0" encoding="UTF-8"?><svg xmlns="http://www.w3.org/2000/svg" viewBox="0 0 1000 1000"><g id="DESIGN"><path d="M702.7,858.08h-405.39c-2.17-1.25-3.9-2.25-6.06-3.5L88.54,503.5v-7s202.7-351.08,202.7-351.08c2.17-1.25,3.9-2.25,6.06-3.5h405.39c2.17,1.25,3.9,2.25,6.06,3.5l202.7,351.08v7s-202.7,351.08-202.7,351.08c-2.17,1.25-3.9,2.25-6.06,3.5ZM327.9,798.08h344.2l172.1-298.08-172.1-298.08h-344.2l-172.1,298.08,172.1,298.08Z" style="fill:#fff;"/><path d="M596.28,673.77h-192.57c-2.17-1.25-3.9-2.25-6.06-3.5l-96.28-166.77v-7s96.28-166.77,96.28-166.77c2.17-1.25,3.9-2.25,6.06-3.5h192.57c2.17,1.25,3.9,2.25,6.06,3.5l96.28,166.77v7s-96.28,166.77-96.28,166.77c-2.17,1.25-3.9,2.25-6.06,3.5ZM434.32,613.77h131.37l65.69-113.77-65.69-113.77h-131.37l-65.68,113.77,65.69,113.77Z" style="fill:#fff;"/></g></svg>