<?xml version="1.0" encoding="UTF-8"?><svg xmlns="http://www.w3.org/2000/svg" viewBox="0 0 1000 1000"><g id="DESIGN"><path d="M795.41,170H206.35c-1.72.71-3.23,1.34-4.95,2.05l-53.47,53.47-2.05,4.95v426.55c.71,1.72,1.34,3.23,2.05,4.95l53.47,53.47c1.72.71,3.23,1.34,4.95,2.05h263.65v137.95h-163l-7,7v46l7,7h386l7-7v-46l-7-7h-163v-137.95h265.41c1.72-.71,3.23-1.34,4.95-2.05l53.47-53.47c.71-1.72,1.34-3.23,2.05-4.95V230.47l-2.05-4.95-53.47-53.47c-1.72-.71-3.23-1.34-4.95-2.05ZM795.88,635.07l-22.43,22.43H228.31l-22.43-22.43V252.43l22.43-22.43h545.15l22.43,22.43v382.65Z" style="fill:#fff;"/><rect x="296.19" y="500" width="60" height="100" style="fill:#fff;"/><rect x="470" y="400" width="60" height="200" style="fill:#fff;"/><rect x="643.81" y="307.58" width="60" height="292.42" style="fill:#fff;"/></g></svg>