<?xml version="1.0" encoding="UTF-8"?><svg id="DESIGN" xmlns="http://www.w3.org/2000/svg" viewBox="0 0 1000 1000"><defs><style>.cls-1{fill:none;stroke:#fff;stroke-miterlimit:10;stroke-width:60px;}</style></defs><polyline class="cls-1" points="427.32 483.88 391.97 507.78 301.17 526.11 210.38 507.78 136.24 457.79 86.25 383.65 67.92 292.86 86.25 202.07 136.24 127.92 210.38 77.94 300.86 59.68 391.65 78.01 465.79 127.99 515.78 202.13 534.11 292.93 515.78 383.72 486.85 426.62"/><polyline class="cls-1" points="431.91 618.31 391.97 645.32 301.17 663.65 210.38 645.32 136.24 595.33 86.25 521.19 67.92 430.4 67.92 292.86"/><line class="cls-1" x1="534.11" y1="292.93" x2="534.11" y2="430.47"/><polyline class="cls-1" points="431.91 758.36 391.97 785.37 301.17 803.7 210.38 785.37 136.24 735.39 86.25 661.24 67.92 570.45 67.92 432.91"/><path class="cls-1" d="M895.01,928.8h-416.27c-15.62-15.62-24.38-24.38-40-40v-416.27c15.62-15.62,24.38-24.38,40-40h416.27c15.62,15.62,24.38,24.38,40,40v416.27c-15.62,15.62-24.38,24.38-40,40Z"/><line class="cls-1" x1="686.87" y1="432.53" x2="686.87" y2="322.05"/><line class="cls-1" x1="615.97" y1="307.81" x2="757.77" y2="307.81"/><polyline class="cls-1" points="686.87 536.44 686.87 709.85 839.19 709.85"/><path class="cls-1" d="M202.03,375.73l24.18,19.34h154.44c7.55-7.55,11.79-11.79,19.34-19.34,0,0,0-63.52,0-63.52-7.55-7.55-11.79-11.79-19.34-19.34h-159.28c-7.55-7.55-11.79-11.79-19.34-19.34v-63.52c7.55-7.55,11.79-11.79,19.34-19.34h154.44l24.18,19.34"/><line class="cls-1" x1="301.02" y1="153.22" x2="301.02" y2="432.5"/></svg>