<?xml version="1.0" encoding="UTF-8"?>
<svg id="Layer_2" data-name="Layer 2" xmlns="http://www.w3.org/2000/svg" viewBox="0 0 55.57 55.57">
  <defs>
    <style>
      .cls-1 {
        fill: #ff00f3;
      }
    </style>
  </defs>
  <g id="Layer_1-2" data-name="Layer 1">
    <path class="cls-1" d="M54.24,23.53c.22,1.32.33,2.75.33,4.26,0,14.77-12.02,26.78-26.78,26.78S1,42.55,1,27.78c0-1.51.11-2.94.33-4.26h12.8v12.84c0,5.76,2.91,8.94,8.19,8.94h2.43c3.64,0,5.62-1.94,6.78-3.4l14.83-18.38h7.87M55.07,22.53h-9.18l-15.13,18.75c-1.39,1.74-3.13,3.03-6,3.03h-2.43c-4.76,0-7.19-2.78-7.19-7.94v-13.84H.5c-.35,1.69-.5,3.47-.5,5.26,0,15.33,12.45,27.78,27.78,27.78s27.78-12.45,27.78-27.78c0-1.79-.15-3.57-.5-5.26h0Z"/>
    <path class="cls-1" d="M27.78,1c9.08,0,17.52,4.63,22.44,12.19h-3.49c-4.46,0-5.99.8-9.12,4.74l-13.15,16.53v-15.51c0-4.15-1.6-5.76-5.71-5.76H5.35C10.26,5.63,18.71,1,27.78,1M27.78,0C17.41,0,8.34,5.71,3.57,14.19h15.18c3.52,0,4.71,1.14,4.71,4.76v15.88c0,.61.35.97.77.97.27,0,.56-.15.81-.48l13.35-16.77c3.03-3.82,4.27-4.37,8.34-4.37h5.26C47.23,5.71,38.15,0,27.78,0h0Z"/>
  </g>
</svg>