<?xml version="1.0" encoding="UTF-8"?>
<svg id="Layer_2" data-name="Layer 2" xmlns="http://www.w3.org/2000/svg" viewBox="0 0 245.64 43.41">
  <defs>
    <style>
      .cls-1 {
        fill: #ff00f3;
      }
    </style>
  </defs>
  <g id="Layer_1-2" data-name="Layer 1">
    <path class="cls-1" d="M177.47,1c2.97,0,3.12.15,3.12,3.12s-.15,3.12-3.12,3.12-3.12-.15-3.12-3.12.15-3.12,3.12-3.12M234.93,13.6c2.84,0,4.31.56,6.04,2.29l1.39,1.39c1.73,1.73,2.29,3.2,2.29,6.04v17.89l-.51.51h-4.03l-.51-.51v-4.08l-1.71,1.71-1.64,1.64c-1.21,1.21-2.23,1.59-4.2,1.59h-7.69c-1.98,0-3-.39-4.2-1.59l-.4-.4c-1.21-1.21-1.59-2.23-1.59-4.2v-3.27c0-1.98.39-3,1.59-4.2l.4-.4c1.21-1.21,2.23-1.59,4.2-1.59h15.24v-3.38c0-3.23-1.64-4.87-4.87-4.87h-6.9c-2.71,0-4.11,1.13-4.26,3.45l-.52.52h-3.89l-.5-.5c.08-2.42.89-3.69,2.23-5.04l.69-.69c1.73-1.73,3.2-2.29,6.04-2.29h7.29M227.38,38.21h8.04c2.73,0,4.18-1.44,4.18-4.18v-4.18h-12.21c-2.73,0-4.18,1.44-4.18,4.18s1.44,4.18,4.18,4.18M204.16,13.6c2.84,0,4.31.56,6.04,2.29l.69.69c1.45,1.45,2.2,2.72,2.24,5.53l-.5.5h-3.88l-.52-.52c-.13-2.62-1.49-3.85-4.26-3.85h-7.74c-3.23,0-4.87,1.64-4.87,4.87v9.43c0,3.23,1.64,4.87,4.87,4.87h7.74c2.77,0,4.14-1.23,4.26-3.85l.52-.52h3.88l.5.5c-.04,2.8-.82,4.11-2.24,5.53l-.69.69c-1.71,1.71-3.23,2.29-6.04,2.29h-8.24c-2.81,0-4.33-.58-6.04-2.29l-1.39-1.39c-1.73-1.73-2.29-3.2-2.29-6.04v-9.03c0-2.81.58-4.33,2.29-6.04l1.39-1.39c1.73-1.73,3.2-2.29,6.04-2.29h8.24M138.47,13.6c2.84,0,4.31.56,6.04,2.29l1.39,1.39c1.73,1.73,2.29,3.2,2.29,6.04v5.24l-.51.51h-22.12v3.58c0,3.23,1.64,4.87,4.87,4.87h8.24c2.71,0,4.11-1.13,4.26-3.45l.52-.52h3.88l.5.5c-.08,2.42-.89,3.69-2.23,5.04l-.69.69c-1.71,1.71-3.23,2.29-6.04,2.29h-8.63c-2.81,0-4.33-.58-6.04-2.29l-1.39-1.39c-1.73-1.73-2.29-3.2-2.29-6.04v-9.03c0-3.02,1.11-4.7,2.31-6.06l1.37-1.37c1.75-1.75,3.16-2.29,6.04-2.29h8.24M125.57,25.71h17.68v-2.89c0-3.23-1.64-4.87-4.87-4.87h-7.94c-3.23,0-4.87,1.64-4.87,4.87v2.89M51.95,13.6c2.88,0,4.29.53,6.04,2.29l1.39,1.39c1.75,1.75,2.29,3.16,2.29,6.04v5.24l-.51.51h-22.12v3.58c0,3.23,1.64,4.87,4.87,4.87h8.24c2.71,0,4.11-1.13,4.26-3.45l.52-.52h3.89l.5.5c-.08,2.42-.89,3.69-2.23,5.04l-.69.69c-1.71,1.71-3.23,2.29-6.04,2.29h-8.63c-2.81,0-4.33-.58-6.04-2.29l-1.39-1.39c-1.73-1.73-2.29-3.2-2.29-6.04v-9.03c0-3.02,1.11-4.7,2.31-6.06l1.37-1.37c1.75-1.75,3.16-2.29,6.04-2.29h8.24M39.04,25.71h17.68v-2.89c0-3.23-1.64-4.87-4.87-4.87h-7.94c-3.23,0-4.87,1.64-4.87,4.87v2.89M179.49,13.95l.51.51v26.76l-.51.51h-4.03l-.51-.51V14.46l.51-.51h4.03M168.82,13.95l.51.51v3.84l-.51.51h-7.82c-1.15,0-1.89.74-1.89,1.89v20.52l-.51.51h-4.03l-.51-.51v-18.44c0-2.81.58-4.33,2.29-6.04l.5-.5c1.73-1.73,3.2-2.29,6.04-2.29h5.94M117.03,13.95l.22.3-8.89,23.96c-1.37,3.73-2.03,4.21-5.91,4.21s-4.54-.47-5.91-4.21l-8.89-23.95.22-.3h4.64l.65.54,7.69,21.59c.24.78.88,1.29,1.65,1.29s1.41-.5,1.65-1.29l7.69-21.59.65-.54h4.54M82.29,13.95l.51.51v3.84l-.51.51h-7.82c-1.15,0-1.89.74-1.89,1.89v20.52l-.51.51h-4.03l-.51-.51v-18.44c0-2.81.58-4.33,2.29-6.04l.5-.5c1.75-1.75,3.16-2.29,6.04-2.29h5.94M30.5,13.95l.22.3-8.89,23.96c-1.37,3.73-2.03,4.21-5.91,4.21s-4.54-.47-5.91-4.21L1.13,14.25l.22-.3h4.64l.65.54,7.69,21.59c.24.78.88,1.29,1.65,1.29s1.41-.5,1.65-1.29l7.69-21.59.65-.54h4.54M177.47,0c-3.52,0-4.12.6-4.12,4.12s.6,4.12,4.12,4.12,4.12-.6,4.12-4.12-.6-4.12-4.12-4.12h0ZM234.93,12.6h-7.29c-3.08,0-4.81.65-6.75,2.58l-.69.69c-1.69,1.69-2.53,3.32-2.53,6.15l1.09,1.09h4.71l1.09-1.09c0-1.98.89-2.88,3.27-2.88h6.9c2.68,0,3.87,1.19,3.87,3.87v2.38h-14.24c-2.23,0-3.52.5-4.91,1.89l-.4.4c-1.39,1.39-1.89,2.68-1.89,4.91v3.27c0,2.23.5,3.52,1.89,4.91l.4.4c1.39,1.39,2.68,1.89,4.91,1.89h7.69c2.23,0,3.52-.5,4.91-1.89l1.64-1.64v2.08l1.09,1.09h4.86l1.09-1.09v-18.31c0-3.08-.65-4.81-2.58-6.75l-1.39-1.39c-1.93-1.93-3.67-2.58-6.75-2.58h0ZM227.38,37.21c-2.18,0-3.18-.99-3.18-3.18s.99-3.18,3.18-3.18h11.21v3.18c0,2.18-.99,3.18-3.18,3.18h-8.04ZM204.16,12.6h-8.24c-3.08,0-4.81.65-6.75,2.58l-1.39,1.39c-1.89,1.89-2.58,3.67-2.58,6.75v9.03c0,3.08.65,4.81,2.58,6.75l1.39,1.39c1.89,1.89,3.67,2.58,6.75,2.58h8.24c3.08,0,4.86-.69,6.75-2.58l.69-.69c1.69-1.69,2.53-3.32,2.53-6.45v-.2l-1.09-1.09h-4.71l-1.09,1.09c0,2.38-.89,3.27-3.27,3.27h-7.74c-2.68,0-3.87-1.19-3.87-3.87v-9.43c0-2.68,1.19-3.87,3.87-3.87h7.74c2.38,0,3.27.89,3.27,3.27l1.09,1.09h4.71l1.09-1.09v-.2c0-3.13-.79-4.71-2.53-6.45l-.69-.69c-1.93-1.93-3.67-2.58-6.75-2.58h0ZM138.47,12.6h-8.24c-3.08,0-4.76.6-6.75,2.58l-1.39,1.39c-1.54,1.74-2.58,3.67-2.58,6.75v9.03c0,3.08.65,4.81,2.58,6.75l1.39,1.39c1.89,1.89,3.67,2.58,6.75,2.58h8.63c3.08,0,4.86-.69,6.75-2.58l.69-.69c1.69-1.69,2.53-3.32,2.53-6.15l-1.09-1.09h-4.71l-1.09,1.09c0,1.98-.89,2.88-3.27,2.88h-8.24c-2.68,0-3.87-1.19-3.87-3.87v-2.58h21.53l1.09-1.09v-5.66c0-3.08-.65-4.81-2.58-6.75l-1.39-1.39c-1.93-1.93-3.67-2.58-6.75-2.58h0ZM126.57,24.71v-1.89c0-2.68,1.19-3.87,3.87-3.87h7.94c2.68,0,3.87,1.19,3.87,3.87v1.89h-15.68ZM51.95,12.6h-8.24c-3.08,0-4.76.6-6.75,2.58l-1.39,1.39c-1.54,1.74-2.58,3.67-2.58,6.75v9.03c0,3.08.65,4.81,2.58,6.75l1.39,1.39c1.89,1.89,3.67,2.58,6.75,2.58h8.63c3.08,0,4.86-.69,6.75-2.58l.69-.69c1.69-1.69,2.53-3.32,2.53-6.15l-1.09-1.09h-4.71l-1.09,1.09c0,1.98-.89,2.88-3.27,2.88h-8.24c-2.68,0-3.87-1.19-3.87-3.87v-2.58h21.53l1.09-1.09v-5.66c0-3.08-.6-4.76-2.58-6.75l-1.39-1.39c-1.98-1.98-3.67-2.58-6.75-2.58h0ZM40.04,24.71v-1.89c0-2.68,1.19-3.87,3.87-3.87h7.94c2.68,0,3.87,1.19,3.87,3.87v1.89h-15.68ZM179.9,12.95h-4.86l-1.09,1.09v27.59l1.09,1.09h4.86l1.09-1.09V14.04l-1.09-1.09h0ZM169.24,12.95h-6.35c-3.08,0-4.81.65-6.75,2.58l-.5.5c-1.89,1.89-2.58,3.67-2.58,6.75v18.85l1.09,1.09h4.86l1.09-1.09v-20.94c0-.6.3-.89.89-.89h8.24l1.09-1.09v-4.66l-1.09-1.09h0ZM117.54,12.95h-5.41l-1.14.94-7.79,21.88c-.1.35-.35.6-.69.6s-.6-.25-.69-.6l-7.79-21.88-1.14-.94h-5.51l-.84,1.14,9.08,24.46c1.49,4.07,2.48,4.86,6.85,4.86s5.36-.79,6.85-4.86l9.08-24.46-.84-1.14h0ZM82.71,12.95h-6.35c-3.08,0-4.76.6-6.75,2.58l-.5.5c-1.89,1.89-2.58,3.67-2.58,6.75v18.85l1.09,1.09h4.86l1.09-1.09v-20.94c0-.6.3-.89.89-.89h8.24l1.09-1.09v-4.66l-1.09-1.09h0ZM31.01,12.95h-5.41l-1.14.94-7.79,21.88c-.1.35-.35.6-.69.6s-.6-.25-.69-.6L7.49,13.89l-1.14-.94H.84l-.84,1.14,9.08,24.46c1.49,4.07,2.48,4.86,6.85,4.86s5.36-.79,6.85-4.86l9.08-24.46-.84-1.14h0Z"/>
  </g>
</svg>