<?xml version="1.0" encoding="UTF-8"?>
<svg id="Layer_1" xmlns="http://www.w3.org/2000/svg" version="1.1" viewBox="0 0 198.3 24.2">
  <!-- Generator: Adobe Illustrator 30.3.0, SVG Export Plug-In . SVG Version: 2.1.3 Build 182)  -->
  <defs>
    <style>
      .st0 {
        fill: #ff00f3;
      }

      .st1 {
        fill: #fff;
      }
    </style>
  </defs>
  <path class="st1" d="M32.8,17.4l-4-10.7.4-.5h2.4l.5.4,3.4,9.5c0,.2.2.3.3.3s.3-.1.3-.3l3.4-9.5.5-.4h2.4l.4.5-4,10.7c-.6,1.8-1.1,2.1-3,2.1s-2.3-.3-3-2.1ZM45,18.2l-.6-.6c-.8-.8-1.1-1.6-1.1-2.9v-3.9c0-1.3.5-2.2,1.1-2.9l.6-.6c.9-.9,1.6-1.1,2.9-1.1h3.6c1.3,0,2.1.3,2.9,1.1l.6.6c.9.9,1.1,1.6,1.1,2.9v2.5l-.5.5h-9.4v1.1c0,1.2.5,1.7,1.7,1.7h3.6c1,0,1.4-.4,1.4-1.3l.5-.5h2.1l.5.5c0,1.2-.4,1.9-1.1,2.7l-.3.3c-.8.8-1.6,1.1-2.9,1.1h-3.8c-1.3,0-2.1-.3-2.9-1.1ZM53.2,11.3v-.8c0-1.2-.5-1.7-1.7-1.7h-3.5c-1.2,0-1.7.5-1.7,1.7v.8h6.8ZM57.9,18.7v-8.2c0-1.3.3-2.1,1.1-2.9l.2-.2c.9-.9,1.6-1.1,2.9-1.1h2.8l.5.5v2l-.5.5h-3.6c-.3,0-.4.1-.4.4v9.1l-.5.5h-2.1l-.5-.5ZM70.6,17.4l-4-10.7.4-.5h2.4l.5.4,3.4,9.5c0,.2.2.3.3.3s.3-.1.3-.3l3.4-9.5.5-.4h2.4l.4.5-4,10.7c-.6,1.8-1.1,2.1-3,2.1s-2.3-.3-3-2.1ZM82.7,18.2l-.6-.6c-.8-.8-1.1-1.6-1.1-2.9v-3.9c0-1.3.5-2.2,1.1-2.9l.6-.6c.9-.9,1.6-1.1,2.9-1.1h3.6c1.3,0,2.1.3,2.9,1.1l.6.6c.8.8,1.1,1.6,1.1,2.9v2.5l-.5.5h-9.4v1.1c0,1.2.5,1.7,1.7,1.7h3.6c1,0,1.4-.4,1.4-1.3l.5-.5h2.1l.5.5c0,1.2-.4,1.9-1.1,2.7l-.3.3c-.8.8-1.6,1.1-2.9,1.1h-3.8c-1.3,0-2.1-.3-2.9-1.1ZM90.9,11.3v-.8c0-1.2-.5-1.7-1.7-1.7h-3.5c-1.2,0-1.7.5-1.7,1.7v.8h6.8ZM95.6,18.7v-8.2c0-1.3.3-2.1,1.1-2.9l.2-.2c.8-.8,1.6-1.1,2.9-1.1h2.8l.5.5v2l-.5.5h-3.6c-.3,0-.4.1-.4.4v9.1l-.5.5h-2.1l-.5-.5ZM104.5,2.3c0-1.5.3-1.8,1.8-1.8s1.8.3,1.8,1.8-.3,1.8-1.8,1.8-1.8-.3-1.8-1.8ZM104.7,18.7V6.7l.5-.5h2.1l.5.5v12l-.5.5h-2.1l-.5-.5ZM111.4,18.2l-.6-.6c-.8-.8-1.1-1.6-1.1-2.9v-3.9c0-1.3.3-2.1,1.1-2.9l.6-.6c.8-.8,1.6-1.1,2.9-1.1h3.6c1.3,0,2.1.3,2.9,1.1l.3.3c.8.8,1.1,1.4,1.1,2.8h0c0,0-.5.6-.5.6h-2.1l-.5-.5c0-1-.4-1.4-1.4-1.4h-3.4c-1.2,0-1.7.5-1.7,1.7v4.1c0,1.2.5,1.7,1.7,1.7h3.4c1,0,1.4-.4,1.4-1.4l.5-.5h2.1l.5.5h0c0,1.4-.4,2.2-1.1,2.9l-.3.3c-.8.8-1.6,1.1-2.9,1.1h-3.6c-1.3,0-2.1-.3-2.9-1.1ZM132.9,18.7v-.9l-.7.7c-.6.6-1.2.8-2.1.8h-3.4c-1,0-1.5-.2-2.1-.8l-.2-.2c-.6-.6-.8-1.2-.8-2.1v-1.4c0-1,.2-1.5.8-2.1l.2-.2c.6-.6,1.2-.8,2.1-.8h6.2v-1c0-1.2-.5-1.7-1.7-1.7h-3c-1,0-1.4.4-1.4,1.3l-.5.5h-2.1l-.5-.5c0-1.2.4-1.9,1.1-2.7l.3-.3c.8-.8,1.6-1.1,2.9-1.1h3.2c1.3,0,2.1.3,2.9,1.1l.6.6c.8.8,1.1,1.6,1.1,2.9v8l-.5.5h-2.1l-.5-.5ZM128,16.8h3.5c1,0,1.4-.4,1.4-1.4v-1.4h-4.9c-1,0-1.4.4-1.4,1.4s.4,1.4,1.4,1.4Z"/>
  <path class="st0" d="M6.6,15.9c0,2.3,1.1,3.5,3.1,3.5h1.1c1.3,0,2-.6,2.6-1.3l6.6-8.2h4c.2.7.2,1.5.2,2.3,0,6.7-5.4,12.1-12.1,12.1S0,18.8,0,12.1c0-.8,0-1.6.2-2.3h6.4v6Z"/>
  <path class="st0" d="M12.1,0c4.5,0,8.5,2.5,10.6,6.2h-2.3c-1.8,0-2.3.2-3.6,1.9l-5.8,7.3c-.3.4-.7.2-.7-.2v-6.9c0-1.6-.5-2.1-2.1-2.1H1.6C3.6,2.5,7.6,0,12.1,0Z"/>
  <path class="st1" d="M141.7,19V6.2h4.1c1.5,0,2.6.3,3.3.8.7.6,1.1,1.4,1.1,2.6s-.1,1.1-.4,1.5c-.3.4-.6.8-1.1,1s-1,.4-1.6.4h0c1.1-.1,2,.2,2.6.7.7.6,1,1.3,1,2.2s-.4,2-1.1,2.6c-.7.6-1.8.9-3.1.9h-4.8ZM142.6,18.1h3.9c1.1,0,1.9-.2,2.4-.6.6-.4.8-1.1.8-2s-.3-1.4-.9-1.8c-.6-.5-1.4-.7-2.4-.7h-3.9v5.1ZM142.6,12.2h3.2c1.1,0,1.9-.2,2.5-.6.6-.4.9-1,.9-1.8s-.3-1.5-.9-1.9c-.6-.4-1.4-.6-2.6-.6h-3.2v5.1ZM153.3,19V6.2h4.5c.9,0,1.7.2,2.3.5.6.3,1.1.7,1.5,1.3.3.6.5,1.2.5,2s-.1,1.1-.4,1.6c-.3.5-.6.8-1.1,1.1-.5.3-1,.4-1.5.5v-.2c.8,0,1.5.2,2,.6.5.4.8,1,.8,1.8l.3,3.6h-.9l-.3-3.5c0-.7-.3-1.1-.7-1.5-.4-.3-1.1-.5-2-.5h-4.1v5.5h-.9ZM154.2,12.7h3.8c1,0,1.7-.2,2.3-.7.6-.5.9-1.2.9-2.1s-.3-1.6-.8-2.1c-.6-.5-1.4-.7-2.5-.7h-3.6v5.6ZM163.4,19l4.7-12.8h1.2l4.7,12.8h-1l-1.5-4h-5.7l-1.5,4h-1ZM166.1,14.1h5.1l-2.6-7.1-2.5,7.1ZM175.8,19V6.2h1.3l7.4,11.9V6.2h.9v12.8h-1.3l-7.3-11.8v11.8h-.9ZM188.6,19V6.2h3.7c1.9,0,3.4.6,4.4,1.7,1,1.1,1.5,2.7,1.5,4.7s-.5,3.6-1.5,4.7c-1,1.1-2.5,1.7-4.3,1.7h-3.9ZM189.5,18.1h2.8c1.6,0,2.9-.5,3.7-1.4.9-.9,1.3-2.3,1.3-4.1s-.4-3.2-1.3-4.1c-.9-.9-2.1-1.4-3.7-1.4h-2.8v11.1Z"/>
</svg>