<svg width="1947" height="873" viewBox="0 0 1947 873" fill="none" xmlns="http://www.w3.org/2000/svg">
<path d="M218.101 4.38672L321.326 107.612H341.991L445.217 4.38672C448.872 2.87591 452.138 1.5108 455.744 0H849.593L860.169 4.38672L963.395 107.612H984.06L1087.29 4.38672C1090.94 2.87588 1094.21 1.51084 1097.81 0H1490.49L1501.02 4.38672L1604.24 107.612H1624.91L1728.13 4.38672C1731.79 2.87588 1735.01 1.51084 1738.66 0H1946.28C1858.46 87.7763 1809.23 137.05 1721.46 224.826L1721.51 224.875V647.771C1721.5 647.781 1721.49 647.789 1721.48 647.795C1809.24 735.556 1858.47 784.828 1946.28 872.597H1738.66L1728.13 868.21L1624.91 764.984H1604.24C1572.71 796.517 1540.79 828.392 1501.02 868.21C1497.36 869.721 1494.15 871.086 1490.49 872.597H1097.81L1087.29 868.21L984.06 764.984H963.395L860.169 868.21C856.514 869.721 853.248 871.086 849.642 872.597H455.793L445.266 868.21L342.04 764.984H321.375L218.149 868.21C214.494 869.721 211.277 871.086 207.622 872.597H0L224.826 647.771C224.781 647.725 224.778 647.722 224.777 647.722V224.875C224.823 224.83 224.826 224.826 224.826 224.826L0 0H207.622L218.101 4.38672ZM438.54 224.826L438.589 224.875V647.771L438.54 647.819L642.312 851.591H663.025V851.542L866.797 647.771L866.748 647.722V224.875L866.797 224.826L663.025 21.0547H642.312L438.54 224.826ZM1080.56 224.826L1080.61 224.875V647.722L1080.56 647.771L1283.79 851.006H1304.51L1507.74 647.771C1507.7 647.728 1507.7 647.722 1507.7 647.722V224.875C1507.74 224.828 1507.74 224.826 1507.74 224.826L1304.51 21.5908H1283.79L1080.56 224.826Z" fill="#4C22FF"/>
</svg>
