<svg width="2649" height="1170" viewBox="0 0 2649 1170" fill="none" xmlns="http://www.w3.org/2000/svg">
<path d="M530.12 4H0C107.729 111.673 168.151 172.064 275.88 279.737V886.263C168.151 993.936 107.729 1054.33 0 1162H530.12C637.849 1054.33 698.271 993.936 806 886.263V279.737C698.271 172.064 637.849 111.673 530.12 4Z" fill="#4C22FF"/>
<path d="M1300.25 0H864C971.68 107.766 1032.07 168.209 1139.75 275.975V883.025C1032.07 990.791 971.68 1051.23 864 1159H1300.25C1407.93 1051.23 1468.32 990.791 1576 883.025V275.975C1468.32 168.209 1407.93 107.766 1300.25 0Z" fill="#4C22FF"/>
<path d="M1884.1 8H1635C1742.74 115.673 1803.16 176.064 1910.9 283.737V890.263C1803.16 997.936 1742.74 1058.33 1635 1166H1884.1C1991.84 1058.33 2052.26 997.936 2160 890.263V283.737C2052.26 176.064 1991.84 115.673 1884.1 8Z" fill="#4C22FF"/>
<path d="M2373.31 11H2218C2325.66 118.766 2386.04 179.209 2493.69 286.975V894.025C2386.04 1001.79 2325.66 1062.23 2218 1170H2373.31C2480.96 1062.23 2541.34 1001.79 2649 894.025V286.975C2541.34 179.209 2480.96 118.766 2373.31 11Z" fill="#4C22FF"/>
</svg>
