<svg width="5523" height="458" viewBox="0 0 5523 458" fill="none" xmlns="http://www.w3.org/2000/svg">
<path d="M405 0L358.94 122.7H333.25L215.25 436.92H0L109.8 144.57H180.33L219.11 41.39H322.7L338.23 0H405ZM536.09 41.39L490.72 162.28H546.45L505.13 272.19H462.73L446.27 316.02H432.94L387.56 436.91H493.75L536.09 324.17H645.16L751.34 41.38H536.09V41.39ZM5427.66 41.39L5387.61 148.08H5311.51L5351.56 41.39H5307.75L5159.22 436.92H5309.31L5355.91 312.85H5421.07L5523 41.39H5427.66ZM5066.52 224.9H4953.55L5022.46 41.39H4920.19L4771.66 436.92H4926.98L4919.06 458H5014.31L5049.52 364.19H5014.21L5066.52 224.9ZM4765.6 117.48H4748.75L4628.79 436.92H3934.45L3961.75 364.2H3890.93L3912.81 305.93H3817.57L3782.35 399.74H3853.22L3839.25 436.93H2880.38L2923.85 321.11H2857.08L2841.55 362.5H2737.96L2709.97 436.93H1411.45L1444.86 348H1348.05L1314.69 436.93H745.63L894.16 41.39H4698.93L4705.57 23.67H4800.81L4765.6 117.48ZM1164.16 103.47H1089.04L1058.95 183.61H1134.07L1164.16 103.47Z" fill="#4C22FF"/>
</svg>
