<svg width="2917" height="1144" viewBox="0 0 2917 1144" fill="none" xmlns="http://www.w3.org/2000/svg">
<path d="M2875.18 110.86L2916.8 0H2856.47L2842.44 37.39H2748.85L2713.81 130.61H2650.09L2552.9 389.4H134.19L0 785.84H970.28L995.57 711.23H1089.16L1103.19 669.75H1163.52L1124.25 785.84H1990.56L2003.18 748.56H1939.15L1970.97 654.54H2057.02L2037.25 712.95H2101.23L2076.56 785.84H2055.31L1921.12 1143.18H2056.72L2098.82 1031.09H2157.69L2249.78 785.84H2703.88L2812.26 465.66H2827.48L2859.3 371.64H2773.25L2767.25 389.4H2747.37L2851.97 110.86H2875.18ZM2127.46 882.23H2058.7L2094.89 785.84H2163.64L2127.46 882.23Z" fill="#4C22FF"/>
</svg>
