<svg width="650" height="920" viewBox="0 0 650 920" fill="none" xmlns="http://www.w3.org/2000/svg">
<path d="M202.67 780.83H348.14L564.41 636.68H597.2L629.99 680.17V705.77L395.65 892.91C389.69 895.04 384.1 897.04 378.14 899.17H52.11C39.57 884.06 32.54 875.6 20 860.49V722.45C32.54 707.34 39.57 698.88 52.11 683.77H216.67H315.12C327.66 698.88 335.6 707.34 348.14 722.45V779.4" stroke="#A8FF00" stroke-width="40" stroke-miterlimit="10"/>
<path d="M94.1992 460.1L144.199 500.1H463.549C479.169 484.48 487.929 475.72 503.549 460.1V328.75L463.549 288.75H134.199L94.1992 248.75V117.4L134.199 77.3999H453.549L503.549 117.4" stroke="#A8FF00" stroke-width="40" stroke-miterlimit="10"/>
<path d="M298.879 0V577.49" stroke="#A8FF00" stroke-width="40" stroke-miterlimit="10"/>
</svg>
