<svg width="1730" height="1965" viewBox="0 0 1730 1965" fill="none" xmlns="http://www.w3.org/2000/svg">
<path d="M1580.5 35.7117L1643.87 99.1357H619.496L609.041 109.599L518.126 200.593L466.317 252.446L458.824 259.945L456.647 270.302L113.43 1893.22L105.58 1885.36L38.8924 1818.62L389.531 160.595L433.847 116.242L514.308 35.7117H1580.5ZM1595.27 0H499.536C443.802 55.7817 412.545 87.0651 356.811 142.847L0 1830.15C52.9865 1883.18 83.922 1914.15 134.732 1965L491.543 277.694C547.277 221.912 578.534 190.629 634.268 134.847H1730C1679.19 83.9939 1648.25 53.0319 1595.27 0Z" fill="#A8FF00"/>
</svg>
