<svg width="1738" height="1965" viewBox="0 0 1738 1965" fill="none" xmlns="http://www.w3.org/2000/svg">
<path d="M1624.57 71.8162L1699.11 146.418L1348.5 1804.4L1241.89 1911.11L1223.69 1929.32H157.497L94.1273 1865.9H1118.5L1128.96 1855.44L1271.68 1712.59L1279.17 1705.09L1281.35 1694.73L1624.57 71.8162ZM1603.27 0L1246.45 1687.31L1103.73 1830.15H7.99262C58.8385 1881.04 89.7028 1911.93 142.725 1965H1238.46C1294.2 1909.22 1325.45 1877.93 1381.19 1822.15L1738 134.847C1685.01 81.8155 1654.08 50.8534 1603.27 0ZM0 1822.15C0 1822.15 0.107055 1822.26 0.178417 1822.33C0.107055 1822.26 0.0713626 1822.22 0 1822.15ZM0.178417 1822.33C0.178417 1822.33 0.463864 1822.62 0.606589 1822.76C0.463864 1822.62 0.321143 1822.47 0.178417 1822.33ZM0.5709 1822.76C0.5709 1822.76 0.642272 1822.83 0.677953 1822.87C0.677953 1822.87 0.606581 1822.8 0.5709 1822.76ZM0.677953 1822.87C3.0686 1825.26 5.49493 1827.69 7.99262 1830.19C5.60197 1827.8 3.17564 1825.37 0.677953 1822.87Z" fill="#A8FF00"/>
</svg>
