<svg width="1608" height="2439" viewBox="0 0 1608 2439" fill="none" xmlns="http://www.w3.org/2000/svg">
<g clip-path="url(#clip0_434_467)">
<path d="M1218 2405.27L1251.73 2439L1285.81 2439L1395.96 2328.85C1409.28 2328.85 1416.72 2328.85 1430.04 2328.85L1540.19 2439L1574.27 2439L1608 2405.27C1608 2391.95 1608 2384.51 1608 2371.19L1497.85 2261.04L1497.85 2226.96L1608 2116.81C1608 2103.49 1608 2096.05 1608 2082.73L1574.27 2049C1560.95 2049 1553.51 2049 1540.19 2049L1430.04 2159.15L1395.96 2159.15L1285.81 2049C1272.49 2049 1265.05 2049 1251.73 2049L1218 2082.73C1218 2096.05 1218 2103.49 1218 2116.81L1328.15 2226.96C1328.15 2240.28 1328.15 2247.72 1328.15 2261.04L1218 2371.19C1218 2384.51 1218 2391.95 1218 2405.27Z" fill="#A8FF00"/>
</g>
<g clip-path="url(#clip1_434_467)">
<path d="M1219 1995.35L1252.65 2029L1286.64 2029L1396.5 1919.13C1409.79 1919.13 1417.21 1919.13 1430.5 1919.13L1540.36 2029L1574.35 2029L1608 1995.35C1608 1982.07 1608 1974.65 1608 1961.36L1498.13 1851.5L1498.13 1817.5L1608 1707.64C1608 1694.35 1608 1686.93 1608 1673.65L1574.35 1640C1561.07 1640 1553.65 1640 1540.36 1640L1430.5 1749.87L1396.5 1749.87L1286.64 1640C1273.35 1640 1265.93 1640 1252.65 1640L1219 1673.65C1219 1686.93 1219 1694.35 1219 1707.64L1328.87 1817.5C1328.87 1830.79 1328.87 1838.21 1328.87 1851.5L1219 1961.36C1219 1974.65 1219 1982.07 1219 1995.35Z" fill="#A8FF00"/>
</g>
<g clip-path="url(#clip2_434_467)">
<path d="M1219 1585.35L1252.65 1619L1286.64 1619L1396.5 1509.13C1409.79 1509.13 1417.21 1509.13 1430.5 1509.13L1540.36 1619L1574.35 1619L1608 1585.35C1608 1572.07 1608 1564.65 1608 1551.36L1498.13 1441.5L1498.13 1407.5L1608 1297.64C1608 1284.35 1608 1276.93 1608 1263.65L1574.35 1230C1561.07 1230 1553.65 1230 1540.36 1230L1430.5 1339.87L1396.5 1339.87L1286.64 1230C1273.35 1230 1265.93 1230 1252.65 1230L1219 1263.65C1219 1276.93 1219 1284.35 1219 1297.64L1328.87 1407.5C1328.87 1420.79 1328.87 1428.21 1328.87 1441.5L1219 1551.36C1219 1564.65 1219 1572.07 1219 1585.35Z" fill="#A8FF00"/>
</g>
<g clip-path="url(#clip3_434_467)">
<path d="M1218 356.267L1251.73 390L1285.81 390L1395.96 279.85C1409.28 279.85 1416.72 279.85 1430.04 279.85L1540.19 390L1574.27 390L1608 356.267C1608 342.945 1608 335.51 1608 322.189L1497.85 212.039L1497.85 177.961L1608 67.8111C1608 54.4899 1608 47.0547 1608 33.7335L1574.27 1.07227e-06C1560.95 1.49571e-06 1553.51 1.73204e-06 1540.19 2.15548e-06L1430.04 110.15L1395.96 110.15L1285.81 1.02413e-05C1272.49 1.06647e-05 1265.05 1.0901e-05 1251.73 1.13245e-05L1218 33.7335C1218 47.0548 1218 54.4899 1218 67.8111L1328.15 177.961C1328.15 191.282 1328.15 198.718 1328.15 212.039L1218 322.189C1218 335.51 1218 342.945 1218 356.267Z" fill="#A8FF00"/>
</g>
<g clip-path="url(#clip4_434_467)">
<path d="M809 2405.35L842.647 2439L876.637 2439L986.505 2329.13C999.792 2329.13 1007.21 2329.13 1020.5 2329.13L1130.36 2439L1164.35 2439L1198 2405.35C1198 2392.07 1198 2384.65 1198 2371.36L1088.13 2261.5L1088.13 2227.5L1198 2117.64C1198 2104.35 1198 2096.93 1198 2083.65L1164.35 2050C1151.07 2050 1143.65 2050 1130.36 2050L1020.5 2159.87L986.505 2159.87L876.637 2050C863.35 2050 855.934 2050 842.647 2050L809 2083.65C809 2096.93 809 2104.35 809 2117.64L918.868 2227.5C918.868 2240.79 918.868 2248.21 918.868 2261.5L809 2371.36C809 2384.65 809 2392.07 809 2405.35Z" fill="#A8FF00"/>
</g>
<g clip-path="url(#clip5_434_467)">
<path d="M409 2405.35L442.647 2439L476.637 2439L586.505 2329.13C599.792 2329.13 607.208 2329.13 620.495 2329.13L730.363 2439L764.353 2439L798 2405.35C798 2392.07 798 2384.65 798 2371.36L688.132 2261.5L688.132 2227.5L798 2117.64C798 2104.35 798 2096.93 798 2083.65L764.353 2050C751.066 2050 743.65 2050 730.363 2050L620.495 2159.87L586.505 2159.87L476.637 2050C463.35 2050 455.934 2050 442.647 2050L409 2083.65C409 2096.93 409 2104.35 409 2117.64L518.868 2227.5C518.868 2240.79 518.868 2248.21 518.868 2261.5L409 2371.36C409 2384.65 409 2392.07 409 2405.35Z" fill="#A8FF00"/>
</g>
<g clip-path="url(#clip6_434_467)">
<path d="M810 1995.44L843.56 2029L877.463 2029L987.049 1919.41C1000.3 1919.41 1007.7 1919.41 1020.95 1919.41L1130.54 2029L1164.44 2029L1198 1995.44C1198 1982.19 1198 1974.79 1198 1961.54L1088.41 1851.95L1088.41 1818.05L1198 1708.46C1198 1695.21 1198 1687.81 1198 1674.56L1164.44 1641C1151.19 1641 1143.79 1641 1130.54 1641L1020.95 1750.59L987.049 1750.59L877.463 1641C864.21 1641 856.813 1641 843.56 1641L810 1674.56C810 1687.81 810 1695.21 810 1708.46L919.585 1818.05C919.585 1831.3 919.585 1838.7 919.585 1851.95L810 1961.54C810 1974.79 810 1982.19 810 1995.44Z" fill="#A8FF00"/>
</g>
<g clip-path="url(#clip7_434_467)">
<path d="M-1.07227e-06 2405.27L33.7335 2439L67.8111 2439L177.961 2328.85C191.282 2328.85 198.718 2328.85 212.039 2328.85L322.189 2439L356.267 2439L390 2405.27C390 2391.95 390 2384.51 390 2371.19L279.85 2261.04L279.85 2226.96L390 2116.81C390 2103.49 390 2096.05 390 2082.73L356.267 2049C342.945 2049 335.51 2049 322.189 2049L212.039 2159.15L177.961 2159.15L67.8111 2049C54.4899 2049 47.0547 2049 33.7334 2049L-1.13245e-05 2082.73C-1.0901e-05 2096.05 -1.06647e-05 2103.49 -1.02413e-05 2116.81L110.15 2226.96C110.15 2240.28 110.15 2247.72 110.15 2261.04L-2.15548e-06 2371.19C-1.73204e-06 2384.51 -1.49571e-06 2391.95 -1.07227e-06 2405.27Z" fill="#A8FF00"/>
</g>
<defs>
<clipPath id="clip0_434_467">
<rect width="390" height="390" fill="white" transform="translate(1608 2439) rotate(180)"/>
</clipPath>
<clipPath id="clip1_434_467">
<rect width="389" height="389" fill="white" transform="translate(1608 2029) rotate(180)"/>
</clipPath>
<clipPath id="clip2_434_467">
<rect width="389" height="389" fill="white" transform="translate(1608 1619) rotate(180)"/>
</clipPath>
<clipPath id="clip3_434_467">
<rect width="390" height="390" fill="white" transform="translate(1608 390) rotate(180)"/>
</clipPath>
<clipPath id="clip4_434_467">
<rect width="389" height="389" fill="white" transform="translate(1198 2439) rotate(180)"/>
</clipPath>
<clipPath id="clip5_434_467">
<rect width="389" height="389" fill="white" transform="translate(798 2439) rotate(180)"/>
</clipPath>
<clipPath id="clip6_434_467">
<rect width="388" height="388" fill="white" transform="translate(1198 2029) rotate(180)"/>
</clipPath>
<clipPath id="clip7_434_467">
<rect width="390" height="390" fill="white" transform="translate(390 2439) rotate(180)"/>
</clipPath>
</defs>
</svg>
