<svg width="1204" height="798" viewBox="0 0 1204 798" fill="none" xmlns="http://www.w3.org/2000/svg">
<g clip-path="url(#clip0_132_62826)">
<path d="M390.733 33.7968L356.936 -8.34041e-06L322.794 -6.16992e-06L212.437 110.357C199.091 110.357 191.642 110.357 178.296 110.357L67.9386 1.0032e-05L33.7968 1.22025e-05L2.14857e-06 33.7969C2.99703e-06 47.1432 3.47059e-06 54.5923 4.31906e-06 67.9386L110.357 178.296L110.357 212.437L2.0521e-05 322.794C2.13695e-05 336.141 2.1843e-05 343.59 2.26915e-05 356.936L33.7969 390.733C47.1432 390.733 54.5923 390.733 67.9386 390.733L178.296 280.376L212.437 280.376L322.794 390.733C336.141 390.733 343.59 390.733 356.936 390.733L390.733 356.936C390.733 343.59 390.733 336.141 390.733 322.794L280.376 212.437C280.376 199.091 280.376 191.642 280.376 178.296L390.733 67.9385C390.733 54.5922 390.733 47.1431 390.733 33.7968Z" fill="#FF00F3"/>
</g>
<g clip-path="url(#clip1_132_62826)">
<path d="M390.733 440.161L356.936 406.364L322.794 406.364L212.437 516.721C199.091 516.721 191.642 516.721 178.296 516.721L67.9386 406.364L33.7968 406.364L2.14857e-06 440.161C2.99703e-06 453.507 3.47059e-06 460.956 4.31906e-06 474.302L110.357 584.659L110.357 618.801L2.0521e-05 729.158C2.13695e-05 742.504 2.1843e-05 749.954 2.26915e-05 763.3L33.7969 797.097C47.1432 797.097 54.5923 797.097 67.9386 797.097L178.296 686.74L212.437 686.74L322.794 797.097C336.141 797.097 343.59 797.097 356.936 797.097L390.733 763.3C390.733 749.953 390.733 742.504 390.733 729.158L280.376 618.801C280.376 605.455 280.376 598.006 280.376 584.659L390.733 474.302C390.733 460.956 390.733 453.507 390.733 440.161Z" fill="#FF00F3"/>
</g>
<g clip-path="url(#clip2_132_62826)">
<path d="M797.09 33.7968L763.293 -8.34041e-06L729.152 -6.16992e-06L618.795 110.357C605.448 110.357 597.999 110.357 584.653 110.357L474.296 1.0032e-05L440.154 1.22025e-05L406.357 33.7969C406.357 47.1432 406.357 54.5923 406.357 67.9386L516.714 178.296L516.714 212.437L406.357 322.794C406.357 336.141 406.357 343.59 406.357 356.936L440.154 390.733C453.501 390.733 460.95 390.733 474.296 390.733L584.653 280.376L618.795 280.376L729.152 390.733C742.498 390.733 749.947 390.733 763.293 390.733L797.09 356.936C797.09 343.59 797.09 336.141 797.09 322.794L686.733 212.437C686.733 199.091 686.733 191.642 686.733 178.296L797.09 67.9385C797.09 54.5922 797.09 47.1431 797.09 33.7968Z" fill="#FF00F3"/>
</g>
<g clip-path="url(#clip3_132_62826)">
<path d="M1203.46 33.7968L1169.66 -8.34041e-06L1135.52 -6.16992e-06L1025.16 110.357C1011.82 110.357 1004.37 110.357 991.022 110.357L880.665 1.0032e-05L846.523 1.22025e-05L812.727 33.7969C812.727 47.1432 812.727 54.5923 812.727 67.9386L923.084 178.296L923.084 212.437L812.727 322.794C812.727 336.141 812.727 343.59 812.727 356.936L846.523 390.733C859.87 390.733 867.319 390.733 880.665 390.733L991.022 280.376L1025.16 280.376L1135.52 390.733C1148.87 390.733 1156.32 390.733 1169.66 390.733L1203.46 356.936C1203.46 343.59 1203.46 336.141 1203.46 322.794L1093.1 212.437C1093.1 199.091 1093.1 191.642 1093.1 178.296L1203.46 67.9385C1203.46 54.5922 1203.46 47.1431 1203.46 33.7968Z" fill="#FF00F3"/>
</g>
<defs>
<clipPath id="clip0_132_62826">
<rect width="390.733" height="390.733" fill="white"/>
</clipPath>
<clipPath id="clip1_132_62826">
<rect width="390.733" height="390.733" fill="white" transform="translate(0 406.364)"/>
</clipPath>
<clipPath id="clip2_132_62826">
<rect width="390.733" height="390.733" fill="white" transform="translate(406.357 1.43511e-05)"/>
</clipPath>
<clipPath id="clip3_132_62826">
<rect width="390.733" height="390.733" fill="white" transform="translate(812.727 1.43511e-05)"/>
</clipPath>
</defs>
</svg>
