<svg width="503" height="4527" viewBox="0 0 503 4527" fill="none" xmlns="http://www.w3.org/2000/svg">
<path d="M503 4167.93C503 4476.59 503 3377.56 503 3377.56C503 3377.56 503 3158.57 503 3018.24C503 2877.92 503 2658.93 503 2658.93V1868.56C503 1868.56 503 1649.57 503 1509.24C503 1368.92 503 1149.93 503 1149.93C503 1149.93 503 668.069 503 359.315C503 218.994 502.999 192.848 503 0H360.598C219.787 140.31 140.811 219.005 0 359.315V1149.69C140.811 1289.99 219.787 1368.69 360.598 1509C219.787 1649.31 140.811 1728.01 0 1868.31V2658.69C140.811 2798.99 219.787 2877.69 360.598 3018C219.787 3158.31 140.811 3237.01 0 3377.31V4167.69C140.811 4308 219.787 4386.69 360.598 4527H503C503 4527 503 4347.23 503 4167.69V4167.93Z" fill="#4C22FF"/>
</svg>
