<svg width="1237" height="928" viewBox="0 0 1237 928" fill="none" xmlns="http://www.w3.org/2000/svg">
<g clip-path="url(#clip0_776_465)">
<path d="M1237 0H1131.96L1077.42 162.725L1077.33 162.493L934.603 588.557L935.008 589.6L882.037 748.067C841.629 777.182 812.625 798.069 772.217 827.184H766.341L766.514 827.039H317.565L316.696 827.763L32.7377 827.966L0 927.826H194.719L194.545 928L371.23 927.884L643.553 928L644.421 927.276L844.581 927.131L954.518 847.376L961.117 827.213H960.886L991.076 737.145L991.163 737.377L1047.2 569.669L1133.87 311.284L1133.46 310.241L1237 0Z" fill="#E933EA"/>
</g>
<defs>
<clipPath id="clip0_776_465">
<rect width="1237" height="928" fill="white"/>
</clipPath>
</defs>
</svg>
