<svg width="307" height="36" viewBox="0 0 307 36" fill="none" xmlns="http://www.w3.org/2000/svg">
<path d="M2.92808e-05 35.1L17.685 2.69997H25.65L43.245 35.1H36.63L32.805 27.675H10.44L6.61503 35.1H2.92808e-05ZM12.78 23.175H30.465L21.645 6.07497L12.78 23.175ZM47.9581 35.1V8.50497H53.8981V13.725C57.5881 9.04497 61.4581 7.60498 65.9131 7.60498C68.7481 7.60498 70.9081 8.05498 72.9331 8.77497V13.95C70.1881 13.095 68.1181 12.825 65.6881 12.825C62.4931 12.825 58.3531 13.68 53.8981 18.45V35.1H47.9581ZM94.0736 36C82.9586 36 75.8036 30.42 75.8036 21.825C75.8036 13.185 82.9586 7.60498 94.0736 7.60498C103.344 7.60498 110.319 11.79 111.669 18.045H105.594C104.424 14.625 99.8786 12.33 94.0736 12.33C86.5586 12.33 81.6986 16.065 81.6986 21.825C81.6986 27.54 86.5586 31.275 94.0736 31.275C99.8786 31.275 104.424 28.98 105.594 25.56H111.669C110.274 31.95 103.344 36 94.0736 36ZM147.04 23.58C147.04 15.615 143.89 12.6 136.555 12.6C128.905 12.6 123.595 16.83 123.595 23.85V35.1H117.655V-2.58088e-05H123.595V14.175C126.79 10.125 132.1 7.60498 138.76 7.60498C147.355 7.60498 152.98 11.115 152.98 21.645V35.1H147.04V23.58ZM160.107 35.1V8.50497H166.047V35.1H160.107ZM160.107 5.17497V-2.58088e-05H166.047V5.17497H160.107ZM188.938 36C181.783 36 177.868 33.885 177.868 26.775V13.005H171.028V8.50497H177.868V2.47497L183.763 0.674974V8.50497H196.678V13.005H183.763V24.885C183.763 29.835 185.833 31.05 190.153 31.05C192.313 31.05 193.663 30.825 196.678 30.24V35.1C194.068 35.64 191.548 36 188.938 36ZM219.401 36C208.421 36 201.311 30.375 201.311 21.825C201.311 13.185 208.376 7.60498 219.311 7.60498C230.741 7.60498 237.536 13.185 237.536 23.13H207.296C207.926 28.53 212.606 31.14 219.761 31.14C225.521 31.14 230.066 29.655 231.326 26.505H237.176C235.286 32.58 229.301 36 219.401 36ZM207.656 18.72H231.371C230.111 14.49 225.881 12.465 219.536 12.465C213.236 12.465 208.961 14.535 207.656 18.72ZM261.242 36C250.127 36 242.972 30.42 242.972 21.825C242.972 13.185 250.127 7.60498 261.242 7.60498C270.512 7.60498 277.487 11.79 278.837 18.045H272.762C271.592 14.625 267.047 12.33 261.242 12.33C253.727 12.33 248.867 16.065 248.867 21.825C248.867 27.54 253.727 31.275 261.242 31.275C267.047 31.275 271.592 28.98 272.762 25.56H278.837C277.442 31.95 270.512 36 261.242 36ZM299.153 36C291.998 36 288.083 33.885 288.083 26.775V13.005H281.243V8.50497H288.083V2.47497L293.978 0.674974V8.50497H306.893V13.005H293.978V24.885C293.978 29.835 296.048 31.05 300.368 31.05C302.528 31.05 303.878 30.825 306.893 30.24V35.1C304.283 35.64 301.763 36 299.153 36Z" fill="white"/>
</svg>
