<svg width="219" height="36" viewBox="0 0 219 36" fill="none" xmlns="http://www.w3.org/2000/svg">
<path d="M6.8523e-05 35.1V2.69997H23.9851C31.5901 2.69997 34.4251 6.11997 34.4251 10.8C34.4251 14.4 32.3551 17.01 29.0251 18.27C32.9851 19.215 36.2701 21.465 36.2701 26.28C36.2701 31.635 32.8951 35.1 26.0101 35.1H6.8523e-05ZM6.03007 30.42H24.1201C27.8551 30.42 30.0151 29.115 30.0151 25.605C30.0151 21.87 27.1351 21.105 24.1201 21.105H6.03007V30.42ZM6.03007 16.47H22.3201C25.5601 16.47 28.4401 15.66 28.4401 11.97C28.4401 8.63998 26.2801 7.37997 22.3201 7.37997H6.03007V16.47ZM55.5287 36C46.9787 36 41.3087 32.535 41.3087 22.005V8.50497H47.2487V20.025C47.2487 28.035 50.3987 31.05 57.7337 31.05C65.3387 31.05 70.6937 26.82 70.6937 19.755V8.50497H76.5887V35.1H70.6937V29.34C67.4987 33.39 62.2337 36 55.5287 36ZM83.7159 35.1V8.50497H89.6559V35.1H83.7159ZM83.7159 5.17497V-2.58088e-05H89.6559V5.17497H83.7159ZM96.7676 35.1V-2.58088e-05H102.708V35.1H96.7676ZM139.44 35.1V29.61C136.74 33.615 131.745 36 125.4 36C115.455 36 108.705 30.42 108.705 21.78C108.705 13.185 115.455 7.55997 125.4 7.55997C131.745 7.55997 136.74 9.94497 139.44 13.95V-2.58088e-05H145.335V35.1H139.44ZM126.435 12.555C119.1 12.555 114.645 16.2 114.645 21.78C114.645 27.405 119.1 31.005 126.435 31.005C134.49 31.005 139.395 27.405 139.395 21.78C139.395 16.2 134.49 12.555 126.435 12.555ZM169.422 36C158.442 36 151.332 30.375 151.332 21.825C151.332 13.185 158.397 7.60498 169.332 7.60498C180.762 7.60498 187.557 13.185 187.557 23.13H157.317C157.947 28.53 162.627 31.14 169.782 31.14C175.542 31.14 180.087 29.655 181.347 26.505H187.197C185.307 32.58 179.322 36 169.422 36ZM157.677 18.72H181.392C180.132 14.49 175.902 12.465 169.557 12.465C163.257 12.465 158.982 14.535 157.677 18.72ZM193.315 35.1V8.50497H199.255V13.725C202.945 9.04497 206.815 7.60498 211.27 7.60498C214.105 7.60498 216.266 8.05498 218.29 8.77497V13.95C215.545 13.095 213.475 12.825 211.045 12.825C207.85 12.825 203.71 13.68 199.255 18.45V35.1H193.315Z" fill="white"/>
</svg>
