<svg width="404" height="36" viewBox="0 0 404 36" fill="none" xmlns="http://www.w3.org/2000/svg">
<path d="M20.79 36.0001C8.59502 36.0001 1.97887e-05 29.2501 1.97887e-05 18.9001C1.97887e-05 8.5501 8.64002 1.8901 20.79 1.8901C31.68 1.8901 39.69 7.4701 40.635 14.9851H34.29C33.525 11.0701 28.575 6.9751 20.79 6.9751C11.97 6.9751 6.25502 11.9701 6.25502 18.9001C6.25502 25.8751 12.015 30.8701 20.79 30.8701C28.575 30.8701 33.525 26.7301 34.29 22.7701H40.635C39.735 30.3301 31.68 36.0001 20.79 36.0001ZM63.6603 36.0001C52.7253 36.0001 45.3903 30.4201 45.3903 21.8251C45.3903 13.1851 52.7253 7.6051 63.6603 7.6051C74.5503 7.6051 81.8853 13.1851 81.8853 21.8251C81.8853 30.4201 74.5503 36.0001 63.6603 36.0001ZM63.6603 31.2751C70.9503 31.2751 75.9453 27.5401 75.9453 21.8251C75.9453 16.0651 70.9503 12.3301 63.6603 12.3301C56.3253 12.3301 51.3303 16.0651 51.3303 21.8251C51.3303 27.5401 56.3253 31.2751 63.6603 31.2751ZM137.046 21.8251C137.046 14.9401 134.301 12.6001 128.496 12.6001C122.736 12.6001 118.236 15.3451 118.236 22.1851V35.1001H112.341V21.8251C112.341 14.9401 109.596 12.6001 103.791 12.6001C98.0765 12.6001 93.5765 15.3451 93.5765 22.1851V35.1001H87.6815V8.5051H93.5765V13.0501C96.2765 9.5401 100.596 7.6051 105.951 7.6051C111.306 7.6051 115.491 9.4951 117.291 14.5351C119.901 9.9901 124.581 7.6051 130.656 7.6051C137.856 7.6051 142.941 11.0701 142.941 20.9701V35.1001H137.046V21.8251ZM199.405 21.8251C199.405 14.9401 196.66 12.6001 190.855 12.6001C185.095 12.6001 180.595 15.3451 180.595 22.1851V35.1001H174.7V21.8251C174.7 14.9401 171.955 12.6001 166.15 12.6001C160.435 12.6001 155.935 15.3451 155.935 22.1851V35.1001H150.04V8.5051H155.935V13.0501C158.635 9.5401 162.955 7.6051 168.31 7.6051C173.665 7.6051 177.85 9.4951 179.65 14.5351C182.26 9.9901 186.94 7.6051 193.015 7.6051C200.215 7.6051 205.3 11.0701 205.3 20.9701V35.1001H199.405V21.8251ZM239.784 19.0351C239.784 12.6001 234.159 12.2401 229.569 12.2401C225.204 12.2401 220.704 12.7801 213.684 14.6701L212.784 10.0801C218.454 8.5501 224.259 7.6051 230.559 7.6051C240.729 7.6051 245.679 11.2051 245.679 19.8451V35.1001H239.784V31.7701C234.744 34.3801 228.894 36.0001 223.314 36.0001C215.124 36.0001 210.669 32.9401 210.669 26.9551C210.669 19.8451 217.779 17.2801 225.834 17.2801C230.649 17.2801 235.779 18.2701 239.784 19.3501V19.0351ZM216.789 26.7301C216.789 29.9701 219.579 31.5901 224.574 31.5901C230.064 31.5901 235.869 29.7001 239.784 27.4501V23.6701C236.139 22.8151 231.414 21.6901 226.014 21.6901C221.469 21.6901 216.789 22.5001 216.789 26.7301ZM282.169 23.5801C282.169 15.6151 279.019 12.6001 271.684 12.6001C264.034 12.6001 258.724 16.8301 258.724 23.8501V35.1001H252.784V8.5051H258.724V14.1751C261.919 10.1251 267.229 7.6051 273.889 7.6051C282.484 7.6051 288.109 11.1151 288.109 21.6451V35.1001H282.169V23.5801ZM324.548 35.1001V29.6101C321.848 33.6151 316.853 36.0001 310.508 36.0001C300.563 36.0001 293.813 30.4201 293.813 21.7801C293.813 13.1851 300.563 7.5601 310.508 7.5601C316.853 7.5601 321.848 9.9451 324.548 13.9501V9.62615e-05H330.443V35.1001H324.548ZM311.543 12.5551C304.208 12.5551 299.753 16.2001 299.753 21.7801C299.753 27.4051 304.208 31.0051 311.543 31.0051C319.598 31.0051 324.503 27.4051 324.503 21.7801C324.503 16.2001 319.598 12.5551 311.543 12.5551ZM354.53 36.0001C343.55 36.0001 336.44 30.3751 336.44 21.8251C336.44 13.1851 343.505 7.6051 354.44 7.6051C365.87 7.6051 372.665 13.1851 372.665 23.1301H342.425C343.055 28.5301 347.735 31.1401 354.89 31.1401C360.65 31.1401 365.195 29.6551 366.455 26.5051H372.305C370.415 32.5801 364.43 36.0001 354.53 36.0001ZM342.785 18.7201H366.5C365.24 14.4901 361.01 12.4651 354.665 12.4651C348.365 12.4651 344.09 14.5351 342.785 18.7201ZM378.424 35.1001V8.5051H384.364V13.7251C388.054 9.0451 391.924 7.6051 396.379 7.6051C399.214 7.6051 401.374 8.0551 403.399 8.7751V13.9501C400.654 13.0951 398.584 12.8251 396.154 12.8251C392.959 12.8251 388.819 13.6801 384.364 18.4501V35.1001H378.424Z" fill="white"/>
</svg>
