<svg width="297" height="45" viewBox="0 0 297 45" fill="none" xmlns="http://www.w3.org/2000/svg">
<path d="M21.15 35.325C8.23502 35.325 1.97887e-05 28.575 1.97887e-05 18.225C1.97887e-05 7.87505 8.28002 1.21505 21.15 1.21505C33.975 1.21505 42.255 7.92005 42.255 18.225C42.255 28.575 34.02 35.325 21.15 35.325ZM21.15 30.195C30.33 30.195 36.045 25.29 36.045 18.225C36.045 11.16 30.375 6.30005 21.15 6.30005C11.88 6.30005 6.25502 11.16 6.25502 18.225C6.25502 25.335 11.925 30.195 21.15 30.195ZM48.0428 44.325V7.83005H53.9828V13.32C56.6828 9.31505 61.6778 6.93005 68.0228 6.93005C77.9678 6.93005 84.7178 12.51 84.7178 21.15C84.7178 29.745 77.9678 35.37 68.0228 35.37C61.6778 35.37 56.6828 32.985 53.9828 28.98V44.325H48.0428ZM66.9878 30.375C74.3228 30.375 78.7778 26.73 78.7778 21.15C78.7778 15.525 74.3228 11.925 66.9878 11.925C58.9328 11.925 54.0278 15.525 54.0278 21.15C54.0278 26.73 58.9328 30.375 66.9878 30.375ZM108.261 35.325C97.2805 35.325 90.1705 29.7 90.1705 21.15C90.1705 12.51 97.2355 6.93005 108.171 6.93005C119.601 6.93005 126.396 12.51 126.396 22.455H96.1555C96.7855 27.855 101.466 30.465 108.621 30.465C114.381 30.465 118.926 28.98 120.186 25.83H126.036C124.146 31.905 118.161 35.325 108.261 35.325ZM96.5155 18.045H120.231C118.971 13.815 114.741 11.79 108.396 11.79C102.096 11.79 97.8205 13.86 96.5155 18.045ZM132.154 34.425V7.83005H138.094V13.05C141.784 8.37005 145.654 6.93005 150.109 6.93005C152.944 6.93005 155.104 7.38005 157.129 8.10005V13.275C154.384 12.42 152.314 12.15 149.884 12.15C146.689 12.15 142.549 13.005 138.094 17.775V34.425H132.154ZM189.334 18.36C189.334 11.925 183.709 11.565 179.119 11.565C174.754 11.565 170.254 12.105 163.234 13.995L162.334 9.40505C168.004 7.87505 173.809 6.93005 180.109 6.93005C190.279 6.93005 195.229 10.53 195.229 19.17V34.425H189.334V31.095C184.294 33.705 178.444 35.325 172.864 35.325C164.674 35.325 160.219 32.265 160.219 26.28C160.219 19.17 167.329 16.605 175.384 16.605C180.199 16.605 185.329 17.595 189.334 18.675V18.36ZM166.339 26.055C166.339 29.295 169.129 30.915 174.124 30.915C179.614 30.915 185.419 29.025 189.334 26.775V22.995C185.689 22.14 180.964 21.015 175.564 21.015C171.019 21.015 166.339 21.825 166.339 26.055ZM216.708 35.325C209.553 35.325 205.638 33.21 205.638 26.1V12.33H198.798V7.83005H205.638V1.80005L211.533 4.67896e-05V7.83005H224.448V12.33H211.533V24.21C211.533 29.16 213.603 30.375 217.923 30.375C220.083 30.375 221.433 30.15 224.448 29.565V34.425C221.838 34.965 219.318 35.325 216.708 35.325ZM247.352 35.325C236.417 35.325 229.082 29.745 229.082 21.15C229.082 12.51 236.417 6.93005 247.352 6.93005C258.242 6.93005 265.577 12.51 265.577 21.15C265.577 29.745 258.242 35.325 247.352 35.325ZM247.352 30.6C254.642 30.6 259.637 26.865 259.637 21.15C259.637 15.39 254.642 11.655 247.352 11.655C240.017 11.655 235.022 15.39 235.022 21.15C235.022 26.865 240.017 30.6 247.352 30.6ZM271.373 34.425V7.83005H277.313V13.05C281.003 8.37005 284.873 6.93005 289.328 6.93005C292.163 6.93005 294.323 7.38005 296.348 8.10005V13.275C293.603 12.42 291.533 12.15 289.103 12.15C285.908 12.15 281.768 13.005 277.313 17.775V34.425H271.373Z" fill="white"/>
</svg>
