<svg width="329" height="46" viewBox="0 0 329 46" fill="none" xmlns="http://www.w3.org/2000/svg">
<path d="M19.9801 36.0001C7.02012 36.0001 0.225117 33.1201 0.000117324 24.2551H6.25512C6.25512 29.2051 10.3051 31.1401 19.9801 31.1401C28.4401 31.1401 31.9051 29.7901 31.9051 26.1451C31.9051 21.9151 27.7201 21.7801 17.9551 21.1501C5.35512 20.3401 0.945117 17.7751 0.945117 11.0701C0.945117 4.6351 7.06512 1.8901 18.3151 1.8901C30.4651 1.8901 36.5851 5.5801 36.7651 13.0951H30.5551C30.5551 8.2351 26.1001 6.7501 17.8201 6.7501C10.0351 6.7501 7.15512 7.9651 7.15512 11.0701C7.15512 15.0751 10.8901 15.6151 19.6651 16.2451C31.5001 17.1001 38.1151 17.8651 38.1151 25.9651C38.1151 33.6151 31.3201 36.0001 19.9801 36.0001ZM58.9058 36.0001C51.7508 36.0001 47.8358 33.8851 47.8358 26.7751V13.0051H40.9958V8.5051H47.8358V2.4751L53.7308 0.675096V8.5051H66.6458V13.0051H53.7308V24.8851C53.7308 29.8351 55.8008 31.0501 60.1208 31.0501C62.2808 31.0501 63.6308 30.8251 66.6458 30.2401V35.1001C64.0358 35.6401 61.5158 36.0001 58.9058 36.0001ZM73.053 35.1001V8.5051H78.993V13.7251C82.683 9.0451 86.553 7.6051 91.008 7.6051C93.843 7.6051 96.003 8.0551 98.028 8.7751V13.9501C95.283 13.0951 93.213 12.8251 90.783 12.8251C87.588 12.8251 83.448 13.6801 78.993 18.4501V35.1001H73.053ZM130.233 19.0351C130.233 12.6001 124.608 12.2401 120.018 12.2401C115.653 12.2401 111.153 12.7801 104.133 14.6701L103.233 10.0801C108.903 8.5501 114.708 7.6051 121.008 7.6051C131.178 7.6051 136.128 11.2051 136.128 19.8451V35.1001H130.233V31.7701C125.193 34.3801 119.343 36.0001 113.763 36.0001C105.573 36.0001 101.118 32.9401 101.118 26.9551C101.118 19.8451 108.228 17.2801 116.283 17.2801C121.098 17.2801 126.228 18.2701 130.233 19.3501V19.0351ZM107.238 26.7301C107.238 29.9701 110.028 31.5901 115.023 31.5901C120.513 31.5901 126.318 29.7001 130.233 27.4501V23.6701C126.588 22.8151 121.863 21.6901 116.463 21.6901C111.918 21.6901 107.238 22.5001 107.238 26.7301ZM157.607 36.0001C150.452 36.0001 146.537 33.8851 146.537 26.7751V13.0051H139.697V8.5051H146.537V2.4751L152.432 0.675096V8.5051H165.347V13.0051H152.432V24.8851C152.432 29.8351 154.502 31.0501 158.822 31.0501C160.982 31.0501 162.332 30.8251 165.347 30.2401V35.1001C162.737 35.6401 160.217 36.0001 157.607 36.0001ZM188.071 36.0001C177.091 36.0001 169.981 30.3751 169.981 21.8251C169.981 13.1851 177.046 7.6051 187.981 7.6051C199.411 7.6051 206.206 13.1851 206.206 23.1301H175.966C176.596 28.5301 181.276 31.1401 188.431 31.1401C194.191 31.1401 198.736 29.6551 199.996 26.5051H205.846C203.956 32.5801 197.971 36.0001 188.071 36.0001ZM176.326 18.7201H200.041C198.781 14.4901 194.551 12.4651 188.206 12.4651C181.906 12.4651 177.631 14.5351 176.326 18.7201ZM231.126 45.7201C225.231 45.7201 220.866 45.2701 213.171 44.1451V39.5551C221.181 40.5901 225.141 40.9951 230.091 40.9951C239.721 40.9951 242.331 38.1601 242.331 32.6251V29.2501C239.586 33.2101 234.636 35.4601 228.336 35.4601C218.391 35.4601 211.641 29.9701 211.641 21.5101C211.641 13.0951 218.391 7.5601 228.336 7.5601C234.636 7.5601 239.631 9.9001 242.331 13.7701V8.5051H248.226V32.3101C248.226 40.7701 244.131 45.7201 231.126 45.7201ZM229.371 12.4651C222.036 12.4651 217.581 16.0651 217.581 21.5101C217.581 27.0451 222.036 30.5551 229.371 30.5551C237.426 30.5551 242.331 27.0451 242.331 21.5101C242.331 16.0651 237.426 12.4651 229.371 12.4651ZM254.679 35.1001V8.5051H260.619V35.1001H254.679ZM254.679 5.1751V9.62615e-05H260.619V5.1751H254.679ZM284.936 36.0001C274.406 36.0001 266.981 34.0201 266.441 26.6401H272.291C272.741 30.2401 277.196 31.1851 284.756 31.1851C292.001 31.1851 295.241 30.2401 295.241 27.9451C295.241 25.2451 291.326 24.3001 281.966 23.4901C271.751 22.6801 267.386 20.7451 267.386 15.6601C267.386 9.5851 274.361 7.6051 283.451 7.6051C292.586 7.6051 299.111 9.4951 299.921 16.0201H294.071C293.576 12.7351 288.761 12.1951 283.361 12.1951C277.016 12.1951 273.056 12.9601 273.056 15.4801C273.056 18.1801 277.331 18.4051 286.286 19.1251C295.691 19.9351 300.911 21.8701 300.911 27.6751C300.911 33.7051 295.151 36.0001 284.936 36.0001ZM321.215 36.0001C314.06 36.0001 310.145 33.8851 310.145 26.7751V13.0051H303.305V8.5051H310.145V2.4751L316.04 0.675096V8.5051H328.955V13.0051H316.04V24.8851C316.04 29.8351 318.11 31.0501 322.43 31.0501C324.59 31.0501 325.94 30.8251 328.955 30.2401V35.1001C326.345 35.6401 323.825 36.0001 321.215 36.0001Z" fill="white"/>
</svg>
