<svg width="1922" height="1088" viewBox="0 0 1922 1088" fill="none" xmlns="http://www.w3.org/2000/svg">
<g clip-path="url(#clip0_53_1855)">
<path d="M0.530029 0.84L798.55 505.98V575.71L0.530029 1080.84" stroke="#FF00F3" stroke-width="2" stroke-miterlimit="10"/>
<path d="M37.46 0.84L804.79 506.7V575.23L37.46 1081.09" stroke="#F801F3" stroke-width="2" stroke-miterlimit="10"/>
<path d="M74.3799 0.84L811.02 507.42V574.75L74.3799 1081.34" stroke="#F103F4" stroke-width="2" stroke-miterlimit="10"/>
<path d="M111.3 0.84L817.24 508.14V574.28L111.3 1081.59" stroke="#EA04F4" stroke-width="2" stroke-miterlimit="10"/>
<path d="M148.23 0.84L823.48 508.87V573.81L148.23 1081.84" stroke="#E305F5" stroke-width="2" stroke-miterlimit="10"/>
<path d="M185.15 0.84L829.71 509.59V573.34L185.15 1082.09" stroke="#DD07F5" stroke-width="2" stroke-miterlimit="10"/>
<path d="M222.07 0.84L835.93 510.31V572.86L222.07 1082.33" stroke="#D608F6" stroke-width="2" stroke-miterlimit="10"/>
<path d="M259 0.84L842.17 511.03V572.39L259 1082.59" stroke="#CF09F6" stroke-width="2" stroke-miterlimit="10"/>
<path d="M295.92 0.84L848.4 511.76V571.92L295.92 1082.84" stroke="#C80AF7" stroke-width="2" stroke-miterlimit="10"/>
<path d="M332.84 0.84L854.62 512.48V571.45L332.84 1083.09" stroke="#C10CF7" stroke-width="2" stroke-miterlimit="10"/>
<path d="M369.77 0.84L860.86 513.2V570.97L369.77 1083.33" stroke="#BA0DF8" stroke-width="2" stroke-miterlimit="10"/>
<path d="M406.69 0.84L867.09 513.92V570.49L406.69 1083.58" stroke="#B30EF8" stroke-width="2" stroke-miterlimit="10"/>
<path d="M443.61 0.84L873.31 514.64V570.02L443.61 1083.83" stroke="#AC10F9" stroke-width="2" stroke-miterlimit="10"/>
<path d="M480.53 0.84L879.54 515.37V569.55L480.53 1084.08" stroke="#A611F9" stroke-width="2" stroke-miterlimit="10"/>
<path d="M517.46 0.84L885.78 516.09V569.08L517.46 1084.33" stroke="#9F12F9" stroke-width="2" stroke-miterlimit="10"/>
<path d="M554.38 0.84L892 516.81V568.6L554.38 1084.58" stroke="#9814FA" stroke-width="2" stroke-miterlimit="10"/>
<path d="M591.3 0.84L898.23 517.53V568.13L591.3 1084.83" stroke="#9115FA" stroke-width="2" stroke-miterlimit="10"/>
<path d="M628.23 0.84L904.47 518.26V567.66L628.23 1085.08" stroke="#8A16FB" stroke-width="2" stroke-miterlimit="10"/>
<path d="M665.15 0.84L910.7 518.98V567.19L665.15 1085.34" stroke="#8318FB" stroke-width="2" stroke-miterlimit="10"/>
<path d="M702.07 0.84L916.92 519.7V566.71L702.07 1085.58" stroke="#7C19FC" stroke-width="2" stroke-miterlimit="10"/>
<path d="M739 0.84L923.16 520.42V566.23L739 1085.82" stroke="#751AFC" stroke-width="2" stroke-miterlimit="10"/>
<path d="M775.92 0.84L929.39 521.15V565.77L775.92 1086.08" stroke="#6E1BFD" stroke-width="2" stroke-miterlimit="10"/>
<path d="M812.84 0.84L935.61 521.87V565.29L812.84 1086.33" stroke="#681DFD" stroke-width="2" stroke-miterlimit="10"/>
<path d="M849.77 0.84L941.85 522.59V564.82L849.77 1086.58" stroke="#611EFE" stroke-width="2" stroke-miterlimit="10"/>
<path d="M886.69 0.84L948.08 523.31V564.34L886.69 1086.82" stroke="#5A1FFE" stroke-width="2" stroke-miterlimit="10"/>
<path d="M923.61 0.84L954.3 524.03V563.87L923.61 1087.07" stroke="#5321FF" stroke-width="2" stroke-miterlimit="10"/>
<path d="M960.53 0.84V1087.33" stroke="#4C22FF" stroke-width="2" stroke-miterlimit="10"/>
<path d="M997.46 0.84L966.77 524.03V563.87L997.46 1087.07" stroke="#5321FF" stroke-width="2" stroke-miterlimit="10"/>
<path d="M1034.38 0.84L972.99 523.31V564.34L1034.38 1086.82" stroke="#5A1FFE" stroke-width="2" stroke-miterlimit="10"/>
<path d="M1071.3 0.84L979.22 522.59V564.82L1071.3 1086.58" stroke="#611EFE" stroke-width="2" stroke-miterlimit="10"/>
<path d="M1108.23 0.84L985.46 521.87V565.29L1108.23 1086.33" stroke="#681DFD" stroke-width="2" stroke-miterlimit="10"/>
<path d="M1145.15 0.84L991.68 521.15V565.77L1145.15 1086.08" stroke="#6E1BFD" stroke-width="2" stroke-miterlimit="10"/>
<path d="M1182.07 0.84L997.91 520.42V566.23L1182.07 1085.82" stroke="#751AFC" stroke-width="2" stroke-miterlimit="10"/>
<path d="M1219 0.84L1004.15 519.7V566.71L1219 1085.58" stroke="#7C19FC" stroke-width="2" stroke-miterlimit="10"/>
<path d="M1255.92 0.84L1010.37 518.98V567.19L1255.92 1085.34" stroke="#8318FB" stroke-width="2" stroke-miterlimit="10"/>
<path d="M1292.84 0.84L1016.6 518.26V567.66L1292.84 1085.08" stroke="#8A16FB" stroke-width="2" stroke-miterlimit="10"/>
<path d="M1329.77 0.84L1022.84 517.53V568.13L1329.77 1084.83" stroke="#9115FA" stroke-width="2" stroke-miterlimit="10"/>
<path d="M1366.69 0.84L1029.07 516.81V568.6L1366.69 1084.58" stroke="#9814FA" stroke-width="2" stroke-miterlimit="10"/>
<path d="M1403.61 0.84L1035.29 516.09V569.08L1403.61 1084.33" stroke="#9F12F9" stroke-width="2" stroke-miterlimit="10"/>
<path d="M1440.53 0.84L1041.52 515.37V569.55L1440.53 1084.08" stroke="#A511F9" stroke-width="2" stroke-miterlimit="10"/>
<path d="M1477.46 0.84L1047.76 514.64V570.02L1477.46 1083.83" stroke="#AC10F9" stroke-width="2" stroke-miterlimit="10"/>
<path d="M1514.38 0.84L1053.98 513.92V570.49L1514.38 1083.58" stroke="#B30EF8" stroke-width="2" stroke-miterlimit="10"/>
<path d="M1551.3 0.84L1060.21 513.2V570.97L1551.3 1083.33" stroke="#BA0DF8" stroke-width="2" stroke-miterlimit="10"/>
<path d="M1588.23 0.84L1066.45 512.48V571.45L1588.23 1083.09" stroke="#C10CF7" stroke-width="2" stroke-miterlimit="10"/>
<path d="M1625.15 0.84L1072.67 511.76V571.92L1625.15 1082.84" stroke="#C80AF7" stroke-width="2" stroke-miterlimit="10"/>
<path d="M1662.07 0.84L1078.9 511.03V572.39L1662.07 1082.59" stroke="#CF09F6" stroke-width="2" stroke-miterlimit="10"/>
<path d="M1699 0.84L1085.14 510.31V572.86L1699 1082.33" stroke="#D608F6" stroke-width="2" stroke-miterlimit="10"/>
<path d="M1735.92 0.84L1091.36 509.59V573.34L1735.92 1082.09" stroke="#DD07F5" stroke-width="2" stroke-miterlimit="10"/>
<path d="M1772.84 0.84L1097.59 508.87V573.81L1772.84 1081.84" stroke="#E305F5" stroke-width="2" stroke-miterlimit="10"/>
<path d="M1809.77 0.84L1103.83 508.14V574.28L1809.77 1081.59" stroke="#EA04F4" stroke-width="2" stroke-miterlimit="10"/>
<path d="M1846.69 0.84L1110.05 507.42V574.75L1846.69 1081.33" stroke="#F103F4" stroke-width="2" stroke-miterlimit="10"/>
<path d="M1883.61 0.84L1116.28 506.7V575.23L1883.61 1081.09" stroke="#F801F3" stroke-width="2" stroke-miterlimit="10"/>
<path d="M1920.53 0.84L1122.51 505.98V575.71L1920.53 1080.85" stroke="#FF00F3" stroke-width="2" stroke-miterlimit="10"/>
<path d="M0.530029 0.84L798.56 505.98" stroke="#FF00F3" stroke-width="2" stroke-miterlimit="10"/>
<path d="M798.56 508.16L0.530029 34.59" stroke="#F402F4" stroke-width="2" stroke-miterlimit="10"/>
<path d="M798.56 510.34L0.530029 68.34" stroke="#E904F4" stroke-width="2" stroke-miterlimit="10"/>
<path d="M798.56 512.52L0.530029 102.09" stroke="#DD06F5" stroke-width="2" stroke-miterlimit="10"/>
<path d="M798.56 514.7L0.530029 135.84" stroke="#D209F6" stroke-width="2" stroke-miterlimit="10"/>
<path d="M798.56 516.88L0.530029 169.59" stroke="#C70BF7" stroke-width="2" stroke-miterlimit="10"/>
<path d="M798.56 519.06L0.530029 203.34" stroke="#BC0DF8" stroke-width="2" stroke-miterlimit="10"/>
<path d="M798.56 521.23L0.530029 237.09" stroke="#B10FF8" stroke-width="2" stroke-miterlimit="10"/>
<path d="M798.56 523.41L0.530029 270.84" stroke="#A611F9" stroke-width="2" stroke-miterlimit="10"/>
<path d="M798.56 525.59L0.530029 304.59" stroke="#9A13FA" stroke-width="2" stroke-miterlimit="10"/>
<path d="M798.56 527.77L0.530029 338.34" stroke="#8F15FB" stroke-width="2" stroke-miterlimit="10"/>
<path d="M798.56 529.95L0.530029 372.09" stroke="#8417FB" stroke-width="2" stroke-miterlimit="10"/>
<path d="M798.56 532.13L0.530029 405.84" stroke="#791AFC" stroke-width="2" stroke-miterlimit="10"/>
<path d="M798.56 534.31L0.530029 439.59" stroke="#6E1CFD" stroke-width="2" stroke-miterlimit="10"/>
<path d="M798.56 536.49L0.530029 473.34" stroke="#621EFE" stroke-width="2" stroke-miterlimit="10"/>
<path d="M798.56 538.67L0.530029 507.09" stroke="#5720FE" stroke-width="2" stroke-miterlimit="10"/>
<path d="M798.56 540.84H0.530029" stroke="#4C22FF" stroke-width="2" stroke-miterlimit="10"/>
<path d="M798.56 543.02L0.530029 574.59" stroke="#5720FE" stroke-width="2" stroke-miterlimit="10"/>
<path d="M798.56 545.2L0.530029 608.34" stroke="#621EFE" stroke-width="2" stroke-miterlimit="10"/>
<path d="M798.56 547.38L0.530029 642.09" stroke="#6E1CFD" stroke-width="2" stroke-miterlimit="10"/>
<path d="M798.56 549.56L0.530029 675.84" stroke="#791AFC" stroke-width="2" stroke-miterlimit="10"/>
<path d="M798.56 551.74L0.530029 709.59" stroke="#8417FB" stroke-width="2" stroke-miterlimit="10"/>
<path d="M798.56 553.92L0.530029 743.34" stroke="#8F15FB" stroke-width="2" stroke-miterlimit="10"/>
<path d="M798.56 556.1L0.530029 777.09" stroke="#9A13FA" stroke-width="2" stroke-miterlimit="10"/>
<path d="M798.56 558.28L0.530029 810.84" stroke="#A611F9" stroke-width="2" stroke-miterlimit="10"/>
<path d="M798.56 560.46L0.530029 844.59" stroke="#B10FF8" stroke-width="2" stroke-miterlimit="10"/>
<path d="M798.56 562.63L0.530029 878.34" stroke="#BC0DF8" stroke-width="2" stroke-miterlimit="10"/>
<path d="M798.56 564.81L0.530029 912.09" stroke="#C70BF7" stroke-width="2" stroke-miterlimit="10"/>
<path d="M798.56 566.99L0.530029 945.84" stroke="#D209F6" stroke-width="2" stroke-miterlimit="10"/>
<path d="M798.56 569.17L0.530029 979.59" stroke="#DD06F5" stroke-width="2" stroke-miterlimit="10"/>
<path d="M798.56 571.35L0.530029 1013.34" stroke="#E904F4" stroke-width="2" stroke-miterlimit="10"/>
<path d="M798.56 573.53L0.530029 1047.09" stroke="#F402F4" stroke-width="2" stroke-miterlimit="10"/>
<path d="M0.530029 1080.84L798.56 575.71" stroke="#FF00F3" stroke-width="2" stroke-miterlimit="10"/>
<path d="M1920.53 0.84L1122.51 505.98" stroke="#FF00F3" stroke-width="2" stroke-miterlimit="10"/>
<path d="M1122.51 508.16L1920.53 34.59" stroke="#F402F4" stroke-width="2" stroke-miterlimit="10"/>
<path d="M1122.51 510.34L1920.53 68.34" stroke="#E904F4" stroke-width="2" stroke-miterlimit="10"/>
<path d="M1122.51 512.52L1920.53 102.09" stroke="#DD06F5" stroke-width="2" stroke-miterlimit="10"/>
<path d="M1122.51 514.7L1920.53 135.84" stroke="#D209F6" stroke-width="2" stroke-miterlimit="10"/>
<path d="M1122.51 516.88L1920.53 169.59" stroke="#C70BF7" stroke-width="2" stroke-miterlimit="10"/>
<path d="M1122.51 519.06L1920.53 203.34" stroke="#BC0DF8" stroke-width="2" stroke-miterlimit="10"/>
<path d="M1122.51 521.23L1920.53 237.09" stroke="#B10FF8" stroke-width="2" stroke-miterlimit="10"/>
<path d="M1122.51 523.41L1920.53 270.84" stroke="#A611F9" stroke-width="2" stroke-miterlimit="10"/>
<path d="M1122.51 525.59L1920.53 304.59" stroke="#9A13FA" stroke-width="2" stroke-miterlimit="10"/>
<path d="M1122.51 527.77L1920.53 338.34" stroke="#8F15FB" stroke-width="2" stroke-miterlimit="10"/>
<path d="M1122.51 529.95L1920.53 372.09" stroke="#8417FB" stroke-width="2" stroke-miterlimit="10"/>
<path d="M1122.51 532.13L1920.53 405.84" stroke="#791AFC" stroke-width="2" stroke-miterlimit="10"/>
<path d="M1122.51 534.31L1920.53 439.59" stroke="#6E1CFD" stroke-width="2" stroke-miterlimit="10"/>
<path d="M1122.51 536.49L1920.53 473.34" stroke="#621EFE" stroke-width="2" stroke-miterlimit="10"/>
<path d="M1122.51 538.67L1920.53 507.09" stroke="#5720FE" stroke-width="2" stroke-miterlimit="10"/>
<path d="M1122.51 540.84H1920.53" stroke="#4C22FF" stroke-width="2" stroke-miterlimit="10"/>
<path d="M1122.51 543.02L1920.53 574.59" stroke="#5720FE" stroke-width="2" stroke-miterlimit="10"/>
<path d="M1122.51 545.2L1920.53 608.34" stroke="#621EFE" stroke-width="2" stroke-miterlimit="10"/>
<path d="M1122.51 547.38L1920.53 642.09" stroke="#6E1CFD" stroke-width="2" stroke-miterlimit="10"/>
<path d="M1122.51 549.56L1920.53 675.84" stroke="#791AFC" stroke-width="2" stroke-miterlimit="10"/>
<path d="M1122.51 551.74L1920.53 709.59" stroke="#8417FB" stroke-width="2" stroke-miterlimit="10"/>
<path d="M1122.51 553.92L1920.53 743.34" stroke="#8F15FB" stroke-width="2" stroke-miterlimit="10"/>
<path d="M1122.51 556.1L1920.53 777.09" stroke="#9A13FA" stroke-width="2" stroke-miterlimit="10"/>
<path d="M1122.51 558.28L1920.53 810.84" stroke="#A611F9" stroke-width="2" stroke-miterlimit="10"/>
<path d="M1122.51 560.46L1920.53 844.59" stroke="#B10FF8" stroke-width="2" stroke-miterlimit="10"/>
<path d="M1122.51 562.63L1920.53 878.34" stroke="#BC0DF8" stroke-width="2" stroke-miterlimit="10"/>
<path d="M1122.51 564.81L1920.53 912.09" stroke="#C70BF7" stroke-width="2" stroke-miterlimit="10"/>
<path d="M1122.51 566.99L1920.53 945.84" stroke="#D209F6" stroke-width="2" stroke-miterlimit="10"/>
<path d="M1122.51 569.17L1920.53 979.59" stroke="#DD06F5" stroke-width="2" stroke-miterlimit="10"/>
<path d="M1122.51 571.35L1920.53 1013.34" stroke="#E904F4" stroke-width="2" stroke-miterlimit="10"/>
<path d="M1122.51 573.53L1920.53 1047.09" stroke="#F402F4" stroke-width="2" stroke-miterlimit="10"/>
<path d="M1920.53 1080.84L1122.51 575.71" stroke="#FF00F3" stroke-width="2" stroke-miterlimit="10"/>
</g>
<defs>
<clipPath id="clip0_53_1855">
<rect width="1921.07" height="1087.33" fill="white"/>
</clipPath>
</defs>
</svg>
