<svg width="1922" height="1088" viewBox="0 0 1922 1088" fill="none" xmlns="http://www.w3.org/2000/svg">
<g clip-path="url(#clip0_53_81)">
<path d="M0.53 0.84L798.55 505.98V575.71L0.53 1080.84" stroke="#A8FF00" stroke-width="2" stroke-miterlimit="10"/>
<path d="M37.46 0.84L804.79 506.7V575.23L37.46 1081.09" stroke="#ABFF0A" stroke-width="2" stroke-miterlimit="10"/>
<path d="M74.38 0.84L811.02 507.42V574.75L74.38 1081.34" stroke="#AFFF14" stroke-width="2" stroke-miterlimit="10"/>
<path d="M111.3 0.84L817.24 508.14V574.28L111.3 1081.59" stroke="#B2FF1D" stroke-width="2" stroke-miterlimit="10"/>
<path d="M148.23 0.84L823.48 508.87V573.81L148.23 1081.84" stroke="#B5FF27" stroke-width="2" stroke-miterlimit="10"/>
<path d="M185.15 0.84L829.71 509.59V573.34L185.15 1082.09" stroke="#B9FF31" stroke-width="2" stroke-miterlimit="10"/>
<path d="M222.07 0.84L835.93 510.31V572.86L222.07 1082.33" stroke="#BCFF3B" stroke-width="2" stroke-miterlimit="10"/>
<path d="M259 0.84L842.17 511.03V572.39L259 1082.59" stroke="#BFFF45" stroke-width="2" stroke-miterlimit="10"/>
<path d="M295.92 0.84L848.4 511.76V571.92L295.92 1082.84" stroke="#C3FF4E" stroke-width="2" stroke-miterlimit="10"/>
<path d="M332.84 0.84L854.62 512.48V571.45L332.84 1083.09" stroke="#C6FF58" stroke-width="2" stroke-miterlimit="10"/>
<path d="M369.77 0.84L860.86 513.2V570.97L369.77 1083.33" stroke="#C9FF62" stroke-width="2" stroke-miterlimit="10"/>
<path d="M406.69 0.84L867.09 513.92V570.49L406.69 1083.58" stroke="#CDFF6C" stroke-width="2" stroke-miterlimit="10"/>
<path d="M443.61 0.84L873.31 514.64V570.02L443.61 1083.83" stroke="#D0FF76" stroke-width="2" stroke-miterlimit="10"/>
<path d="M480.53 0.84L879.54 515.37V569.55L480.53 1084.08" stroke="#D3FF7F" stroke-width="2" stroke-miterlimit="10"/>
<path d="M517.46 0.84L885.78 516.09V569.08L517.46 1084.33" stroke="#D7FF89" stroke-width="2" stroke-miterlimit="10"/>
<path d="M554.38 0.84L892 516.81V568.6L554.38 1084.58" stroke="#DAFF93" stroke-width="2" stroke-miterlimit="10"/>
<path d="M591.3 0.84L898.23 517.53V568.13L591.3 1084.83" stroke="#DEFF9D" stroke-width="2" stroke-miterlimit="10"/>
<path d="M628.23 0.84L904.47 518.26V567.66L628.23 1085.08" stroke="#E1FFA7" stroke-width="2" stroke-miterlimit="10"/>
<path d="M665.15 0.84L910.7 518.98V567.19L665.15 1085.34" stroke="#E4FFB1" stroke-width="2" stroke-miterlimit="10"/>
<path d="M702.07 0.84L916.92 519.7V566.71L702.07 1085.58" stroke="#E8FFBA" stroke-width="2" stroke-miterlimit="10"/>
<path d="M739 0.84L923.16 520.42V566.23L739 1085.82" stroke="#EBFFC4" stroke-width="2" stroke-miterlimit="10"/>
<path d="M775.92 0.84L929.39 521.15V565.77L775.92 1086.08" stroke="#EEFFCE" stroke-width="2" stroke-miterlimit="10"/>
<path d="M812.84 0.84L935.61 521.87V565.29L812.84 1086.33" stroke="#F2FFD8" stroke-width="2" stroke-miterlimit="10"/>
<path d="M849.77 0.84L941.85 522.59V564.82L849.77 1086.58" stroke="#F5FFE2" stroke-width="2" stroke-miterlimit="10"/>
<path d="M886.69 0.84L948.08 523.31V564.34L886.69 1086.82" stroke="#F8FFEB" stroke-width="2" stroke-miterlimit="10"/>
<path d="M923.61 0.84L954.3 524.03V563.87L923.61 1087.07" stroke="#FCFFF5" stroke-width="2" stroke-miterlimit="10"/>
<path d="M960.53 0.84V1087.33" stroke="white" stroke-width="2" stroke-miterlimit="10"/>
<path d="M997.46 0.84L966.77 524.03V563.87L997.46 1087.07" stroke="#FCFFF5" stroke-width="2" stroke-miterlimit="10"/>
<path d="M1034.38 0.84L972.99 523.31V564.34L1034.38 1086.82" stroke="#F8FFEB" stroke-width="2" stroke-miterlimit="10"/>
<path d="M1071.3 0.84L979.22 522.59V564.82L1071.3 1086.58" stroke="#F5FFE2" stroke-width="2" stroke-miterlimit="10"/>
<path d="M1108.23 0.84L985.46 521.87V565.29L1108.23 1086.33" stroke="#F2FFD8" stroke-width="2" stroke-miterlimit="10"/>
<path d="M1145.15 0.84L991.68 521.15V565.77L1145.15 1086.08" stroke="#EEFFCE" stroke-width="2" stroke-miterlimit="10"/>
<path d="M1182.07 0.84L997.91 520.42V566.23L1182.07 1085.82" stroke="#EBFFC4" stroke-width="2" stroke-miterlimit="10"/>
<path d="M1219 0.84L1004.15 519.7V566.71L1219 1085.58" stroke="#E8FFBA" stroke-width="2" stroke-miterlimit="10"/>
<path d="M1255.92 0.84L1010.37 518.98V567.19L1255.92 1085.34" stroke="#E4FFB1" stroke-width="2" stroke-miterlimit="10"/>
<path d="M1292.84 0.84L1016.6 518.26V567.66L1292.84 1085.08" stroke="#E1FFA7" stroke-width="2" stroke-miterlimit="10"/>
<path d="M1329.77 0.84L1022.84 517.53V568.13L1329.77 1084.83" stroke="#DEFF9D" stroke-width="2" stroke-miterlimit="10"/>
<path d="M1366.69 0.84L1029.07 516.81V568.6L1366.69 1084.58" stroke="#DAFF93" stroke-width="2" stroke-miterlimit="10"/>
<path d="M1403.61 0.84L1035.29 516.09V569.08L1403.61 1084.33" stroke="#D7FF89" stroke-width="2" stroke-miterlimit="10"/>
<path d="M1440.53 0.84L1041.52 515.37V569.55L1440.53 1084.08" stroke="#D4FF80" stroke-width="2" stroke-miterlimit="10"/>
<path d="M1477.46 0.84L1047.76 514.64V570.02L1477.46 1083.83" stroke="#D0FF76" stroke-width="2" stroke-miterlimit="10"/>
<path d="M1514.38 0.84L1053.98 513.92V570.49L1514.38 1083.58" stroke="#CDFF6C" stroke-width="2" stroke-miterlimit="10"/>
<path d="M1551.3 0.84L1060.21 513.2V570.97L1551.3 1083.33" stroke="#C9FF62" stroke-width="2" stroke-miterlimit="10"/>
<path d="M1588.23 0.84L1066.45 512.48V571.45L1588.23 1083.09" stroke="#C6FF58" stroke-width="2" stroke-miterlimit="10"/>
<path d="M1625.15 0.84L1072.67 511.76V571.92L1625.15 1082.84" stroke="#C3FF4E" stroke-width="2" stroke-miterlimit="10"/>
<path d="M1662.07 0.84L1078.9 511.03V572.39L1662.07 1082.59" stroke="#BFFF45" stroke-width="2" stroke-miterlimit="10"/>
<path d="M1699 0.84L1085.14 510.31V572.86L1699 1082.33" stroke="#BCFF3B" stroke-width="2" stroke-miterlimit="10"/>
<path d="M1735.92 0.84L1091.36 509.59V573.34L1735.92 1082.09" stroke="#B9FF31" stroke-width="2" stroke-miterlimit="10"/>
<path d="M1772.84 0.84L1097.59 508.87V573.81L1772.84 1081.84" stroke="#B5FF27" stroke-width="2" stroke-miterlimit="10"/>
<path d="M1809.77 0.84L1103.83 508.14V574.28L1809.77 1081.59" stroke="#B2FF1D" stroke-width="2" stroke-miterlimit="10"/>
<path d="M1846.69 0.84L1110.05 507.42V574.75L1846.69 1081.33" stroke="#AFFF14" stroke-width="2" stroke-miterlimit="10"/>
<path d="M1883.61 0.84L1116.28 506.7V575.23L1883.61 1081.09" stroke="#ABFF0A" stroke-width="2" stroke-miterlimit="10"/>
<path d="M1920.53 0.84L1122.51 505.98V575.71L1920.53 1080.85" stroke="#A8FF00" stroke-width="2" stroke-miterlimit="10"/>
<path d="M0.53 0.84L798.56 505.98" stroke="#A8FF00" stroke-width="2" stroke-miterlimit="10"/>
<path d="M798.56 508.16L0.53 34.59" stroke="#ADFF10" stroke-width="2" stroke-miterlimit="10"/>
<path d="M798.56 510.34L0.53 68.34" stroke="#B3FF20" stroke-width="2" stroke-miterlimit="10"/>
<path d="M798.56 512.52L0.53 102.09" stroke="#B8FF30" stroke-width="2" stroke-miterlimit="10"/>
<path d="M798.56 514.7L0.53 135.84" stroke="#BEFF40" stroke-width="2" stroke-miterlimit="10"/>
<path d="M798.56 516.88L0.53 169.59" stroke="#C3FF50" stroke-width="2" stroke-miterlimit="10"/>
<path d="M798.56 519.06L0.53 203.34" stroke="#C9FF60" stroke-width="2" stroke-miterlimit="10"/>
<path d="M798.56 521.23L0.53 237.09" stroke="#CEFF70" stroke-width="2" stroke-miterlimit="10"/>
<path d="M798.56 523.41L0.53 270.84" stroke="#D3FF80" stroke-width="2" stroke-miterlimit="10"/>
<path d="M798.56 525.59L0.53 304.59" stroke="#D9FF8F" stroke-width="2" stroke-miterlimit="10"/>
<path d="M798.56 527.77L0.53 338.34" stroke="#DEFF9F" stroke-width="2" stroke-miterlimit="10"/>
<path d="M798.56 529.95L0.53 372.09" stroke="#E4FFAF" stroke-width="2" stroke-miterlimit="10"/>
<path d="M798.56 532.13L0.53 405.84" stroke="#E9FFBF" stroke-width="2" stroke-miterlimit="10"/>
<path d="M798.56 534.31L0.53 439.59" stroke="#EFFFCF" stroke-width="2" stroke-miterlimit="10"/>
<path d="M798.56 536.49L0.53 473.34" stroke="#F4FFDF" stroke-width="2" stroke-miterlimit="10"/>
<path d="M798.56 538.67L0.53 507.09" stroke="#FAFFEF" stroke-width="2" stroke-miterlimit="10"/>
<path d="M798.56 540.84H0.53" stroke="white" stroke-width="2" stroke-miterlimit="10"/>
<path d="M798.56 543.02L0.53 574.59" stroke="#FAFFEF" stroke-width="2" stroke-miterlimit="10"/>
<path d="M798.56 545.2L0.53 608.34" stroke="#F4FFDF" stroke-width="2" stroke-miterlimit="10"/>
<path d="M798.56 547.38L0.53 642.09" stroke="#EFFFCF" stroke-width="2" stroke-miterlimit="10"/>
<path d="M798.56 549.56L0.53 675.84" stroke="#E9FFBF" stroke-width="2" stroke-miterlimit="10"/>
<path d="M798.56 551.74L0.53 709.59" stroke="#E4FFAF" stroke-width="2" stroke-miterlimit="10"/>
<path d="M798.56 553.92L0.53 743.34" stroke="#DEFF9F" stroke-width="2" stroke-miterlimit="10"/>
<path d="M798.56 556.1L0.53 777.09" stroke="#D9FF8F" stroke-width="2" stroke-miterlimit="10"/>
<path d="M798.56 558.28L0.53 810.84" stroke="#D3FF80" stroke-width="2" stroke-miterlimit="10"/>
<path d="M798.56 560.46L0.53 844.59" stroke="#CEFF70" stroke-width="2" stroke-miterlimit="10"/>
<path d="M798.56 562.63L0.53 878.34" stroke="#C9FF60" stroke-width="2" stroke-miterlimit="10"/>
<path d="M798.56 564.81L0.53 912.09" stroke="#C3FF50" stroke-width="2" stroke-miterlimit="10"/>
<path d="M798.56 566.99L0.53 945.84" stroke="#BEFF40" stroke-width="2" stroke-miterlimit="10"/>
<path d="M798.56 569.17L0.53 979.59" stroke="#B8FF30" stroke-width="2" stroke-miterlimit="10"/>
<path d="M798.56 571.35L0.53 1013.34" stroke="#B3FF20" stroke-width="2" stroke-miterlimit="10"/>
<path d="M798.56 573.53L0.53 1047.09" stroke="#ADFF10" stroke-width="2" stroke-miterlimit="10"/>
<path d="M0.53 1080.84L798.56 575.71" stroke="#A8FF00" stroke-width="2" stroke-miterlimit="10"/>
<path d="M1920.53 0.84L1122.51 505.98" stroke="#A8FF00" stroke-width="2" stroke-miterlimit="10"/>
<path d="M1122.51 507.64L1920.53 26.56" stroke="#ACFF0C" stroke-width="2" stroke-miterlimit="10"/>
<path d="M1122.51 509.3L1920.53 52.27" stroke="#B0FF18" stroke-width="2" stroke-miterlimit="10"/>
<path d="M1122.51 510.96L1920.53 77.99" stroke="#B4FF24" stroke-width="2" stroke-miterlimit="10"/>
<path d="M1122.51 512.62L1920.53 103.7" stroke="#B9FF31" stroke-width="2" stroke-miterlimit="10"/>
<path d="M1122.51 514.28L1920.53 129.42" stroke="#BDFF3D" stroke-width="2" stroke-miterlimit="10"/>
<path d="M1122.51 515.94L1920.53 155.13" stroke="#C1FF49" stroke-width="2" stroke-miterlimit="10"/>
<path d="M1122.51 517.6L1920.53 180.84" stroke="#C5FF55" stroke-width="2" stroke-miterlimit="10"/>
<path d="M1122.51 519.26L1920.53 206.56" stroke="#C9FF61" stroke-width="2" stroke-miterlimit="10"/>
<path d="M1122.51 520.92L1920.53 232.27" stroke="#CDFF6D" stroke-width="2" stroke-miterlimit="10"/>
<path d="M1122.51 522.58L1920.53 257.99" stroke="#D1FF79" stroke-width="2" stroke-miterlimit="10"/>
<path d="M1122.51 524.24L1920.53 283.7" stroke="#D6FF86" stroke-width="2" stroke-miterlimit="10"/>
<path d="M1122.51 525.9L1920.53 309.42" stroke="#DAFF92" stroke-width="2" stroke-miterlimit="10"/>
<path d="M1122.51 527.56L1920.53 335.13" stroke="#DEFF9E" stroke-width="2" stroke-miterlimit="10"/>
<path d="M1122.51 529.22L1920.53 360.84" stroke="#E2FFAA" stroke-width="2" stroke-miterlimit="10"/>
<path d="M1122.51 530.88L1920.53 386.56" stroke="#E6FFB6" stroke-width="2" stroke-miterlimit="10"/>
<path d="M1122.51 532.54L1920.53 412.27" stroke="#EAFFC2" stroke-width="2" stroke-miterlimit="10"/>
<path d="M1122.51 534.2L1920.53 437.99" stroke="#EEFFCE" stroke-width="2" stroke-miterlimit="10"/>
<path d="M1122.51 535.86L1920.53 463.7" stroke="#F3FFDB" stroke-width="2" stroke-miterlimit="10"/>
<path d="M1122.51 537.52L1920.53 489.42" stroke="#F7FFE7" stroke-width="2" stroke-miterlimit="10"/>
<path d="M1122.51 539.18L1920.53 515.13" stroke="#FBFFF3" stroke-width="2" stroke-miterlimit="10"/>
<path d="M1122.51 540.84H1920.53" stroke="white" stroke-width="2" stroke-miterlimit="10"/>
<path d="M1122.51 542.51L1920.53 566.56" stroke="#FBFFF3" stroke-width="2" stroke-miterlimit="10"/>
<path d="M1122.51 544.17L1920.53 592.27" stroke="#F7FFE7" stroke-width="2" stroke-miterlimit="10"/>
<path d="M1122.51 545.83L1920.53 617.99" stroke="#F3FFDB" stroke-width="2" stroke-miterlimit="10"/>
<path d="M1122.51 547.49L1920.53 643.7" stroke="#EEFFCE" stroke-width="2" stroke-miterlimit="10"/>
<path d="M1122.51 549.15L1920.53 669.42" stroke="#EAFFC2" stroke-width="2" stroke-miterlimit="10"/>
<path d="M1122.51 550.81L1920.53 695.13" stroke="#E6FFB6" stroke-width="2" stroke-miterlimit="10"/>
<path d="M1122.51 552.47L1920.53 720.84" stroke="#E2FFAA" stroke-width="2" stroke-miterlimit="10"/>
<path d="M1122.51 554.13L1920.53 746.56" stroke="#DEFF9E" stroke-width="2" stroke-miterlimit="10"/>
<path d="M1122.51 555.79L1920.53 772.27" stroke="#DAFF92" stroke-width="2" stroke-miterlimit="10"/>
<path d="M1122.51 557.45L1920.53 797.99" stroke="#D6FF86" stroke-width="2" stroke-miterlimit="10"/>
<path d="M1122.51 559.11L1920.53 823.7" stroke="#D1FF79" stroke-width="2" stroke-miterlimit="10"/>
<path d="M1122.51 560.77L1920.53 849.42" stroke="#CDFF6D" stroke-width="2" stroke-miterlimit="10"/>
<path d="M1122.51 562.43L1920.53 875.13" stroke="#C9FF61" stroke-width="2" stroke-miterlimit="10"/>
<path d="M1122.51 564.09L1920.53 900.84" stroke="#C5FF55" stroke-width="2" stroke-miterlimit="10"/>
<path d="M1122.51 565.75L1920.53 926.56" stroke="#C1FF49" stroke-width="2" stroke-miterlimit="10"/>
<path d="M1122.51 567.41L1920.53 952.27" stroke="#BDFF3D" stroke-width="2" stroke-miterlimit="10"/>
<path d="M1122.51 569.07L1920.53 977.99" stroke="#B9FF31" stroke-width="2" stroke-miterlimit="10"/>
<path d="M1122.51 570.73L1920.53 1003.7" stroke="#B4FF24" stroke-width="2" stroke-miterlimit="10"/>
<path d="M1122.51 572.39L1920.53 1029.42" stroke="#B0FF18" stroke-width="2" stroke-miterlimit="10"/>
<path d="M1122.51 574.05L1920.53 1055.13" stroke="#ACFF0C" stroke-width="2" stroke-miterlimit="10"/>
<path d="M1920.53 1080.84L1122.51 575.71" stroke="#A8FF00" stroke-width="2" stroke-miterlimit="10"/>
</g>
<defs>
<clipPath id="clip0_53_81">
<rect width="1921.07" height="1087.33" fill="white"/>
</clipPath>
</defs>
</svg>
