<svg width="910" height="962" viewBox="0 0 910 962" fill="none" xmlns="http://www.w3.org/2000/svg">
<path d="M23.7598 931.25H886.24" stroke="#FF00F3" stroke-width="60" stroke-miterlimit="10"/>
<path d="M880 241.14V201.8C871.25 189.83 864.82 181.04 856.08 169.07L468.17 30H441.82L53.92 169.07C45.17 181.04 38.74 189.83 30 201.8V241.14C44.49 254.81 52.61 262.48 67.1 276.15H842.91C842.91 276.15 865.51 254.81 880 241.14Z" stroke="#FF00F3" stroke-width="60" stroke-miterlimit="10"/>
<path d="M187.009 830.138H117.989L82.9795 795.128V311.158C96.6495 297.488 104.319 289.818 117.989 276.148H187.009C200.679 289.818 208.35 297.488 222.02 311.158V795.128L187.009 830.138Z" stroke="#FF00F3" stroke-width="60" stroke-miterlimit="10"/>
<path d="M792.01 830.138H722.99L687.979 795.128V311.158L722.99 276.148H792.01C805.68 289.818 813.35 297.488 827.02 311.158V795.128L792.01 830.138Z" stroke="#FF00F3" stroke-width="60" stroke-miterlimit="10"/>
<path d="M605 428.16H394.35C381.18 439.39 373.79 445.69 360.62 456.92V687.03C373.79 698.26 381.18 704.56 394.35 715.79H605" stroke="#FF00F3" stroke-width="60" stroke-miterlimit="10"/>
<path d="M305 526.121H552.98" stroke="#FF00F3" stroke-width="60" stroke-miterlimit="10"/>
<path d="M305 619.57H552.98" stroke="#FF00F3" stroke-width="60" stroke-miterlimit="10"/>
<path d="M23.7598 931.25H886.24" stroke="#FF00F3" stroke-width="60" stroke-miterlimit="10"/>
</svg>
