<svg width="1000" height="1000" viewBox="0 0 1000 1000" fill="none" xmlns="http://www.w3.org/2000/svg">
<path d="M800 611.641V768.321C799.96 774.531 799.94 777.351 799.9 783.561L785.42 794.871L719.93 836.601L623.55 878.851L506.74 899.301L382.77 881.311L282.31 838.781L214.98 795.691L199.98 783.671C200.02 777.461 200.04 774.641 200.08 768.431V618.061" stroke="white" stroke-width="60" stroke-miterlimit="10"/>
<path d="M800 440.98V597.66C799.96 603.87 799.94 606.69 799.9 612.9L785.42 624.21L719.93 665.94L623.55 708.19L506.74 728.64L382.77 710.65L282.31 668.12L214.98 625.03L199.98 613.01C200.02 606.8 200.04 603.98 200.08 597.77V447.4" stroke="white" stroke-width="60" stroke-miterlimit="10"/>
<path d="M800 270.311V426.991C799.96 433.201 799.94 436.021 799.9 442.231L785.42 453.541L719.93 495.271L623.55 537.521L506.74 557.971L382.77 539.981L282.31 497.451L214.98 454.361L199.98 442.341C200.02 436.131 200.04 433.311 200.08 427.101V276.731" stroke="white" stroke-width="60" stroke-miterlimit="10"/>
<path d="M800 256.33C799.96 262.54 799.94 265.36 799.9 271.57L785.42 282.88L719.93 324.61L623.55 366.86L506.74 387.31L382.77 369.32L282.31 326.79L214.98 283.7L199.98 271.68C200.02 265.47 200.04 262.65 200.08 256.44" stroke="white" stroke-width="60" stroke-miterlimit="10"/>
<path d="M200 419.83V263.15C200.04 256.94 200.06 254.12 200.1 247.91L214.58 236.6L280.07 194.87L376.45 152.62L493.26 132.17L617.23 150.16L717.69 192.69L785.02 235.78L800.02 247.8C799.98 254.01 799.96 256.83 799.92 263.04V413.41" stroke="white" stroke-width="60" stroke-miterlimit="10"/>
</svg>
