<svg width="1000" height="1000" viewBox="0 0 1000 1000" fill="none" xmlns="http://www.w3.org/2000/svg">
<path d="M700 558V662.45C699.97 666.59 699.96 668.47 699.93 672.61L690.28 680.15L646.62 707.97L582.37 736.14L504.5 749.78L421.86 737.79L354.89 709.44L310.01 680.71L300.01 672.7C300.04 668.56 300.05 666.68 300.08 662.54V562.29" stroke="white" stroke-width="60" stroke-miterlimit="10"/>
<path d="M700 444.23V548.68C699.97 552.82 699.96 554.7 699.93 558.84L690.28 566.38L646.62 594.2L582.37 622.37L504.5 636.01L421.86 624.02L354.89 595.67L310.01 566.94L300.01 558.93C300.04 554.79 300.05 552.91 300.08 548.77V448.52" stroke="white" stroke-width="60" stroke-miterlimit="10"/>
<path d="M700 434.898C699.97 439.038 699.96 440.918 699.93 445.058L690.28 452.598L646.62 480.418L582.37 508.588L504.5 522.228L421.86 510.238L354.89 481.888L310.01 453.158L300.01 445.148C300.04 441.008 300.05 439.128 300.08 434.988" stroke="white" stroke-width="60" stroke-miterlimit="10"/>
<path d="M300 543.901V439.451C300.03 435.311 300.04 433.431 300.07 429.291L309.72 421.751L353.38 393.931L417.63 365.761L495.5 352.121L578.14 364.111L645.11 392.461L689.99 421.191L699.99 429.201C699.96 433.341 699.95 435.221 699.92 439.361V539.611" stroke="white" stroke-width="60" stroke-miterlimit="10"/>
<path d="M870 825.202V318.832L498.88 72.1719L130 318.822V825.202C145.62 840.822 154.37 849.582 169.99 865.202H830C845.62 849.582 854.38 840.822 870 825.202Z" stroke="white" stroke-width="60" stroke-miterlimit="10"/>
</svg>
