<svg width="1000" height="1000" viewBox="0 0 1000 1000" fill="none" xmlns="http://www.w3.org/2000/svg">
<path d="M739.91 310.07V435.37C739.88 440.33 739.86 442.59 739.83 447.55L728.25 456.59L675.88 489.96L598.81 523.75L505.4 540.11L406.27 525.72L325.94 491.71L272.1 457.25L260.11 447.64C260.14 442.68 260.16 440.42 260.19 435.46V315.21" stroke="white" stroke-width="60" stroke-miterlimit="10"/>
<path d="M739.91 173.6V298.9C739.88 303.86 739.86 306.12 739.83 311.08L728.25 320.12L675.88 353.49L598.81 387.28L505.4 403.64L406.27 389.25L325.94 355.24L272.1 320.78L260.11 311.17C260.14 306.21 260.16 303.95 260.19 298.99V178.74" stroke="white" stroke-width="60" stroke-miterlimit="10"/>
<path d="M739.91 162.41C739.88 167.37 739.86 169.63 739.83 174.59L728.25 183.63L675.88 217L598.81 250.79L505.4 267.15L406.27 252.76L325.94 218.75L272.1 184.29L260.11 174.68C260.14 169.72 260.16 167.46 260.19 162.5" stroke="white" stroke-width="60" stroke-miterlimit="10"/>
<path d="M260.09 293.159V167.859C260.12 162.899 260.14 160.639 260.17 155.679L271.75 146.639L324.12 113.269L401.19 79.4791L494.6 63.1191L593.73 77.5091L674.06 111.519L727.9 145.979L739.89 155.589C739.86 160.549 739.84 162.809 739.81 167.769V288.019" stroke="white" stroke-width="60" stroke-miterlimit="10"/>
<path d="M25.1699 657.449C120.15 657.449 120.15 709.279 215.13 709.279C310.11 709.279 310.11 657.449 405.1 657.449C500.09 657.449 500.08 709.279 595.07 709.279" stroke="white" stroke-width="60" stroke-miterlimit="10"/>
<path d="M25.1699 767.219C120.15 767.219 120.15 819.049 215.13 819.049C310.11 819.049 310.11 767.219 405.1 767.219C500.09 767.219 500.08 819.049 595.07 819.049" stroke="white" stroke-width="60" stroke-miterlimit="10"/>
<path d="M25.1699 876.988C120.15 876.988 120.15 928.818 215.13 928.818C310.11 928.818 310.11 876.988 405.1 876.988C500.09 876.988 500.08 928.818 595.07 928.818" stroke="white" stroke-width="60" stroke-miterlimit="10"/>
<path d="M404.95 657.449C499.93 657.449 499.93 709.279 594.91 709.279C689.89 709.279 689.89 657.449 784.88 657.449C879.87 657.449 879.86 709.279 974.85 709.279" stroke="white" stroke-width="60" stroke-miterlimit="10"/>
<path d="M404.95 767.219C499.93 767.219 499.93 819.049 594.91 819.049C689.89 819.049 689.89 767.219 784.88 767.219C879.87 767.219 879.86 819.049 974.85 819.049" stroke="white" stroke-width="60" stroke-miterlimit="10"/>
<path d="M404.95 876.988C499.93 876.988 499.93 928.818 594.91 928.818C689.89 928.818 689.89 876.988 784.88 876.988C879.87 876.988 879.86 928.818 974.85 928.818" stroke="white" stroke-width="60" stroke-miterlimit="10"/>
</svg>
