<svg width="1000" height="1000" viewBox="0 0 1000 1000" fill="none" xmlns="http://www.w3.org/2000/svg">
<path d="M427.32 483.88L391.97 507.78L301.17 526.11L210.38 507.78L136.24 457.79L86.2499 383.65L67.9199 292.86L86.2499 202.07L136.24 127.92L210.38 77.9397L300.86 59.6797L391.65 78.0097L465.79 127.99L515.78 202.13L534.11 292.93L515.78 383.72L486.85 426.62" stroke="white" stroke-width="60" stroke-miterlimit="10"/>
<path d="M431.91 618.309L391.97 645.319L301.17 663.649L210.38 645.319L136.24 595.329L86.2499 521.189L67.9199 430.399V292.859" stroke="white" stroke-width="60" stroke-miterlimit="10"/>
<path d="M534.11 292.93V430.47" stroke="white" stroke-width="60" stroke-miterlimit="10"/>
<path d="M431.91 758.36L391.97 785.37L301.17 803.7L210.38 785.37L136.24 735.39L86.2499 661.24L67.9199 570.45V432.91" stroke="white" stroke-width="60" stroke-miterlimit="10"/>
<path d="M411.75 176.789H241.69C231.06 185.859 225.09 190.939 214.46 200.009V385.769C225.1 394.839 231.06 399.919 241.69 408.989H411.75" stroke="white" stroke-width="60" stroke-miterlimit="10"/>
<path d="M169.56 255.879H369.76" stroke="white" stroke-width="60" stroke-miterlimit="10"/>
<path d="M169.56 331.309H369.76" stroke="white" stroke-width="60" stroke-miterlimit="10"/>
<path d="M895.01 928.801H478.74L438.74 888.801V472.531C454.36 456.911 463.12 448.151 478.74 432.531H895.01L935.01 472.531V888.801C919.39 904.421 910.63 913.181 895.01 928.801Z" stroke="white" stroke-width="60" stroke-miterlimit="10"/>
<path d="M686.87 432.531V322.051" stroke="white" stroke-width="60" stroke-miterlimit="10"/>
<path d="M615.97 307.809H757.77" stroke="white" stroke-width="60" stroke-miterlimit="10"/>
<path d="M686.87 536.441V709.851H839.19" stroke="white" stroke-width="60" stroke-miterlimit="10"/>
</svg>
