<svg width="1000" height="1000" viewBox="0 0 1000 1000" fill="none" xmlns="http://www.w3.org/2000/svg">
<path d="M350 895.859C334.38 911.479 325.62 920.239 310 935.859H90L50 895.859V575.969L90 535.969H310C325.62 551.589 334.38 560.349 350 575.969V895.859Z" stroke="white" stroke-width="60" stroke-miterlimit="10"/>
<path d="M113.58 742.641H286.42" stroke="white" stroke-width="60" stroke-miterlimit="10"/>
<path d="M113.58 838.012H286.42" stroke="white" stroke-width="60" stroke-miterlimit="10"/>
<path d="M113.58 643.328H286.42" stroke="white" stroke-width="60" stroke-miterlimit="10"/>
<path d="M950 611.809V730.149C949.98 733.249 949.97 734.669 949.95 737.769L942.71 743.419L909.96 764.279L861.77 785.409L803.37 795.639L741.39 786.639L691.16 765.379L657.5 743.829L650 737.819L650.05 730.199V615.009" stroke="white" stroke-width="60" stroke-miterlimit="10"/>
<path d="M949.98 734.531V852.871L909.95 887.011L861.76 908.141L803.36 918.371L741.38 909.371L691.15 888.111L650.04 852.941V737.751" stroke="white" stroke-width="60" stroke-miterlimit="10"/>
<path d="M689.11 585.071L737.7 563.771L796.59 553.461L859.09 562.531L909.74 583.971L949.95 610.971V612.651L910.88 638.561L862.29 659.861L803.4 670.171L740.9 661.101L690.25 639.661L650 612.711V611.031L689.11 585.071Z" stroke="white" stroke-width="60" stroke-miterlimit="10"/>
<path d="M695.27 346.789L649.37 308.419C649.37 292.319 649.37 284.879 649.37 268.769L691.9 233.229C693.75 226.339 694.78 222.479 696.63 215.579L661.93 155.479C655.04 153.629 651.17 152.589 644.28 150.749L588.11 171.309C574.16 163.259 567.72 159.539 553.77 151.489L544.25 96.8887L531.33 83.9688H461.93L449.01 96.8887L438.73 155.819C424.78 163.869 418.34 167.589 404.4 175.639L352.35 156.589C345.46 158.429 341.6 159.469 334.7 161.319L300 221.419C301.85 228.309 302.88 232.169 304.73 239.069L350.63 277.439C350.63 293.539 350.63 300.979 350.63 317.089L308.11 352.639C306.26 359.529 305.23 363.389 303.38 370.289L338.08 430.399C344.97 432.249 348.83 433.279 355.73 435.129L411.91 414.559C425.86 422.609 432.3 426.329 446.25 434.379L455.77 488.979L468.69 501.899H538.09L551.01 488.979L561.29 430.049C575.24 421.999 581.68 418.279 595.63 410.229L647.68 429.289C654.57 427.439 658.43 426.409 665.33 424.559L700.03 364.449C698.18 357.559 697.15 353.699 695.3 346.799L695.27 346.789Z" stroke="white" stroke-width="60" stroke-miterlimit="10"/>
<path d="M500 361.458C537.848 361.458 568.53 330.777 568.53 292.928C568.53 255.08 537.848 224.398 500 224.398C462.152 224.398 431.47 255.08 431.47 292.928C431.47 330.777 462.152 361.458 500 361.458Z" stroke="white" stroke-width="60" stroke-miterlimit="10"/>
</svg>
