<svg width="1000" height="1000" viewBox="0 0 1000 1000" fill="none" xmlns="http://www.w3.org/2000/svg">
<path d="M665 389.578V475.748C664.98 479.158 664.97 480.718 664.95 484.128L656.99 490.348L620.97 513.298L567.96 536.538L503.72 547.788L435.54 537.888L380.29 514.498L343.26 490.798L335.01 484.188C335.03 480.778 335.04 479.218 335.06 475.808V393.108" stroke="white" stroke-width="60" stroke-miterlimit="10"/>
<path d="M665 295.711V381.881C664.98 385.291 664.97 386.851 664.95 390.261L656.99 396.481L620.97 419.431L567.96 442.671L503.72 453.921L435.54 444.021L380.29 420.631L343.26 396.931L335.01 390.321C335.03 386.911 335.04 385.351 335.06 381.941V299.241" stroke="white" stroke-width="60" stroke-miterlimit="10"/>
<path d="M665 288.02L664.95 296.4L656.99 302.62L620.97 325.57L567.96 348.81L503.72 360.06L435.54 350.16L380.29 326.77L343.26 303.07L335.01 296.46C335.03 293.05 335.04 291.49 335.06 288.08" stroke="white" stroke-width="60" stroke-miterlimit="10"/>
<path d="M335 377.948V291.778C335.02 288.368 335.03 286.808 335.05 283.398L343.01 277.178L379.03 254.228L432.04 230.988L496.28 219.738L564.46 229.638L619.71 253.028L656.74 276.728L664.99 283.338C664.97 286.748 664.96 288.308 664.94 291.718V374.418" stroke="white" stroke-width="60" stroke-miterlimit="10"/>
<path d="M800 693V250L499.09 50L200 249.99V650" stroke="white" stroke-width="60" stroke-miterlimit="10"/>
<path d="M170.27 636.059C280.23 636.059 280.23 696.059 390.18 696.059C500.13 696.059 500.139 636.059 610.099 636.059C720.059 636.059 720.06 696.059 830.02 696.059" stroke="white" stroke-width="60" stroke-miterlimit="10"/>
<path d="M170.27 763.141C280.23 763.141 280.23 823.141 390.18 823.141C500.13 823.141 500.139 763.141 610.099 763.141C720.059 763.141 720.06 823.141 830.02 823.141" stroke="white" stroke-width="60" stroke-miterlimit="10"/>
<path d="M170.27 890.211C280.23 890.211 280.23 950.211 390.18 950.211C500.13 950.211 500.139 890.211 610.099 890.211C720.059 890.211 720.06 950.211 830.02 950.211" stroke="white" stroke-width="60" stroke-miterlimit="10"/>
</svg>
