<svg width="1000" height="1000" viewBox="0 0 1000 1000" fill="none" xmlns="http://www.w3.org/2000/svg">
<path d="M507.25 369.418L576.02 300.648C597.56 300.648 609.64 300.648 631.17 300.648L699.94 369.418C699.94 390.958 699.94 403.038 699.94 424.568L631.17 493.338C609.63 493.338 597.55 493.338 576.02 493.338L507.25 424.568V369.418Z" stroke="white" stroke-width="60" stroke-miterlimit="10"/>
<path d="M820.83 497.619L589.92 718.239L392.45 607.799L282.01 410.329L502.63 179.419L772.59 68.5586L931.01 69.2386L931.69 227.659L820.83 497.619Z" stroke="white" stroke-width="60" stroke-miterlimit="10"/>
<path d="M672.34 120.219L880.03 327.909" stroke="white" stroke-width="60" stroke-miterlimit="10"/>
<path d="M393.38 284.54L317.82 243.48L179.46 273.82L87.4502 395.6C87.7502 401.26 87.9402 404.92 88.2402 410.58L120.83 445.38C126.67 445.94 130.33 446.29 136.17 446.85L192.09 406.3L282.67 410.4" stroke="white" stroke-width="60" stroke-miterlimit="10"/>
<path d="M715.84 607.41L756.9 682.97L726.56 821.33L604.78 913.34C599.12 913.04 595.46 912.85 589.8 912.55L555 879.96C554.44 874.12 554.09 870.46 553.53 864.62L594.08 808.7L589.98 718.12" stroke="white" stroke-width="60" stroke-miterlimit="10"/>
<path d="M209.49 922.361L217.94 874.851C212.19 870.371 210.4 868.971 204.65 864.491L113.44 900.471C107.63 894.381 106.79 893.491 100.98 887.401L139.52 799.561C135.38 793.611 134.05 791.711 129.91 785.751L76.8201 792.431C72.9301 785.211 72.2001 783.841 68.3101 776.631L150.61 653.971L279.01 632.641L367.96 721.591L346.62 849.991L225.21 931.451L209.49 922.371V922.361Z" stroke="white" stroke-width="60" stroke-miterlimit="10"/>
</svg>
