<svg width="1000" height="1000" viewBox="0 0 1000 1000" fill="none" xmlns="http://www.w3.org/2000/svg">
<path d="M410.35 357.76C358.52 357.76 316.6 315.29 317.51 263.25C318.38 213.02 359.65 172.3 409.88 172.05C422.77 171.99 435.05 174.55 446.22 179.24C450.76 176.19 452.23 175.21 456.76 172.16C456.76 172.12 456.76 172.07 456.76 172.03C456.76 95.11 519.12 32.75 596.04 32.75C645.33 32.75 688.64 58.35 713.39 96.98C717.82 97.75 720.1 98.15 724.54 98.92C740.31 86.56 760.18 79.19 781.76 79.19C830.68 79.19 870.77 117.02 874.35 165.03C877.09 167.77 878.8 169.48 881.54 172.21C929.59 175.75 967.48 215.85 967.48 264.81C967.48 313.77 925.9 357.66 874.63 357.66L410.34 357.74L410.35 357.76Z" stroke="white" stroke-width="60" stroke-miterlimit="10"/>
<path d="M332.74 965.1H77.2998C61.6798 949.48 52.9198 940.72 37.2998 925.1V495.18C52.9198 479.56 61.6798 470.8 77.2998 455.18H332.74C348.36 470.8 357.12 479.56 372.74 495.18V925.1C357.12 940.72 348.36 949.48 332.74 965.1Z" stroke="white" stroke-width="60" stroke-miterlimit="10"/>
<path d="M455.62 682.441H615.54C631.16 666.821 639.92 658.061 655.54 642.441V482.441" stroke="white" stroke-width="60" stroke-miterlimit="10"/>
<path d="M566.69 571.149L655.54 482.309L744.38 571.149" stroke="white" stroke-width="60" stroke-miterlimit="10"/>
<path d="M113.51 564.93H296.54" stroke="white" stroke-width="60" stroke-miterlimit="10"/>
<path d="M113.51 653.691H296.54" stroke="white" stroke-width="60" stroke-miterlimit="10"/>
<path d="M113.51 742.449H296.54" stroke="white" stroke-width="60" stroke-miterlimit="10"/>
</svg>
