<svg width="1000" height="1000" viewBox="0 0 1000 1000" fill="none" xmlns="http://www.w3.org/2000/svg">
<path d="M889.86 847.232H313.15L273.15 807.232V449.422C288.77 433.802 297.53 425.042 313.15 409.422H889.86C905.48 425.042 914.24 433.802 929.86 449.422V807.232L889.86 847.232Z" stroke="white" stroke-width="60" stroke-miterlimit="10"/>
<path d="M929.86 417.141L620.6 684.771H582.4L273.14 417.141" stroke="white" stroke-width="60" stroke-miterlimit="10"/>
<path d="M923.61 839.52L645.06 653.82" stroke="white" stroke-width="60" stroke-miterlimit="10"/>
<path d="M279.4 839.52L557.95 653.82" stroke="white" stroke-width="60" stroke-miterlimit="10"/>
<path d="M262.68 738.638H215.47C198.35 721.518 188.76 711.928 171.64 694.808V344.658C188.76 327.538 198.35 317.948 215.47 300.828H784.52C801.64 317.948 811.23 327.538 828.35 344.658V411.138" stroke="white" stroke-width="60" stroke-miterlimit="10"/>
<path d="M171.26 630.038H113.97C96.8501 612.918 87.2601 603.328 70.1401 586.208V236.068C87.2601 218.948 96.8501 209.358 113.97 192.238H683.02C700.14 209.358 709.73 218.948 726.85 236.068V296.548" stroke="white" stroke-width="60" stroke-miterlimit="10"/>
</svg>
