<svg width="1000" height="1000" viewBox="0 0 1000 1000" fill="none" xmlns="http://www.w3.org/2000/svg">
<path d="M340.06 780.229L350.65 867.059C348.65 872.869 346.94 877.809 344.94 883.619L278.57 949.989C256.65 944.569 250.62 943.079 228.7 937.669L189.29 810.699L62.32 771.289C56.9 749.369 55.41 743.339 50 721.419L116.37 655.049L132.93 649.339L219.76 659.929L290.68 578.099L280.68 545.669L116.1 502.129C112.08 487.239 111.09 483.549 107.07 468.659L189.83 385.899C195.18 383.869 199.83 382.109 205.18 380.079L469.24 396.299L558.02 321.899C562.36 320.319 566.31 318.889 570.65 317.309H662.66C670.47 325.119 674.85 329.499 682.66 337.309V427.349C680.95 432.059 678.52 438.749 676.8 443.459L603.67 530.729L619.89 794.789L614.07 810.139L531.54 892.669C516.5 888.619 512.78 887.609 497.74 883.559L454.28 719.299C440.14 714.939 435.99 713.659 421.85 709.299L340.02 780.219L340.06 780.229Z" stroke="white" stroke-width="60" stroke-miterlimit="10"/>
<path d="M301.42 375.319L301.37 241.379L396.04 146.639L490.72 51.8891L624.66 51.8391L758.6 51.7891L853.34 146.469L948.09 241.139L948.14 375.079L948.19 509.019L853.51 603.759" stroke="white" stroke-width="60" stroke-miterlimit="10"/>
<path d="M396.04 146.639L490.72 51.8891L624.66 51.8391L758.6 51.7891L853.34 146.469L948.09 241.139L948.14 375.079L948.19 509.019L853.51 603.759L758.84 698.509L624.9 698.559" stroke="white" stroke-width="60" stroke-miterlimit="10"/>
<path d="M446.57 377.667L446.54 305.197L497.76 253.937L548.99 202.667L621.46 202.647L693.93 202.617L745.2 253.847L796.46 305.067L796.49 377.537L796.52 450.007L745.29 501.277" stroke="white" stroke-width="60" stroke-miterlimit="10"/>
<path d="M497.78 253.951L549.01 202.691L621.48 202.661L693.95 202.641L745.21 253.861L796.48 305.091L796.51 377.561L796.53 450.031L745.31 501.291L694.08 552.561L621.61 552.591" stroke="white" stroke-width="60" stroke-miterlimit="10"/>
</svg>
