<svg width="1000" height="1000" viewBox="0 0 1000 1000" fill="none" xmlns="http://www.w3.org/2000/svg">
<path d="M412.79 797.841H558.26L774.53 653.691H807.32L840.11 697.181V722.781L605.77 909.921C599.81 912.051 594.22 914.051 588.26 916.181H262.23C249.69 901.071 242.66 892.611 230.12 877.501V739.461C242.66 724.351 249.69 715.891 262.23 700.781H426.79H525.24C537.78 715.891 545.72 724.351 558.26 739.461V796.411" stroke="white" stroke-width="60" stroke-miterlimit="10"/>
<path d="M761.58 115.07L575 62.5703H425L238.42 115.07L200 164.87L275 403.67L460.34 561.08C490.35 561.08 509.65 561.08 539.66 561.08L725 403.67L800 164.87L761.58 115.07Z" stroke="white" stroke-width="60" stroke-miterlimit="10"/>
<path d="M657.04 212.52L525.61 400.87H468.67L403.14 306.7" stroke="white" stroke-width="60" stroke-miterlimit="10"/>
</svg>
