<svg width="1000" height="1000" viewBox="0 0 1000 1000" fill="none" xmlns="http://www.w3.org/2000/svg">
<path d="M810 820.58H190C174.38 804.96 165.62 796.2 150 780.58V615L190 575H810L850 615V780.58L810 820.58Z" stroke="white" stroke-width="60" stroke-miterlimit="10"/>
<path d="M731.88 575H268.13L297.5 428.14C310.4 417.56 318.92 410.58 331.82 400H668.18C681.08 410.58 689.6 417.56 702.5 428.14L731.87 575H731.88Z" stroke="white" stroke-width="60" stroke-miterlimit="10"/>
<path d="M349.15 953.128H308.12L268.12 913.128V820.578H389.15V913.128C373.53 928.748 364.77 937.508 349.15 953.128Z" stroke="white" stroke-width="60" stroke-miterlimit="10"/>
<path d="M691.88 953.128H650.85C635.23 937.508 626.47 928.748 610.85 913.128V820.578H731.88V913.128C716.26 928.748 707.5 937.508 691.88 953.128Z" stroke="white" stroke-width="60" stroke-miterlimit="10"/>
<path d="M340.9 105.9L412.42 57.68L500 40L587.58 57.68L659.1 105.9" stroke="white" stroke-width="60" stroke-miterlimit="10"/>
<path d="M411.61 194.919L451.34 168.129L500 158.309L548.66 168.129L588.39 194.919" stroke="white" stroke-width="60" stroke-miterlimit="10"/>
<path d="M482.32 284.319L490.27 278.969H509.73L517.68 284.319" stroke="white" stroke-width="60" stroke-miterlimit="10"/>
</svg>
