<svg width="1000" height="1000" viewBox="0 0 1000 1000" fill="none" xmlns="http://www.w3.org/2000/svg">
<path d="M922.82 759.692V644.182L844.66 579.692H676.12L520.59 427.762H228.09L91.6699 579.692V759.692L131.67 799.692H882.82L922.82 759.692Z" stroke="white" stroke-width="60" stroke-miterlimit="10"/>
<path d="M120.78 579.711H685.24" stroke="white" stroke-width="60" stroke-miterlimit="10"/>
<path d="M200 814.691V846.091L221.02 885.491C221.02 885.491 247.56 906.341 258.6 912.601H291.4C302.44 906.341 328.98 885.491 328.98 885.491L350 846.091V814.691" stroke="white" stroke-width="60" stroke-miterlimit="10"/>
<path d="M620.01 814.691V846.091L641.03 885.491C641.03 885.491 667.57 906.341 678.61 912.601H711.41C722.45 906.341 748.99 885.491 748.99 885.491L770.01 846.091V814.691" stroke="white" stroke-width="60" stroke-miterlimit="10"/>
<path d="M227.52 167.798L299.04 119.578L386.62 101.898L474.2 119.578L545.72 167.798" stroke="white" stroke-width="60" stroke-miterlimit="10"/>
<path d="M298.23 256.819L337.96 230.029L386.62 220.199L435.27 230.029L475.01 256.819" stroke="white" stroke-width="60" stroke-miterlimit="10"/>
<path d="M368.94 346.221L376.89 340.871H396.35L404.3 346.221" stroke="white" stroke-width="60" stroke-miterlimit="10"/>
</svg>
