<svg width="1164" height="152" viewBox="0 0 1164 152" fill="none" xmlns="http://www.w3.org/2000/svg">
<path d="M1043.83 0V17.5277H1134.08L1022.24 129.389L1011.42 122.098L1038.29 58.4723L1003.5 35.0203L909.183 129.389L898.357 122.098L925.23 58.4723L890.439 35.0203L796.122 129.389L785.296 122.098L812.169 58.4723L777.378 35.0203L683.061 129.389L672.235 122.098L699.108 58.4723L664.317 35.0203L570 129.389L559.174 122.098L586.047 58.4723L551.291 35.0203L456.974 129.389L446.113 122.098L472.986 58.4723L438.23 35.0203L343.913 129.389L333.052 122.098L359.924 58.4723L325.169 35.0203L230.852 129.389L219.991 122.098L246.863 58.4723L212.108 35.0203L117.791 129.389L106.93 122.098L130.999 65.1328L133.592 58.3321L99.0467 35.0203L0 134.122L12.4027 146.531L101.219 57.631L112.08 64.9576L85.1724 128.548L119.963 152L214.28 57.631L225.141 64.9576L198.234 128.548L233.024 152L327.341 57.631L338.167 64.9576L311.295 128.548L346.085 152L440.402 57.631L451.228 64.9576L424.356 128.548L459.146 152L553.463 57.631L564.289 64.9576L537.417 128.548L572.207 152L666.524 57.631L677.35 64.9576L650.478 128.548L685.268 152L779.585 57.631L790.411 64.9576L763.539 128.548L798.33 152L892.646 57.631L903.472 64.9576L876.6 128.548L911.391 152L1005.71 57.631L1016.53 64.9576L989.661 128.548L1024.45 152L1146.48 29.9022V120.24H1164V0H1043.83Z" fill="#FF00F3"/>
</svg>
