<svg width="1179" height="172" viewBox="0 0 1179 172" fill="none" xmlns="http://www.w3.org/2000/svg">
<g clip-path="url(#clip0_525_52)">
<path d="M1050.03 0V35.0377H1119.16L1029.88 124.314L1055.42 63.9788L1008.65 32.4799L916.817 124.314L942.359 63.9788L895.585 32.4799L803.752 124.314L829.294 63.9788L782.52 32.4799L690.687 124.314L716.229 63.9788L669.455 32.4799L577.622 124.314L603.164 63.9788L556.39 32.4799L464.558 124.314L490.1 63.9788L443.325 32.4799L351.493 124.314L377.035 63.9788L330.26 32.4799L238.463 124.314L263.97 63.9788L217.195 32.4799L125.398 124.314L150.905 63.9788L104.13 32.4799L0 136.612L24.7713 161.384L106.022 80.1662L80.4803 140.501L127.255 172L219.087 80.1662L193.545 140.501L240.32 172L332.152 80.1662L306.61 140.501L353.385 172L445.217 80.1662L419.675 140.501L466.45 172L558.247 80.1662L532.74 140.501L579.514 172L671.312 80.1662L645.805 140.501L692.579 172L784.377 80.1662L758.87 140.501L805.644 172L897.442 80.1662L871.934 140.501L918.709 172L1010.51 80.1662L984.999 140.501L1031.77 172L1143.96 59.8093V128.939H1179V0H1050.03Z" fill="#FF00F3"/>
</g>
<defs>
<clipPath id="clip0_525_52">
<rect width="1179" height="172" fill="white"/>
</clipPath>
</defs>
</svg>
