<svg width="1114" height="416" viewBox="0 0 1114 416" fill="none" xmlns="http://www.w3.org/2000/svg">
<path d="M24.7571 416L0 391.266L165.946 225.51V190.525L0 24.734L24.7571 0L200.963 176.007V239.993L24.7571 416Z" fill="#A8FF00"/>
<path d="M126.202 416L101.445 391.266L267.392 225.51V190.525L101.445 24.734L126.202 0L302.409 176.007V239.993L126.202 416Z" fill="#A8FF00"/>
<path d="M227.648 416L202.891 391.266L368.837 225.51V190.525L202.891 24.734L227.648 0L403.854 176.007V239.993L227.648 416Z" fill="#A8FF00"/>
<path d="M329.089 416L304.332 391.266L470.278 225.51V190.525L304.332 24.734L329.089 0L505.295 176.007V239.993L329.089 416Z" fill="#A8FF00"/>
<path d="M430.57 416L405.812 391.266L571.724 225.51V190.525L405.812 24.734L430.57 0L606.741 176.007V239.993L430.57 416Z" fill="#A8FF00"/>
<path d="M532.015 416L507.258 391.266L673.169 225.51V190.525L507.258 24.734L532.015 0L708.186 176.007V239.993L532.015 416Z" fill="#A8FF00"/>
<path d="M633.46 416L608.703 391.266L774.649 225.51V190.525L608.703 24.734L633.46 0L809.666 176.007V239.993L633.46 416Z" fill="#A8FF00"/>
<path d="M734.906 416L710.148 391.266L876.095 225.51V190.525L710.148 24.734L734.906 0L911.112 176.007V239.993L734.906 416Z" fill="#A8FF00"/>
<path d="M836.351 416L811.594 391.266L977.54 225.51V190.525L811.594 24.734L836.351 0L1012.56 176.007V239.993L836.351 416Z" fill="#A8FF00"/>
<path d="M937.792 416L913.035 391.266L1078.98 225.51V190.525L913.035 24.734L937.792 0L1114 176.007V239.993L937.792 416Z" fill="#A8FF00"/>
</svg>
