<svg width="670" height="930" viewBox="0 0 670 930" fill="none" xmlns="http://www.w3.org/2000/svg">
<path d="M212.67 780.834H358.14L574.41 636.684H607.2L639.99 680.174V705.774L405.65 892.914C399.69 895.044 394.1 897.044 388.14 899.174H62.11C49.57 884.064 42.54 875.604 30 860.494V722.454C42.54 707.344 49.57 698.884 62.11 683.774H226.67H325.12C337.66 698.884 345.6 707.344 358.14 722.454V779.404" stroke="#A8FF00" stroke-width="60" stroke-miterlimit="10"/>
<path d="M104.201 460.102L154.201 500.102H473.551C489.171 484.482 497.931 475.722 513.551 460.102V328.752L473.551 288.752H144.201L104.201 248.752V117.402L144.201 77.4023H463.551L513.551 117.402" stroke="#A8FF00" stroke-width="60" stroke-miterlimit="10"/>
<path d="M308.881 0V577.49" stroke="#A8FF00" stroke-width="60" stroke-miterlimit="10"/>
</svg>
