<?xml version="1.0" encoding="UTF-8"?>
<svg id="Layer_2" xmlns="http://www.w3.org/2000/svg" version="1.1" viewBox="0 0 1920 1080">
  <!-- Generator: Adobe Illustrator 30.2.1, SVG Export Plug-In . SVG Version: 2.1.1 Build 1)  -->
  <defs>
    <style>
      .st0 {
        fill: #a8ff00;
      }
    </style>
  </defs>
  <path class="st0" d="M1471.4,80.4L1393.9,3c-2.5-1-4.7-1.9-7.2-3h-853.4c-2.5,1-4.7,1.9-7.2,3l-77.5,77.5-3,7.2v618c1,2.5,1.9,4.7,3,7.2l77.5,77.5c2.5,1,4.7,1.9,7.2,3h382v199.9h-236.2l-10.1,10.1v66.6c4,4,6.2,6.2,10.1,10.1h559.2l10.1-10.1v-66.6l-10.1-10.1h-236.2v-199.9h384.5c2.5-1,4.7-1.9,7.2-3l77.5-77.5c1-2.5,1.9-4.7,3-7.2V87.6l-3-7.2ZM1387.4,673.8h0s-32.5,32.5-32.5,32.5h-789.8l-32.5-32.5V119.4l32.5-32.5h789.8l32.5,32.5v554.4Z"/>
  <path class="st0" d="M1005.3,351.4v-102.7h80.3l33.3,26.6,56.5-70.7-58.1-46.5h-112v-25.5h-90.5v25.5h-124l-63.1,63.1v157.6l63.1,63.1h124v102.7h-80.3l-33.3-26.6-56.5,70.7,58.1,46.5h112v25.5h90.5v-25.5h124l63.1-63.1v-157.6l-63.1-63.1h-124ZM914.8,351.4h-86.6l-10.1-10.1v-82.6l10.1-10.1h86.6v102.7ZM1101.9,534.5l-10.1,10.1h-86.5v-102.7h86.5l10.1,10.1v82.6Z"/>
</svg>