<svg width="1000" height="1000" viewBox="0 0 1000 1000" fill="none" xmlns="http://www.w3.org/2000/svg">
<path d="M68.76 947.87H931.24" stroke="white" stroke-width="40" stroke-miterlimit="10"/>
<path d="M887.9 307.94C902.39 294.27 910.51 286.6 925 272.93V233.59C916.25 221.62 909.82 212.83 901.08 200.86L513.17 61.79H486.82L98.92 200.86C90.17 212.83 83.74 221.62 75 233.59V272.93C89.49 286.6 97.61 294.27 112.1 307.94H887.91H887.9Z" stroke="white" stroke-width="40" stroke-miterlimit="10"/>
<path d="M232.01 861.93H162.99L127.98 826.92V342.95C141.65 329.28 149.32 321.61 162.99 307.94H232.01C245.68 321.61 253.35 329.28 267.02 342.95V826.92L232.01 861.93Z" stroke="white" stroke-width="40" stroke-miterlimit="10"/>
<path d="M837.01 861.93H767.99L732.98 826.92V342.95L767.99 307.94H837.01C850.68 321.61 858.35 329.28 872.02 342.95V826.92C858.35 840.59 850.68 848.26 837.01 861.93Z" stroke="white" stroke-width="40" stroke-miterlimit="10"/>
<path d="M650 459.95H439.35C426.18 471.18 418.79 477.48 405.62 488.71V718.82C418.79 730.05 426.18 736.35 439.35 747.58H650" stroke="white" stroke-width="40" stroke-miterlimit="10"/>
<path d="M350 557.91H597.98" stroke="white" stroke-width="40" stroke-miterlimit="10"/>
<path d="M350 651.36H597.98" stroke="white" stroke-width="40" stroke-miterlimit="10"/>
<path d="M68.76 947.87H931.24" stroke="white" stroke-width="40" stroke-miterlimit="10"/>
</svg>
