<svg width="1000" height="1000" viewBox="0 0 1000 1000" fill="none" xmlns="http://www.w3.org/2000/svg">
<path d="M800 611.64V768.32C799.96 774.53 799.94 777.35 799.9 783.56L785.42 794.87L719.93 836.6L623.55 878.85L506.74 899.3L382.77 881.31L282.31 838.78L214.98 795.69L199.98 783.67C200.02 777.46 200.04 774.64 200.08 768.43V618.06" stroke="white" stroke-width="40" stroke-miterlimit="10"/>
<path d="M800 440.98V597.66C799.96 603.87 799.94 606.69 799.9 612.9L785.42 624.21L719.93 665.94L623.55 708.19L506.74 728.64L382.77 710.65L282.31 668.12L214.98 625.03L199.98 613.01C200.02 606.8 200.04 603.98 200.08 597.77V447.4" stroke="white" stroke-width="40" stroke-miterlimit="10"/>
<path d="M800 270.31V426.99C799.96 433.2 799.94 436.02 799.9 442.23L785.42 453.54L719.93 495.27L623.55 537.52L506.74 557.97L382.77 539.98L282.31 497.45L214.98 454.36L199.98 442.34C200.02 436.13 200.04 433.31 200.08 427.1V276.73" stroke="white" stroke-width="40" stroke-miterlimit="10"/>
<path d="M800 256.33C799.96 262.54 799.94 265.36 799.9 271.57L785.42 282.88L719.93 324.61L623.55 366.86L506.74 387.31L382.77 369.32L282.31 326.79L214.98 283.7L199.98 271.68C200.02 265.47 200.04 262.65 200.08 256.44" stroke="white" stroke-width="40" stroke-miterlimit="10"/>
<path d="M200 419.83V263.15C200.04 256.94 200.06 254.12 200.1 247.91L214.58 236.6L280.07 194.87L376.45 152.62L493.26 132.17L617.23 150.16L717.69 192.69L785.02 235.78L800.02 247.8C799.98 254.01 799.96 256.83 799.92 263.04V413.41" stroke="white" stroke-width="40" stroke-miterlimit="10"/>
</svg>
