<?xml version="1.0" encoding="UTF-8"?>
<svg id="Layer_1" xmlns="http://www.w3.org/2000/svg" version="1.1" viewBox="0 0 1000 1000">
  <!-- Generator: Adobe Illustrator 30.2.1, SVG Export Plug-In . SVG Version: 2.1.1 Build 1)  -->
  <defs>
    <style>
      .st0 {
        fill: none;
        stroke: #fff;
        stroke-miterlimit: 10;
        stroke-width: 40px;
      }
    </style>
  </defs>
  <path class="st0" d="M800,510.6v156.7c0,6.2,0,9,0,15.2l-14.5,11.3-65.5,41.7-96.4,42.2-116.8,20.4-124-18-100.5-42.5-67.3-43.1-15-12c0-6.2,0-9,.1-15.2v-150.4"/>
  <path class="st0" d="M800,339.9v156.7c0,6.2,0,9,0,15.2l-14.5,11.3-65.5,41.7-96.4,42.2-116.8,20.5-124-18-100.5-42.5-67.3-43.1-15-12c0-6.2,0-9,.1-15.2v-150.4"/>
  <path class="st0" d="M800,325.9c0,6.2,0,9,0,15.2l-14.5,11.3-65.5,41.7-96.4,42.2-116.8,20.5-124-18-100.5-42.5-67.3-43.1-15-12c0-6.2,0-9,.1-15.2"/>
  <path class="st0" d="M200,489.4v-156.7c0-6.2,0-9,.1-15.2l14.5-11.3,65.5-41.7,96.4-42.2,116.8-20.4,124,18,100.5,42.5,67.3,43.1,15,12c0,6.2,0,9-.1,15.2v150.4"/>
</svg>