<svg width="1000" height="1000" viewBox="0 0 1000 1000" fill="none" xmlns="http://www.w3.org/2000/svg">
<path d="M800 510.57V667.25C799.96 673.46 799.94 676.28 799.9 682.49L785.42 693.8L719.93 735.53L623.55 777.78L506.74 798.23L382.77 780.24L282.31 737.71L214.98 694.62L199.98 682.6C200.02 676.39 200.04 673.57 200.08 667.36V516.99" stroke="white" stroke-width="40" stroke-miterlimit="10"/>
<path d="M800 339.91V496.59C799.96 502.8 799.94 505.62 799.9 511.83L785.42 523.14L719.93 564.87L623.55 607.12L506.74 627.57L382.77 609.58L282.31 567.05L214.98 523.96L199.98 511.94C200.02 505.73 200.04 502.91 200.08 496.7V346.33" stroke="white" stroke-width="40" stroke-miterlimit="10"/>
<path d="M800 325.93C799.96 332.14 799.94 334.96 799.9 341.17L785.42 352.48L719.93 394.21L623.55 436.46L506.74 456.91L382.77 438.92L282.31 396.39L214.98 353.3L199.98 341.28C200.02 335.07 200.04 332.25 200.08 326.04" stroke="white" stroke-width="40" stroke-miterlimit="10"/>
<path d="M200 489.43V332.75C200.04 326.54 200.06 323.72 200.1 317.51L214.58 306.2L280.07 264.47L376.45 222.22L493.26 201.77L617.23 219.76L717.69 262.29L785.02 305.38L800.02 317.4C799.98 323.61 799.96 326.43 799.92 332.64V483.01" stroke="white" stroke-width="40" stroke-miterlimit="10"/>
</svg>
