<svg width="1000" height="1000" viewBox="0 0 1000 1000" fill="none" xmlns="http://www.w3.org/2000/svg">
<path d="M500 438.03C548.259 438.03 587.38 398.908 587.38 350.65C587.38 302.391 548.259 263.27 500 263.27C451.741 263.27 412.62 302.391 412.62 350.65C412.62 398.908 451.741 438.03 500 438.03Z" stroke="white" stroke-width="40" stroke-miterlimit="10"/>
<path d="M635 694.06H365L325 654.06V559.06L365 519.06H635L675 559.06V654.06L635 694.06Z" stroke="white" stroke-width="40" stroke-miterlimit="10"/>
<path d="M859.2 494.58L857.13 638.91L799.23 771.13L698.62 867.54L569.19 919.18L424.87 917.11L292.65 859.21L196.24 758.6L144.59 629.17" stroke="white" stroke-width="40" stroke-miterlimit="10"/>
<path d="M773.81 579.75L859.2 494.36L944.59 579.75" stroke="white" stroke-width="40" stroke-miterlimit="10"/>
<path d="M144.59 505.42L146.66 361.09L204.56 228.87L305.18 132.46L434.6 80.8203L578.93 82.8903L711.15 140.79L807.56 241.4L859.2 370.83" stroke="white" stroke-width="40" stroke-miterlimit="10"/>
<path d="M229.98 420.25L144.59 505.64L59.2002 420.25" stroke="white" stroke-width="40" stroke-miterlimit="10"/>
</svg>
