<svg width="1000" height="1000" viewBox="0 0 1000 1000" fill="none" xmlns="http://www.w3.org/2000/svg">
<path d="M700 558V662.45C699.97 666.59 699.96 668.47 699.93 672.61L690.28 680.15L646.62 707.97L582.37 736.14L504.5 749.78L421.86 737.79L354.89 709.44L310.01 680.71L300.01 672.7C300.04 668.56 300.05 666.68 300.08 662.54V562.29" stroke="white" stroke-width="40" stroke-miterlimit="10"/>
<path d="M700 444.23V548.68C699.97 552.82 699.96 554.7 699.93 558.84L690.28 566.38L646.62 594.2L582.37 622.37L504.5 636.01L421.86 624.02L354.89 595.67L310.01 566.94L300.01 558.93C300.04 554.79 300.05 552.91 300.08 548.77V448.52" stroke="white" stroke-width="40" stroke-miterlimit="10"/>
<path d="M700 434.9C699.97 439.04 699.96 440.92 699.93 445.06L690.28 452.6L646.62 480.42L582.37 508.59L504.5 522.23L421.86 510.24L354.89 481.89L310.01 453.16L300.01 445.15C300.04 441.01 300.05 439.13 300.08 434.99" stroke="white" stroke-width="40" stroke-miterlimit="10"/>
<path d="M300 543.9V439.45C300.03 435.31 300.04 433.43 300.07 429.29L309.72 421.75L353.38 393.93L417.63 365.76L495.5 352.12L578.14 364.11L645.11 392.46L689.99 421.19L699.99 429.2C699.96 433.34 699.95 435.22 699.92 439.36V539.61" stroke="white" stroke-width="40" stroke-miterlimit="10"/>
<path d="M870 825.2V318.83L498.88 72.1699L130 318.82V825.2C145.62 840.82 154.37 849.58 169.99 865.2H830C845.62 849.58 854.38 840.82 870 825.2Z" stroke="white" stroke-width="40" stroke-miterlimit="10"/>
</svg>
