<svg width="1000" height="1000" viewBox="0 0 1000 1000" fill="none" xmlns="http://www.w3.org/2000/svg">
<path d="M739.91 310.07V435.37C739.88 440.33 739.86 442.59 739.83 447.55L728.25 456.59L675.88 489.96L598.81 523.75L505.4 540.11L406.27 525.72L325.94 491.71L272.1 457.25L260.11 447.64C260.14 442.68 260.16 440.42 260.19 435.46V315.21" stroke="white" stroke-width="40" stroke-miterlimit="10"/>
<path d="M739.91 173.6V298.9C739.88 303.86 739.86 306.12 739.83 311.08L728.25 320.12L675.88 353.49L598.81 387.28L505.4 403.64L406.27 389.25L325.94 355.24L272.1 320.78L260.11 311.17C260.14 306.21 260.16 303.95 260.19 298.99V178.74" stroke="white" stroke-width="40" stroke-miterlimit="10"/>
<path d="M739.91 162.41C739.88 167.37 739.86 169.63 739.83 174.59L728.25 183.63L675.88 217L598.81 250.79L505.4 267.15L406.27 252.76L325.94 218.75L272.1 184.29L260.11 174.68C260.14 169.72 260.16 167.46 260.19 162.5" stroke="white" stroke-width="40" stroke-miterlimit="10"/>
<path d="M260.09 293.16V167.86C260.12 162.9 260.14 160.64 260.17 155.68L271.75 146.64L324.12 113.27L401.19 79.4801L494.6 63.1201L593.73 77.5101L674.06 111.52L727.9 145.98L739.89 155.59C739.86 160.55 739.84 162.81 739.81 167.77V288.02" stroke="white" stroke-width="40" stroke-miterlimit="10"/>
<path d="M25.1699 657.45C120.15 657.45 120.15 709.28 215.13 709.28C310.11 709.28 310.11 657.45 405.1 657.45C500.09 657.45 500.08 709.28 595.07 709.28" stroke="white" stroke-width="40" stroke-miterlimit="10"/>
<path d="M25.1699 767.22C120.15 767.22 120.15 819.05 215.13 819.05C310.11 819.05 310.11 767.22 405.1 767.22C500.09 767.22 500.08 819.05 595.07 819.05" stroke="white" stroke-width="40" stroke-miterlimit="10"/>
<path d="M25.1699 876.99C120.15 876.99 120.15 928.82 215.13 928.82C310.11 928.82 310.11 876.99 405.1 876.99C500.09 876.99 500.08 928.82 595.07 928.82" stroke="white" stroke-width="40" stroke-miterlimit="10"/>
<path d="M404.95 657.45C499.93 657.45 499.93 709.28 594.91 709.28C689.89 709.28 689.89 657.45 784.88 657.45C879.87 657.45 879.86 709.28 974.85 709.28" stroke="white" stroke-width="40" stroke-miterlimit="10"/>
<path d="M404.95 767.22C499.93 767.22 499.93 819.05 594.91 819.05C689.89 819.05 689.89 767.22 784.88 767.22C879.87 767.22 879.86 819.05 974.85 819.05" stroke="white" stroke-width="40" stroke-miterlimit="10"/>
<path d="M404.95 876.99C499.93 876.99 499.93 928.82 594.91 928.82C689.89 928.82 689.89 876.99 784.88 876.99C879.87 876.99 879.86 928.82 974.85 928.82" stroke="white" stroke-width="40" stroke-miterlimit="10"/>
</svg>
