<svg width="1000" height="1000" viewBox="0 0 1000 1000" fill="none" xmlns="http://www.w3.org/2000/svg">
<path d="M427.32 483.88L391.97 507.78L301.17 526.11L210.38 507.78L136.24 457.79L86.2499 383.65L67.9199 292.86L86.2499 202.07L136.24 127.92L210.38 77.9397L300.86 59.6797L391.65 78.0097L465.79 127.99L515.78 202.13L534.11 292.93L515.78 383.72L486.85 426.62" stroke="white" stroke-width="40" stroke-miterlimit="10"/>
<path d="M431.91 618.31L391.97 645.32L301.17 663.65L210.38 645.32L136.24 595.33L86.2499 521.19L67.9199 430.4V292.86" stroke="white" stroke-width="40" stroke-miterlimit="10"/>
<path d="M534.11 292.93V430.47" stroke="white" stroke-width="40" stroke-miterlimit="10"/>
<path d="M431.91 758.36L391.97 785.37L301.17 803.7L210.38 785.37L136.24 735.39L86.2499 661.24L67.9199 570.45V432.91" stroke="white" stroke-width="40" stroke-miterlimit="10"/>
<path d="M411.75 176.79H241.69C231.06 185.86 225.09 190.94 214.46 200.01V385.77C225.1 394.84 231.06 399.92 241.69 408.99H411.75" stroke="white" stroke-width="40" stroke-miterlimit="10"/>
<path d="M169.56 255.88H369.76" stroke="white" stroke-width="40" stroke-miterlimit="10"/>
<path d="M169.56 331.31H369.76" stroke="white" stroke-width="40" stroke-miterlimit="10"/>
<path d="M895.01 928.8H478.74L438.74 888.8V472.53C454.36 456.91 463.12 448.15 478.74 432.53H895.01L935.01 472.53V888.8C919.39 904.42 910.63 913.18 895.01 928.8Z" stroke="white" stroke-width="40" stroke-miterlimit="10"/>
<path d="M686.87 432.53V322.05" stroke="white" stroke-width="40" stroke-miterlimit="10"/>
<path d="M615.97 307.81H757.77" stroke="white" stroke-width="40" stroke-miterlimit="10"/>
<path d="M686.87 536.44V709.85H839.19" stroke="white" stroke-width="40" stroke-miterlimit="10"/>
</svg>
