<svg width="1000" height="1000" viewBox="0 0 1000 1000" fill="none" xmlns="http://www.w3.org/2000/svg">
<path d="M350 895.86C334.38 911.48 325.62 920.24 310 935.86H90L50 895.86V575.97L90 535.97H310C325.62 551.59 334.38 560.35 350 575.97V895.86Z" stroke="white" stroke-width="40" stroke-miterlimit="10"/>
<path d="M113.58 742.64H286.42" stroke="white" stroke-width="40" stroke-miterlimit="10"/>
<path d="M113.58 838.01H286.42" stroke="white" stroke-width="40" stroke-miterlimit="10"/>
<path d="M113.58 643.33H286.42" stroke="white" stroke-width="40" stroke-miterlimit="10"/>
<path d="M950 611.81V730.15C949.98 733.25 949.97 734.67 949.95 737.77L942.71 743.42L909.96 764.28L861.77 785.41L803.37 795.64L741.39 786.64L691.16 765.38L657.5 743.83L650 737.82L650.05 730.2V615.01" stroke="white" stroke-width="40" stroke-miterlimit="10"/>
<path d="M949.98 734.53V852.87L909.95 887.01L861.76 908.14L803.36 918.37L741.38 909.37L691.15 888.11L650.04 852.94V737.75" stroke="white" stroke-width="40" stroke-miterlimit="10"/>
<path d="M689.11 585.07L737.7 563.77L796.59 553.46L859.09 562.53L909.74 583.97L949.95 610.97V612.65L910.88 638.56L862.29 659.86L803.4 670.17L740.9 661.1L690.25 639.66L650 612.71V611.03L689.11 585.07Z" stroke="white" stroke-width="40" stroke-miterlimit="10"/>
<path d="M695.27 346.79L649.37 308.42C649.37 292.32 649.37 284.88 649.37 268.77L691.9 233.23C693.75 226.34 694.78 222.48 696.63 215.58L661.93 155.48C655.04 153.63 651.17 152.59 644.28 150.75L588.11 171.31C574.16 163.26 567.72 159.54 553.77 151.49L544.25 96.8897L531.33 83.9697H461.93L449.01 96.8897L438.73 155.82C424.78 163.87 418.34 167.59 404.4 175.64L352.35 156.59C345.46 158.43 341.6 159.47 334.7 161.32L300 221.42C301.85 228.31 302.88 232.17 304.73 239.07L350.63 277.44C350.63 293.54 350.63 300.98 350.63 317.09L308.11 352.64C306.26 359.53 305.23 363.39 303.38 370.29L338.08 430.4C344.97 432.25 348.83 433.28 355.73 435.13L411.91 414.56C425.86 422.61 432.3 426.33 446.25 434.38L455.77 488.98L468.69 501.9H538.09L551.01 488.98L561.29 430.05C575.24 422 581.68 418.28 595.63 410.23L647.68 429.29C654.57 427.44 658.43 426.41 665.33 424.56L700.03 364.45C698.18 357.56 697.15 353.7 695.3 346.8L695.27 346.79Z" stroke="white" stroke-width="40" stroke-miterlimit="10"/>
<path d="M500 361.46C537.848 361.46 568.53 330.778 568.53 292.93C568.53 255.082 537.848 224.4 500 224.4C462.152 224.4 431.47 255.082 431.47 292.93C431.47 330.778 462.152 361.46 500 361.46Z" stroke="white" stroke-width="40" stroke-miterlimit="10"/>
</svg>
