<svg width="1000" height="1000" viewBox="0 0 1000 1000" fill="none" xmlns="http://www.w3.org/2000/svg">
<path d="M52.27 507.01L54.42 356.79L114.68 219.17L219.41 118.82L354.12 65.0703L504.34 67.2203L641.97 127.48L742.31 232.21L796.07 366.92L793.92 516.62L733.65 654.24L628.93 754.59L494.21 808.34L343.99 806.19L206.37 745.93L106.02 641.2L52.27 507.01Z" stroke="white" stroke-width="40" stroke-miterlimit="10"/>
<path d="M164.39 511.391L381.57 175.48C420.14 175.54 432.19 175.56 470.76 175.62L683.91 507.5C664.07 544.22 659.61 552.5 639.77 589.22L209.44 593.25C189.06 556.23 184.77 548.42 164.39 511.4V511.391Z" stroke="white" stroke-width="40" stroke-miterlimit="10"/>
<path d="M893.65 871.78L849.39 916.04C827.3 916.04 814.91 916.04 792.82 916.04L632.7 755.92L733.53 655.09L893.65 815.21C893.65 837.3 893.65 849.69 893.65 871.78Z" stroke="white" stroke-width="40" stroke-miterlimit="10"/>
<path d="M424.16 245.35V436.49" stroke="white" stroke-width="40" stroke-miterlimit="10"/>
<path d="M426.53 497.2H421.8V501.93H426.53V497.2Z" stroke="white" stroke-width="40" stroke-miterlimit="10"/>
</svg>
