<svg width="1000" height="1000" viewBox="0 0 1000 1000" fill="none" xmlns="http://www.w3.org/2000/svg">
<path d="M665 389.58V475.75C664.98 479.16 664.97 480.72 664.95 484.13L656.99 490.35L620.97 513.3L567.96 536.54L503.72 547.79L435.54 537.89L380.29 514.5L343.26 490.8L335.01 484.19C335.03 480.78 335.04 479.22 335.06 475.81V393.11" stroke="white" stroke-width="40" stroke-miterlimit="10"/>
<path d="M665 295.71V381.88C664.98 385.29 664.97 386.85 664.95 390.26L656.99 396.48L620.97 419.43L567.96 442.67L503.72 453.92L435.54 444.02L380.29 420.63L343.26 396.93L335.01 390.32C335.03 386.91 335.04 385.35 335.06 381.94V299.24" stroke="white" stroke-width="40" stroke-miterlimit="10"/>
<path d="M665 288.02L664.95 296.4L656.99 302.62L620.97 325.57L567.96 348.81L503.72 360.06L435.54 350.16L380.29 326.77L343.26 303.07L335.01 296.46C335.03 293.05 335.04 291.49 335.06 288.08" stroke="white" stroke-width="40" stroke-miterlimit="10"/>
<path d="M335 377.95V291.78C335.02 288.37 335.03 286.81 335.05 283.4L343.01 277.18L379.03 254.23L432.04 230.99L496.28 219.74L564.46 229.64L619.71 253.03L656.74 276.73L664.99 283.34C664.97 286.75 664.96 288.31 664.94 291.72V374.42" stroke="white" stroke-width="40" stroke-miterlimit="10"/>
<path d="M800 693V250L499.09 50L200 249.99V650" stroke="white" stroke-width="40" stroke-miterlimit="10"/>
<path d="M170.27 636.06C280.23 636.06 280.23 696.06 390.18 696.06C500.13 696.06 500.14 636.06 610.1 636.06C720.06 636.06 720.06 696.06 830.02 696.06" stroke="white" stroke-width="40" stroke-miterlimit="10"/>
<path d="M170.27 763.14C280.23 763.14 280.23 823.14 390.18 823.14C500.13 823.14 500.14 763.14 610.1 763.14C720.06 763.14 720.06 823.14 830.02 823.14" stroke="white" stroke-width="40" stroke-miterlimit="10"/>
<path d="M170.27 890.21C280.23 890.21 280.23 950.21 390.18 950.21C500.13 950.21 500.14 890.21 610.1 890.21C720.06 890.21 720.06 950.21 830.02 950.21" stroke="white" stroke-width="40" stroke-miterlimit="10"/>
</svg>
