<svg width="1000" height="1000" viewBox="0 0 1000 1000" fill="none" xmlns="http://www.w3.org/2000/svg">
<path d="M507.25 369.42L576.02 300.65C597.56 300.65 609.64 300.65 631.17 300.65L699.94 369.42C699.94 390.96 699.94 403.04 699.94 424.57L631.17 493.34C609.63 493.34 597.55 493.34 576.02 493.34L507.25 424.57V369.42Z" stroke="white" stroke-width="40" stroke-miterlimit="10"/>
<path d="M820.83 497.62L589.92 718.24L392.45 607.8L282.01 410.33L502.63 179.42L772.59 68.5596L931.01 69.2396L931.69 227.66L820.83 497.62Z" stroke="white" stroke-width="40" stroke-miterlimit="10"/>
<path d="M672.34 120.22L880.03 327.91" stroke="white" stroke-width="40" stroke-miterlimit="10"/>
<path d="M393.38 284.54L317.82 243.48L179.46 273.82L87.4502 395.6C87.7502 401.26 87.9402 404.92 88.2402 410.58L120.83 445.38C126.67 445.94 130.33 446.29 136.17 446.85L192.09 406.3L282.67 410.4" stroke="white" stroke-width="40" stroke-miterlimit="10"/>
<path d="M715.84 607.41L756.9 682.97L726.56 821.33L604.78 913.34C599.12 913.04 595.46 912.85 589.8 912.55L555 879.96C554.44 874.12 554.09 870.46 553.53 864.62L594.08 808.7L589.98 718.12" stroke="white" stroke-width="40" stroke-miterlimit="10"/>
<path d="M209.49 922.36L217.94 874.85C212.19 870.37 210.4 868.97 204.65 864.49L113.44 900.47C107.63 894.38 106.79 893.49 100.98 887.4L139.52 799.56C135.38 793.61 134.05 791.71 129.91 785.75L76.8201 792.43C72.9301 785.21 72.2001 783.84 68.3101 776.63L150.61 653.97L279.01 632.64L367.96 721.59L346.62 849.99L225.21 931.45L209.49 922.37V922.36Z" stroke="white" stroke-width="40" stroke-miterlimit="10"/>
</svg>
