<svg width="1000" height="1000" viewBox="0 0 1000 1000" fill="none" xmlns="http://www.w3.org/2000/svg">
<path d="M889.86 847.23H313.15L273.15 807.23V449.42C288.77 433.8 297.53 425.04 313.15 409.42H889.86C905.48 425.04 914.24 433.8 929.86 449.42V807.23L889.86 847.23Z" stroke="white" stroke-width="40" stroke-miterlimit="10"/>
<path d="M929.86 417.14L620.6 684.77H582.4L273.14 417.14" stroke="white" stroke-width="40" stroke-miterlimit="10"/>
<path d="M923.61 839.52L645.06 653.82" stroke="white" stroke-width="40" stroke-miterlimit="10"/>
<path d="M279.4 839.52L557.95 653.82" stroke="white" stroke-width="40" stroke-miterlimit="10"/>
<path d="M262.68 738.64H215.47C198.35 721.52 188.76 711.93 171.64 694.81V344.66C188.76 327.54 198.35 317.95 215.47 300.83H784.52C801.64 317.95 811.23 327.54 828.35 344.66V411.14" stroke="white" stroke-width="40" stroke-miterlimit="10"/>
<path d="M171.26 630.04H113.97C96.8501 612.92 87.2601 603.33 70.1401 586.21V236.07C87.2601 218.95 96.8501 209.36 113.97 192.24H683.02C700.14 209.36 709.73 218.95 726.85 236.07V296.55" stroke="white" stroke-width="40" stroke-miterlimit="10"/>
</svg>
