<svg width="1000" height="1000" viewBox="0 0 1000 1000" fill="none" xmlns="http://www.w3.org/2000/svg">
<path d="M340.06 780.23L350.65 867.06C348.65 872.87 346.94 877.81 344.94 883.62L278.57 949.99C256.65 944.57 250.62 943.08 228.7 937.67L189.29 810.7L62.32 771.29C56.9 749.37 55.41 743.34 50 721.42L116.37 655.05L132.93 649.34L219.76 659.93L290.68 578.1L280.68 545.67L116.1 502.13C112.08 487.24 111.09 483.55 107.07 468.66L189.83 385.9C195.18 383.87 199.83 382.11 205.18 380.08L469.24 396.3L558.02 321.9C562.36 320.32 566.31 318.89 570.65 317.31H662.66C670.47 325.12 674.85 329.5 682.66 337.31V427.35C680.95 432.06 678.52 438.75 676.8 443.46L603.67 530.73L619.89 794.79L614.07 810.14L531.54 892.67C516.5 888.62 512.78 887.61 497.74 883.56L454.28 719.3C440.14 714.94 435.99 713.66 421.85 709.3L340.02 780.22L340.06 780.23Z" stroke="white" stroke-width="40" stroke-miterlimit="10"/>
<path d="M301.42 375.32L301.37 241.38L396.04 146.64L490.72 51.89L624.66 51.84L758.6 51.79L853.34 146.47L948.09 241.14L948.14 375.08L948.19 509.02L853.51 603.76" stroke="white" stroke-width="40" stroke-miterlimit="10"/>
<path d="M396.04 146.64L490.72 51.89L624.66 51.84L758.6 51.79L853.34 146.47L948.09 241.14L948.14 375.08L948.19 509.02L853.51 603.76L758.84 698.51L624.9 698.56" stroke="white" stroke-width="40" stroke-miterlimit="10"/>
<path d="M446.57 377.67L446.54 305.2L497.76 253.94L548.99 202.67L621.46 202.65L693.93 202.62L745.2 253.85L796.46 305.07L796.49 377.54L796.52 450.01L745.29 501.28" stroke="white" stroke-width="40" stroke-miterlimit="10"/>
<path d="M497.78 253.95L549.01 202.69L621.48 202.66L693.95 202.64L745.21 253.86L796.48 305.09L796.51 377.56L796.53 450.03L745.31 501.29L694.08 552.56L621.61 552.59" stroke="white" stroke-width="40" stroke-miterlimit="10"/>
</svg>
