<svg width="1000" height="1000" viewBox="0 0 1000 1000" fill="none" xmlns="http://www.w3.org/2000/svg">
<path d="M412.79 797.84H558.26L774.53 653.69H807.32L840.11 697.18V722.78L605.77 909.92C599.81 912.05 594.22 914.05 588.26 916.18H262.23C249.69 901.07 242.66 892.61 230.12 877.5V739.46C242.66 724.35 249.69 715.89 262.23 700.78H426.79H525.24C537.78 715.89 545.72 724.35 558.26 739.46V796.41" stroke="white" stroke-width="40" stroke-miterlimit="10"/>
<path d="M761.58 115.07L575 62.5703H425L238.42 115.07L200 164.87L275 403.67L460.34 561.08C490.35 561.08 509.65 561.08 539.66 561.08L725 403.67L800 164.87L761.58 115.07Z" stroke="white" stroke-width="40" stroke-miterlimit="10"/>
<path d="M657.04 212.52L525.61 400.87H468.67L403.14 306.7" stroke="white" stroke-width="40" stroke-miterlimit="10"/>
</svg>
