<svg width="1000" height="1000" viewBox="0 0 1000 1000" fill="none" xmlns="http://www.w3.org/2000/svg">
<path d="M882.82 799.69L922.82 759.69L922.83 644.18L844.66 579.69H676.12L520.59 427.76H228.09L91.6699 579.69V759.69L131.67 799.69H882.82Z" stroke="white" stroke-width="40" stroke-miterlimit="10"/>
<path d="M120.78 579.71H685.24" stroke="white" stroke-width="40" stroke-miterlimit="10"/>
<path d="M200 814.69V846.09L221.02 885.49C221.02 885.49 247.56 906.34 258.6 912.6H291.4C302.44 906.34 328.98 885.49 328.98 885.49L350 846.09V814.69" stroke="white" stroke-width="40" stroke-miterlimit="10"/>
<path d="M620.01 814.69V846.09L641.03 885.49C641.03 885.49 667.57 906.34 678.61 912.6H711.41C722.45 906.34 748.99 885.49 748.99 885.49L770.01 846.09V814.69" stroke="white" stroke-width="40" stroke-miterlimit="10"/>
<path d="M227.52 167.8L299.04 119.58L386.62 101.9L474.2 119.58L545.72 167.8" stroke="white" stroke-width="40" stroke-miterlimit="10"/>
<path d="M298.23 256.82L337.96 230.03L386.62 220.2L435.27 230.03L475.01 256.82" stroke="white" stroke-width="40" stroke-miterlimit="10"/>
<path d="M368.94 346.22L376.89 340.87H396.35L404.3 346.22" stroke="white" stroke-width="40" stroke-miterlimit="10"/>
</svg>
