<?xml version="1.0" encoding="UTF-8"?>
<svg id="Layer_2" data-name="Layer 2" xmlns="http://www.w3.org/2000/svg" viewBox="0 0 1070.44 1088.31">
  <defs>
    <style>
      .cls-1 {
        fill: #51ff00;
      }
    </style>
  </defs>
  <g id="Layer_1-2" data-name="Layer 1">
    <g>
      <g>
        <path class="cls-1" d="M423.17,403.02l-34.8,34.8v205.51l34.8,34.8h205.51l34.8-34.8v-205.51l-34.8-34.8h-205.51ZM619.13,624.95l-8.82,8.82h-168.77l-8.82-8.82v-168.77l8.82-8.82h168.77l8.82,8.82v168.77Z"/>
        <path class="cls-1" d="M831.19,452.86v-44.35h-65v-51.61l-56.61-56.61h-51.66v-65.06h-44.35v65.06h-28.87v-65.06h-44.35v65.06h-28.87v-65.06h-44.35v65.06h-28.87v-65.06h-44.35v65.06h-51.66l-56.61,56.61v51.61h-65v44.35h65v28.87h-65v44.35h65v28.87h-65v44.35h65v28.87h-65v44.35h65v51.72l56.61,56.61h51.66v64.94h44.35v-64.94h28.87v64.94h44.35v-64.94h28.87v64.94h44.35v-64.94h28.87v64.94h44.35v-64.94h51.66l56.61-56.61v-51.72h65v-44.35h-65v-28.87h65v-44.35h-65v-28.87h65v-44.35h-65v-28.87h65ZM721.84,705.86l-30.63,30.63h-330.58l-30.63-30.63v-330.58l30.63-30.63h330.58l30.63,30.63v330.58Z"/>
      </g>
      <g>
        <polygon class="cls-1" points="805.7 55.24 721.84 55.24 721.84 115.24 780.71 115.24 991.84 327.92 991.84 385.24 1051.84 385.24 1051.84 303.19 805.7 55.24"/>
        <polygon class="cls-1" points="721.84 180.24 721.84 240.24 750.07 240.24 866.84 357.02 866.84 385.24 926.84 385.24 926.84 332.16 774.92 180.24 721.84 180.24"/>
        <polygon class="cls-1" points="60 771.7 60 714.37 0 714.37 0 796.42 246.15 1044.37 330 1044.37 330 984.37 271.13 984.37 60 771.7"/>
        <polygon class="cls-1" points="185 742.6 185 714.37 125 714.37 125 767.45 276.92 919.37 330 919.37 330 859.37 301.77 859.37 185 742.6"/>
      </g>
      <polygon class="cls-1" points="5.46 542.87 5.46 413.74 384.69 0 497.64 0 497.64 82.34 414.27 82.34 78.58 448.57 78.58 542.87 5.46 542.87"/>
      <polygon class="cls-1" points="578.25 1088.31 578.25 1005.97 661.63 1005.97 997.31 639.74 997.31 545.44 1070.44 545.44 1070.44 674.57 691.2 1088.31 578.25 1088.31"/>
    </g>
  </g>
</svg>