<svg width="890" height="940" viewBox="0 0 890 940" fill="none" xmlns="http://www.w3.org/2000/svg">
<path d="M870 231.14V191.8C861.25 179.83 854.82 171.04 846.08 159.07L458.17 20H431.82L43.92 159.07C35.17 171.04 28.74 179.83 20 191.8V231.14C34.49 244.81 42.61 252.48 57.1 266.15H832.91C832.91 266.15 855.51 244.81 870 231.14Z" stroke="#A8FF00" stroke-width="40" stroke-miterlimit="10"/>
<path d="M173.7 820.14H104.68L69.6699 785.13V266.15H208.71V785.13L173.7 820.14Z" stroke="#A8FF00" stroke-width="40" stroke-miterlimit="10"/>
<path d="M786.01 820.14H716.99L681.98 785.13V266.15H821.021V785.13L786.01 820.14Z" stroke="#A8FF00" stroke-width="40" stroke-miterlimit="10"/>
<path d="M594.999 418.16H384.349C371.179 429.39 363.789 435.69 350.619 446.92V677.03C363.789 688.26 371.179 694.56 384.349 705.79H594.999" stroke="#A8FF00" stroke-width="40" stroke-miterlimit="10"/>
<path d="M295 516.12H542.98" stroke="#A8FF00" stroke-width="40" stroke-miterlimit="10"/>
<path d="M295 609.57H542.98" stroke="#A8FF00" stroke-width="40" stroke-miterlimit="10"/>
<path d="M13.7598 919.84H876.24" stroke="#A8FF00" stroke-width="40" stroke-miterlimit="10"/>
</svg>
