<?xml version="1.0" encoding="UTF-8"?>
<svg id="Layer_2" data-name="Layer 2" xmlns="http://www.w3.org/2000/svg" xmlns:xlink="http://www.w3.org/1999/xlink" viewBox="0 0 72 73">
  <defs>
    <style>
      .cls-1 {
        fill: none;
        filter: url(#outer-glow-1);
        stroke: #f0f;
        stroke-miterlimit: 10;
      }
    </style>
    <filter id="outer-glow-1" x="0" y="0" width="72" height="73" filterUnits="userSpaceOnUse">
      <feOffset dx="0" dy="0"/>
      <feGaussianBlur result="blur" stdDeviation="5"/>
      <feFlood flood-color="#f0f" flood-opacity=".75"/>
      <feComposite in2="blur" operator="in"/>
      <feComposite in="SourceGraphic"/>
    </filter>
  </defs>
  <g id="Layer_2-2" data-name="Layer 2">
    <path class="cls-1" d="M56.09,35.88h-2.87l-.4-.38c-.13-1.88-.56-3.7-1.3-5.43-.86-2.02-2.08-3.84-3.64-5.4s-3.38-2.79-5.4-3.64c-1.73-.73-3.55-1.17-5.43-1.3l-.38-.4v-2.88h-1.62v2.88l-.38.4c-1.88.13-3.7.56-5.43,1.3-2.02.86-3.84,2.08-5.4,3.64-1.56,1.56-2.79,3.38-3.64,5.4-.73,1.73-1.17,3.55-1.3,5.43l-.4.38h-2.87v1.62h2.87c.16.15.25.23.4.38.13,1.88.56,3.7,1.3,5.43.86,2.02,2.08,3.84,3.64,5.4,1.56,1.56,3.38,2.79,5.4,3.64,1.73.73,3.55,1.17,5.43,1.3l.38.4v2.87h1.62v-2.87l.38-.4c1.88-.13,3.7-.56,5.43-1.3,2.02-.86,3.84-2.08,5.4-3.64,1.56-1.56,2.79-3.38,3.64-5.4.73-1.73,1.17-3.56,1.3-5.43l.4-.38h2.87v-1.62ZM41.83,22.52c1.83.77,3.48,1.88,4.89,3.3s2.52,3.06,3.3,4.89c.64,1.51,1.03,3.1,1.16,4.74l-.4.44h-5.7l-.4-.35c-.25-1.94-1.13-3.73-2.53-5.14-1.41-1.41-3.2-2.28-5.14-2.53l-.35-.4v-5.7l.44-.4c1.64.13,3.23.52,4.74,1.16ZM34.78,33.85c-.82.31-1.47.96-1.77,1.77l-.38.26h-3.56c-.16-.19-.24-.28-.4-.48.54-2.99,2.9-5.35,5.89-5.88l.48.4v3.55c-.09.14-.16.24-.26.38ZM33,37.76c.31.82.96,1.47,1.78,1.78l.26.38v3.55c-.19.16-.28.24-.48.4-2.99-.53-5.35-2.9-5.89-5.89l.4-.48h3.55c.14.09.24.16.38.26ZM36.91,39.53c.82-.31,1.47-.96,1.78-1.78l.38-.26h3.55c.16.19.24.28.4.48-.53,2.99-2.9,5.35-5.89,5.89l-.48-.4v-3.55c.09-.14.16-.24.26-.38ZM38.69,35.62c-.31-.82-.96-1.47-1.77-1.77l-.26-.38v-3.55c.19-.16.28-.24.48-.4,2.99.53,5.35,2.9,5.89,5.88l-.4.48h-3.56c-.14-.09-.24-.16-.38-.26ZM21.67,30.7c.77-1.83,1.88-3.48,3.3-4.89,1.41-1.41,3.06-2.52,4.89-3.3,1.51-.64,3.1-1.03,4.74-1.16l.44.4v5.7l-.35.4c-1.94.25-3.73,1.13-5.14,2.53-1.41,1.41-2.28,3.2-2.53,5.14l-.4.35h-5.7l-.4-.44c.13-1.64.52-3.23,1.16-4.74ZM29.86,50.87c-1.83-.77-3.48-1.88-4.89-3.3-1.41-1.41-2.52-3.06-3.3-4.89-.64-1.51-1.03-3.1-1.16-4.74l.4-.44h5.7l.4.35c.25,1.94,1.13,3.73,2.53,5.14,1.41,1.41,3.2,2.28,5.14,2.53l.35.4v5.7l-.44.4c-1.64-.13-3.23-.52-4.74-1.16ZM50.02,42.68c-.77,1.83-1.88,3.48-3.3,4.89-1.41,1.41-3.06,2.52-4.89,3.3-1.51.64-3.1,1.03-4.74,1.16l-.44-.4v-5.7l.35-.4c1.94-.25,3.73-1.13,5.14-2.53,1.41-1.41,2.28-3.2,2.53-5.14l.4-.35h5.7l.4.44c-.13,1.64-.52,3.23-1.16,4.74Z"/>
  </g>
</svg>