<svg width="1877" height="1081" viewBox="0 0 1877 1081" fill="none" xmlns="http://www.w3.org/2000/svg">
<g clip-path="url(#clip0_53_2260)">
<path d="M1875.57 1080.14V740.2L1779.52 656.77V397.86L1875.57 314.43V0" stroke="#A8FF00" stroke-miterlimit="10"/>
<path d="M1826.23 1080.14V740.2L1735.23 656.77V397.86L1826.23 314.43V0" stroke="#A8FF00" stroke-miterlimit="10"/>
<path d="M1776.88 1080.14V740.2L1690.94 656.77V397.86L1776.88 314.43V0" stroke="#A8FF00" stroke-miterlimit="10"/>
<path d="M1727.54 1080.14V740.2L1646.66 656.77V397.86L1727.54 314.43V0" stroke="#A8FF00" stroke-miterlimit="10"/>
<path d="M1678.19 1080.14V740.2L1602.37 656.77V397.86L1678.19 314.43V0" stroke="#A8FF00" stroke-miterlimit="10"/>
<path d="M1628.85 1080.14V740.2L1558.08 656.77V397.86L1628.85 314.43V0" stroke="#A8FF00" stroke-miterlimit="10"/>
<path d="M1579.51 1080.14V740.2L1513.79 656.77V397.86L1579.51 314.43V0" stroke="#A8FF00" stroke-miterlimit="10"/>
<path d="M1530.16 1080.14V740.2L1469.5 656.77V397.86L1530.16 314.43V0" stroke="#A8FF00" stroke-miterlimit="10"/>
<path d="M1480.82 1080.14V740.2L1425.21 656.77V397.86L1480.82 314.43V0" stroke="#A8FF00" stroke-miterlimit="10"/>
<path d="M1431.47 1080.14V740.2L1380.92 656.77V397.86L1431.47 314.43V0" stroke="#A8FF00" stroke-miterlimit="10"/>
<path d="M1382.13 1080.14V740.2L1336.63 656.77V397.86L1382.13 314.43V0" stroke="#A8FF00" stroke-miterlimit="10"/>
<path d="M1332.79 1080.14V740.2L1292.35 656.77V397.86L1332.79 314.43V0" stroke="#A8FF00" stroke-miterlimit="10"/>
<path d="M1283.44 1080.14V740.2L1248.06 656.77V397.86L1283.44 314.43V0" stroke="#A8FF00" stroke-miterlimit="10"/>
<path d="M1234.1 1080.14V740.2L1203.77 656.77V397.86L1234.1 314.43V0" stroke="#A8FF00" stroke-miterlimit="10"/>
<path d="M1184.75 1080.14V740.2L1159.48 656.77V397.86L1184.75 314.43V0" stroke="#A8FF00" stroke-miterlimit="10"/>
<path d="M1135.41 1080.14V740.2L1115.19 656.77V397.86L1135.41 314.43V0" stroke="#A8FF00" stroke-miterlimit="10"/>
<path d="M1086.07 1080.14V740.2L1070.9 656.77V397.86L1086.07 314.43V0" stroke="#A8FF00" stroke-miterlimit="10"/>
<path d="M1036.72 1080.14V740.2L1026.61 656.77V397.86L1036.72 314.43V0" stroke="#A8FF00" stroke-miterlimit="10"/>
<path d="M987.38 1080.14V740.2L982.32 656.77V397.86L987.38 314.43V0" stroke="#A8FF00" stroke-miterlimit="10"/>
<path d="M938.03 1080.14V740.2V656.77V397.86V314.43V0" stroke="#A8FF00" stroke-miterlimit="10"/>
<path d="M888.69 1080.14V740.2L893.75 656.77V397.86L888.69 314.43V0" stroke="#A8FF00" stroke-miterlimit="10"/>
<path d="M839.35 1080.14V740.2L849.46 656.77V397.86L839.35 314.43V0" stroke="#A8FF00" stroke-miterlimit="10"/>
<path d="M790 1080.14V740.2L805.17 656.77V397.86L790 314.43V0" stroke="#A8FF00" stroke-miterlimit="10"/>
<path d="M740.66 1080.14V740.2L760.88 656.77V397.86L740.66 314.43V0" stroke="#A8FF00" stroke-miterlimit="10"/>
<path d="M691.32 1080.14V740.2L716.59 656.77V397.86L691.32 314.43V0" stroke="#A8FF00" stroke-miterlimit="10"/>
<path d="M641.97 1080.14V740.2L672.3 656.77V397.86L641.97 314.43V0" stroke="#A8FF00" stroke-miterlimit="10"/>
<path d="M592.63 1080.14V740.2L628.01 656.77V397.86L592.63 314.43V0" stroke="#A8FF00" stroke-miterlimit="10"/>
<path d="M543.28 1080.14V740.2L583.72 656.77V397.86L543.28 314.43V0" stroke="#A8FF00" stroke-miterlimit="10"/>
<path d="M493.94 1080.14V740.2L539.44 656.77V397.86L493.94 314.43V0" stroke="#A8FF00" stroke-miterlimit="10"/>
<path d="M444.6 1080.14V740.2L495.15 656.77V397.86L444.6 314.43V0" stroke="#A8FF00" stroke-miterlimit="10"/>
<path d="M395.25 1080.14V740.2L450.86 656.77V397.86L395.25 314.43V0" stroke="#A8FF00" stroke-miterlimit="10"/>
<path d="M345.91 1080.14V740.2L406.57 656.77V397.86L345.91 314.43V0" stroke="#A8FF00" stroke-miterlimit="10"/>
<path d="M296.56 1080.14V740.2L362.28 656.77V397.86L296.56 314.43V0" stroke="#A8FF00" stroke-miterlimit="10"/>
<path d="M247.22 1080.14V740.2L317.99 656.77V397.86L247.22 314.43V0" stroke="#A8FF00" stroke-miterlimit="10"/>
<path d="M197.88 1080.14V740.2L273.7 656.77V397.86L197.88 314.43V0" stroke="#A8FF00" stroke-miterlimit="10"/>
<path d="M148.53 1080.14V740.2L229.41 656.77V397.86L148.53 314.43V0" stroke="#A8FF00" stroke-miterlimit="10"/>
<path d="M99.1899 1080.14V740.2L185.12 656.77V397.86L99.1899 314.43V0" stroke="#A8FF00" stroke-miterlimit="10"/>
<path d="M49.8401 1080.14V740.2L140.84 656.77V397.86L49.8401 314.43V0" stroke="#A8FF00" stroke-miterlimit="10"/>
<path d="M0.5 1080.14V740.2L96.55 656.77V397.86L0.5 314.43V0" stroke="#A8FF00" stroke-miterlimit="10"/>
</g>
<defs>
<clipPath id="clip0_53_2260">
<rect width="1876.07" height="1080.14" fill="white"/>
</clipPath>
</defs>
</svg>
