<svg width="2063" height="1274" viewBox="0 0 2063 1274" fill="none" xmlns="http://www.w3.org/2000/svg">
<g clip-path="url(#clip0_53_1976)">
<path d="M0.6 0.800049L643.07 482.81H994.6L1453.76 629.99" stroke="#FF00F3" stroke-width="2" stroke-miterlimit="10"/>
<path d="M0.6 91.6699L643.07 504.82H994.6L1453.76 629.99" stroke="#FF00F3" stroke-width="2" stroke-miterlimit="10"/>
<path d="M0.6 182.54L643.07 526.83H994.6L1453.76 629.99" stroke="#FF00F3" stroke-width="2" stroke-miterlimit="10"/>
<path d="M0.6 273.41L643.07 548.84H994.6L1453.76 629.99" stroke="#FF00F3" stroke-width="2" stroke-miterlimit="10"/>
<path d="M0.6 364.27L643.07 570.85H994.6L1453.76 629.99" stroke="#FF00F3" stroke-width="2" stroke-miterlimit="10"/>
<path d="M0.6 455.14L643.07 592.86H994.6L1453.76 629.99" stroke="#FF00F3" stroke-width="2" stroke-miterlimit="10"/>
<path d="M0.6 546.01L643.07 614.87H994.6L1453.76 629.99" stroke="#FF00F3" stroke-width="2" stroke-miterlimit="10"/>
<path d="M0.6 636.88H643.07H994.6L1453.76 629.99" stroke="#FF00F3" stroke-width="2" stroke-miterlimit="10"/>
<path d="M0.6 727.75L643.07 658.89H994.6L1453.76 629.99" stroke="#FF00F3" stroke-width="2" stroke-miterlimit="10"/>
<path d="M0.6 818.62L643.07 680.9H994.6L1453.76 629.99" stroke="#FF00F3" stroke-width="2" stroke-miterlimit="10"/>
<path d="M0.6 909.49L643.07 702.91H994.6L1453.76 629.99" stroke="#FF00F3" stroke-width="2" stroke-miterlimit="10"/>
<path d="M0.6 1000.35L643.07 724.92H994.6L1453.76 629.99" stroke="#FF00F3" stroke-width="2" stroke-miterlimit="10"/>
<path d="M0.6 1091.22L643.07 746.93H994.6L1453.76 629.99" stroke="#FF00F3" stroke-width="2" stroke-miterlimit="10"/>
<path d="M0.6 1182.09L643.07 768.94H994.6L1453.76 629.99" stroke="#FF00F3" stroke-width="2" stroke-miterlimit="10"/>
<path d="M0.6 1272.96L643.07 790.95H994.6L1453.76 629.99" stroke="#FF00F3" stroke-width="2" stroke-miterlimit="10"/>
<path d="M1453.76 629.99H2062.98" stroke="#FF00F3" stroke-width="2" stroke-miterlimit="10"/>
</g>
<defs>
<clipPath id="clip0_53_1976">
<rect width="2062.98" height="1273.76" fill="white"/>
</clipPath>
</defs>
</svg>
