<svg width="1920" height="1080" viewBox="0 0 1920 1080" fill="none" xmlns="http://www.w3.org/2000/svg">
<mask id="mask0_53_2409" style="mask-type:luminance" maskUnits="userSpaceOnUse" x="0" y="0" width="1920" height="1080">
<path d="M1920 0H0V1080H1920V0Z" fill="white"/>
</mask>
<g mask="url(#mask0_53_2409)">
<path d="M191.95 1427.26H1230.86C1246.48 1411.64 1255.24 1402.88 1270.86 1387.26V1202.1C1286.48 1186.48 1295.24 1177.72 1310.86 1162.1H1677.45C1693.07 1146.48 1701.83 1137.72 1717.45 1122.1V936.94C1733.07 921.32 1741.83 912.56 1757.45 896.94H2340.92C2356.54 881.32 2365.3 872.56 2380.92 856.94V340.11" stroke="#FF00F3" stroke-width="3" stroke-miterlimit="10"/>
<path d="M175.36 1392.71H1195.6C1211.22 1377.09 1219.98 1368.33 1235.6 1352.71V1167.55C1251.22 1151.93 1259.98 1143.17 1275.6 1127.55H1642.19C1657.81 1111.93 1666.57 1103.17 1682.19 1087.55V902.39C1697.81 886.77 1706.57 878.01 1722.19 862.39H2305.66C2321.28 846.77 2330.04 838.01 2345.66 822.39V305.56" stroke="#FF00F3" stroke-width="2.88" stroke-miterlimit="10"/>
<path d="M158.77 1358.16H1160.35C1175.97 1342.54 1184.73 1333.78 1200.35 1318.16V1133C1215.97 1117.38 1224.73 1108.62 1240.35 1093H1606.94C1622.56 1077.38 1631.32 1068.62 1646.94 1053V867.84C1662.56 852.22 1671.32 843.46 1686.94 827.84H2270.41C2286.03 812.22 2294.79 803.46 2310.41 787.84V271.01" stroke="#FF00F3" stroke-width="2.76" stroke-miterlimit="10"/>
<path d="M142.19 1323.61H1125.11C1140.73 1307.99 1149.49 1299.23 1165.11 1283.61V1098.45C1180.73 1082.83 1189.49 1074.07 1205.11 1058.45H1571.7C1587.32 1042.83 1596.08 1034.07 1611.7 1018.45V833.29C1627.32 817.67 1636.08 808.91 1651.7 793.29H2235.17C2250.79 777.67 2259.55 768.91 2275.17 753.29V236.46" stroke="#FF00F3" stroke-width="2.65" stroke-miterlimit="10"/>
<path d="M125.6 1289.06H1089.86C1105.48 1273.44 1114.24 1264.68 1129.86 1249.06V1063.9C1145.48 1048.28 1154.24 1039.52 1169.86 1023.9H1536.45C1552.07 1008.28 1560.83 999.52 1576.45 983.9V798.74C1592.07 783.12 1600.83 774.36 1616.45 758.74H2199.92C2215.54 743.12 2224.3 734.36 2239.92 718.74V201.91" stroke="#FF00F3" stroke-width="2.53" stroke-miterlimit="10"/>
<path d="M109.02 1254.51H1054.61C1070.23 1238.89 1078.99 1230.13 1094.61 1214.51V1029.35C1110.23 1013.73 1118.99 1004.97 1134.61 989.35H1501.2C1516.82 973.73 1525.58 964.97 1541.2 949.35V764.19C1556.82 748.57 1565.58 739.81 1581.2 724.19H2164.67L2204.67 684.19V167.36" stroke="#FF00F3" stroke-width="2.41" stroke-miterlimit="10"/>
<path d="M92.4299 1219.95H1019.36C1034.98 1204.33 1043.74 1195.57 1059.36 1179.95V994.79C1074.98 979.17 1083.74 970.41 1099.36 954.79H1465.95C1481.57 939.17 1490.33 930.41 1505.95 914.79V729.63C1521.57 714.01 1530.33 705.25 1545.95 689.63H2129.42C2145.04 674.01 2153.8 665.25 2169.42 649.63V132.8" stroke="#FF00F3" stroke-width="2.29" stroke-miterlimit="10"/>
<path d="M75.8499 1185.4H984.12C999.74 1169.78 1008.5 1161.02 1024.12 1145.4V960.24C1039.74 944.62 1048.5 935.86 1064.12 920.24H1430.71C1446.33 904.62 1455.09 895.86 1470.71 880.24V695.08C1486.33 679.46 1495.09 670.7 1510.71 655.08H2094.18C2109.8 639.46 2118.56 630.7 2134.18 615.08V98.25" stroke="#FF00F3" stroke-width="2.18" stroke-miterlimit="10"/>
<path d="M59.26 1150.85H948.87C964.49 1135.23 973.25 1126.47 988.87 1110.85V925.69C1004.49 910.07 1013.25 901.31 1028.87 885.69H1395.46C1411.08 870.07 1419.84 861.31 1435.46 845.69V660.53C1451.08 644.91 1459.84 636.15 1475.46 620.53H2058.93C2074.55 604.91 2083.31 596.15 2098.93 580.53V63.7002" stroke="#FF00F3" stroke-width="2.06" stroke-miterlimit="10"/>
<path d="M42.6799 1116.3H913.63C929.25 1100.68 938.01 1091.92 953.63 1076.3V891.14C969.25 875.52 978.01 866.76 993.63 851.14H1360.22C1375.84 835.52 1384.6 826.76 1400.22 811.14V625.98C1415.84 610.36 1424.6 601.6 1440.22 585.98H2023.69C2039.31 570.36 2048.07 561.6 2063.69 545.98V29.1499" stroke="#FF00F3" stroke-width="1.94" stroke-miterlimit="10"/>
<path d="M26.0898 1081.75H878.37L918.37 1041.75V856.59L958.37 816.59H1324.96C1340.58 800.97 1349.34 792.21 1364.96 776.59V591.43L1404.96 551.43H1988.43L2028.43 511.43V-5.3999" stroke="#FF00F3" stroke-width="1.82" stroke-miterlimit="10"/>
<path d="M9.51001 1047.2H843.13C858.75 1031.58 867.51 1022.82 883.13 1007.2V822.04C898.75 806.42 907.51 797.66 923.13 782.04H1289.72C1305.34 766.42 1314.1 757.66 1329.72 742.04V556.88L1369.72 516.88H1953.19C1968.81 501.26 1977.57 492.5 1993.19 476.88V-39.9502" stroke="#FF00F3" stroke-width="1.71" stroke-miterlimit="10"/>
<path d="M-7.08008 1012.65H807.88C823.5 997.03 832.26 988.27 847.88 972.65V787.49C863.5 771.87 872.26 763.11 887.88 747.49H1254.47C1270.09 731.87 1278.85 723.11 1294.47 707.49V522.33L1334.47 482.33H1917.94L1957.94 442.33V-74.5" stroke="#FF00F3" stroke-width="1.59" stroke-miterlimit="10"/>
<path d="M-23.6602 978.09H772.64C788.26 962.47 797.02 953.71 812.64 938.09V752.93C828.26 737.31 837.02 728.55 852.64 712.93H1219.23L1259.23 672.93V487.77C1274.85 472.15 1283.61 463.39 1299.23 447.77H1882.7C1898.32 432.15 1907.08 423.39 1922.7 407.77V-109.06" stroke="#FF00F3" stroke-width="1.47" stroke-miterlimit="10"/>
<path d="M-40.25 943.54H737.39C753.01 927.92 761.77 919.16 777.39 903.54V718.38C793.01 702.76 801.77 694 817.39 678.38H1183.98C1199.6 662.76 1208.36 654 1223.98 638.38V453.22L1263.98 413.22H1847.45C1863.07 397.6 1871.83 388.84 1887.45 373.22V-143.61" stroke="#FF00F3" stroke-width="1.35" stroke-miterlimit="10"/>
<path d="M-56.8301 908.99H702.14C717.76 893.37 726.52 884.61 742.14 868.99V683.83C757.76 668.21 766.52 659.45 782.14 643.83H1148.73C1164.35 628.21 1173.11 619.45 1188.73 603.83V418.67L1228.73 378.67H1812.2L1852.2 338.67V-178.16" stroke="#FF00F3" stroke-width="1.24" stroke-miterlimit="10"/>
<path d="M-73.4199 874.44H666.89C682.51 858.82 691.27 850.06 706.89 834.44V649.28C722.51 633.66 731.27 624.9 746.89 609.28H1113.48C1129.1 593.66 1137.86 584.9 1153.48 569.28V384.12C1169.1 368.5 1177.86 359.74 1193.48 344.12H1776.95C1792.57 328.5 1801.33 319.74 1816.95 304.12V-212.71" stroke="#FF00F3" stroke-width="1.12" stroke-miterlimit="10"/>
<path d="M-93.6201 843.03H628.03C643.65 827.41 652.41 818.65 668.03 803.03V617.87C683.65 602.25 692.41 593.49 708.03 577.87H1074.62C1090.24 562.25 1099 553.49 1114.62 537.87V352.71C1130.24 337.09 1139 328.33 1154.62 312.71H1738.09C1753.71 297.09 1762.47 288.33 1778.09 272.71V-244.12" stroke="#FF00F3" stroke-miterlimit="10"/>
<path d="M-127.73 808.91H593.92C609.54 793.29 618.3 784.53 633.92 768.91V583.75C649.54 568.13 658.3 559.37 673.92 543.75H1040.51C1056.13 528.13 1064.89 519.37 1080.51 503.75V318.59C1096.13 302.97 1104.89 294.21 1120.51 278.59H1703.98C1719.6 262.97 1728.36 254.21 1743.98 238.59V-278.24" stroke="#F402F4" stroke-width="0.99" stroke-miterlimit="10"/>
<path d="M-161.85 774.8H559.8C575.42 759.18 584.18 750.42 599.8 734.8V549.64C615.42 534.02 624.18 525.26 639.8 509.64H1006.39C1022.01 494.02 1030.77 485.26 1046.39 469.64V284.48C1062.01 268.86 1070.77 260.1 1086.39 244.48H1669.86L1709.86 204.48V-312.34" stroke="#EA04F4" stroke-width="0.97" stroke-miterlimit="10"/>
<path d="M-195.96 740.68H525.69C541.31 725.06 550.07 716.3 565.69 700.68V515.52C581.31 499.9 590.07 491.14 605.69 475.52H972.28L1012.28 435.52V250.36C1027.9 234.74 1036.66 225.98 1052.28 210.36H1635.75C1651.37 194.74 1660.13 185.98 1675.75 170.36V-346.45" stroke="#DF06F5" stroke-width="0.96" stroke-miterlimit="10"/>
<path d="M-230.08 706.57H491.57L531.57 666.57V481.41C547.19 465.79 555.95 457.03 571.57 441.41H938.16L978.16 401.41V216.25C993.78 200.63 1002.54 191.87 1018.16 176.25H1601.63C1617.25 160.63 1626.01 151.87 1641.63 136.25V-380.57" stroke="#D508F6" stroke-width="0.94" stroke-miterlimit="10"/>
<path d="M-264.19 672.46H457.46L497.46 632.46V447.3C513.08 431.68 521.84 422.92 537.46 407.3H904.05C919.67 391.68 928.43 382.92 944.05 367.3V182.14C959.67 166.52 968.43 157.76 984.05 142.14H1567.52C1583.14 126.52 1591.9 117.76 1607.52 102.14V-414.68" stroke="#CA0AF7" stroke-width="0.93" stroke-miterlimit="10"/>
<path d="M-298.3 638.34H423.35C438.97 622.72 447.73 613.96 463.35 598.34V413.18C478.97 397.56 487.73 388.8 503.35 373.18H869.94C885.56 357.56 894.32 348.8 909.94 333.18V148.02C925.56 132.4 934.32 123.64 949.94 108.02H1533.41L1573.41 68.02V-448.79" stroke="#C00CF7" stroke-width="0.91" stroke-miterlimit="10"/>
<path d="M-332.42 604.23H389.23C404.85 588.61 413.61 579.85 429.23 564.23V379.07L469.23 339.07H835.82L875.82 299.07V113.91C891.44 98.2899 900.2 89.5299 915.82 73.9099H1499.29C1514.91 58.2899 1523.67 49.5299 1539.29 33.9099V-482.91" stroke="#B50EF8" stroke-width="0.9" stroke-miterlimit="10"/>
<path d="M-366.53 570.11H355.12C370.74 554.49 379.5 545.73 395.12 530.11V344.95C410.74 329.33 419.5 320.57 435.12 304.95H801.71C817.33 289.33 826.09 280.57 841.71 264.95V79.79C857.33 64.17 866.09 55.41 881.71 39.79H1465.18C1480.8 24.17 1489.56 15.41 1505.18 -0.209961V-517.02" stroke="#AB10F9" stroke-width="0.88" stroke-miterlimit="10"/>
<path d="M-400.65 536H321C336.62 520.38 345.38 511.62 361 496V310.84C376.62 295.22 385.38 286.46 401 270.84H767.59C783.21 255.22 791.97 246.46 807.59 230.84V45.6798C823.21 30.0598 831.97 21.2998 847.59 5.67981H1431.06C1446.68 -9.94019 1455.44 -18.7002 1471.06 -34.3202V-551.14" stroke="#A012F9" stroke-width="0.87" stroke-miterlimit="10"/>
<path d="M-434.76 501.88H286.89L326.89 461.88V276.72C342.51 261.1 351.27 252.34 366.89 236.72H733.48C749.1 221.1 757.86 212.34 773.48 196.72V11.56C789.1 -4.06 797.86 -12.82 813.48 -28.44H1396.95L1436.95 -68.44V-585.25" stroke="#9614FA" stroke-width="0.85" stroke-miterlimit="10"/>
<path d="M-468.88 467.77H252.77C268.39 452.15 277.15 443.39 292.77 427.77V242.61C308.39 226.99 317.15 218.23 332.77 202.61H699.36C714.98 186.99 723.74 178.23 739.36 162.61V-22.5501C754.98 -38.1701 763.74 -46.9301 779.36 -62.5501H1362.83L1402.83 -102.55V-619.37" stroke="#8B16FB" stroke-width="0.84" stroke-miterlimit="10"/>
<path d="M-502.99 433.66H218.66C234.28 418.04 243.04 409.28 258.66 393.66V208.5C274.28 192.88 283.04 184.12 298.66 168.5H665.25L705.25 128.5V-56.66C720.87 -72.28 729.63 -81.04 745.25 -96.66H1328.72L1368.72 -136.66V-653.48" stroke="#8118FB" stroke-width="0.82" stroke-miterlimit="10"/>
<path d="M-537.1 399.54H184.55L224.55 359.54V174.38C240.17 158.76 248.93 150 264.55 134.38H631.14C646.76 118.76 655.52 110 671.14 94.3799V-90.7801C686.76 -106.4 695.52 -115.16 711.14 -130.78H1294.61C1310.23 -146.4 1318.99 -155.16 1334.61 -170.78V-687.59" stroke="#761AFC" stroke-width="0.81" stroke-miterlimit="10"/>
<path d="M-571.22 365.43H150.43L190.43 325.43V140.27C206.05 124.65 214.81 115.89 230.43 100.27H597.02C612.64 84.65 621.4 75.89 637.02 60.27V-124.89C652.64 -140.51 661.4 -149.27 677.02 -164.89H1260.49C1276.11 -180.51 1284.87 -189.27 1300.49 -204.89V-721.71" stroke="#6C1CFD" stroke-width="0.79" stroke-miterlimit="10"/>
<path d="M-605.33 331.31H116.32C131.94 315.69 140.7 306.93 156.32 291.31V106.15C171.94 90.53 180.7 81.77 196.32 66.15H562.91C578.53 50.53 587.29 41.77 602.91 26.15V-159.01C618.53 -174.63 627.29 -183.39 642.91 -199.01H1226.38L1266.38 -239.01V-755.82" stroke="#611EFE" stroke-width="0.78" stroke-miterlimit="10"/>
<path d="M-639.45 297.2H82.2C97.82 281.58 106.58 272.82 122.2 257.2V72.0401L162.2 32.0401H528.79C544.41 16.4201 553.17 7.6601 568.79 -7.9599V-193.12C584.41 -208.74 593.17 -217.5 608.79 -233.12H1192.26C1207.88 -248.74 1216.64 -257.5 1232.26 -273.12V-789.94" stroke="#5720FE" stroke-width="0.76" stroke-miterlimit="10"/>
<path d="M-673.56 263.09H48.09C63.71 247.47 72.47 238.71 88.09 223.09V37.9299C103.71 22.3099 112.47 13.5499 128.09 -2.07007H494.68C510.3 -17.6901 519.06 -26.4501 534.68 -42.0701V-227.23C550.3 -242.85 559.06 -251.61 574.68 -267.23H1158.15L1198.15 -307.23V-824.05" stroke="#4C22FF" stroke-width="0.75" stroke-miterlimit="10"/>
</g>
</svg>
