<svg width="1596" height="625" viewBox="0 0 1596 625" fill="none" xmlns="http://www.w3.org/2000/svg">
<g clip-path="url(#clip0_53_2450)">
<path d="M95.6 403.52L135.93 443.85H70.79C43.34 416.4 27.95 401.01 0.5 373.56V250.56C27.95 223.11 43.34 207.72 70.79 180.27H135.93C123.4 192.8 111.53 204.67 95.6 220.6V403.52Z" stroke="#A8FF00" stroke-miterlimit="10"/>
<path d="M197.43 440.22C210.11 452.9 220.33 463.12 231.03 473.81H165.89L95.6 403.52V220.6C111.53 204.67 123.4 192.8 135.93 180.27C144.98 171.22 154.37 161.83 165.89 150.31H231.03C220.33 161.01 210.11 171.22 197.43 183.9C195.26 186.07 193.02 188.31 190.7 190.63V433.49C193.02 435.82 195.26 438.06 197.43 440.22Z" stroke="#A8FF00" stroke-miterlimit="10"/>
<path d="M292.54 470.18C305.22 482.86 315.43 493.07 326.12 503.77H260.99C249.47 492.26 240.08 482.86 231.03 473.81C220.33 463.12 210.11 452.9 197.43 440.22C195.26 438.06 193.02 435.82 190.7 433.49V190.63C193.02 188.31 195.26 186.07 197.43 183.9C210.11 171.22 220.33 161.01 231.03 150.31C240.08 141.26 249.47 131.87 260.99 120.35H326.12C315.43 131.05 305.22 141.26 292.54 153.95C290.37 156.11 288.14 158.34 285.81 160.67V463.45C288.14 465.78 290.37 468.01 292.54 470.18Z" stroke="#A8FF00" stroke-miterlimit="10"/>
<path d="M421.24 533.74H356.09C344.56 522.22 335.17 512.82 326.12 503.77C315.43 493.07 305.22 482.86 292.54 470.18C290.37 468.01 288.14 465.78 285.81 463.45V160.67C288.14 158.34 290.37 156.11 292.54 153.95C305.22 141.26 315.43 131.05 326.12 120.35C335.17 111.3 344.56 101.9 356.09 90.3799H421.24C410.54 101.08 400.32 111.3 387.64 123.99C385.47 126.15 383.24 128.38 380.91 130.71V493.41C383.24 495.74 385.47 497.97 387.64 500.14C400.32 512.82 410.54 523.04 421.24 533.74Z" stroke="#A8FF00" stroke-miterlimit="10"/>
<path d="M476.01 523.37L516.34 563.7H451.2L421.24 533.74C410.54 523.04 400.32 512.82 387.64 500.14C385.47 497.97 383.24 495.74 380.91 493.41V130.71C383.24 128.38 385.47 126.15 387.64 123.99C400.32 111.3 410.54 101.08 421.24 90.3799C430.29 81.3299 439.69 71.9299 451.2 60.4199H516.34C505.64 71.1199 495.42 81.3399 482.74 94.0199C480.57 96.1899 478.34 98.4199 476.01 100.75V523.37Z" stroke="#A8FF00" stroke-miterlimit="10"/>
<path d="M571.11 553.33L611.44 593.66H546.3L476.01 523.37V100.75C478.34 98.42 480.57 96.19 482.74 94.02C495.42 81.34 505.64 71.12 516.34 60.42C525.39 51.37 534.79 41.97 546.3 30.46H611.44C600.74 41.16 590.52 51.38 577.84 64.06C575.67 66.23 573.44 68.46 571.11 70.79V553.33Z" stroke="#A8FF00" stroke-miterlimit="10"/>
<path d="M706.54 623.62H641.4L571.11 553.33V70.79C573.44 68.46 575.67 66.23 577.84 64.06C590.52 51.38 600.74 41.16 611.44 30.46C620.49 21.41 629.89 12.01 641.4 0.5H706.54C695.84 11.2 685.62 21.42 672.94 34.1L666.21 40.83V583.29C668.54 585.62 670.77 587.85 672.94 590.02C685.62 602.7 695.84 612.92 706.54 623.62Z" stroke="#A8FF00" stroke-miterlimit="10"/>
<path d="M1595.5 250.56V373.56C1568.05 401.01 1552.66 416.4 1525.21 443.85H1460.07L1500.4 403.52V220.6C1484.47 204.67 1472.6 192.8 1460.07 180.27H1525.21C1552.66 207.72 1568.05 223.11 1595.5 250.56Z" stroke="#A8FF00" stroke-miterlimit="10"/>
<path d="M1500.4 220.6V403.52L1430.11 473.81H1364.97C1375.67 463.12 1385.89 452.9 1398.57 440.22C1400.74 438.06 1402.98 435.82 1405.3 433.49V190.63C1402.98 188.31 1400.74 186.07 1398.57 183.9C1385.89 171.22 1375.67 161.01 1364.97 150.31H1430.11C1441.63 161.83 1451.02 171.22 1460.07 180.27C1472.6 192.8 1484.47 204.67 1500.4 220.6Z" stroke="#A8FF00" stroke-miterlimit="10"/>
<path d="M1405.3 190.63V433.49C1402.98 435.82 1400.74 438.06 1398.57 440.22C1385.89 452.9 1375.67 463.12 1364.97 473.81C1355.92 482.86 1346.53 492.26 1335.01 503.77H1269.88C1280.57 493.07 1290.79 482.85 1303.47 470.18C1305.63 468.01 1307.87 465.77 1310.19 463.45V160.67C1307.87 158.35 1305.63 156.11 1303.47 153.95C1290.79 141.27 1280.57 131.05 1269.88 120.35H1335.01C1346.53 131.87 1355.92 141.26 1364.97 150.31C1375.67 161.01 1385.89 171.22 1398.57 183.9C1400.74 186.07 1402.98 188.31 1405.3 190.63Z" stroke="#A8FF00" stroke-miterlimit="10"/>
<path d="M1310.19 160.67V463.45C1307.87 465.77 1305.63 468.01 1303.47 470.18C1290.79 482.85 1280.57 493.07 1269.88 503.77C1260.83 512.82 1251.44 522.22 1239.91 533.74H1174.76C1185.46 523.04 1195.68 512.82 1208.37 500.14C1210.53 497.97 1212.77 495.73 1215.09 493.41V130.71C1212.77 128.39 1210.53 126.15 1208.37 123.99C1195.68 111.3 1185.46 101.08 1174.76 90.3799H1239.91C1251.44 101.9 1260.83 111.3 1269.88 120.35C1280.57 131.05 1290.79 141.27 1303.47 153.95C1305.63 156.11 1307.87 158.35 1310.19 160.67Z" stroke="#A8FF00" stroke-miterlimit="10"/>
<path d="M1215.09 130.71V493.41C1212.77 495.73 1210.53 497.97 1208.37 500.14C1195.68 512.82 1185.46 523.04 1174.76 533.74L1144.8 563.7H1079.66L1119.99 523.37V100.75C1117.66 98.4199 1115.43 96.1899 1113.26 94.0199C1100.58 81.3399 1090.36 71.1199 1079.66 60.4199H1144.8C1156.31 71.9299 1165.71 81.3299 1174.76 90.3799C1185.46 101.08 1195.68 111.3 1208.37 123.99C1210.53 126.15 1212.77 128.39 1215.09 130.71Z" stroke="#A8FF00" stroke-miterlimit="10"/>
<path d="M1119.99 100.75V523.37L1049.7 593.66H984.56L1024.89 553.33V70.79C1022.56 68.46 1020.33 66.23 1018.16 64.06C1005.48 51.38 995.26 41.16 984.56 30.46H1049.7C1061.21 41.97 1070.61 51.37 1079.66 60.42C1090.36 71.12 1100.58 81.34 1113.26 94.02C1115.43 96.19 1117.66 98.42 1119.99 100.75Z" stroke="#A8FF00" stroke-miterlimit="10"/>
<path d="M1024.89 70.79V553.33L954.6 623.62H889.46C900.16 612.92 910.38 602.7 923.06 590.02C925.23 587.85 927.46 585.62 929.79 583.29V40.83L923.06 34.1C910.38 21.42 900.16 11.2 889.46 0.5H954.6C966.11 12.01 975.51 21.41 984.56 30.46C995.26 41.16 1005.48 51.38 1018.16 64.06C1020.33 66.23 1022.56 68.46 1024.89 70.79Z" stroke="#A8FF00" stroke-miterlimit="10"/>
</g>
<defs>
<clipPath id="clip0_53_2450">
<rect width="1596" height="624.12" fill="white"/>
</clipPath>
</defs>
</svg>
