<svg width="1721" height="1016" viewBox="0 0 1721 1016" fill="none" xmlns="http://www.w3.org/2000/svg">
<g clip-path="url(#clip0_53_1994)">
<path d="M1 974.26V837.99C16.62 822.37 25.38 813.61 41 797.99H177.27C192.89 813.61 201.65 822.37 217.27 837.99V974.26C201.65 989.88 192.89 998.64 177.27 1014.26H41C25.38 998.64 16.62 989.88 1 974.26Z" stroke="#FF00F3" stroke-width="2" stroke-miterlimit="10"/>
<path d="M224.28 967.25C208.66 982.87 199.9 991.63 184.28 1007.25H48.01C32.39 991.63 23.63 982.87 8.01001 967.25V830.98C23.63 815.36 32.39 806.6 48.01 790.98H184.28C199.9 806.6 208.66 815.36 224.28 830.98V967.25Z" stroke="#FF00F3" stroke-width="2" stroke-miterlimit="10"/>
<path d="M231.29 960.24C215.67 975.86 206.91 984.62 191.29 1000.24H55.02C39.4 984.62 30.64 975.86 15.02 960.24V823.97C30.64 808.35 39.4 799.59 55.02 783.97H191.29C206.91 799.59 215.67 808.35 231.29 823.97V960.24Z" stroke="#FF00F3" stroke-width="2" stroke-miterlimit="10"/>
<path d="M238.3 953.23C222.68 968.85 213.92 977.61 198.3 993.23H62.03C46.41 977.61 37.65 968.85 22.03 953.23V816.96C37.65 801.34 46.41 792.58 62.03 776.96H198.3C213.92 792.58 222.68 801.34 238.3 816.96V953.23Z" stroke="#FF00F3" stroke-width="2" stroke-miterlimit="10"/>
<path d="M245.31 946.22C229.69 961.84 220.93 970.6 205.31 986.22H69.04C53.42 970.6 44.66 961.84 29.04 946.22V809.95C44.66 794.33 53.42 785.57 69.04 769.95H205.31C220.93 785.57 229.69 794.33 245.31 809.95V946.22Z" stroke="#FF00F3" stroke-width="2" stroke-miterlimit="10"/>
<path d="M252.32 939.21C236.7 954.83 227.94 963.59 212.32 979.21H76.0501C60.4301 963.59 51.67 954.83 36.05 939.21V802.94C51.67 787.32 60.4301 778.56 76.0501 762.94H212.32C227.94 778.56 236.7 787.32 252.32 802.94V939.21Z" stroke="#FF00F3" stroke-width="2" stroke-miterlimit="10"/>
<path d="M259.33 932.2C243.71 947.82 234.95 956.58 219.33 972.2H83.0601C67.4401 956.58 58.6801 947.82 43.0601 932.2V795.93C58.6801 780.31 67.4401 771.55 83.0601 755.93H219.33C234.95 771.55 243.71 780.31 259.33 795.93V932.2Z" stroke="#FF00F3" stroke-width="2" stroke-miterlimit="10"/>
<path d="M266.34 925.19C250.72 940.81 241.96 949.57 226.34 965.19H90.0701C74.4501 949.57 65.6901 940.81 50.0701 925.19V788.92C65.6901 773.3 74.4501 764.54 90.0701 748.92H226.34C241.96 764.54 250.72 773.3 266.34 788.92V925.19Z" stroke="#FF00F3" stroke-width="2" stroke-miterlimit="10"/>
<path d="M273.35 918.18C257.73 933.8 248.97 942.56 233.35 958.18H97.0801C81.4601 942.56 72.7001 933.8 57.0801 918.18V781.91C72.7001 766.29 81.4601 757.53 97.0801 741.91H233.35C248.97 757.53 257.73 766.29 273.35 781.91V918.18Z" stroke="#FF00F3" stroke-width="2" stroke-miterlimit="10"/>
<path d="M280.36 911.17C264.74 926.79 255.98 935.55 240.36 951.17H104.09C88.4701 935.55 79.7101 926.79 64.0901 911.17V774.9C79.7101 759.28 88.4701 750.52 104.09 734.9H240.36C255.98 750.52 264.74 759.28 280.36 774.9V911.17Z" stroke="#FF00F3" stroke-width="2" stroke-miterlimit="10"/>
<path d="M71.1001 904.16V767.89C86.7201 752.27 95.4801 743.51 111.1 727.89H247.37C262.99 743.51 271.75 752.27 287.37 767.89V904.16C271.75 919.78 262.99 928.54 247.37 944.16H111.1C95.4801 928.54 86.7201 919.78 71.1001 904.16Z" stroke="#FF00F3" stroke-width="2" stroke-miterlimit="10"/>
<path d="M1 757.99V621.72C16.62 606.1 25.38 597.34 41 581.72H177.27C192.89 597.34 201.65 606.1 217.27 621.72V757.99C201.65 773.61 192.89 782.37 177.27 797.99H41C25.38 782.37 16.62 773.61 1 757.99Z" stroke="#FF00F3" stroke-width="2" stroke-miterlimit="10"/>
<path d="M224.28 750.98C208.66 766.6 199.9 775.36 184.28 790.98H48.01C32.39 775.36 23.63 766.6 8.01001 750.98V614.71C23.63 599.09 32.39 590.33 48.01 574.71H184.28C199.9 590.33 208.66 599.09 224.28 614.71V750.98Z" stroke="#FF00F3" stroke-width="2" stroke-miterlimit="10"/>
<path d="M231.29 743.97C215.67 759.59 206.91 768.35 191.29 783.97H55.02C39.4 768.35 30.64 759.59 15.02 743.97V607.7C30.64 592.08 39.4 583.32 55.02 567.7H191.29C206.91 583.32 215.67 592.08 231.29 607.7V743.97Z" stroke="#FF00F3" stroke-width="2" stroke-miterlimit="10"/>
<path d="M238.3 736.96C222.68 752.58 213.92 761.34 198.3 776.96H62.03C46.41 761.34 37.65 752.58 22.03 736.96V600.69C37.65 585.07 46.41 576.31 62.03 560.69H198.3C213.92 576.31 222.68 585.07 238.3 600.69V736.96Z" stroke="#FF00F3" stroke-width="2" stroke-miterlimit="10"/>
<path d="M245.31 729.95C229.69 745.57 220.93 754.33 205.31 769.95H69.04C53.42 754.33 44.66 745.57 29.04 729.95V593.68C44.66 578.06 53.42 569.3 69.04 553.68H205.31C220.93 569.3 229.69 578.06 245.31 593.68V729.95Z" stroke="#FF00F3" stroke-width="2" stroke-miterlimit="10"/>
<path d="M252.32 722.94C236.7 738.56 227.94 747.32 212.32 762.94H76.0501C60.4301 747.32 51.67 738.56 36.05 722.94V586.67C51.67 571.05 60.4301 562.29 76.0501 546.67H212.32C227.94 562.29 236.7 571.05 252.32 586.67V722.94Z" stroke="#FF00F3" stroke-width="2" stroke-miterlimit="10"/>
<path d="M259.33 715.93C243.71 731.55 234.95 740.31 219.33 755.93H83.0601C67.4401 740.31 58.6801 731.55 43.0601 715.93V579.66C58.6801 564.04 67.4401 555.28 83.0601 539.66H219.33C234.95 555.28 243.71 564.04 259.33 579.66V715.93Z" stroke="#FF00F3" stroke-width="2" stroke-miterlimit="10"/>
<path d="M266.34 708.92C250.72 724.54 241.96 733.3 226.34 748.92H90.0701C74.4501 733.3 65.6901 724.54 50.0701 708.92V572.65C65.6901 557.03 74.4501 548.27 90.0701 532.65H226.34C241.96 548.27 250.72 557.03 266.34 572.65V708.92Z" stroke="#FF00F3" stroke-width="2" stroke-miterlimit="10"/>
<path d="M273.35 701.91C257.73 717.53 248.97 726.29 233.35 741.91H97.0801C81.4601 726.29 72.7001 717.53 57.0801 701.91V565.64C72.7001 550.02 81.4601 541.26 97.0801 525.64H233.35C248.97 541.26 257.73 550.02 273.35 565.64V701.91Z" stroke="#FF00F3" stroke-width="2" stroke-miterlimit="10"/>
<path d="M280.36 694.9C264.74 710.52 255.98 719.28 240.36 734.9H104.09C88.4701 719.28 79.7101 710.52 64.0901 694.9V558.63C79.7101 543.01 88.4701 534.25 104.09 518.63H240.36C255.98 534.25 264.74 543.01 280.36 558.63V694.9Z" stroke="#FF00F3" stroke-width="2" stroke-miterlimit="10"/>
<path d="M71.1001 687.89V551.62C86.7201 536 95.4801 527.24 111.1 511.62H247.37C262.99 527.24 271.75 536 287.37 551.62V687.89C271.75 703.51 262.99 712.27 247.37 727.89H111.1C95.4801 712.27 86.7201 703.51 71.1001 687.89Z" stroke="#FF00F3" stroke-width="2" stroke-miterlimit="10"/>
<path d="M1 541.71V405.44C16.62 389.82 25.38 381.06 41 365.44H177.27C192.89 381.06 201.65 389.82 217.27 405.44V541.71C201.65 557.33 192.89 566.09 177.27 581.71H41C25.38 566.09 16.62 557.33 1 541.71Z" stroke="#FF00F3" stroke-width="2" stroke-miterlimit="10"/>
<path d="M224.28 534.7C208.66 550.32 199.9 559.08 184.28 574.7H48.01C32.39 559.08 23.63 550.32 8.01001 534.7V398.43C23.63 382.81 32.39 374.05 48.01 358.43H184.28C199.9 374.05 208.66 382.81 224.28 398.43V534.7Z" stroke="#FF00F3" stroke-width="2" stroke-miterlimit="10"/>
<path d="M231.29 527.69C215.67 543.31 206.91 552.07 191.29 567.69H55.02C39.4 552.07 30.64 543.31 15.02 527.69V391.42C30.64 375.8 39.4 367.04 55.02 351.42H191.29C206.91 367.04 215.67 375.8 231.29 391.42V527.69Z" stroke="#FF00F3" stroke-width="2" stroke-miterlimit="10"/>
<path d="M238.3 520.68C222.68 536.3 213.92 545.06 198.3 560.68H62.03C46.41 545.06 37.65 536.3 22.03 520.68V384.41C37.65 368.79 46.41 360.03 62.03 344.41H198.3C213.92 360.03 222.68 368.79 238.3 384.41V520.68Z" stroke="#FF00F3" stroke-width="2" stroke-miterlimit="10"/>
<path d="M245.31 513.67C229.69 529.29 220.93 538.05 205.31 553.67H69.04C53.42 538.05 44.66 529.29 29.04 513.67V377.4C44.66 361.78 53.42 353.02 69.04 337.4H205.31C220.93 353.02 229.69 361.78 245.31 377.4V513.67Z" stroke="#FF00F3" stroke-width="2" stroke-miterlimit="10"/>
<path d="M252.32 506.66C236.7 522.28 227.94 531.04 212.32 546.66H76.0501C60.4301 531.04 51.67 522.28 36.05 506.66V370.39C51.67 354.77 60.4301 346.01 76.0501 330.39H212.32L252.32 370.39V506.66Z" stroke="#FF00F3" stroke-width="2" stroke-miterlimit="10"/>
<path d="M259.33 499.65C243.71 515.27 234.95 524.03 219.33 539.65H83.0601C67.4401 524.03 58.6801 515.27 43.0601 499.65V363.38C58.6801 347.76 67.4401 339 83.0601 323.38H219.33C234.95 339 243.71 347.76 259.33 363.38V499.65Z" stroke="#FF00F3" stroke-width="2" stroke-miterlimit="10"/>
<path d="M266.34 492.64C250.72 508.26 241.96 517.02 226.34 532.64H90.0701C74.4501 517.02 65.6901 508.26 50.0701 492.64V356.37C65.6901 340.75 74.4501 331.99 90.0701 316.37H226.34C241.96 331.99 250.72 340.75 266.34 356.37V492.64Z" stroke="#FF00F3" stroke-width="2" stroke-miterlimit="10"/>
<path d="M273.35 485.63C257.73 501.25 248.97 510.01 233.35 525.63H97.0801C81.4601 510.01 72.7001 501.25 57.0801 485.63V349.36C72.7001 333.74 81.4601 324.98 97.0801 309.36H233.35C248.97 324.98 257.73 333.74 273.35 349.36V485.63Z" stroke="#FF00F3" stroke-width="2" stroke-miterlimit="10"/>
<path d="M280.36 478.62C264.74 494.24 255.98 503 240.36 518.62H104.09C88.4701 503 79.7101 494.24 64.0901 478.62V342.35C79.7101 326.73 88.4701 317.97 104.09 302.35H240.36C255.98 317.97 264.74 326.73 280.36 342.35V478.62Z" stroke="#FF00F3" stroke-width="2" stroke-miterlimit="10"/>
<path d="M71.1001 471.61V335.34C86.7201 319.72 95.4801 310.96 111.1 295.34H247.37C262.99 310.96 271.75 319.72 287.37 335.34V471.61C271.75 487.23 262.99 495.99 247.37 511.61H111.1C95.4801 495.99 86.7201 487.23 71.1001 471.61Z" stroke="#FF00F3" stroke-width="2" stroke-miterlimit="10"/>
<path d="M1 325.44V189.17C16.62 173.55 25.38 164.79 41 149.17H177.27C192.89 164.79 201.65 173.55 217.27 189.17V325.44C201.65 341.06 192.89 349.82 177.27 365.44H41C25.38 349.82 16.62 341.06 1 325.44Z" stroke="#FF00F3" stroke-width="2" stroke-miterlimit="10"/>
<path d="M224.28 318.43C208.66 334.05 199.9 342.81 184.28 358.43H48.01C32.39 342.81 23.63 334.05 8.01001 318.43V182.16C23.63 166.54 32.39 157.78 48.01 142.16H184.28C199.9 157.78 208.66 166.54 224.28 182.16V318.43Z" stroke="#FF00F3" stroke-width="2" stroke-miterlimit="10"/>
<path d="M231.29 311.42C215.67 327.04 206.91 335.8 191.29 351.42H55.02C39.4 335.8 30.64 327.04 15.02 311.42V175.15C30.64 159.53 39.4 150.77 55.02 135.15H191.29C206.91 150.77 215.67 159.53 231.29 175.15V311.42Z" stroke="#FF00F3" stroke-width="2" stroke-miterlimit="10"/>
<path d="M238.3 304.41C222.68 320.03 213.92 328.79 198.3 344.41H62.03C46.41 328.79 37.65 320.03 22.03 304.41V168.14C37.65 152.52 46.41 143.76 62.03 128.14H198.3C213.92 143.76 222.68 152.52 238.3 168.14V304.41Z" stroke="#FF00F3" stroke-width="2" stroke-miterlimit="10"/>
<path d="M245.31 297.4C229.69 313.02 220.93 321.78 205.31 337.4H69.04C53.42 321.78 44.66 313.02 29.04 297.4V161.13C44.66 145.51 53.42 136.75 69.04 121.13H205.31C220.93 136.75 229.69 145.51 245.31 161.13V297.4Z" stroke="#FF00F3" stroke-width="2" stroke-miterlimit="10"/>
<path d="M252.32 290.39C236.7 306.01 227.94 314.77 212.32 330.39H76.0501C60.4301 314.77 51.67 306.01 36.05 290.39V154.12C51.67 138.5 60.4301 129.74 76.0501 114.12H212.32C227.94 129.74 236.7 138.5 252.32 154.12V290.39Z" stroke="#FF00F3" stroke-width="2" stroke-miterlimit="10"/>
<path d="M259.33 283.38C243.71 299 234.95 307.76 219.33 323.38H83.0601C67.4401 307.76 58.6801 299 43.0601 283.38V147.11C58.6801 131.49 67.4401 122.73 83.0601 107.11H219.33C234.95 122.73 243.71 131.49 259.33 147.11V283.38Z" stroke="#FF00F3" stroke-width="2" stroke-miterlimit="10"/>
<path d="M266.34 276.37C250.72 291.99 241.96 300.75 226.34 316.37H90.0701C74.4501 300.75 65.6901 291.99 50.0701 276.37V140.1C65.6901 124.48 74.4501 115.72 90.0701 100.1H226.34C241.96 115.72 250.72 124.48 266.34 140.1V276.37Z" stroke="#FF00F3" stroke-width="2" stroke-miterlimit="10"/>
<path d="M273.35 269.36C257.73 284.98 248.97 293.74 233.35 309.36H97.0801C81.4601 293.74 72.7001 284.98 57.0801 269.36V133.09C72.7001 117.47 81.4601 108.71 97.0801 93.09H233.35C248.97 108.71 257.73 117.47 273.35 133.09V269.36Z" stroke="#FF00F3" stroke-width="2" stroke-miterlimit="10"/>
<path d="M280.36 262.35C264.74 277.97 255.98 286.73 240.36 302.35H104.09C88.4701 286.73 79.7101 277.97 64.0901 262.35V126.07C79.7101 110.45 88.4701 101.69 104.09 86.0699H240.36C255.98 101.69 264.74 110.45 280.36 126.07V262.34V262.35Z" stroke="#FF00F3" stroke-width="2" stroke-miterlimit="10"/>
<path d="M71.1001 255.34V119.06C86.7201 103.44 95.4801 94.6801 111.1 79.0601H247.37C262.99 94.6801 271.75 103.44 287.37 119.06V255.33C271.75 270.95 262.99 279.71 247.37 295.33H111.1C95.4801 279.71 86.7201 270.95 71.1001 255.33V255.34Z" stroke="#FF00F3" stroke-width="2" stroke-miterlimit="10"/>
<path d="M287.37 903.83V767.56C302.99 751.94 311.75 743.18 327.37 727.56H463.64C479.26 743.18 488.02 751.94 503.64 767.56V903.83C488.02 919.45 479.26 928.21 463.64 943.83H327.37C311.75 928.21 302.99 919.45 287.37 903.83Z" stroke="#FF00F3" stroke-width="2" stroke-miterlimit="10"/>
<path d="M510.66 896.82C495.04 912.44 486.28 921.2 470.66 936.82H334.39C318.77 921.2 310.01 912.44 294.39 896.82V760.55C310.01 744.93 318.77 736.17 334.39 720.55H470.66C486.28 736.17 495.04 744.93 510.66 760.55V896.82Z" stroke="#FF00F3" stroke-width="2" stroke-miterlimit="10"/>
<path d="M517.67 889.81C502.05 905.43 493.29 914.19 477.67 929.81H341.4C325.78 914.19 317.02 905.43 301.4 889.81V753.54C317.02 737.92 325.78 729.16 341.4 713.54H477.67C493.29 729.16 502.05 737.92 517.67 753.54V889.81Z" stroke="#FF00F3" stroke-width="2" stroke-miterlimit="10"/>
<path d="M524.68 882.8C509.06 898.42 500.3 907.18 484.68 922.8H348.41C332.79 907.18 324.03 898.42 308.41 882.8V746.53C324.03 730.91 332.79 722.15 348.41 706.53H484.68C500.3 722.15 509.06 730.91 524.68 746.53V882.8Z" stroke="#FF00F3" stroke-width="2" stroke-miterlimit="10"/>
<path d="M531.69 875.79C516.07 891.41 507.31 900.17 491.69 915.79H355.42C339.8 900.17 331.04 891.41 315.42 875.79V739.52C331.04 723.9 339.8 715.14 355.42 699.52H491.69C507.31 715.14 516.07 723.9 531.69 739.52V875.79Z" stroke="#FF00F3" stroke-width="2" stroke-miterlimit="10"/>
<path d="M538.7 868.78C523.08 884.4 514.32 893.16 498.7 908.78H362.43C346.81 893.16 338.05 884.4 322.43 868.78V732.51C338.05 716.89 346.81 708.13 362.43 692.51H498.7C514.32 708.13 523.08 716.89 538.7 732.51V868.78Z" stroke="#FF00F3" stroke-width="2" stroke-miterlimit="10"/>
<path d="M545.71 861.77C530.09 877.39 521.33 886.15 505.71 901.77H369.44C353.82 886.15 345.06 877.39 329.44 861.77V725.5C345.06 709.88 353.82 701.12 369.44 685.5H505.71C521.33 701.12 530.09 709.88 545.71 725.5V861.77Z" stroke="#FF00F3" stroke-width="2" stroke-miterlimit="10"/>
<path d="M552.72 854.76C537.1 870.38 528.34 879.14 512.72 894.76H376.45C360.83 879.14 352.07 870.38 336.45 854.76V718.49C352.07 702.87 360.83 694.11 376.45 678.49H512.72C528.34 694.11 537.1 702.87 552.72 718.49V854.76Z" stroke="#FF00F3" stroke-width="2" stroke-miterlimit="10"/>
<path d="M559.73 847.75C544.11 863.37 535.35 872.13 519.73 887.75H383.46C367.84 872.13 359.08 863.37 343.46 847.75V711.48C359.08 695.86 367.84 687.1 383.46 671.48H519.73C535.35 687.1 544.11 695.86 559.73 711.48V847.75Z" stroke="#FF00F3" stroke-width="2" stroke-miterlimit="10"/>
<path d="M566.74 840.74C551.12 856.36 542.36 865.12 526.74 880.74H390.47C374.85 865.12 366.09 856.36 350.47 840.74V704.47C366.09 688.85 374.85 680.09 390.47 664.47H526.74C542.36 680.09 551.12 688.85 566.74 704.47V840.74Z" stroke="#FF00F3" stroke-width="2" stroke-miterlimit="10"/>
<path d="M357.47 833.73V697.46C373.09 681.84 381.85 673.08 397.47 657.46H533.74C549.36 673.08 558.12 681.84 573.74 697.46V833.73C558.12 849.35 549.36 858.11 533.74 873.73H397.47C381.85 858.11 373.09 849.35 357.47 833.73Z" stroke="#FF00F3" stroke-width="2" stroke-miterlimit="10"/>
<path d="M287.37 687.56V551.29C302.99 535.67 311.75 526.91 327.37 511.29H463.64C479.26 526.91 488.02 535.67 503.64 551.29V687.56C488.02 703.18 479.26 711.94 463.64 727.56H327.37C311.75 711.94 302.99 703.18 287.37 687.56Z" stroke="#FF00F3" stroke-width="2" stroke-miterlimit="10"/>
<path d="M510.66 680.55C495.04 696.17 486.28 704.93 470.66 720.55H334.39C318.77 704.93 310.01 696.17 294.39 680.55V544.28C310.01 528.66 318.77 519.9 334.39 504.28H470.66C486.28 519.9 495.04 528.66 510.66 544.28V680.55Z" stroke="#FF00F3" stroke-width="2" stroke-miterlimit="10"/>
<path d="M517.67 673.54C502.05 689.16 493.29 697.92 477.67 713.54H341.4C325.78 697.92 317.02 689.16 301.4 673.54V537.27C317.02 521.65 325.78 512.89 341.4 497.27H477.67C493.29 512.89 502.05 521.65 517.67 537.27V673.54Z" stroke="#FF00F3" stroke-width="2" stroke-miterlimit="10"/>
<path d="M524.68 666.53C509.06 682.15 500.3 690.91 484.68 706.53H348.41C332.79 690.91 324.03 682.15 308.41 666.53V530.26C324.03 514.64 332.79 505.88 348.41 490.26H484.68C500.3 505.88 509.06 514.64 524.68 530.26V666.53Z" stroke="#FF00F3" stroke-width="2" stroke-miterlimit="10"/>
<path d="M531.69 659.52C516.07 675.14 507.31 683.9 491.69 699.52H355.42C339.8 683.9 331.04 675.14 315.42 659.52V523.25C331.04 507.63 339.8 498.87 355.42 483.25H491.69C507.31 498.87 516.07 507.63 531.69 523.25V659.52Z" stroke="#FF00F3" stroke-width="2" stroke-miterlimit="10"/>
<path d="M538.7 652.51C523.08 668.13 514.32 676.89 498.7 692.51H362.43C346.81 676.89 338.05 668.13 322.43 652.51V516.24C338.05 500.62 346.81 491.86 362.43 476.24H498.7C514.32 491.86 523.08 500.62 538.7 516.24V652.51Z" stroke="#FF00F3" stroke-width="2" stroke-miterlimit="10"/>
<path d="M545.71 645.5C530.09 661.12 521.33 669.88 505.71 685.5H369.44C353.82 669.88 345.06 661.12 329.44 645.5V509.23C345.06 493.61 353.82 484.85 369.44 469.23H505.71C521.33 484.85 530.09 493.61 545.71 509.23V645.5Z" stroke="#FF00F3" stroke-width="2" stroke-miterlimit="10"/>
<path d="M552.72 638.49C537.1 654.11 528.34 662.87 512.72 678.49H376.45C360.83 662.87 352.07 654.11 336.45 638.49V502.22C352.07 486.6 360.83 477.84 376.45 462.22H512.72C528.34 477.84 537.1 486.6 552.72 502.22V638.49Z" stroke="#FF00F3" stroke-width="2" stroke-miterlimit="10"/>
<path d="M559.73 631.48C544.11 647.1 535.35 655.86 519.73 671.48H383.46C367.84 655.86 359.08 647.1 343.46 631.48V495.21C359.08 479.59 367.84 470.83 383.46 455.21H519.73C535.35 470.83 544.11 479.59 559.73 495.21V631.48Z" stroke="#FF00F3" stroke-width="2" stroke-miterlimit="10"/>
<path d="M566.74 624.47C551.12 640.09 542.36 648.85 526.74 664.47H390.47C374.85 648.85 366.09 640.09 350.47 624.47V488.2C366.09 472.58 374.85 463.82 390.47 448.2H526.74C542.36 463.82 551.12 472.58 566.74 488.2V624.47Z" stroke="#FF00F3" stroke-width="2" stroke-miterlimit="10"/>
<path d="M357.47 617.46V481.19C373.09 465.57 381.85 456.81 397.47 441.19H533.74C549.36 456.81 558.12 465.57 573.74 481.19V617.46C558.12 633.08 549.36 641.84 533.74 657.46H397.47C381.85 641.84 373.09 633.08 357.47 617.46Z" stroke="#FF00F3" stroke-width="2" stroke-miterlimit="10"/>
<path d="M287.37 471.28V335.01C302.99 319.39 311.75 310.63 327.37 295.01H463.64C479.26 310.63 488.02 319.39 503.64 335.01V471.28C488.02 486.9 479.26 495.66 463.64 511.28H327.37C311.75 495.66 302.99 486.9 287.37 471.28Z" stroke="#FF00F3" stroke-width="2" stroke-miterlimit="10"/>
<path d="M510.66 464.27C495.04 479.89 486.28 488.65 470.66 504.27H334.39C318.77 488.65 310.01 479.89 294.39 464.27V328C310.01 312.38 318.77 303.62 334.39 288H470.66C486.28 303.62 495.04 312.38 510.66 328V464.27Z" stroke="#FF00F3" stroke-width="2" stroke-miterlimit="10"/>
<path d="M517.67 457.26C502.05 472.88 493.29 481.64 477.67 497.26H341.4C325.78 481.64 317.02 472.88 301.4 457.26V320.99C317.02 305.37 325.78 296.61 341.4 280.99H477.67C493.29 296.61 502.05 305.37 517.67 320.99V457.26Z" stroke="#FF00F3" stroke-width="2" stroke-miterlimit="10"/>
<path d="M524.68 450.25C509.06 465.87 500.3 474.63 484.68 490.25H348.41C332.79 474.63 324.03 465.87 308.41 450.25V313.98C324.03 298.36 332.79 289.6 348.41 273.98H484.68C500.3 289.6 509.06 298.36 524.68 313.98V450.25Z" stroke="#FF00F3" stroke-width="2" stroke-miterlimit="10"/>
<path d="M531.69 443.24C516.07 458.86 507.31 467.62 491.69 483.24H355.42C339.8 467.62 331.04 458.86 315.42 443.24V306.97C331.04 291.35 339.8 282.59 355.42 266.97H491.69C507.31 282.59 516.07 291.35 531.69 306.97V443.24Z" stroke="#FF00F3" stroke-width="2" stroke-miterlimit="10"/>
<path d="M538.7 436.23C523.08 451.85 514.32 460.61 498.7 476.23H362.43C346.81 460.61 338.05 451.85 322.43 436.23V299.96C338.05 284.34 346.81 275.58 362.43 259.96H498.7C514.32 275.58 523.08 284.34 538.7 299.96V436.23Z" stroke="#FF00F3" stroke-width="2" stroke-miterlimit="10"/>
<path d="M545.71 429.22C530.09 444.84 521.33 453.6 505.71 469.22H369.44C353.82 453.6 345.06 444.84 329.44 429.22V292.95C345.06 277.33 353.82 268.57 369.44 252.95H505.71C521.33 268.57 530.09 277.33 545.71 292.95V429.22Z" stroke="#FF00F3" stroke-width="2" stroke-miterlimit="10"/>
<path d="M552.72 422.21C537.1 437.83 528.34 446.59 512.72 462.21H376.45C360.83 446.59 352.07 437.83 336.45 422.21V285.94C352.07 270.32 360.83 261.56 376.45 245.94H512.72C528.34 261.56 537.1 270.32 552.72 285.94V422.21Z" stroke="#FF00F3" stroke-width="2" stroke-miterlimit="10"/>
<path d="M559.73 415.2C544.11 430.82 535.35 439.58 519.73 455.2H383.46C367.84 439.58 359.08 430.82 343.46 415.2V278.93C359.08 263.31 367.84 254.55 383.46 238.93H519.73C535.35 254.55 544.11 263.31 559.73 278.93V415.2Z" stroke="#FF00F3" stroke-width="2" stroke-miterlimit="10"/>
<path d="M566.74 408.19C551.12 423.81 542.36 432.57 526.74 448.19H390.47C374.85 432.57 366.09 423.81 350.47 408.19V271.92C366.09 256.3 374.85 247.54 390.47 231.92H526.74C542.36 247.54 551.12 256.3 566.74 271.92V408.19Z" stroke="#FF00F3" stroke-width="2" stroke-miterlimit="10"/>
<path d="M357.47 401.18V264.91C373.09 249.29 381.85 240.53 397.47 224.91H533.74C549.36 240.53 558.12 249.29 573.74 264.91V401.18C558.12 416.8 549.36 425.56 533.74 441.18H397.47C381.85 425.56 373.09 416.8 357.47 401.18Z" stroke="#FF00F3" stroke-width="2" stroke-miterlimit="10"/>
<path d="M287.37 255.01V118.73C302.99 103.11 311.75 94.35 327.37 78.73H463.64C479.26 94.35 488.02 103.11 503.64 118.73V255C488.02 270.62 479.26 279.38 463.64 295H327.37C311.75 279.38 302.99 270.62 287.37 255V255.01Z" stroke="#FF00F3" stroke-width="2" stroke-miterlimit="10"/>
<path d="M510.66 248C495.04 263.62 486.28 272.38 470.66 288H334.39C318.77 272.38 310.01 263.62 294.39 248V111.72C310.01 96.1 318.77 87.34 334.39 71.72H470.66C486.28 87.34 495.04 96.1 510.66 111.72V247.99V248Z" stroke="#FF00F3" stroke-width="2" stroke-miterlimit="10"/>
<path d="M517.67 240.99C502.05 256.61 493.29 265.37 477.67 280.99H341.4C325.78 265.37 317.02 256.61 301.4 240.99V104.71C317.02 89.09 325.78 80.33 341.4 64.71H477.67C493.29 80.33 502.05 89.09 517.67 104.71V240.98V240.99Z" stroke="#FF00F3" stroke-width="2" stroke-miterlimit="10"/>
<path d="M524.68 233.98C509.06 249.6 500.3 258.36 484.68 273.98H348.41C332.79 258.36 324.03 249.6 308.41 233.98V97.6999C324.03 82.0799 332.79 73.32 348.41 57.7H484.68C500.3 73.32 509.06 82.0799 524.68 97.6999V233.97V233.98Z" stroke="#FF00F3" stroke-width="2" stroke-miterlimit="10"/>
<path d="M531.69 226.97C516.07 242.59 507.31 251.35 491.69 266.97H355.42C339.8 251.35 331.04 242.59 315.42 226.97V90.6899C331.04 75.0699 339.8 66.3099 355.42 50.6899H491.69C507.31 66.3099 516.07 75.0699 531.69 90.6899V226.96V226.97Z" stroke="#FF00F3" stroke-width="2" stroke-miterlimit="10"/>
<path d="M538.7 219.96C523.08 235.58 514.32 244.34 498.7 259.96H362.43C346.81 244.34 338.05 235.58 322.43 219.96V83.6899C338.05 68.0699 346.81 59.3099 362.43 43.6899H498.7C514.32 59.3099 523.08 68.0699 538.7 83.6899V219.96Z" stroke="#FF00F3" stroke-width="2" stroke-miterlimit="10"/>
<path d="M545.71 212.95C530.09 228.57 521.33 237.33 505.71 252.95H369.44C353.82 237.33 345.06 228.57 329.44 212.95V76.6801C345.06 61.0601 353.82 52.3001 369.44 36.6801H505.71C521.33 52.3001 530.09 61.0601 545.71 76.6801V212.95Z" stroke="#FF00F3" stroke-width="2" stroke-miterlimit="10"/>
<path d="M552.72 205.94C537.1 221.56 528.34 230.32 512.72 245.94H376.45C360.83 230.32 352.07 221.56 336.45 205.94V69.67C352.07 54.05 360.83 45.29 376.45 29.67H512.72C528.34 45.29 537.1 54.05 552.72 69.67V205.94Z" stroke="#FF00F3" stroke-width="2" stroke-miterlimit="10"/>
<path d="M559.73 198.93C544.11 214.55 535.35 223.31 519.73 238.93H383.46C367.84 223.31 359.08 214.55 343.46 198.93V62.66C359.08 47.04 367.84 38.28 383.46 22.66H519.73C535.35 38.28 544.11 47.04 559.73 62.66V198.93Z" stroke="#FF00F3" stroke-width="2" stroke-miterlimit="10"/>
<path d="M566.74 191.92C551.12 207.54 542.36 216.3 526.74 231.92H390.47C374.85 216.3 366.09 207.54 350.47 191.92V55.65C366.09 40.03 374.85 31.27 390.47 15.65H526.74C542.36 31.27 551.12 40.03 566.74 55.65V191.92Z" stroke="#FF00F3" stroke-width="2" stroke-miterlimit="10"/>
<path d="M357.47 184.91V48.64C373.09 33.02 381.85 24.26 397.47 8.64001H533.74C549.36 24.26 558.12 33.02 573.74 48.64V184.91C558.12 200.53 549.36 209.29 533.74 224.91H397.47C381.85 209.29 373.09 200.53 357.47 184.91Z" stroke="#FF00F3" stroke-width="2" stroke-miterlimit="10"/>
<path d="M573.75 970.16V833.89C589.37 818.27 598.13 809.51 613.75 793.89H750.02C765.64 809.51 774.4 818.27 790.02 833.89V970.16C774.4 985.78 765.64 994.54 750.02 1010.16H613.75C598.13 994.54 589.37 985.78 573.75 970.16Z" stroke="#FF00F3" stroke-width="2" stroke-miterlimit="10"/>
<path d="M797.03 963.15C781.41 978.77 772.65 987.53 757.03 1003.15H620.76C605.14 987.53 596.38 978.77 580.76 963.15V826.88C596.38 811.26 605.14 802.5 620.76 786.88H757.03C772.65 802.5 781.41 811.26 797.03 826.88V963.15Z" stroke="#FF00F3" stroke-width="2" stroke-miterlimit="10"/>
<path d="M804.04 956.14C788.42 971.76 779.66 980.52 764.04 996.14H627.77C612.15 980.52 603.39 971.76 587.77 956.14V819.87C603.39 804.25 612.15 795.49 627.77 779.87H764.04C779.66 795.49 788.42 804.25 804.04 819.87V956.14Z" stroke="#FF00F3" stroke-width="2" stroke-miterlimit="10"/>
<path d="M811.05 949.13C795.43 964.75 786.67 973.51 771.05 989.13H634.78C619.16 973.51 610.4 964.75 594.78 949.13V812.86C610.4 797.24 619.16 788.48 634.78 772.86H771.05C786.67 788.48 795.43 797.24 811.05 812.86V949.13Z" stroke="#FF00F3" stroke-width="2" stroke-miterlimit="10"/>
<path d="M818.06 942.12C802.44 957.74 793.68 966.5 778.06 982.12H641.79C626.17 966.5 617.41 957.74 601.79 942.12V805.85C617.41 790.23 626.17 781.47 641.79 765.85H778.06C793.68 781.47 802.44 790.23 818.06 805.85V942.12Z" stroke="#FF00F3" stroke-width="2" stroke-miterlimit="10"/>
<path d="M825.07 935.11C809.45 950.73 800.69 959.49 785.07 975.11H648.8C633.18 959.49 624.42 950.73 608.8 935.11V798.84C624.42 783.22 633.18 774.46 648.8 758.84H785.07C800.69 774.46 809.45 783.22 825.07 798.84V935.11Z" stroke="#FF00F3" stroke-width="2" stroke-miterlimit="10"/>
<path d="M832.08 928.1C816.46 943.72 807.7 952.48 792.08 968.1H655.81C640.19 952.48 631.43 943.72 615.81 928.1V791.83C631.43 776.21 640.19 767.45 655.81 751.83H792.08C807.7 767.45 816.46 776.21 832.08 791.83V928.1Z" stroke="#FF00F3" stroke-width="2" stroke-miterlimit="10"/>
<path d="M839.09 921.09C823.47 936.71 814.71 945.47 799.09 961.09H662.82C647.2 945.47 638.44 936.71 622.82 921.09V784.82C638.44 769.2 647.2 760.44 662.82 744.82H799.09C814.71 760.44 823.47 769.2 839.09 784.82V921.09Z" stroke="#FF00F3" stroke-width="2" stroke-miterlimit="10"/>
<path d="M846.1 914.08C830.48 929.7 821.72 938.46 806.1 954.08H669.83C654.21 938.46 645.45 929.7 629.83 914.08V777.81C645.45 762.19 654.21 753.43 669.83 737.81H806.1C821.72 753.43 830.48 762.19 846.1 777.81V914.08Z" stroke="#FF00F3" stroke-width="2" stroke-miterlimit="10"/>
<path d="M853.11 907.07C837.49 922.69 828.73 931.45 813.11 947.07H676.84C661.22 931.45 652.46 922.69 636.84 907.07V770.8C652.46 755.18 661.22 746.42 676.84 730.8H813.11C828.73 746.42 837.49 755.18 853.11 770.8V907.07Z" stroke="#FF00F3" stroke-width="2" stroke-miterlimit="10"/>
<path d="M643.85 900.06V763.79C659.47 748.17 668.23 739.41 683.85 723.79H820.12C835.74 739.41 844.5 748.17 860.12 763.79V900.06C844.5 915.68 835.74 924.44 820.12 940.06H683.85C668.23 924.44 659.47 915.68 643.85 900.06Z" stroke="#FF00F3" stroke-width="2" stroke-miterlimit="10"/>
<path d="M573.75 753.88V617.61C589.37 601.99 598.13 593.23 613.75 577.61H750.02C765.64 593.23 774.4 601.99 790.02 617.61V753.88C774.4 769.5 765.64 778.26 750.02 793.88H613.75C598.13 778.26 589.37 769.5 573.75 753.88Z" stroke="#FF00F3" stroke-width="2" stroke-miterlimit="10"/>
<path d="M797.03 746.87C781.41 762.49 772.65 771.25 757.03 786.87H620.76C605.14 771.25 596.38 762.49 580.76 746.87V610.6C596.38 594.98 605.14 586.22 620.76 570.6H757.03C772.65 586.22 781.41 594.98 797.03 610.6V746.87Z" stroke="#FF00F3" stroke-width="2" stroke-miterlimit="10"/>
<path d="M804.04 739.86C788.42 755.48 779.66 764.24 764.04 779.86H627.77C612.15 764.24 603.39 755.48 587.77 739.86V603.59C603.39 587.97 612.15 579.21 627.77 563.59H764.04C779.66 579.21 788.42 587.97 804.04 603.59V739.86Z" stroke="#FF00F3" stroke-width="2" stroke-miterlimit="10"/>
<path d="M811.05 732.85C795.43 748.47 786.67 757.23 771.05 772.85H634.78C619.16 757.23 610.4 748.47 594.78 732.85V596.58C610.4 580.96 619.16 572.2 634.78 556.58H771.05C786.67 572.2 795.43 580.96 811.05 596.58V732.85Z" stroke="#FF00F3" stroke-width="2" stroke-miterlimit="10"/>
<path d="M818.06 725.84C802.44 741.46 793.68 750.22 778.06 765.84H641.79C626.17 750.22 617.41 741.46 601.79 725.84V589.57C617.41 573.95 626.17 565.19 641.79 549.57H778.06C793.68 565.19 802.44 573.95 818.06 589.57V725.84Z" stroke="#FF00F3" stroke-width="2" stroke-miterlimit="10"/>
<path d="M825.07 718.83C809.45 734.45 800.69 743.21 785.07 758.83H648.8C633.18 743.21 624.42 734.45 608.8 718.83V582.56C624.42 566.94 633.18 558.18 648.8 542.56H785.07C800.69 558.18 809.45 566.94 825.07 582.56V718.83Z" stroke="#FF00F3" stroke-width="2" stroke-miterlimit="10"/>
<path d="M832.08 711.82C816.46 727.44 807.7 736.2 792.08 751.82H655.81C640.19 736.2 631.43 727.44 615.81 711.82V575.55C631.43 559.93 640.19 551.17 655.81 535.55H792.08C807.7 551.17 816.46 559.93 832.08 575.55V711.82Z" stroke="#FF00F3" stroke-width="2" stroke-miterlimit="10"/>
<path d="M839.09 704.81C823.47 720.43 814.71 729.19 799.09 744.81H662.82C647.2 729.19 638.44 720.43 622.82 704.81V568.54C638.44 552.92 647.2 544.16 662.82 528.54H799.09C814.71 544.16 823.47 552.92 839.09 568.54V704.81Z" stroke="#FF00F3" stroke-width="2" stroke-miterlimit="10"/>
<path d="M846.1 697.8C830.48 713.42 821.72 722.18 806.1 737.8H669.83C654.21 722.18 645.45 713.42 629.83 697.8V561.53C645.45 545.91 654.21 537.15 669.83 521.53H806.1C821.72 537.15 830.48 545.91 846.1 561.53V697.8Z" stroke="#FF00F3" stroke-width="2" stroke-miterlimit="10"/>
<path d="M853.11 690.79C837.49 706.41 828.73 715.17 813.11 730.79H676.84C661.22 715.17 652.46 706.41 636.84 690.79V554.52C652.46 538.9 661.22 530.14 676.84 514.52H813.11C828.73 530.14 837.49 538.9 853.11 554.52V690.79Z" stroke="#FF00F3" stroke-width="2" stroke-miterlimit="10"/>
<path d="M643.85 683.78V547.51C659.47 531.89 668.23 523.13 683.85 507.51H820.12C835.74 523.13 844.5 531.89 860.12 547.51V683.78C844.5 699.4 835.74 708.16 820.12 723.78H683.85C668.23 708.16 659.47 699.4 643.85 683.78Z" stroke="#FF00F3" stroke-width="2" stroke-miterlimit="10"/>
<path d="M573.75 537.61V401.34C589.37 385.72 598.13 376.96 613.75 361.34H750.02C765.64 376.96 774.4 385.72 790.02 401.34V537.61C774.4 553.23 765.64 561.99 750.02 577.61H613.75C598.13 561.99 589.37 553.23 573.75 537.61Z" stroke="#FF00F3" stroke-width="2" stroke-miterlimit="10"/>
<path d="M797.03 530.6C781.41 546.22 772.65 554.98 757.03 570.6H620.76C605.14 554.98 596.38 546.22 580.76 530.6V394.33C596.38 378.71 605.14 369.95 620.76 354.33H757.03C772.65 369.95 781.41 378.71 797.03 394.33V530.6Z" stroke="#FF00F3" stroke-width="2" stroke-miterlimit="10"/>
<path d="M804.04 523.59C788.42 539.21 779.66 547.97 764.04 563.59H627.77C612.15 547.97 603.39 539.21 587.77 523.59V387.32C603.39 371.7 612.15 362.94 627.77 347.32H764.04C779.66 362.94 788.42 371.7 804.04 387.32V523.59Z" stroke="#FF00F3" stroke-width="2" stroke-miterlimit="10"/>
<path d="M811.05 516.58C795.43 532.2 786.67 540.96 771.05 556.58H634.78C619.16 540.96 610.4 532.2 594.78 516.58V380.31C610.4 364.69 619.16 355.93 634.78 340.31H771.05C786.67 355.93 795.43 364.69 811.05 380.31V516.58Z" stroke="#FF00F3" stroke-width="2" stroke-miterlimit="10"/>
<path d="M818.06 509.57C802.44 525.19 793.68 533.95 778.06 549.57H641.79C626.17 533.95 617.41 525.19 601.79 509.57V373.3C617.41 357.68 626.17 348.92 641.79 333.3H778.06C793.68 348.92 802.44 357.68 818.06 373.3V509.57Z" stroke="#FF00F3" stroke-width="2" stroke-miterlimit="10"/>
<path d="M825.07 502.56C809.45 518.18 800.69 526.94 785.07 542.56H648.8C633.18 526.94 624.42 518.18 608.8 502.56V366.29C624.42 350.67 633.18 341.91 648.8 326.29H785.07C800.69 341.91 809.45 350.67 825.07 366.29V502.56Z" stroke="#FF00F3" stroke-width="2" stroke-miterlimit="10"/>
<path d="M832.08 495.55C816.46 511.17 807.7 519.93 792.08 535.55H655.81C640.19 519.93 631.43 511.17 615.81 495.55V359.28C631.43 343.66 640.19 334.9 655.81 319.28H792.08C807.7 334.9 816.46 343.66 832.08 359.28V495.55Z" stroke="#FF00F3" stroke-width="2" stroke-miterlimit="10"/>
<path d="M839.09 488.54C823.47 504.16 814.71 512.92 799.09 528.54H662.82C647.2 512.92 638.44 504.16 622.82 488.54V352.27C638.44 336.65 647.2 327.89 662.82 312.27H799.09C814.71 327.89 823.47 336.65 839.09 352.27V488.54Z" stroke="#FF00F3" stroke-width="2" stroke-miterlimit="10"/>
<path d="M846.1 481.53C830.48 497.15 821.72 505.91 806.1 521.53H669.83C654.21 505.91 645.45 497.15 629.83 481.53V345.26C645.45 329.64 654.21 320.88 669.83 305.26H806.1C821.72 320.88 830.48 329.64 846.1 345.26V481.53Z" stroke="#FF00F3" stroke-width="2" stroke-miterlimit="10"/>
<path d="M853.11 474.52C837.49 490.14 828.73 498.9 813.11 514.52H676.84C661.22 498.9 652.46 490.14 636.84 474.52V338.25C652.46 322.63 661.22 313.87 676.84 298.25H813.11C828.73 313.87 837.49 322.63 853.11 338.25V474.52Z" stroke="#FF00F3" stroke-width="2" stroke-miterlimit="10"/>
<path d="M643.85 467.51V331.24C659.47 315.62 668.23 306.86 683.85 291.24H820.12C835.74 306.86 844.5 315.62 860.12 331.24V467.51C844.5 483.13 835.74 491.89 820.12 507.51H683.85C668.23 491.89 659.47 483.13 643.85 467.51Z" stroke="#FF00F3" stroke-width="2" stroke-miterlimit="10"/>
<path d="M573.75 321.33V185.06C589.37 169.44 598.13 160.68 613.75 145.06H750.02C765.64 160.68 774.4 169.44 790.02 185.06V321.33C774.4 336.95 765.64 345.71 750.02 361.33H613.75C598.13 345.71 589.37 336.95 573.75 321.33Z" stroke="#FF00F3" stroke-width="2" stroke-miterlimit="10"/>
<path d="M797.03 314.32C781.41 329.94 772.65 338.7 757.03 354.32H620.76C605.14 338.7 596.38 329.94 580.76 314.32V178.05C596.38 162.43 605.14 153.67 620.76 138.05H757.03C772.65 153.67 781.41 162.43 797.03 178.05V314.32Z" stroke="#FF00F3" stroke-width="2" stroke-miterlimit="10"/>
<path d="M804.04 307.31C788.42 322.93 779.66 331.69 764.04 347.31H627.77C612.15 331.69 603.39 322.93 587.77 307.31V171.04C603.39 155.42 612.15 146.66 627.77 131.04H764.04C779.66 146.66 788.42 155.42 804.04 171.04V307.31Z" stroke="#FF00F3" stroke-width="2" stroke-miterlimit="10"/>
<path d="M811.05 300.3C795.43 315.92 786.67 324.68 771.05 340.3H634.78C619.16 324.68 610.4 315.92 594.78 300.3V164.03C610.4 148.41 619.16 139.65 634.78 124.03H771.05C786.67 139.65 795.43 148.41 811.05 164.03V300.3Z" stroke="#FF00F3" stroke-width="2" stroke-miterlimit="10"/>
<path d="M818.06 293.29C802.44 308.91 793.68 317.67 778.06 333.29H641.79C626.17 317.67 617.41 308.91 601.79 293.29V157.02C617.41 141.4 626.17 132.64 641.79 117.02H778.06C793.68 132.64 802.44 141.4 818.06 157.02V293.29Z" stroke="#FF00F3" stroke-width="2" stroke-miterlimit="10"/>
<path d="M825.07 286.28C809.45 301.9 800.69 310.66 785.07 326.28H648.8C633.18 310.66 624.42 301.9 608.8 286.28V150.01C624.42 134.39 633.18 125.63 648.8 110.01H785.07C800.69 125.63 809.45 134.39 825.07 150.01V286.28Z" stroke="#FF00F3" stroke-width="2" stroke-miterlimit="10"/>
<path d="M832.08 279.27C816.46 294.89 807.7 303.65 792.08 319.27H655.81C640.19 303.65 631.43 294.89 615.81 279.27V143C631.43 127.38 640.19 118.62 655.81 103H792.08C807.7 118.62 816.46 127.38 832.08 143V279.27Z" stroke="#FF00F3" stroke-width="2" stroke-miterlimit="10"/>
<path d="M839.09 272.26C823.47 287.88 814.71 296.64 799.09 312.26H662.82C647.2 296.64 638.44 287.88 622.82 272.26V135.99C638.44 120.37 647.2 111.61 662.82 95.99H799.09C814.71 111.61 823.47 120.37 839.09 135.99V272.26Z" stroke="#FF00F3" stroke-width="2" stroke-miterlimit="10"/>
<path d="M846.1 265.25C830.48 280.87 821.72 289.63 806.1 305.25H669.83C654.21 289.63 645.45 280.87 629.83 265.25V128.98C645.45 113.36 654.21 104.6 669.83 88.98H806.1C821.72 104.6 830.48 113.36 846.1 128.98V265.25Z" stroke="#FF00F3" stroke-width="2" stroke-miterlimit="10"/>
<path d="M853.11 258.25C837.49 273.87 828.73 282.63 813.11 298.25H676.84C661.22 282.63 652.46 273.87 636.84 258.25V121.97C652.46 106.35 661.22 97.59 676.84 81.97H813.11C828.73 97.59 837.49 106.35 853.11 121.97V258.24V258.25Z" stroke="#FF00F3" stroke-width="2" stroke-miterlimit="10"/>
<path d="M643.85 251.24V114.96C659.47 99.34 668.23 90.58 683.85 74.96H820.12C835.74 90.58 844.5 99.34 860.12 114.96V251.23C844.5 266.85 835.74 275.61 820.12 291.23H683.85C668.23 275.61 659.47 266.85 643.85 251.23V251.24Z" stroke="#FF00F3" stroke-width="2" stroke-miterlimit="10"/>
<path d="M860.12 899.73V763.46C875.74 747.84 884.5 739.08 900.12 723.46H1036.39C1052.01 739.08 1060.77 747.84 1076.39 763.46V899.73C1060.77 915.35 1052.01 924.11 1036.39 939.73H900.12C884.5 924.11 875.74 915.35 860.12 899.73Z" stroke="#FF00F3" stroke-width="2" stroke-miterlimit="10"/>
<path d="M1083.4 892.72C1067.78 908.34 1059.02 917.1 1043.4 932.72H907.13C891.51 917.1 882.75 908.34 867.13 892.72V756.45C882.75 740.83 891.51 732.07 907.13 716.45H1043.4C1059.02 732.07 1067.78 740.83 1083.4 756.45V892.72Z" stroke="#FF00F3" stroke-width="2" stroke-miterlimit="10"/>
<path d="M1090.41 885.71C1074.79 901.33 1066.03 910.09 1050.41 925.71H914.14C898.52 910.09 889.76 901.33 874.14 885.71V749.44C889.76 733.82 898.52 725.06 914.14 709.44H1050.41C1066.03 725.06 1074.79 733.82 1090.41 749.44V885.71Z" stroke="#FF00F3" stroke-width="2" stroke-miterlimit="10"/>
<path d="M1097.42 878.7C1081.8 894.32 1073.04 903.08 1057.42 918.7H921.15C905.53 903.08 896.77 894.32 881.15 878.7V742.43C896.77 726.81 905.53 718.05 921.15 702.43H1057.42C1073.04 718.05 1081.8 726.81 1097.42 742.43V878.7Z" stroke="#FF00F3" stroke-width="2" stroke-miterlimit="10"/>
<path d="M1104.43 871.69C1088.81 887.31 1080.05 896.07 1064.43 911.69H928.16C912.54 896.07 903.78 887.31 888.16 871.69V735.42C903.78 719.8 912.54 711.04 928.16 695.42H1064.43C1080.05 711.04 1088.81 719.8 1104.43 735.42V871.69Z" stroke="#FF00F3" stroke-width="2" stroke-miterlimit="10"/>
<path d="M1111.44 864.68C1095.82 880.3 1087.06 889.06 1071.44 904.68H935.17C919.55 889.06 910.79 880.3 895.17 864.68V728.41C910.79 712.79 919.55 704.03 935.17 688.41H1071.44C1087.06 704.03 1095.82 712.79 1111.44 728.41V864.68Z" stroke="#FF00F3" stroke-width="2" stroke-miterlimit="10"/>
<path d="M1118.45 857.67C1102.83 873.29 1094.07 882.05 1078.45 897.67H942.18C926.56 882.05 917.8 873.29 902.18 857.67V721.4C917.8 705.78 926.56 697.02 942.18 681.4H1078.45C1094.07 697.02 1102.83 705.78 1118.45 721.4V857.67Z" stroke="#FF00F3" stroke-width="2" stroke-miterlimit="10"/>
<path d="M1125.46 850.66C1109.84 866.28 1101.08 875.04 1085.46 890.66H949.19C933.57 875.04 924.81 866.28 909.19 850.66V714.39C924.81 698.77 933.57 690.01 949.19 674.39H1085.46C1101.08 690.01 1109.84 698.77 1125.46 714.39V850.66Z" stroke="#FF00F3" stroke-width="2" stroke-miterlimit="10"/>
<path d="M1132.47 843.65C1116.85 859.27 1108.09 868.03 1092.47 883.65H956.2C940.58 868.03 931.82 859.27 916.2 843.65V707.38C931.82 691.76 940.58 683 956.2 667.38H1092.47C1108.09 683 1116.85 691.76 1132.47 707.38V843.65Z" stroke="#FF00F3" stroke-width="2" stroke-miterlimit="10"/>
<path d="M1139.48 836.64C1123.86 852.26 1115.1 861.02 1099.48 876.64H963.21C947.59 861.02 938.83 852.26 923.21 836.64V700.37C938.83 684.75 947.59 675.99 963.21 660.37H1099.48C1115.1 675.99 1123.86 684.75 1139.48 700.37V836.64Z" stroke="#FF00F3" stroke-width="2" stroke-miterlimit="10"/>
<path d="M930.22 829.63V693.36C945.84 677.74 954.6 668.98 970.22 653.36H1106.49C1122.11 668.98 1130.87 677.74 1146.49 693.36V829.63C1130.87 845.25 1122.11 854.01 1106.49 869.63H970.22C954.6 854.01 945.84 845.25 930.22 829.63Z" stroke="#FF00F3" stroke-width="2" stroke-miterlimit="10"/>
<path d="M860.12 683.45V547.18C875.74 531.56 884.5 522.8 900.12 507.18H1036.39C1052.01 522.8 1060.77 531.56 1076.39 547.18V683.45C1060.77 699.07 1052.01 707.83 1036.39 723.45H900.12C884.5 707.83 875.74 699.07 860.12 683.45Z" stroke="#FF00F3" stroke-width="2" stroke-miterlimit="10"/>
<path d="M1083.4 676.44C1067.78 692.06 1059.02 700.82 1043.4 716.44H907.13C891.51 700.82 882.75 692.06 867.13 676.44V540.17C882.75 524.55 891.51 515.79 907.13 500.17H1043.4C1059.02 515.79 1067.78 524.55 1083.4 540.17V676.44Z" stroke="#FF00F3" stroke-width="2" stroke-miterlimit="10"/>
<path d="M1090.41 669.43C1074.79 685.05 1066.03 693.81 1050.41 709.43H914.14C898.52 693.81 889.76 685.05 874.14 669.43V533.16C889.76 517.54 898.52 508.78 914.14 493.16H1050.41C1066.03 508.78 1074.79 517.54 1090.41 533.16V669.43Z" stroke="#FF00F3" stroke-width="2" stroke-miterlimit="10"/>
<path d="M1097.42 662.42C1081.8 678.04 1073.04 686.8 1057.42 702.42H921.15C905.53 686.8 896.77 678.04 881.15 662.42V526.15C896.77 510.53 905.53 501.77 921.15 486.15H1057.42C1073.04 501.77 1081.8 510.53 1097.42 526.15V662.42Z" stroke="#FF00F3" stroke-width="2" stroke-miterlimit="10"/>
<path d="M1104.43 655.41C1088.81 671.03 1080.05 679.79 1064.43 695.41H928.16C912.54 679.79 903.78 671.03 888.16 655.41V519.14C903.78 503.52 912.54 494.76 928.16 479.14H1064.43C1080.05 494.76 1088.81 503.52 1104.43 519.14V655.41Z" stroke="#FF00F3" stroke-width="2" stroke-miterlimit="10"/>
<path d="M1111.44 648.4C1095.82 664.02 1087.06 672.78 1071.44 688.4H935.17C919.55 672.78 910.79 664.02 895.17 648.4V512.13C910.79 496.51 919.55 487.75 935.17 472.13H1071.44C1087.06 487.75 1095.82 496.51 1111.44 512.13V648.4Z" stroke="#FF00F3" stroke-width="2" stroke-miterlimit="10"/>
<path d="M1118.45 641.39C1102.83 657.01 1094.07 665.77 1078.45 681.39H942.18C926.56 665.77 917.8 657.01 902.18 641.39V505.12C917.8 489.5 926.56 480.74 942.18 465.12H1078.45C1094.07 480.74 1102.83 489.5 1118.45 505.12V641.39Z" stroke="#FF00F3" stroke-width="2" stroke-miterlimit="10"/>
<path d="M1125.46 634.38C1109.84 650 1101.08 658.76 1085.46 674.38H949.19C933.57 658.76 924.81 650 909.19 634.38V498.11C924.81 482.49 933.57 473.73 949.19 458.11H1085.46C1101.08 473.73 1109.84 482.49 1125.46 498.11V634.38Z" stroke="#FF00F3" stroke-width="2" stroke-miterlimit="10"/>
<path d="M1132.47 627.37C1116.85 642.99 1108.09 651.75 1092.47 667.37H956.2C940.58 651.75 931.82 642.99 916.2 627.37V491.1C931.82 475.48 940.58 466.72 956.2 451.1H1092.47C1108.09 466.72 1116.85 475.48 1132.47 491.1V627.37Z" stroke="#FF00F3" stroke-width="2" stroke-miterlimit="10"/>
<path d="M1139.48 620.36C1123.86 635.98 1115.1 644.74 1099.48 660.36H963.21C947.59 644.74 938.83 635.98 923.21 620.36V484.09C938.83 468.47 947.59 459.71 963.21 444.09H1099.48C1115.1 459.71 1123.86 468.47 1139.48 484.09V620.36Z" stroke="#FF00F3" stroke-width="2" stroke-miterlimit="10"/>
<path d="M930.22 613.35V477.08C945.84 461.46 954.6 452.7 970.22 437.08H1106.49C1122.11 452.7 1130.87 461.46 1146.49 477.08V613.35C1130.87 628.97 1122.11 637.73 1106.49 653.35H970.22C954.6 637.73 945.84 628.97 930.22 613.35Z" stroke="#FF00F3" stroke-width="2" stroke-miterlimit="10"/>
<path d="M860.12 467.18V330.91C875.74 315.29 884.5 306.53 900.12 290.91H1036.39C1052.01 306.53 1060.77 315.29 1076.39 330.91V467.18C1060.77 482.8 1052.01 491.56 1036.39 507.18H900.12C884.5 491.56 875.74 482.8 860.12 467.18Z" stroke="#FF00F3" stroke-width="2" stroke-miterlimit="10"/>
<path d="M1083.4 460.17C1067.78 475.79 1059.02 484.55 1043.4 500.17H907.13C891.51 484.55 882.75 475.79 867.13 460.17V323.9C882.75 308.28 891.51 299.52 907.13 283.9H1043.4C1059.02 299.52 1067.78 308.28 1083.4 323.9V460.17Z" stroke="#FF00F3" stroke-width="2" stroke-miterlimit="10"/>
<path d="M1090.41 453.16C1074.79 468.78 1066.03 477.54 1050.41 493.16H914.14C898.52 477.54 889.76 468.78 874.14 453.16V316.89C889.76 301.27 898.52 292.51 914.14 276.89H1050.41C1066.03 292.51 1074.79 301.27 1090.41 316.89V453.16Z" stroke="#FF00F3" stroke-width="2" stroke-miterlimit="10"/>
<path d="M1097.42 446.15C1081.8 461.77 1073.04 470.53 1057.42 486.15H921.15C905.53 470.53 896.77 461.77 881.15 446.15V309.88C896.77 294.26 905.53 285.5 921.15 269.88H1057.42C1073.04 285.5 1081.8 294.26 1097.42 309.88V446.15Z" stroke="#FF00F3" stroke-width="2" stroke-miterlimit="10"/>
<path d="M1104.43 439.14C1088.81 454.76 1080.05 463.52 1064.43 479.14H928.16C912.54 463.52 903.78 454.76 888.16 439.14V302.87C903.78 287.25 912.54 278.49 928.16 262.87H1064.43C1080.05 278.49 1088.81 287.25 1104.43 302.87V439.14Z" stroke="#FF00F3" stroke-width="2" stroke-miterlimit="10"/>
<path d="M1111.44 432.13C1095.82 447.75 1087.06 456.51 1071.44 472.13H935.17C919.55 456.51 910.79 447.75 895.17 432.13V295.86C910.79 280.24 919.55 271.48 935.17 255.86H1071.44C1087.06 271.48 1095.82 280.24 1111.44 295.86V432.13Z" stroke="#FF00F3" stroke-width="2" stroke-miterlimit="10"/>
<path d="M1118.45 425.12C1102.83 440.74 1094.07 449.5 1078.45 465.12H942.18C926.56 449.5 917.8 440.74 902.18 425.12V288.85C917.8 273.23 926.56 264.47 942.18 248.85H1078.45C1094.07 264.47 1102.83 273.23 1118.45 288.85V425.12Z" stroke="#FF00F3" stroke-width="2" stroke-miterlimit="10"/>
<path d="M1125.46 418.11C1109.84 433.73 1101.08 442.49 1085.46 458.11H949.19C933.57 442.49 924.81 433.73 909.19 418.11V281.84C924.81 266.22 933.57 257.46 949.19 241.84H1085.46C1101.08 257.46 1109.84 266.22 1125.46 281.84V418.11Z" stroke="#FF00F3" stroke-width="2" stroke-miterlimit="10"/>
<path d="M1132.47 411.1C1116.85 426.72 1108.09 435.48 1092.47 451.1H956.2C940.58 435.48 931.82 426.72 916.2 411.1V274.83C931.82 259.21 940.58 250.45 956.2 234.83H1092.47C1108.09 250.45 1116.85 259.21 1132.47 274.83V411.1Z" stroke="#FF00F3" stroke-width="2" stroke-miterlimit="10"/>
<path d="M1139.48 404.09C1123.86 419.71 1115.1 428.47 1099.48 444.09H963.21C947.59 428.47 938.83 419.71 923.21 404.09V267.82C938.83 252.2 947.59 243.44 963.21 227.82H1099.48C1115.1 243.44 1123.86 252.2 1139.48 267.82V404.09Z" stroke="#FF00F3" stroke-width="2" stroke-miterlimit="10"/>
<path d="M930.22 397.08V260.81C945.84 245.19 954.6 236.43 970.22 220.81H1106.49C1122.11 236.43 1130.87 245.19 1146.49 260.81V397.08C1130.87 412.7 1122.11 421.46 1106.49 437.08H970.22C954.6 421.46 945.84 412.7 930.22 397.08Z" stroke="#FF00F3" stroke-width="2" stroke-miterlimit="10"/>
<path d="M860.12 250.9V114.63C875.74 99.01 884.5 90.25 900.12 74.63H1036.39C1052.01 90.25 1060.77 99.01 1076.39 114.63V250.9C1060.77 266.52 1052.01 275.28 1036.39 290.9H900.12C884.5 275.28 875.74 266.52 860.12 250.9Z" stroke="#FF00F3" stroke-width="2" stroke-miterlimit="10"/>
<path d="M1083.4 243.89C1067.78 259.51 1059.02 268.27 1043.4 283.89H907.13C891.51 268.27 882.75 259.51 867.13 243.89V107.62C882.75 92 891.51 83.24 907.13 67.62H1043.4C1059.02 83.24 1067.78 92 1083.4 107.62V243.89Z" stroke="#FF00F3" stroke-width="2" stroke-miterlimit="10"/>
<path d="M1090.41 236.88C1074.79 252.5 1066.03 261.26 1050.41 276.88H914.14C898.52 261.26 889.76 252.5 874.14 236.88V100.61C889.76 84.99 898.52 76.23 914.14 60.61H1050.41C1066.03 76.23 1074.79 84.99 1090.41 100.61V236.88Z" stroke="#FF00F3" stroke-width="2" stroke-miterlimit="10"/>
<path d="M1097.42 229.88C1081.8 245.5 1073.04 254.26 1057.42 269.88H921.15C905.53 254.26 896.77 245.5 881.15 229.88V93.6C896.77 77.98 905.53 69.22 921.15 53.6H1057.42C1073.04 69.22 1081.8 77.98 1097.42 93.6V229.87V229.88Z" stroke="#FF00F3" stroke-width="2" stroke-miterlimit="10"/>
<path d="M1104.43 222.87C1088.81 238.49 1080.05 247.25 1064.43 262.87H928.16C912.54 247.25 903.78 238.49 888.16 222.87V86.59C903.78 70.97 912.54 62.21 928.16 46.59H1064.43C1080.05 62.21 1088.81 70.97 1104.43 86.59V222.86V222.87Z" stroke="#FF00F3" stroke-width="2" stroke-miterlimit="10"/>
<path d="M1111.44 215.86C1095.82 231.48 1087.06 240.24 1071.44 255.86H935.17C919.55 240.24 910.79 231.48 895.17 215.86V79.58C910.79 63.96 919.55 55.2 935.17 39.58H1071.44C1087.06 55.2 1095.82 63.96 1111.44 79.58V215.85V215.86Z" stroke="#FF00F3" stroke-width="2" stroke-miterlimit="10"/>
<path d="M1118.45 208.85C1102.83 224.47 1094.07 233.23 1078.45 248.85H942.18C926.56 233.23 917.8 224.47 902.18 208.85V72.5699C917.8 56.9499 926.56 48.1899 942.18 32.5699H1078.45C1094.07 48.1899 1102.83 56.9499 1118.45 72.5699V208.84V208.85Z" stroke="#FF00F3" stroke-width="2" stroke-miterlimit="10"/>
<path d="M1125.46 201.84C1109.84 217.46 1101.08 226.22 1085.46 241.84H949.19C933.57 226.22 924.81 217.46 909.19 201.84V65.5601C924.81 49.9401 933.57 41.1801 949.19 25.5601H1085.46C1101.08 41.1801 1109.84 49.9401 1125.46 65.5601V201.83V201.84Z" stroke="#FF00F3" stroke-width="2" stroke-miterlimit="10"/>
<path d="M1132.47 194.83C1116.85 210.45 1108.09 219.21 1092.47 234.83H956.2C940.58 219.21 931.82 210.45 916.2 194.83V58.55C931.82 42.93 940.58 34.17 956.2 18.55H1092.47C1108.09 34.17 1116.85 42.93 1132.47 58.55V194.82V194.83Z" stroke="#FF00F3" stroke-width="2" stroke-miterlimit="10"/>
<path d="M1139.48 187.82C1123.86 203.44 1115.1 212.2 1099.48 227.82H963.21C947.59 212.2 938.83 203.44 923.21 187.82V51.54C938.83 35.92 947.59 27.16 963.21 11.54H1099.48C1115.1 27.16 1123.86 35.92 1139.48 51.54V187.81V187.82Z" stroke="#FF00F3" stroke-width="2" stroke-miterlimit="10"/>
<path d="M930.22 180.81V44.53C945.84 28.91 954.6 20.15 970.22 4.53003H1106.49C1122.11 20.15 1130.87 28.91 1146.49 44.53V180.8C1130.87 196.42 1122.11 205.18 1106.49 220.8H970.22C954.6 205.18 945.84 196.42 930.22 180.8V180.81Z" stroke="#FF00F3" stroke-width="2" stroke-miterlimit="10"/>
<path d="M1146.49 966.63V830.36C1162.11 814.74 1170.87 805.98 1186.49 790.36H1322.76C1338.38 805.98 1347.14 814.74 1362.76 830.36V966.63C1347.14 982.25 1338.38 991.01 1322.76 1006.63H1186.49C1170.87 991.01 1162.11 982.25 1146.49 966.63Z" stroke="#FF00F3" stroke-width="2" stroke-miterlimit="10"/>
<path d="M1369.78 959.62C1354.16 975.24 1345.4 984 1329.78 999.62H1193.51C1177.89 984 1169.13 975.24 1153.51 959.62V823.35C1169.13 807.73 1177.89 798.97 1193.51 783.35H1329.78C1345.4 798.97 1354.16 807.73 1369.78 823.35V959.62Z" stroke="#FF00F3" stroke-width="2" stroke-miterlimit="10"/>
<path d="M1376.79 952.61C1361.17 968.23 1352.41 976.99 1336.79 992.61H1200.52C1184.9 976.99 1176.14 968.23 1160.52 952.61V816.34C1176.14 800.72 1184.9 791.96 1200.52 776.34H1336.79C1352.41 791.96 1361.17 800.72 1376.79 816.34V952.61Z" stroke="#FF00F3" stroke-width="2" stroke-miterlimit="10"/>
<path d="M1383.8 945.6C1368.18 961.22 1359.42 969.98 1343.8 985.6H1207.53C1191.91 969.98 1183.15 961.22 1167.53 945.6V809.33C1183.15 793.71 1191.91 784.95 1207.53 769.33H1343.8C1359.42 784.95 1368.18 793.71 1383.8 809.33V945.6Z" stroke="#FF00F3" stroke-width="2" stroke-miterlimit="10"/>
<path d="M1390.81 938.59C1375.19 954.21 1366.43 962.97 1350.81 978.59H1214.54C1198.92 962.97 1190.16 954.21 1174.54 938.59V802.32C1190.16 786.7 1198.92 777.94 1214.54 762.32H1350.81C1366.43 777.94 1375.19 786.7 1390.81 802.32V938.59Z" stroke="#FF00F3" stroke-width="2" stroke-miterlimit="10"/>
<path d="M1397.82 931.58C1382.2 947.2 1373.44 955.96 1357.82 971.58H1221.55C1205.93 955.96 1197.17 947.2 1181.55 931.58V795.31C1197.17 779.69 1205.93 770.93 1221.55 755.31H1357.82C1373.44 770.93 1382.2 779.69 1397.82 795.31V931.58Z" stroke="#FF00F3" stroke-width="2" stroke-miterlimit="10"/>
<path d="M1404.83 924.57C1389.21 940.19 1380.45 948.95 1364.83 964.57H1228.56C1212.94 948.95 1204.18 940.19 1188.56 924.57V788.3C1204.18 772.68 1212.94 763.92 1228.56 748.3H1364.83C1380.45 763.92 1389.21 772.68 1404.83 788.3V924.57Z" stroke="#FF00F3" stroke-width="2" stroke-miterlimit="10"/>
<path d="M1411.84 917.56C1396.22 933.18 1387.46 941.94 1371.84 957.56H1235.57C1219.95 941.94 1211.19 933.18 1195.57 917.56V781.29C1211.19 765.67 1219.95 756.91 1235.57 741.29H1371.84C1387.46 756.91 1396.22 765.67 1411.84 781.29V917.56Z" stroke="#FF00F3" stroke-width="2" stroke-miterlimit="10"/>
<path d="M1418.85 910.55C1403.23 926.17 1394.47 934.93 1378.85 950.55H1242.58C1226.96 934.93 1218.2 926.17 1202.58 910.55V774.28C1218.2 758.66 1226.96 749.9 1242.58 734.28H1378.85C1394.47 749.9 1403.23 758.66 1418.85 774.28V910.55Z" stroke="#FF00F3" stroke-width="2" stroke-miterlimit="10"/>
<path d="M1425.86 903.54C1410.24 919.16 1401.48 927.92 1385.86 943.54H1249.59C1233.97 927.92 1225.21 919.16 1209.59 903.54V767.27C1225.21 751.65 1233.97 742.89 1249.59 727.27H1385.86C1401.48 742.89 1410.24 751.65 1425.86 767.27V903.54Z" stroke="#FF00F3" stroke-width="2" stroke-miterlimit="10"/>
<path d="M1216.59 896.53V760.26C1232.21 744.64 1240.97 735.88 1256.59 720.26H1392.86C1408.48 735.88 1417.24 744.64 1432.86 760.26V896.53C1417.24 912.15 1408.48 920.91 1392.86 936.53H1256.59C1240.97 920.91 1232.21 912.15 1216.59 896.53Z" stroke="#FF00F3" stroke-width="2" stroke-miterlimit="10"/>
<path d="M1146.49 750.35V614.08C1162.11 598.46 1170.87 589.7 1186.49 574.08H1322.76C1338.38 589.7 1347.14 598.46 1362.76 614.08V750.35C1347.14 765.97 1338.38 774.73 1322.76 790.35H1186.49C1170.87 774.73 1162.11 765.97 1146.49 750.35Z" stroke="#FF00F3" stroke-width="2" stroke-miterlimit="10"/>
<path d="M1369.78 743.34C1354.16 758.96 1345.4 767.72 1329.78 783.34H1193.51C1177.89 767.72 1169.13 758.96 1153.51 743.34V607.07C1169.13 591.45 1177.89 582.69 1193.51 567.07H1329.78C1345.4 582.69 1354.16 591.45 1369.78 607.07V743.34Z" stroke="#FF00F3" stroke-width="2" stroke-miterlimit="10"/>
<path d="M1376.79 736.33C1361.17 751.95 1352.41 760.71 1336.79 776.33H1200.52C1184.9 760.71 1176.14 751.95 1160.52 736.33V600.06C1176.14 584.44 1184.9 575.68 1200.52 560.06H1336.79C1352.41 575.68 1361.17 584.44 1376.79 600.06V736.33Z" stroke="#FF00F3" stroke-width="2" stroke-miterlimit="10"/>
<path d="M1383.8 729.32C1368.18 744.94 1359.42 753.7 1343.8 769.32H1207.53C1191.91 753.7 1183.15 744.94 1167.53 729.32V593.05C1183.15 577.43 1191.91 568.67 1207.53 553.05H1343.8C1359.42 568.67 1368.18 577.43 1383.8 593.05V729.32Z" stroke="#FF00F3" stroke-width="2" stroke-miterlimit="10"/>
<path d="M1390.81 722.31C1375.19 737.93 1366.43 746.69 1350.81 762.31H1214.54C1198.92 746.69 1190.16 737.93 1174.54 722.31V586.04C1190.16 570.42 1198.92 561.66 1214.54 546.04H1350.81C1366.43 561.66 1375.19 570.42 1390.81 586.04V722.31Z" stroke="#FF00F3" stroke-width="2" stroke-miterlimit="10"/>
<path d="M1397.82 715.3C1382.2 730.92 1373.44 739.68 1357.82 755.3H1221.55C1205.93 739.68 1197.17 730.92 1181.55 715.3V579.03C1197.17 563.41 1205.93 554.65 1221.55 539.03H1357.82C1373.44 554.65 1382.2 563.41 1397.82 579.03V715.3Z" stroke="#FF00F3" stroke-width="2" stroke-miterlimit="10"/>
<path d="M1404.83 708.29C1389.21 723.91 1380.45 732.67 1364.83 748.29H1228.56C1212.94 732.67 1204.18 723.91 1188.56 708.29V572.02C1204.18 556.4 1212.94 547.64 1228.56 532.02H1364.83C1380.45 547.64 1389.21 556.4 1404.83 572.02V708.29Z" stroke="#FF00F3" stroke-width="2" stroke-miterlimit="10"/>
<path d="M1411.84 701.28C1396.22 716.9 1387.46 725.66 1371.84 741.28H1235.57C1219.95 725.66 1211.19 716.9 1195.57 701.28V565.01C1211.19 549.39 1219.95 540.63 1235.57 525.01H1371.84C1387.46 540.63 1396.22 549.39 1411.84 565.01V701.28Z" stroke="#FF00F3" stroke-width="2" stroke-miterlimit="10"/>
<path d="M1418.85 694.27C1403.23 709.89 1394.47 718.65 1378.85 734.27H1242.58C1226.96 718.65 1218.2 709.89 1202.58 694.27V558C1218.2 542.38 1226.96 533.62 1242.58 518H1378.85C1394.47 533.62 1403.23 542.38 1418.85 558V694.27Z" stroke="#FF00F3" stroke-width="2" stroke-miterlimit="10"/>
<path d="M1425.86 687.26C1410.24 702.88 1401.48 711.64 1385.86 727.26H1249.59C1233.97 711.64 1225.21 702.88 1209.59 687.26V550.99C1225.21 535.37 1233.97 526.61 1249.59 510.99H1385.86C1401.48 526.61 1410.24 535.37 1425.86 550.99V687.26Z" stroke="#FF00F3" stroke-width="2" stroke-miterlimit="10"/>
<path d="M1216.59 680.25V543.98C1232.21 528.36 1240.97 519.6 1256.59 503.98H1392.86C1408.48 519.6 1417.24 528.36 1432.86 543.98V680.25C1417.24 695.87 1408.48 704.63 1392.86 720.25H1256.59C1240.97 704.63 1232.21 695.87 1216.59 680.25Z" stroke="#FF00F3" stroke-width="2" stroke-miterlimit="10"/>
<path d="M1146.49 534.08V397.81C1162.11 382.19 1170.87 373.43 1186.49 357.81H1322.76C1338.38 373.43 1347.14 382.19 1362.76 397.81V534.08C1347.14 549.7 1338.38 558.46 1322.76 574.08H1186.49C1170.87 558.46 1162.11 549.7 1146.49 534.08Z" stroke="#FF00F3" stroke-width="2" stroke-miterlimit="10"/>
<path d="M1369.78 527.07C1354.16 542.69 1345.4 551.45 1329.78 567.07H1193.51C1177.89 551.45 1169.13 542.69 1153.51 527.07V390.8C1169.13 375.18 1177.89 366.42 1193.51 350.8H1329.78C1345.4 366.42 1354.16 375.18 1369.78 390.8V527.07Z" stroke="#FF00F3" stroke-width="2" stroke-miterlimit="10"/>
<path d="M1376.79 520.06C1361.17 535.68 1352.41 544.44 1336.79 560.06H1200.52C1184.9 544.44 1176.14 535.68 1160.52 520.06V383.79C1176.14 368.17 1184.9 359.41 1200.52 343.79H1336.79C1352.41 359.41 1361.17 368.17 1376.79 383.79V520.06Z" stroke="#FF00F3" stroke-width="2" stroke-miterlimit="10"/>
<path d="M1383.8 513.05C1368.18 528.67 1359.42 537.43 1343.8 553.05H1207.53C1191.91 537.43 1183.15 528.67 1167.53 513.05V376.78C1183.15 361.16 1191.91 352.4 1207.53 336.78H1343.8C1359.42 352.4 1368.18 361.16 1383.8 376.78V513.05Z" stroke="#FF00F3" stroke-width="2" stroke-miterlimit="10"/>
<path d="M1390.81 506.04C1375.19 521.66 1366.43 530.42 1350.81 546.04H1214.54C1198.92 530.42 1190.16 521.66 1174.54 506.04V369.77C1190.16 354.15 1198.92 345.39 1214.54 329.77H1350.81C1366.43 345.39 1375.19 354.15 1390.81 369.77V506.04Z" stroke="#FF00F3" stroke-width="2" stroke-miterlimit="10"/>
<path d="M1397.82 499.03C1382.2 514.65 1373.44 523.41 1357.82 539.03H1221.55C1205.93 523.41 1197.17 514.65 1181.55 499.03V362.76C1197.17 347.14 1205.93 338.38 1221.55 322.76H1357.82C1373.44 338.38 1382.2 347.14 1397.82 362.76V499.03Z" stroke="#FF00F3" stroke-width="2" stroke-miterlimit="10"/>
<path d="M1404.83 492.02C1389.21 507.64 1380.45 516.4 1364.83 532.02H1228.56C1212.94 516.4 1204.18 507.64 1188.56 492.02V355.75C1204.18 340.13 1212.94 331.37 1228.56 315.75H1364.83C1380.45 331.37 1389.21 340.13 1404.83 355.75V492.02Z" stroke="#FF00F3" stroke-width="2" stroke-miterlimit="10"/>
<path d="M1411.84 485.01C1396.22 500.63 1387.46 509.39 1371.84 525.01H1235.57C1219.95 509.39 1211.19 500.63 1195.57 485.01V348.74C1211.19 333.12 1219.95 324.36 1235.57 308.74H1371.84C1387.46 324.36 1396.22 333.12 1411.84 348.74V485.01Z" stroke="#FF00F3" stroke-width="2" stroke-miterlimit="10"/>
<path d="M1418.85 478C1403.23 493.62 1394.47 502.38 1378.85 518H1242.58C1226.96 502.38 1218.2 493.62 1202.58 478V341.73C1218.2 326.11 1226.96 317.35 1242.58 301.73H1378.85C1394.47 317.35 1403.23 326.11 1418.85 341.73V478Z" stroke="#FF00F3" stroke-width="2" stroke-miterlimit="10"/>
<path d="M1425.86 470.99C1410.24 486.61 1401.48 495.37 1385.86 510.99H1249.59C1233.97 495.37 1225.21 486.61 1209.59 470.99V334.72C1225.21 319.1 1233.97 310.34 1249.59 294.72H1385.86C1401.48 310.34 1410.24 319.1 1425.86 334.72V470.99Z" stroke="#FF00F3" stroke-width="2" stroke-miterlimit="10"/>
<path d="M1216.59 463.98V327.71C1232.21 312.09 1240.97 303.33 1256.59 287.71H1392.86C1408.48 303.33 1417.24 312.09 1432.86 327.71V463.98C1417.24 479.6 1408.48 488.36 1392.86 503.98H1256.59C1240.97 488.36 1232.21 479.6 1216.59 463.98Z" stroke="#FF00F3" stroke-width="2" stroke-miterlimit="10"/>
<path d="M1146.49 317.8V181.53C1162.11 165.91 1170.87 157.15 1186.49 141.53H1322.76C1338.38 157.15 1347.14 165.91 1362.76 181.53V317.8C1347.14 333.42 1338.38 342.18 1322.76 357.8H1186.49C1170.87 342.18 1162.11 333.42 1146.49 317.8Z" stroke="#FF00F3" stroke-width="2" stroke-miterlimit="10"/>
<path d="M1369.78 310.79C1354.16 326.41 1345.4 335.17 1329.78 350.79H1193.51C1177.89 335.17 1169.13 326.41 1153.51 310.79V174.52C1169.13 158.9 1177.89 150.14 1193.51 134.52H1329.78C1345.4 150.14 1354.16 158.9 1369.78 174.52V310.79Z" stroke="#FF00F3" stroke-width="2" stroke-miterlimit="10"/>
<path d="M1376.79 303.78C1361.17 319.4 1352.41 328.16 1336.79 343.78H1200.52C1184.9 328.16 1176.14 319.4 1160.52 303.78V167.51C1176.14 151.89 1184.9 143.13 1200.52 127.51H1336.79C1352.41 143.13 1361.17 151.89 1376.79 167.51V303.78Z" stroke="#FF00F3" stroke-width="2" stroke-miterlimit="10"/>
<path d="M1383.8 296.77C1368.18 312.39 1359.42 321.15 1343.8 336.77H1207.53C1191.91 321.15 1183.15 312.39 1167.53 296.77V160.5C1183.15 144.88 1191.91 136.12 1207.53 120.5H1343.8C1359.42 136.12 1368.18 144.88 1383.8 160.5V296.77Z" stroke="#FF00F3" stroke-width="2" stroke-miterlimit="10"/>
<path d="M1390.81 289.76C1375.19 305.38 1366.43 314.14 1350.81 329.76H1214.54C1198.92 314.14 1190.16 305.38 1174.54 289.76V153.49C1190.16 137.87 1198.92 129.11 1214.54 113.49H1350.81C1366.43 129.11 1375.19 137.87 1390.81 153.49V289.76Z" stroke="#FF00F3" stroke-width="2" stroke-miterlimit="10"/>
<path d="M1397.82 282.75C1382.2 298.37 1373.44 307.13 1357.82 322.75H1221.55C1205.93 307.13 1197.17 298.37 1181.55 282.75V146.48C1197.17 130.86 1205.93 122.1 1221.55 106.48H1357.82C1373.44 122.1 1382.2 130.86 1397.82 146.48V282.75Z" stroke="#FF00F3" stroke-width="2" stroke-miterlimit="10"/>
<path d="M1404.83 275.74C1389.21 291.36 1380.45 300.12 1364.83 315.74H1228.56C1212.94 300.12 1204.18 291.36 1188.56 275.74V139.47C1204.18 123.85 1212.94 115.09 1228.56 99.47H1364.83C1380.45 115.09 1389.21 123.85 1404.83 139.47V275.74Z" stroke="#FF00F3" stroke-width="2" stroke-miterlimit="10"/>
<path d="M1411.84 268.73C1396.22 284.35 1387.46 293.11 1371.84 308.73H1235.57C1219.95 293.11 1211.19 284.35 1195.57 268.73V132.46C1211.19 116.84 1219.95 108.08 1235.57 92.46H1371.84C1387.46 108.08 1396.22 116.84 1411.84 132.46V268.73Z" stroke="#FF00F3" stroke-width="2" stroke-miterlimit="10"/>
<path d="M1418.85 261.72C1403.23 277.34 1394.47 286.1 1378.85 301.72H1242.58C1226.96 286.1 1218.2 277.34 1202.58 261.72V125.45C1218.2 109.83 1226.96 101.07 1242.58 85.45H1378.85C1394.47 101.07 1403.23 109.83 1418.85 125.45V261.72Z" stroke="#FF00F3" stroke-width="2" stroke-miterlimit="10"/>
<path d="M1425.86 254.71C1410.24 270.33 1401.48 279.09 1385.86 294.71H1249.59C1233.97 279.09 1225.21 270.33 1209.59 254.71V118.44C1225.21 102.82 1233.97 94.0599 1249.59 78.4399H1385.86C1401.48 94.0599 1410.24 102.82 1425.86 118.44V254.71Z" stroke="#FF00F3" stroke-width="2" stroke-miterlimit="10"/>
<path d="M1216.59 247.7V111.43C1232.21 95.8101 1240.97 87.0501 1256.59 71.4301H1392.86C1408.48 87.0501 1417.24 95.8101 1432.86 111.43V247.7C1417.24 263.32 1408.48 272.08 1392.86 287.7H1256.59C1240.97 272.08 1232.21 263.32 1216.59 247.7Z" stroke="#FF00F3" stroke-width="2" stroke-miterlimit="10"/>
<path d="M1432.87 896.2V759.93C1448.49 744.31 1457.25 735.55 1472.87 719.93H1609.14C1624.76 735.55 1633.52 744.31 1649.14 759.93V896.2C1633.52 911.82 1624.76 920.58 1609.14 936.2H1472.87C1457.25 920.58 1448.49 911.82 1432.87 896.2Z" stroke="#FF00F3" stroke-width="2" stroke-miterlimit="10"/>
<path d="M1656.15 889.19C1640.53 904.81 1631.77 913.57 1616.15 929.19H1479.88C1464.26 913.57 1455.5 904.81 1439.88 889.19V752.92C1455.5 737.3 1464.26 728.54 1479.88 712.92H1616.15C1631.77 728.54 1640.53 737.3 1656.15 752.92V889.19Z" stroke="#FF00F3" stroke-width="2" stroke-miterlimit="10"/>
<path d="M1663.16 882.18C1647.54 897.8 1638.78 906.56 1623.16 922.18H1486.89C1471.27 906.56 1462.51 897.8 1446.89 882.18V745.91C1462.51 730.29 1471.27 721.53 1486.89 705.91H1623.16C1638.78 721.53 1647.54 730.29 1663.16 745.91V882.18Z" stroke="#FF00F3" stroke-width="2" stroke-miterlimit="10"/>
<path d="M1670.17 875.17C1654.55 890.79 1645.79 899.55 1630.17 915.17H1493.9C1478.28 899.55 1469.52 890.79 1453.9 875.17V738.9C1469.52 723.28 1478.28 714.52 1493.9 698.9H1630.17C1645.79 714.52 1654.55 723.28 1670.17 738.9V875.17Z" stroke="#FF00F3" stroke-width="2" stroke-miterlimit="10"/>
<path d="M1677.18 868.16C1661.56 883.78 1652.8 892.54 1637.18 908.16H1500.91C1485.29 892.54 1476.53 883.78 1460.91 868.16V731.89C1476.53 716.27 1485.29 707.51 1500.91 691.89H1637.18C1652.8 707.51 1661.56 716.27 1677.18 731.89V868.16Z" stroke="#FF00F3" stroke-width="2" stroke-miterlimit="10"/>
<path d="M1684.19 861.15C1668.57 876.77 1659.81 885.53 1644.19 901.15H1507.92C1492.3 885.53 1483.54 876.77 1467.92 861.15V724.88C1483.54 709.26 1492.3 700.5 1507.92 684.88H1644.19C1659.81 700.5 1668.57 709.26 1684.19 724.88V861.15Z" stroke="#FF00F3" stroke-width="2" stroke-miterlimit="10"/>
<path d="M1691.2 854.14C1675.58 869.76 1666.82 878.52 1651.2 894.14H1514.93C1499.31 878.52 1490.55 869.76 1474.93 854.14V717.87C1490.55 702.25 1499.31 693.49 1514.93 677.87H1651.2C1666.82 693.49 1675.58 702.25 1691.2 717.87V854.14Z" stroke="#FF00F3" stroke-width="2" stroke-miterlimit="10"/>
<path d="M1698.21 847.13C1682.59 862.75 1673.83 871.51 1658.21 887.13H1521.94C1506.32 871.51 1497.56 862.75 1481.94 847.13V710.86C1497.56 695.24 1506.32 686.48 1521.94 670.86H1658.21C1673.83 686.48 1682.59 695.24 1698.21 710.86V847.13Z" stroke="#FF00F3" stroke-width="2" stroke-miterlimit="10"/>
<path d="M1705.22 840.12C1689.6 855.74 1680.84 864.5 1665.22 880.12H1528.95C1513.33 864.5 1504.57 855.74 1488.95 840.12V703.85C1504.57 688.23 1513.33 679.47 1528.95 663.85H1665.22C1680.84 679.47 1689.6 688.23 1705.22 703.85V840.12Z" stroke="#FF00F3" stroke-width="2" stroke-miterlimit="10"/>
<path d="M1712.23 833.11C1696.61 848.73 1687.85 857.49 1672.23 873.11H1535.96C1520.34 857.49 1511.58 848.73 1495.96 833.11V696.84C1511.58 681.22 1520.34 672.46 1535.96 656.84H1672.23C1687.85 672.46 1696.61 681.22 1712.23 696.84V833.11Z" stroke="#FF00F3" stroke-width="2" stroke-miterlimit="10"/>
<path d="M1502.97 826.1V689.83C1518.59 674.21 1527.35 665.45 1542.97 649.83H1679.24C1694.86 665.45 1703.62 674.21 1719.24 689.83V826.1C1703.62 841.72 1694.86 850.48 1679.24 866.1H1542.97C1527.35 850.48 1518.59 841.72 1502.97 826.1Z" stroke="#FF00F3" stroke-width="2" stroke-miterlimit="10"/>
<path d="M1432.87 679.92V543.65C1448.49 528.03 1457.25 519.27 1472.87 503.65H1609.14C1624.76 519.27 1633.52 528.03 1649.14 543.65V679.92C1633.52 695.54 1624.76 704.3 1609.14 719.92H1472.87C1457.25 704.3 1448.49 695.54 1432.87 679.92Z" stroke="#FF00F3" stroke-width="2" stroke-miterlimit="10"/>
<path d="M1656.15 672.91C1640.53 688.53 1631.77 697.29 1616.15 712.91H1479.88C1464.26 697.29 1455.5 688.53 1439.88 672.91V536.64C1455.5 521.02 1464.26 512.26 1479.88 496.64H1616.15C1631.77 512.26 1640.53 521.02 1656.15 536.64V672.91Z" stroke="#FF00F3" stroke-width="2" stroke-miterlimit="10"/>
<path d="M1663.16 665.9C1647.54 681.52 1638.78 690.28 1623.16 705.9H1486.89C1471.27 690.28 1462.51 681.52 1446.89 665.9V529.63C1462.51 514.01 1471.27 505.25 1486.89 489.63H1623.16C1638.78 505.25 1647.54 514.01 1663.16 529.63V665.9Z" stroke="#FF00F3" stroke-width="2" stroke-miterlimit="10"/>
<path d="M1670.17 658.89C1654.55 674.51 1645.79 683.27 1630.17 698.89H1493.9C1478.28 683.27 1469.52 674.51 1453.9 658.89V522.62C1469.52 507 1478.28 498.24 1493.9 482.62H1630.17C1645.79 498.24 1654.55 507 1670.17 522.62V658.89Z" stroke="#FF00F3" stroke-width="2" stroke-miterlimit="10"/>
<path d="M1677.18 651.88C1661.56 667.5 1652.8 676.26 1637.18 691.88H1500.91C1485.29 676.26 1476.53 667.5 1460.91 651.88V515.61C1476.53 499.99 1485.29 491.23 1500.91 475.61H1637.18C1652.8 491.23 1661.56 499.99 1677.18 515.61V651.88Z" stroke="#FF00F3" stroke-width="2" stroke-miterlimit="10"/>
<path d="M1684.19 644.87C1668.57 660.49 1659.81 669.25 1644.19 684.87H1507.92C1492.3 669.25 1483.54 660.49 1467.92 644.87V508.6C1483.54 492.98 1492.3 484.22 1507.92 468.6H1644.19C1659.81 484.22 1668.57 492.98 1684.19 508.6V644.87Z" stroke="#FF00F3" stroke-width="2" stroke-miterlimit="10"/>
<path d="M1691.2 637.86C1675.58 653.48 1666.82 662.24 1651.2 677.86H1514.93C1499.31 662.24 1490.55 653.48 1474.93 637.86V501.59C1490.55 485.97 1499.31 477.21 1514.93 461.59H1651.2C1666.82 477.21 1675.58 485.97 1691.2 501.59V637.86Z" stroke="#FF00F3" stroke-width="2" stroke-miterlimit="10"/>
<path d="M1698.21 630.85C1682.59 646.47 1673.83 655.23 1658.21 670.85H1521.94C1506.32 655.23 1497.56 646.47 1481.94 630.85V494.58C1497.56 478.96 1506.32 470.2 1521.94 454.58H1658.21C1673.83 470.2 1682.59 478.96 1698.21 494.58V630.85Z" stroke="#FF00F3" stroke-width="2" stroke-miterlimit="10"/>
<path d="M1705.22 623.84C1689.6 639.46 1680.84 648.22 1665.22 663.84H1528.95C1513.33 648.22 1504.57 639.46 1488.95 623.84V487.57C1504.57 471.95 1513.33 463.19 1528.95 447.57H1665.22C1680.84 463.19 1689.6 471.95 1705.22 487.57V623.84Z" stroke="#FF00F3" stroke-width="2" stroke-miterlimit="10"/>
<path d="M1712.23 616.83C1696.61 632.45 1687.85 641.21 1672.23 656.83H1535.96C1520.34 641.21 1511.58 632.45 1495.96 616.83V480.56C1511.58 464.94 1520.34 456.18 1535.96 440.56H1672.23C1687.85 456.18 1696.61 464.94 1712.23 480.56V616.83Z" stroke="#FF00F3" stroke-width="2" stroke-miterlimit="10"/>
<path d="M1502.97 609.82V473.55C1518.59 457.93 1527.35 449.17 1542.97 433.55H1679.24C1694.86 449.17 1703.62 457.93 1719.24 473.55V609.82C1703.62 625.44 1694.86 634.2 1679.24 649.82H1542.97C1527.35 634.2 1518.59 625.44 1502.97 609.82Z" stroke="#FF00F3" stroke-width="2" stroke-miterlimit="10"/>
<path d="M1432.87 463.65V327.38C1448.49 311.76 1457.25 303 1472.87 287.38H1609.14C1624.76 303 1633.52 311.76 1649.14 327.38V463.65C1633.52 479.27 1624.76 488.03 1609.14 503.65H1472.87C1457.25 488.03 1448.49 479.27 1432.87 463.65Z" stroke="#FF00F3" stroke-width="2" stroke-miterlimit="10"/>
<path d="M1656.15 456.64C1640.53 472.26 1631.77 481.02 1616.15 496.64H1479.88C1464.26 481.02 1455.5 472.26 1439.88 456.64V320.37C1455.5 304.75 1464.26 295.99 1479.88 280.37H1616.15C1631.77 295.99 1640.53 304.75 1656.15 320.37V456.64Z" stroke="#FF00F3" stroke-width="2" stroke-miterlimit="10"/>
<path d="M1663.16 449.63C1647.54 465.25 1638.78 474.01 1623.16 489.63H1486.89C1471.27 474.01 1462.51 465.25 1446.89 449.63V313.36C1462.51 297.74 1471.27 288.98 1486.89 273.36H1623.16C1638.78 288.98 1647.54 297.74 1663.16 313.36V449.63Z" stroke="#FF00F3" stroke-width="2" stroke-miterlimit="10"/>
<path d="M1670.17 442.62C1654.55 458.24 1645.79 467 1630.17 482.62H1493.9C1478.28 467 1469.52 458.24 1453.9 442.62V306.35C1469.52 290.73 1478.28 281.97 1493.9 266.35H1630.17C1645.79 281.97 1654.55 290.73 1670.17 306.35V442.62Z" stroke="#FF00F3" stroke-width="2" stroke-miterlimit="10"/>
<path d="M1677.18 435.61C1661.56 451.23 1652.8 459.99 1637.18 475.61H1500.91C1485.29 459.99 1476.53 451.23 1460.91 435.61V299.34C1476.53 283.72 1485.29 274.96 1500.91 259.34H1637.18C1652.8 274.96 1661.56 283.72 1677.18 299.34V435.61Z" stroke="#FF00F3" stroke-width="2" stroke-miterlimit="10"/>
<path d="M1684.19 428.6C1668.57 444.22 1659.81 452.98 1644.19 468.6H1507.92C1492.3 452.98 1483.54 444.22 1467.92 428.6V292.33C1483.54 276.71 1492.3 267.95 1507.92 252.33H1644.19C1659.81 267.95 1668.57 276.71 1684.19 292.33V428.6Z" stroke="#FF00F3" stroke-width="2" stroke-miterlimit="10"/>
<path d="M1691.2 421.59C1675.58 437.21 1666.82 445.97 1651.2 461.59H1514.93C1499.31 445.97 1490.55 437.21 1474.93 421.59V285.32C1490.55 269.7 1499.31 260.94 1514.93 245.32H1651.2C1666.82 260.94 1675.58 269.7 1691.2 285.32V421.59Z" stroke="#FF00F3" stroke-width="2" stroke-miterlimit="10"/>
<path d="M1698.21 414.58C1682.59 430.2 1673.83 438.96 1658.21 454.58H1521.94C1506.32 438.96 1497.56 430.2 1481.94 414.58V278.31C1497.56 262.69 1506.32 253.93 1521.94 238.31H1658.21C1673.83 253.93 1682.59 262.69 1698.21 278.31V414.58Z" stroke="#FF00F3" stroke-width="2" stroke-miterlimit="10"/>
<path d="M1705.22 407.57C1689.6 423.19 1680.84 431.95 1665.22 447.57H1528.95C1513.33 431.95 1504.57 423.19 1488.95 407.57V271.3C1504.57 255.68 1513.33 246.92 1528.95 231.3H1665.22C1680.84 246.92 1689.6 255.68 1705.22 271.3V407.57Z" stroke="#FF00F3" stroke-width="2" stroke-miterlimit="10"/>
<path d="M1712.23 400.56C1696.61 416.18 1687.85 424.94 1672.23 440.56H1535.96C1520.34 424.94 1511.58 416.18 1495.96 400.56V264.29C1511.58 248.67 1520.34 239.91 1535.96 224.29H1672.23C1687.85 239.91 1696.61 248.67 1712.23 264.29V400.56Z" stroke="#FF00F3" stroke-width="2" stroke-miterlimit="10"/>
<path d="M1502.97 393.55V257.28C1518.59 241.66 1527.35 232.9 1542.97 217.28H1679.24C1694.86 232.9 1703.62 241.66 1719.24 257.28V393.55C1703.62 409.17 1694.86 417.93 1679.24 433.55H1542.97C1527.35 417.93 1518.59 409.17 1502.97 393.55Z" stroke="#FF00F3" stroke-width="2" stroke-miterlimit="10"/>
<path d="M1432.87 247.37V111.1C1448.49 95.48 1457.25 86.72 1472.87 71.1H1609.14C1624.76 86.72 1633.52 95.48 1649.14 111.1V247.37C1633.52 262.99 1624.76 271.75 1609.14 287.37H1472.87C1457.25 271.75 1448.49 262.99 1432.87 247.37Z" stroke="#FF00F3" stroke-width="2" stroke-miterlimit="10"/>
<path d="M1656.15 240.36C1640.53 255.98 1631.77 264.74 1616.15 280.36H1479.88C1464.26 264.74 1455.5 255.98 1439.88 240.36V104.09C1455.5 88.47 1464.26 79.71 1479.88 64.09H1616.15C1631.77 79.71 1640.53 88.47 1656.15 104.09V240.36Z" stroke="#FF00F3" stroke-width="2" stroke-miterlimit="10"/>
<path d="M1663.16 233.35C1647.54 248.97 1638.78 257.73 1623.16 273.35H1486.89C1471.27 257.73 1462.51 248.97 1446.89 233.35V97.08C1462.51 81.46 1471.27 72.7 1486.89 57.08H1623.16C1638.78 72.7 1647.54 81.46 1663.16 97.08V233.35Z" stroke="#FF00F3" stroke-width="2" stroke-miterlimit="10"/>
<path d="M1670.17 226.34C1654.55 241.96 1645.79 250.72 1630.17 266.34H1493.9C1478.28 250.72 1469.52 241.96 1453.9 226.34V90.0699C1469.52 74.4499 1478.28 65.6899 1493.9 50.0699H1630.17C1645.79 65.6899 1654.55 74.4499 1670.17 90.0699V226.34Z" stroke="#FF00F3" stroke-width="2" stroke-miterlimit="10"/>
<path d="M1677.18 219.33C1661.56 234.95 1652.8 243.71 1637.18 259.33H1500.91C1485.29 243.71 1476.53 234.95 1460.91 219.33V83.0601C1476.53 67.4401 1485.29 58.6801 1500.91 43.0601H1637.18C1652.8 58.6801 1661.56 67.4401 1677.18 83.0601V219.33Z" stroke="#FF00F3" stroke-width="2" stroke-miterlimit="10"/>
<path d="M1684.19 212.32C1668.57 227.94 1659.81 236.7 1644.19 252.32H1507.92C1492.3 236.7 1483.54 227.94 1467.92 212.32V76.0501C1483.54 60.4301 1492.3 51.67 1507.92 36.05H1644.19C1659.81 51.67 1668.57 60.4301 1684.19 76.0501V212.32Z" stroke="#FF00F3" stroke-width="2" stroke-miterlimit="10"/>
<path d="M1691.2 205.31C1675.58 220.93 1666.82 229.69 1651.2 245.31H1514.93C1499.31 229.69 1490.55 220.93 1474.93 205.31V69.04C1490.55 53.42 1499.31 44.66 1514.93 29.04H1651.2C1666.82 44.66 1675.58 53.42 1691.2 69.04V205.31Z" stroke="#FF00F3" stroke-width="2" stroke-miterlimit="10"/>
<path d="M1698.21 198.3C1682.59 213.92 1673.83 222.68 1658.21 238.3H1521.94C1506.32 222.68 1497.56 213.92 1481.94 198.3V62.03C1497.56 46.41 1506.32 37.65 1521.94 22.03H1658.21C1673.83 37.65 1682.59 46.41 1698.21 62.03V198.3Z" stroke="#FF00F3" stroke-width="2" stroke-miterlimit="10"/>
<path d="M1705.22 191.29C1689.6 206.91 1680.84 215.67 1665.22 231.29H1528.95C1513.33 215.67 1504.57 206.91 1488.95 191.29V55.02C1504.57 39.4 1513.33 30.64 1528.95 15.02H1665.22C1680.84 30.64 1689.6 39.4 1705.22 55.02V191.29Z" stroke="#FF00F3" stroke-width="2" stroke-miterlimit="10"/>
<path d="M1712.23 184.28C1696.61 199.9 1687.85 208.66 1672.23 224.28H1535.96C1520.34 208.66 1511.58 199.9 1495.96 184.28V48.01C1511.58 32.39 1520.34 23.63 1535.96 8.01001H1672.23C1687.85 23.63 1696.61 32.39 1712.23 48.01V184.28Z" stroke="#FF00F3" stroke-width="2" stroke-miterlimit="10"/>
<path d="M1502.97 177.27V41C1518.59 25.38 1527.35 16.62 1542.97 1H1679.24C1694.86 16.62 1703.62 25.38 1719.24 41V177.27C1703.62 192.89 1694.86 201.65 1679.24 217.27H1542.97C1527.35 201.65 1518.59 192.89 1502.97 177.27Z" stroke="#FF00F3" stroke-width="2" stroke-miterlimit="10"/>
</g>
<defs>
<clipPath id="clip0_53_1994">
<rect width="1720.24" height="1015.26" fill="white"/>
</clipPath>
</defs>
</svg>
