<svg width="1877" height="1081" viewBox="0 0 1877 1081" fill="none" xmlns="http://www.w3.org/2000/svg">
<g clip-path="url(#clip0_53_2301)">
<path d="M0.5 1080.14V740.2L96.55 656.77V397.86L0.5 314.43V0" stroke="#4C22FF" stroke-miterlimit="10"/>
<path d="M28.09 1080.14V749.25L124.14 665.82V406.91L28.09 323.48V0" stroke="#5520FE" stroke-miterlimit="10"/>
<path d="M55.68 1080.14V758.29L151.73 674.86V415.95L55.68 332.52V0" stroke="#5D1FFE" stroke-miterlimit="10"/>
<path d="M83.27 1080.14V767.34L179.31 683.91V425L83.27 341.57V0" stroke="#661DFD" stroke-miterlimit="10"/>
<path d="M110.86 1080.14V776.39L206.9 692.96V434.05L110.86 350.62V0" stroke="#6E1CFD" stroke-miterlimit="10"/>
<path d="M138.44 1080.14V785.44L234.49 702.01V443.1L138.44 359.67V0" stroke="#771AFC" stroke-miterlimit="10"/>
<path d="M166.03 1080.14V794.48L262.08 711.05V452.14L166.03 368.71V0" stroke="#7F18FC" stroke-miterlimit="10"/>
<path d="M193.62 1080.14V803.53L289.67 720.1V461.19L193.62 377.76V0" stroke="#8817FB" stroke-miterlimit="10"/>
<path d="M221.21 1080.14V812.58L317.26 729.15V470.24L221.21 386.81V0" stroke="#9015FA" stroke-miterlimit="10"/>
<path d="M248.8 1080.14V821.63L344.85 738.2V479.29L248.8 395.86V0" stroke="#9913FA" stroke-miterlimit="10"/>
<path d="M276.39 1080.14V830.68L372.44 747.25V488.33L276.39 404.9V0" stroke="#A112F9" stroke-miterlimit="10"/>
<path d="M303.98 1080.14V839.72L400.03 756.29V497.38L303.98 413.95V0" stroke="#AA10F9" stroke-miterlimit="10"/>
<path d="M331.57 1080.14V848.77L427.61 765.34V506.43L331.57 423V0" stroke="#B20FF8" stroke-miterlimit="10"/>
<path d="M359.16 1080.14V857.82L455.2 774.39V515.48L359.16 432.05V0" stroke="#BB0DF8" stroke-miterlimit="10"/>
<path d="M386.74 1080.14V866.87L482.79 783.44V524.53L386.74 441.1V0" stroke="#C30BF7" stroke-miterlimit="10"/>
<path d="M414.33 1080.14V875.91L510.38 792.48V533.57L414.33 450.14V0" stroke="#CC0AF6" stroke-miterlimit="10"/>
<path d="M441.92 1080.14V884.96L537.97 801.53V542.62L441.92 459.19V0" stroke="#D408F6" stroke-miterlimit="10"/>
<path d="M469.51 1080.14V894.01L565.56 810.58V551.67L469.51 468.24V0" stroke="#DD06F5" stroke-miterlimit="10"/>
<path d="M497.1 1080.14V903.06L593.15 819.63V560.72L497.1 477.29V0" stroke="#E505F5" stroke-miterlimit="10"/>
<path d="M524.69 1080.14V912.1L620.74 828.67V569.76L524.69 486.33V0" stroke="#EE03F4" stroke-miterlimit="10"/>
<path d="M552.28 1080.14V921.15L648.33 837.72V578.81L552.28 495.38V0" stroke="#F602F4" stroke-miterlimit="10"/>
<path d="M579.87 1080.14V930.2L675.91 846.77V587.86L579.87 504.43V0" stroke="#FF00F3" stroke-miterlimit="10"/>
<path d="M615.87 1080.14V914.01L702.77 830.58V571.67L615.87 488.24V0" stroke="#FF00F3" stroke-miterlimit="10"/>
<path d="M651.88 1080.14V897.82L729.63 814.39V555.48L651.88 472.05V0" stroke="#FF00F3" stroke-miterlimit="10"/>
<path d="M687.89 1080.14V881.63L756.49 798.2V539.29L687.89 455.86V0" stroke="#FF00F3" stroke-miterlimit="10"/>
<path d="M723.89 1080.14V865.44L783.35 782.01V523.1L723.89 439.67V0" stroke="#FF00F3" stroke-miterlimit="10"/>
<path d="M759.9 1080.14V849.25L810.21 765.82V506.91L759.9 423.48V0" stroke="#FF00F3" stroke-miterlimit="10"/>
<path d="M795.91 1080.14V833.06L837.07 749.63V490.72L795.91 407.29V0" stroke="#FF00F3" stroke-miterlimit="10"/>
<path d="M831.92 1080.14V816.87L863.93 733.44V474.53L831.92 391.1V0" stroke="#FF00F3" stroke-miterlimit="10"/>
<path d="M867.92 1080.14V800.68L890.79 717.25V458.33L867.92 374.9V0" stroke="#FF00F3" stroke-miterlimit="10"/>
<path d="M903.93 1080.14V784.48L917.65 701.05V442.14L903.93 358.71V0" stroke="#FF00F3" stroke-miterlimit="10"/>
<path d="M939.94 1080.14V768.29L944.51 684.86V425.95L939.94 342.52V0" stroke="#FF00F3" stroke-miterlimit="10"/>
<path d="M975.94 1080.14V752.1L971.37 668.67V409.76L975.94 326.33V0" stroke="#FF00F3" stroke-miterlimit="10"/>
<path d="M1011.95 1080.14V735.91L998.23 652.48V393.57L1011.95 310.14V0" stroke="#FF00F3" stroke-miterlimit="10"/>
<path d="M1047.96 1080.14V719.72L1025.09 636.29V377.38L1047.96 293.95V0" stroke="#FF00F3" stroke-miterlimit="10"/>
<path d="M1083.96 1080.14V703.53L1051.95 620.1V361.19L1083.96 277.76V0" stroke="#FF00F3" stroke-miterlimit="10"/>
<path d="M1119.97 1080.14V687.34L1078.81 603.91V345L1119.97 261.57V0" stroke="#FF00F3" stroke-miterlimit="10"/>
<path d="M1155.98 1080.14V671.15L1105.67 587.72V328.81L1155.98 245.38V0" stroke="#FF00F3" stroke-miterlimit="10"/>
<path d="M1191.98 1080.14V654.96L1132.53 571.53V312.62L1191.98 229.19V0" stroke="#FF00F3" stroke-miterlimit="10"/>
<path d="M1227.99 1080.14V638.77L1159.38 555.34V296.43L1227.99 213V0" stroke="#FF00F3" stroke-miterlimit="10"/>
<path d="M1264 1080.14V622.58L1186.24 539.15V280.24L1264 196.81V0" stroke="#FF00F3" stroke-miterlimit="10"/>
<path d="M1300 1080.14V606.39L1213.1 522.96V264.05L1300 180.62V0" stroke="#FF00F3" stroke-miterlimit="10"/>
<path d="M1336.01 1080.14V590.2L1239.96 506.77V247.86L1336.01 164.43V0" stroke="#FF00F3" stroke-miterlimit="10"/>
<path d="M1361.7 1080.14V597.34L1265.66 513.91V255L1361.7 171.57V0" stroke="#F602F4" stroke-miterlimit="10"/>
<path d="M1387.4 1080.14V604.48L1291.35 521.05V262.14L1387.4 178.71V0" stroke="#EE03F4" stroke-miterlimit="10"/>
<path d="M1413.09 1080.14V611.63L1317.04 528.2V269.29L1413.09 185.86V0" stroke="#E505F5" stroke-miterlimit="10"/>
<path d="M1438.78 1080.14V618.77L1342.74 535.34V276.43L1438.78 193V0" stroke="#DD06F5" stroke-miterlimit="10"/>
<path d="M1464.48 1080.14V625.91L1368.43 542.48V283.57L1464.48 200.14V0" stroke="#D408F6" stroke-miterlimit="10"/>
<path d="M1490.17 1080.14V633.06L1394.12 549.63V290.72L1490.17 207.29V0" stroke="#CC0AF6" stroke-miterlimit="10"/>
<path d="M1515.86 1080.14V640.2L1419.82 556.77V297.86L1515.86 214.43V0" stroke="#C30BF7" stroke-miterlimit="10"/>
<path d="M1541.56 1080.14V647.34L1445.51 563.91V305L1541.56 221.57V0" stroke="#BB0DF8" stroke-miterlimit="10"/>
<path d="M1567.25 1080.14V654.48L1471.2 571.05V312.14L1567.25 228.71V0" stroke="#B20FF8" stroke-miterlimit="10"/>
<path d="M1592.94 1080.14V661.63L1496.9 578.2V319.29L1592.94 235.86V0" stroke="#AA10F9" stroke-miterlimit="10"/>
<path d="M1618.64 1080.14V668.77L1522.59 585.34V326.43L1618.64 243V0" stroke="#A112F9" stroke-miterlimit="10"/>
<path d="M1644.33 1080.14V675.91L1548.28 592.48V333.57L1644.33 250.14V0" stroke="#9913FA" stroke-miterlimit="10"/>
<path d="M1670.02 1080.14V683.06L1573.98 599.63V340.72L1670.02 257.29V0" stroke="#9015FA" stroke-miterlimit="10"/>
<path d="M1695.72 1080.14V690.2L1599.67 606.77V347.86L1695.72 264.43V0" stroke="#8817FB" stroke-miterlimit="10"/>
<path d="M1721.41 1080.14V697.34L1625.36 613.91V355L1721.41 271.57V0" stroke="#7F18FC" stroke-miterlimit="10"/>
<path d="M1747.1 1080.14V704.48L1651.06 621.05V362.14L1747.1 278.71V0" stroke="#771AFC" stroke-miterlimit="10"/>
<path d="M1772.8 1080.14V711.63L1676.75 628.2V369.29L1772.8 285.86V0" stroke="#6E1CFD" stroke-miterlimit="10"/>
<path d="M1798.49 1080.14V718.77L1702.44 635.34V376.43L1798.49 293V0" stroke="#661DFD" stroke-miterlimit="10"/>
<path d="M1824.18 1080.14V725.91L1728.14 642.48V383.57L1824.18 300.14V0" stroke="#5D1FFE" stroke-miterlimit="10"/>
<path d="M1849.88 1080.14V733.06L1753.83 649.63V390.72L1849.88 307.29V0" stroke="#5520FE" stroke-miterlimit="10"/>
<path d="M1875.57 1080.14V740.2L1779.52 656.77V397.86L1875.57 314.43V0" stroke="#4C22FF" stroke-miterlimit="10"/>
</g>
<defs>
<clipPath id="clip0_53_2301">
<rect width="1876.07" height="1080.14" fill="white"/>
</clipPath>
</defs>
</svg>
