<svg width="2302" height="2302" viewBox="0 0 2302 2302" fill="none" xmlns="http://www.w3.org/2000/svg">
<g clip-path="url(#clip0_53_2466)">
<path d="M2261 2301H41L1 2261V41L41 1H2261C2276.62 16.62 2285.38 25.38 2301 41V2261C2285.38 2276.62 2276.62 2285.38 2261 2301Z" stroke="#FF00F3" stroke-width="2" stroke-miterlimit="10"/>
<path d="M2234.7 107.3V2194.69L2194.7 2234.69H107.3C91.68 2219.07 82.92 2210.31 67.3 2194.69V107.3C82.92 91.6798 91.68 82.9198 107.3 67.2998H2194.69C2210.31 82.9198 2219.07 91.6798 2234.69 107.3H2234.7Z" stroke="#FF00F3" stroke-width="2" stroke-miterlimit="10"/>
<path d="M2168.39 173.61V2128.4C2152.77 2144.02 2144.01 2152.78 2128.39 2168.4H173.61C157.99 2152.78 149.23 2144.02 133.61 2128.4V173.61C149.23 157.99 157.99 149.23 173.61 133.61H2128.4C2144.02 149.23 2152.78 157.99 2168.4 173.61H2168.39Z" stroke="#FF00F3" stroke-width="2" stroke-miterlimit="10"/>
<path d="M2102.09 239.91V2062.09C2086.47 2077.71 2077.71 2086.47 2062.09 2102.09H239.91C224.29 2086.47 215.53 2077.71 199.91 2062.09V239.91C215.53 224.29 224.29 215.53 239.91 199.91H2062.09C2077.71 215.53 2086.47 224.29 2102.09 239.91Z" stroke="#FF00F3" stroke-width="2" stroke-miterlimit="10"/>
<path d="M2035.79 306.21V1995.78C2020.17 2011.4 2011.41 2020.16 1995.79 2035.78H306.21C290.59 2020.16 281.83 2011.4 266.21 1995.78V306.21C281.83 290.59 290.59 281.83 306.21 266.21H1995.78C2011.4 281.83 2020.16 290.59 2035.78 306.21H2035.79Z" stroke="#FF00F3" stroke-width="2" stroke-miterlimit="10"/>
<path d="M1969.48 372.52V1929.49C1953.86 1945.11 1945.1 1953.87 1929.48 1969.49H372.52C356.9 1953.87 348.14 1945.11 332.52 1929.49V372.52C348.14 356.9 356.9 348.14 372.52 332.52H1929.49L1969.49 372.52H1969.48Z" stroke="#FF00F3" stroke-width="2" stroke-miterlimit="10"/>
<path d="M1903.18 438.82V1863.18C1887.56 1878.8 1878.8 1887.56 1863.18 1903.18H438.82C423.2 1887.56 414.44 1878.8 398.82 1863.18V438.82C414.44 423.2 423.2 414.44 438.82 398.82H1863.18C1878.8 414.44 1887.56 423.2 1903.18 438.82Z" stroke="#FF00F3" stroke-width="2" stroke-miterlimit="10"/>
<path d="M1836.88 505.12V1796.87C1821.26 1812.49 1812.5 1821.25 1796.88 1836.87H505.12C489.5 1821.25 480.74 1812.49 465.12 1796.87V505.12C480.74 489.5 489.5 480.74 505.12 465.12H1796.87C1812.49 480.74 1821.25 489.5 1836.87 505.12H1836.88Z" stroke="#FF00F3" stroke-width="2" stroke-miterlimit="10"/>
<path d="M1770.57 571.43V1730.57C1754.95 1746.19 1746.19 1754.95 1730.57 1770.57H571.43C555.81 1754.95 547.05 1746.19 531.43 1730.57V571.43C547.05 555.81 555.81 547.05 571.43 531.43H1730.57L1770.57 571.43Z" stroke="#FF00F3" stroke-width="2" stroke-miterlimit="10"/>
<path d="M1704.27 637.73V1664.27C1688.65 1679.89 1679.89 1688.65 1664.27 1704.27H637.73C622.11 1688.65 613.35 1679.89 597.73 1664.27V637.73L637.73 597.73H1664.27C1679.89 613.35 1688.65 622.11 1704.27 637.73Z" stroke="#FF00F3" stroke-width="2" stroke-miterlimit="10"/>
<path d="M1637.97 704.03V1597.96C1622.35 1613.58 1613.59 1622.34 1597.97 1637.96H704.04C688.42 1622.34 679.66 1613.58 664.04 1597.96V704.03C679.66 688.41 688.42 679.65 704.04 664.03H1597.97C1613.59 679.65 1622.35 688.41 1637.97 704.03Z" stroke="#FF00F3" stroke-width="2" stroke-miterlimit="10"/>
<path d="M1531.66 1571.66H770.34C754.72 1556.04 745.96 1547.28 730.34 1531.66V770.34C745.96 754.72 754.72 745.96 770.34 730.34H1531.66C1547.28 745.96 1556.04 754.72 1571.66 770.34V1531.66L1531.66 1571.66Z" stroke="#FF00F3" stroke-width="2" stroke-miterlimit="10"/>
</g>
<defs>
<clipPath id="clip0_53_2466">
<rect width="2302" height="2302" fill="white"/>
</clipPath>
</defs>
</svg>
