<?xml version="1.0" encoding="UTF-8"?>
<svg id="Layer_2" data-name="Layer 2" xmlns="http://www.w3.org/2000/svg" viewBox="0 0 829.95 829.46">
  <defs>
    <style>
      .cls-1 {
        fill: #a8ff00;
      }
    </style>
  </defs>
  <g id="_ÎÓÈ_1" data-name="—ÎÓÈ_1">
    <g>
      <rect class="cls-1" x=".97" y=".97" width=".1" height=".1"/>
      <rect class="cls-1" x="36.73" y=".73" width=".58" height=".58"/>
      <rect class="cls-1" x="72.73" y=".73" width=".58" height=".58"/>
      <rect class="cls-1" x="108.68" y=".68" width=".68" height=".68"/>
      <rect class="cls-1" x="144.68" y=".68" width=".68" height=".68"/>
      <rect class="cls-1" x="180.63" y=".63" width=".78" height=".78"/>
      <rect class="cls-1" x="216.63" y=".63" width=".78" height=".78"/>
      <rect class="cls-1" x="252.58" y=".58" width=".88" height=".88"/>
      <rect class="cls-1" x="288.54" y=".54" width=".97" height=".97"/>
      <rect class="cls-1" x="324.54" y=".54" width=".97" height=".97"/>
      <rect class="cls-1" x="360.49" y=".49" width="1.07" height="1.07"/>
      <rect class="cls-1" x="396.44" y=".44" width="1.17" height="1.17"/>
      <rect class="cls-1" x="432.39" y=".39" width="1.27" height="1.27"/>
      <rect class="cls-1" x="468.34" y=".34" width="1.36" height="1.36"/>
      <rect class="cls-1" x="504.29" y=".29" width="1.46" height="1.46"/>
      <rect class="cls-1" x="540.24" y=".24" width="1.56" height="1.56"/>
      <rect class="cls-1" x="576.19" y=".19" width="1.66" height="1.66"/>
      <rect class="cls-1" x="612.15" y=".15" width="1.75" height="1.75"/>
      <rect class="cls-1" x="648.1" y=".1" width="1.85" height="1.85"/>
      <rect class="cls-1" x="684.1" y=".1" width="1.85" height="1.85"/>
      <rect class="cls-1" x="720.05" y=".05" width="1.95" height="1.95"/>
      <rect class="cls-1" x="756.05" y=".05" width="1.95" height="1.95"/>
      <rect class="cls-1" x="792" width="2.05" height="2.05"/>
      <rect class="cls-1" x="828.93" y=".93" width=".19" height=".19"/>
      <rect class="cls-1" x=".78" y="36.78" width=".49" height=".49"/>
      <rect class="cls-1" x="34.93" y="34.93" width="4.19" height="4.19"/>
      <rect class="cls-1" x="70.78" y="34.78" width="4.48" height="4.48"/>
      <rect class="cls-1" x="106.64" y="34.64" width="4.77" height="4.77"/>
      <rect class="cls-1" x="142.44" y="34.44" width="5.16" height="5.16"/>
      <rect class="cls-1" x="178.15" y="34.15" width="5.75" height="5.75"/>
      <rect class="cls-1" x="213.86" y="33.86" width="6.33" height="6.33"/>
      <rect class="cls-1" x="249.47" y="33.47" width="7.11" height="7.11"/>
      <rect class="cls-1" x="284.98" y="32.98" width="8.09" height="8.09"/>
      <rect class="cls-1" x="320.49" y="32.49" width="9.06" height="9.06"/>
      <rect class="cls-1" x="355.91" y="31.91" width="10.23" height="10.23"/>
      <rect class="cls-1" x="391.23" y="31.23" width="11.59" height="11.59"/>
      <rect class="cls-1" x="426.54" y="30.54" width="12.96" height="12.96"/>
      <rect class="cls-1" x="461.81" y="29.81" width="14.42" height="14.42"/>
      <rect class="cls-1" x="497.03" y="29.03" width="15.98" height="15.98"/>
      <rect class="cls-1" x="532.26" y="28.26" width="17.53" height="17.53"/>
      <rect class="cls-1" x="567.48" y="27.48" width="19.09" height="19.09"/>
      <rect class="cls-1" x="602.75" y="26.75" width="20.55" height="20.55"/>
      <rect class="cls-1" x="638.06" y="26.06" width="21.92" height="21.92"/>
      <rect class="cls-1" x="673.43" y="25.43" width="23.18" height="23.18"/>
      <rect class="cls-1" x="708.99" y="24.99" width="24.06" height="24.06"/>
      <rect class="cls-1" x="744.75" y="24.75" width="24.55" height="24.55"/>
      <rect class="cls-1" x="780.65" y="24.65" width="24.74" height="24.74"/>
      <rect class="cls-1" x="828.1" y="36.1" width="1.85" height="1.85"/>
      <rect class="cls-1" x=".78" y="72.78" width=".49" height=".49"/>
      <rect class="cls-1" x="34.88" y="70.88" width="4.29" height="4.29"/>
      <rect class="cls-1" x="70.73" y="70.73" width="4.58" height="4.58"/>
      <rect class="cls-1" x="106.59" y="70.59" width="4.87" height="4.87"/>
      <rect class="cls-1" x="142.39" y="70.39" width="5.26" height="5.26"/>
      <rect class="cls-1" x="178.15" y="70.15" width="5.75" height="5.75"/>
      <rect class="cls-1" x="213.81" y="69.81" width="6.43" height="6.43"/>
      <rect class="cls-1" x="249.42" y="69.42" width="7.21" height="7.21"/>
      <rect class="cls-1" x="284.98" y="68.98" width="8.09" height="8.09"/>
      <rect class="cls-1" x="320.44" y="68.44" width="9.16" height="9.16"/>
      <rect class="cls-1" x="355.86" y="67.86" width="10.33" height="10.33"/>
      <rect class="cls-1" x="391.23" y="67.23" width="11.59" height="11.59"/>
      <rect class="cls-1" x="426.54" y="66.54" width="12.96" height="12.96"/>
      <rect class="cls-1" x="461.81" y="65.81" width="14.42" height="14.42"/>
      <rect class="cls-1" x="497.08" y="65.08" width="15.88" height="15.88"/>
      <rect class="cls-1" x="532.3" y="64.3" width="17.44" height="17.44"/>
      <rect class="cls-1" x="567.53" y="63.53" width="19" height="19"/>
      <rect class="cls-1" x="602.79" y="62.79" width="20.46" height="20.46"/>
      <rect class="cls-1" x="638.11" y="62.11" width="21.82" height="21.82"/>
      <rect class="cls-1" x="673.53" y="61.53" width="22.99" height="22.99"/>
      <rect class="cls-1" x="709.04" y="61.04" width="23.96" height="23.96"/>
      <rect class="cls-1" x="744.75" y="60.75" width="24.55" height="24.55"/>
      <rect class="cls-1" x="780.65" y="60.65" width="24.74" height="24.74"/>
      <rect class="cls-1" x="828.1" y="72.1" width="1.85" height="1.85"/>
      <rect class="cls-1" x=".78" y="108.78" width=".49" height=".49"/>
      <rect class="cls-1" x="34.83" y="106.83" width="4.38" height="4.38"/>
      <rect class="cls-1" x="70.68" y="106.68" width="4.68" height="4.68"/>
      <rect class="cls-1" x="106.54" y="106.54" width="4.97" height="4.97"/>
      <rect class="cls-1" x="142.3" y="106.3" width="5.45" height="5.45"/>
      <rect class="cls-1" x="178.05" y="106.05" width="5.94" height="5.94"/>
      <rect class="cls-1" x="213.71" y="105.71" width="6.62" height="6.62"/>
      <rect class="cls-1" x="249.32" y="105.32" width="7.4" height="7.4"/>
      <rect class="cls-1" x="284.88" y="104.88" width="8.28" height="8.28"/>
      <rect class="cls-1" x="320.4" y="104.4" width="9.25" height="9.25"/>
      <rect class="cls-1" x="355.86" y="103.86" width="10.33" height="10.33"/>
      <rect class="cls-1" x="391.23" y="103.23" width="11.59" height="11.59"/>
      <rect class="cls-1" x="426.59" y="102.59" width="12.86" height="12.86"/>
      <rect class="cls-1" x="461.86" y="101.86" width="14.32" height="14.32"/>
      <rect class="cls-1" x="497.13" y="101.13" width="15.78" height="15.78"/>
      <rect class="cls-1" x="532.4" y="100.4" width="17.24" height="17.24"/>
      <rect class="cls-1" x="567.62" y="99.62" width="18.8" height="18.8"/>
      <rect class="cls-1" x="602.94" y="98.94" width="20.16" height="20.16"/>
      <rect class="cls-1" x="638.26" y="98.26" width="21.53" height="21.53"/>
      <rect class="cls-1" x="673.67" y="97.67" width="22.7" height="22.7"/>
      <rect class="cls-1" x="709.14" y="97.14" width="23.77" height="23.77"/>
      <rect class="cls-1" x="744.8" y="96.8" width="24.45" height="24.45"/>
      <rect class="cls-1" x="780.65" y="96.65" width="24.74" height="24.74"/>
      <rect class="cls-1" x="828.1" y="108.1" width="1.85" height="1.85"/>
      <rect class="cls-1" x=".78" y="144.78" width=".49" height=".49"/>
      <rect class="cls-1" x="34.73" y="142.73" width="4.58" height="4.58"/>
      <rect class="cls-1" x="70.59" y="142.59" width="4.87" height="4.87"/>
      <rect class="cls-1" x="106.39" y="142.39" width="5.26" height="5.26"/>
      <rect class="cls-1" x="142.2" y="142.2" width="5.65" height="5.65"/>
      <rect class="cls-1" x="177.91" y="141.91" width="6.23" height="6.23"/>
      <rect class="cls-1" x="213.61" y="141.61" width="6.82" height="6.82"/>
      <rect class="cls-1" x="249.22" y="141.22" width="7.6" height="7.6"/>
      <rect class="cls-1" x="284.79" y="140.79" width="8.47" height="8.47"/>
      <rect class="cls-1" x="320.3" y="140.3" width="9.45" height="9.45"/>
      <rect class="cls-1" x="355.76" y="139.76" width="10.52" height="10.52"/>
      <rect class="cls-1" x="391.23" y="139.23" width="11.59" height="11.59"/>
      <rect class="cls-1" x="426.59" y="138.59" width="12.86" height="12.86"/>
      <rect class="cls-1" x="461.96" y="137.96" width="14.12" height="14.12"/>
      <rect class="cls-1" x="497.23" y="137.23" width="15.59" height="15.59"/>
      <rect class="cls-1" x="532.55" y="136.55" width="16.95" height="16.95"/>
      <rect class="cls-1" x="567.82" y="135.82" width="18.41" height="18.41"/>
      <rect class="cls-1" x="603.14" y="135.14" width="19.77" height="19.77"/>
      <rect class="cls-1" x="638.5" y="134.5" width="21.04" height="21.04"/>
      <rect class="cls-1" x="673.87" y="133.87" width="22.31" height="22.31"/>
      <rect class="cls-1" x="709.38" y="133.38" width="23.28" height="23.28"/>
      <rect class="cls-1" x="744.94" y="132.94" width="24.16" height="24.16"/>
      <rect class="cls-1" x="780.7" y="132.7" width="24.65" height="24.65"/>
      <rect class="cls-1" x="828.1" y="144.1" width="1.85" height="1.85"/>
      <rect class="cls-1" x=".78" y="180.78" width=".49" height=".49"/>
      <rect class="cls-1" x="34.54" y="178.54" width="4.97" height="4.97"/>
      <rect class="cls-1" x="70.39" y="178.39" width="5.26" height="5.26"/>
      <rect class="cls-1" x="106.2" y="178.2" width="5.65" height="5.65"/>
      <rect class="cls-1" x="142" y="178" width="6.04" height="6.04"/>
      <rect class="cls-1" x="177.76" y="177.76" width="6.53" height="6.53"/>
      <rect class="cls-1" x="213.42" y="177.42" width="7.21" height="7.21"/>
      <rect class="cls-1" x="249.08" y="177.08" width="7.89" height="7.89"/>
      <rect class="cls-1" x="284.64" y="176.64" width="8.77" height="8.77"/>
      <rect class="cls-1" x="320.2" y="176.2" width="9.64" height="9.64"/>
      <rect class="cls-1" x="355.71" y="175.71" width="10.62" height="10.62"/>
      <rect class="cls-1" x="391.18" y="175.18" width="11.69" height="11.69"/>
      <rect class="cls-1" x="426.64" y="174.64" width="12.76" height="12.76"/>
      <rect class="cls-1" x="462.01" y="174.01" width="14.03" height="14.03"/>
      <rect class="cls-1" x="497.38" y="173.38" width="15.29" height="15.29"/>
      <rect class="cls-1" x="532.74" y="172.74" width="16.56" height="16.56"/>
      <rect class="cls-1" x="568.06" y="172.06" width="17.92" height="17.92"/>
      <rect class="cls-1" x="603.43" y="171.43" width="19.19" height="19.19"/>
      <rect class="cls-1" x="638.84" y="170.84" width="20.36" height="20.36"/>
      <rect class="cls-1" x="674.26" y="170.26" width="21.53" height="21.53"/>
      <rect class="cls-1" x="709.77" y="169.77" width="22.5" height="22.5"/>
      <rect class="cls-1" x="745.33" y="169.33" width="23.38" height="23.38"/>
      <rect class="cls-1" x="781.04" y="169.04" width="23.96" height="23.96"/>
      <rect class="cls-1" x="828.1" y="180.1" width="1.85" height="1.85"/>
      <rect class="cls-1" x=".73" y="216.73" width=".58" height=".58"/>
      <rect class="cls-1" x="34.3" y="214.3" width="5.45" height="5.45"/>
      <rect class="cls-1" x="70.15" y="214.15" width="5.75" height="5.75"/>
      <rect class="cls-1" x="105.95" y="213.95" width="6.14" height="6.14"/>
      <rect class="cls-1" x="141.76" y="213.76" width="6.53" height="6.53"/>
      <rect class="cls-1" x="177.52" y="213.52" width="7.01" height="7.01"/>
      <rect class="cls-1" x="213.17" y="213.17" width="7.7" height="7.7"/>
      <rect class="cls-1" x="248.88" y="212.88" width="8.28" height="8.28"/>
      <rect class="cls-1" x="284.49" y="212.49" width="9.06" height="9.06"/>
      <rect class="cls-1" x="320.1" y="212.1" width="9.84" height="9.84"/>
      <rect class="cls-1" x="355.62" y="211.62" width="10.81" height="10.81"/>
      <rect class="cls-1" x="391.18" y="211.18" width="11.69" height="11.69"/>
      <rect class="cls-1" x="426.64" y="210.64" width="12.76" height="12.76"/>
      <rect class="cls-1" x="462.11" y="210.11" width="13.83" height="13.83"/>
      <rect class="cls-1" x="497.57" y="209.57" width="14.9" height="14.9"/>
      <rect class="cls-1" x="532.99" y="208.99" width="16.07" height="16.07"/>
      <rect class="cls-1" x="568.4" y="208.4" width="17.24" height="17.24"/>
      <rect class="cls-1" x="603.82" y="207.82" width="18.41" height="18.41"/>
      <rect class="cls-1" x="639.28" y="207.28" width="19.48" height="19.48"/>
      <rect class="cls-1" x="674.79" y="206.79" width="20.46" height="20.46"/>
      <rect class="cls-1" x="710.31" y="206.31" width="21.43" height="21.43"/>
      <rect class="cls-1" x="745.97" y="205.97" width="22.11" height="22.11"/>
      <rect class="cls-1" x="781.67" y="205.67" width="22.7" height="22.7"/>
      <rect class="cls-1" x="828.15" y="216.15" width="1.75" height="1.75"/>
      <rect class="cls-1" x=".68" y="252.68" width=".68" height=".68"/>
      <rect class="cls-1" x="33.95" y="249.95" width="6.14" height="6.14"/>
      <rect class="cls-1" x="69.76" y="249.76" width="6.53" height="6.53"/>
      <rect class="cls-1" x="105.61" y="249.61" width="6.82" height="6.82"/>
      <rect class="cls-1" x="141.42" y="249.42" width="7.21" height="7.21"/>
      <rect class="cls-1" x="177.17" y="249.17" width="7.7" height="7.7"/>
      <rect class="cls-1" x="212.93" y="248.93" width="8.18" height="8.18"/>
      <rect class="cls-1" x="248.64" y="248.64" width="8.77" height="8.77"/>
      <rect class="cls-1" x="284.3" y="248.3" width="9.45" height="9.45"/>
      <rect class="cls-1" x="319.91" y="247.91" width="10.23" height="10.23"/>
      <rect class="cls-1" x="355.52" y="247.52" width="11.01" height="11.01"/>
      <rect class="cls-1" x="391.13" y="247.13" width="11.79" height="11.79"/>
      <rect class="cls-1" x="426.69" y="246.69" width="12.66" height="12.66"/>
      <rect class="cls-1" x="462.25" y="246.25" width="13.54" height="13.54"/>
      <rect class="cls-1" x="497.77" y="245.77" width="14.51" height="14.51"/>
      <rect class="cls-1" x="533.28" y="245.28" width="15.49" height="15.49"/>
      <rect class="cls-1" x="568.79" y="244.79" width="16.46" height="16.46"/>
      <rect class="cls-1" x="604.3" y="244.3" width="17.44" height="17.44"/>
      <rect class="cls-1" x="639.87" y="243.87" width="18.31" height="18.31"/>
      <rect class="cls-1" x="675.43" y="243.43" width="19.19" height="19.19"/>
      <rect class="cls-1" x="711.04" y="243.04" width="19.97" height="19.97"/>
      <rect class="cls-1" x="746.75" y="242.75" width="20.55" height="20.55"/>
      <rect class="cls-1" x="782.55" y="242.55" width="20.94" height="20.94"/>
      <rect class="cls-1" x="828.24" y="252.24" width="1.56" height="1.56"/>
      <rect class="cls-1" x=".68" y="288.68" width=".68" height=".68"/>
      <rect class="cls-1" x="33.52" y="285.52" width="7.01" height="7.01"/>
      <rect class="cls-1" x="69.32" y="285.32" width="7.4" height="7.4"/>
      <rect class="cls-1" x="105.17" y="285.17" width="7.7" height="7.7"/>
      <rect class="cls-1" x="141.03" y="285.03" width="7.99" height="7.99"/>
      <rect class="cls-1" x="176.83" y="284.83" width="8.38" height="8.38"/>
      <rect class="cls-1" x="212.59" y="284.59" width="8.86" height="8.86"/>
      <rect class="cls-1" x="248.35" y="284.35" width="9.35" height="9.35"/>
      <rect class="cls-1" x="284.05" y="284.05" width="9.94" height="9.94"/>
      <rect class="cls-1" x="319.76" y="283.76" width="10.52" height="10.52"/>
      <rect class="cls-1" x="355.42" y="283.42" width="11.2" height="11.2"/>
      <rect class="cls-1" x="391.13" y="283.13" width="11.79" height="11.79"/>
      <rect class="cls-1" x="426.74" y="282.74" width="12.57" height="12.57"/>
      <rect class="cls-1" x="462.4" y="282.4" width="13.25" height="13.25"/>
      <rect class="cls-1" x="498.01" y="282.01" width="14.03" height="14.03"/>
      <rect class="cls-1" x="533.62" y="281.62" width="14.81" height="14.81"/>
      <rect class="cls-1" x="569.23" y="281.23" width="15.59" height="15.59"/>
      <rect class="cls-1" x="604.84" y="280.84" width="16.37" height="16.37"/>
      <rect class="cls-1" x="640.5" y="280.5" width="17.05" height="17.05"/>
      <rect class="cls-1" x="676.16" y="280.16" width="17.73" height="17.73"/>
      <rect class="cls-1" x="711.87" y="279.87" width="18.31" height="18.31"/>
      <rect class="cls-1" x="747.62" y="279.62" width="18.8" height="18.8"/>
      <rect class="cls-1" x="783.48" y="279.48" width="19.09" height="19.09"/>
      <rect class="cls-1" x="828.29" y="288.29" width="1.46" height="1.46"/>
      <rect class="cls-1" x=".63" y="324.63" width=".78" height=".78"/>
      <rect class="cls-1" x="32.98" y="320.98" width="8.09" height="8.09"/>
      <rect class="cls-1" x="68.79" y="320.79" width="8.47" height="8.47"/>
      <rect class="cls-1" x="104.69" y="320.69" width="8.67" height="8.67"/>
      <rect class="cls-1" x="140.54" y="320.54" width="8.96" height="8.96"/>
      <rect class="cls-1" x="176.35" y="320.35" width="9.35" height="9.35"/>
      <rect class="cls-1" x="212.2" y="320.2" width="9.64" height="9.64"/>
      <rect class="cls-1" x="248.01" y="320.01" width="10.03" height="10.03"/>
      <rect class="cls-1" x="283.76" y="319.76" width="10.52" height="10.52"/>
      <rect class="cls-1" x="319.52" y="319.52" width="11.01" height="11.01"/>
      <rect class="cls-1" x="355.32" y="319.32" width="11.4" height="11.4"/>
      <rect class="cls-1" x="391.08" y="319.08" width="11.88" height="11.88"/>
      <rect class="cls-1" x="426.79" y="318.79" width="12.47" height="12.47"/>
      <rect class="cls-1" x="462.54" y="318.54" width="12.96" height="12.96"/>
      <rect class="cls-1" x="498.25" y="318.25" width="13.54" height="13.54"/>
      <rect class="cls-1" x="534.01" y="318.01" width="14.03" height="14.03"/>
      <rect class="cls-1" x="569.72" y="317.72" width="14.61" height="14.61"/>
      <rect class="cls-1" x="605.42" y="317.42" width="15.2" height="15.2"/>
      <rect class="cls-1" x="641.18" y="317.18" width="15.68" height="15.68"/>
      <rect class="cls-1" x="676.94" y="316.94" width="16.17" height="16.17"/>
      <rect class="cls-1" x="712.74" y="316.74" width="16.56" height="16.56"/>
      <rect class="cls-1" x="748.55" y="316.55" width="16.95" height="16.95"/>
      <rect class="cls-1" x="784.45" y="316.45" width="17.14" height="17.14"/>
      <rect class="cls-1" x="828.39" y="324.39" width="1.27" height="1.27"/>
      <rect class="cls-1" x=".58" y="360.58" width=".88" height=".88"/>
      <rect class="cls-1" x="32.35" y="356.35" width="9.35" height="9.35"/>
      <rect class="cls-1" x="68.15" y="356.15" width="9.74" height="9.74"/>
      <rect class="cls-1" x="104.05" y="356.05" width="9.94" height="9.94"/>
      <rect class="cls-1" x="140.01" y="356.01" width="10.03" height="10.03"/>
      <rect class="cls-1" x="175.86" y="355.86" width="10.33" height="10.33"/>
      <rect class="cls-1" x="211.76" y="355.76" width="10.52" height="10.52"/>
      <rect class="cls-1" x="247.57" y="355.57" width="10.91" height="10.91"/>
      <rect class="cls-1" x="283.47" y="355.47" width="11.1" height="11.1"/>
      <rect class="cls-1" x="319.32" y="355.32" width="11.4" height="11.4"/>
      <rect class="cls-1" x="355.18" y="355.18" width="11.69" height="11.69"/>
      <rect class="cls-1" x="390.98" y="354.98" width="12.08" height="12.08"/>
      <rect class="cls-1" x="426.89" y="354.89" width="12.27" height="12.27"/>
      <rect class="cls-1" x="462.69" y="354.69" width="12.66" height="12.66"/>
      <rect class="cls-1" x="498.54" y="354.54" width="12.96" height="12.96"/>
      <rect class="cls-1" x="534.35" y="354.35" width="13.35" height="13.35"/>
      <rect class="cls-1" x="570.2" y="354.2" width="13.64" height="13.64"/>
      <rect class="cls-1" x="606.06" y="354.06" width="13.93" height="13.93"/>
      <rect class="cls-1" x="641.91" y="353.91" width="14.22" height="14.22"/>
      <rect class="cls-1" x="677.72" y="353.72" width="14.61" height="14.61"/>
      <rect class="cls-1" x="713.62" y="353.62" width="14.81" height="14.81"/>
      <rect class="cls-1" x="749.52" y="353.52" width="15" height="15"/>
      <rect class="cls-1" x="785.42" y="353.42" width="15.2" height="15.2"/>
      <rect class="cls-1" x="828.44" y="360.44" width="1.17" height="1.17"/>
      <rect class="cls-1" x=".54" y="396.54" width=".97" height=".97"/>
      <rect class="cls-1" x="31.67" y="391.67" width="10.72" height="10.72"/>
      <rect class="cls-1" x="67.47" y="391.47" width="11.1" height="11.1"/>
      <rect class="cls-1" x="103.42" y="391.42" width="11.2" height="11.2"/>
      <rect class="cls-1" x="139.37" y="391.37" width="11.3" height="11.3"/>
      <rect class="cls-1" x="175.32" y="391.32" width="11.4" height="11.4"/>
      <rect class="cls-1" x="211.23" y="391.23" width="11.59" height="11.59"/>
      <rect class="cls-1" x="247.18" y="391.18" width="11.69" height="11.69"/>
      <rect class="cls-1" x="283.13" y="391.13" width="11.79" height="11.79"/>
      <rect class="cls-1" x="319.08" y="391.08" width="11.88" height="11.88"/>
      <rect class="cls-1" x="355.03" y="391.03" width="11.98" height="11.98"/>
      <rect class="cls-1" x="390.93" y="390.93" width="12.18" height="12.18"/>
      <rect class="cls-1" x="426.93" y="390.93" width="12.18" height="12.18"/>
      <rect class="cls-1" x="462.89" y="390.89" width="12.27" height="12.27"/>
      <rect class="cls-1" x="498.79" y="390.79" width="12.47" height="12.47"/>
      <rect class="cls-1" x="534.74" y="390.74" width="12.57" height="12.57"/>
      <rect class="cls-1" x="570.69" y="390.69" width="12.66" height="12.66"/>
      <rect class="cls-1" x="606.64" y="390.64" width="12.76" height="12.76"/>
      <rect class="cls-1" x="642.54" y="390.54" width="12.96" height="12.96"/>
      <rect class="cls-1" x="678.5" y="390.5" width="13.05" height="13.05"/>
      <rect class="cls-1" x="714.45" y="390.45" width="13.15" height="13.15"/>
      <rect class="cls-1" x="750.4" y="390.4" width="13.25" height="13.25"/>
      <rect class="cls-1" x="786.4" y="390.4" width="13.25" height="13.25"/>
      <rect class="cls-1" x="828.54" y="396.54" width=".97" height=".97"/>
      <rect class="cls-1" x=".44" y="432.44" width="1.17" height="1.17"/>
      <rect class="cls-1" x="30.89" y="426.89" width="12.27" height="12.27"/>
      <rect class="cls-1" x="66.64" y="426.64" width="12.76" height="12.76"/>
      <rect class="cls-1" x="102.69" y="426.69" width="12.66" height="12.66"/>
      <rect class="cls-1" x="138.69" y="426.69" width="12.66" height="12.66"/>
      <rect class="cls-1" x="174.69" y="426.69" width="12.66" height="12.66"/>
      <rect class="cls-1" x="210.69" y="426.69" width="12.66" height="12.66"/>
      <rect class="cls-1" x="246.74" y="426.74" width="12.57" height="12.57"/>
      <rect class="cls-1" x="282.74" y="426.74" width="12.57" height="12.57"/>
      <rect class="cls-1" x="318.79" y="426.79" width="12.47" height="12.47"/>
      <rect class="cls-1" x="354.84" y="426.84" width="12.37" height="12.37"/>
      <rect class="cls-1" x="390.89" y="426.89" width="12.27" height="12.27"/>
      <rect class="cls-1" x="426.93" y="426.93" width="12.18" height="12.18"/>
      <rect class="cls-1" x="462.98" y="426.98" width="12.08" height="12.08"/>
      <rect class="cls-1" x="499.08" y="427.08" width="11.88" height="11.88"/>
      <rect class="cls-1" x="535.13" y="427.13" width="11.79" height="11.79"/>
      <rect class="cls-1" x="571.13" y="427.13" width="11.79" height="11.79"/>
      <rect class="cls-1" x="607.18" y="427.18" width="11.69" height="11.69"/>
      <rect class="cls-1" x="643.23" y="427.23" width="11.59" height="11.59"/>
      <rect class="cls-1" x="679.23" y="427.23" width="11.59" height="11.59"/>
      <rect class="cls-1" x="715.23" y="427.23" width="11.59" height="11.59"/>
      <rect class="cls-1" x="751.23" y="427.23" width="11.59" height="11.59"/>
      <rect class="cls-1" x="787.23" y="427.23" width="11.59" height="11.59"/>
      <rect class="cls-1" x="828.58" y="432.58" width=".88" height=".88"/>
      <rect class="cls-1" x=".39" y="468.39" width="1.27" height="1.27"/>
      <rect class="cls-1" x="30.11" y="462.11" width="13.83" height="13.83"/>
      <rect class="cls-1" x="65.81" y="461.81" width="14.42" height="14.42"/>
      <rect class="cls-1" x="101.86" y="461.86" width="14.32" height="14.32"/>
      <rect class="cls-1" x="137.91" y="461.91" width="14.22" height="14.22"/>
      <rect class="cls-1" x="174.01" y="462.01" width="14.03" height="14.03"/>
      <rect class="cls-1" x="210.11" y="462.11" width="13.83" height="13.83"/>
      <rect class="cls-1" x="246.25" y="462.25" width="13.54" height="13.54"/>
      <rect class="cls-1" x="282.35" y="462.35" width="13.35" height="13.35"/>
      <rect class="cls-1" x="318.54" y="462.54" width="12.96" height="12.96"/>
      <rect class="cls-1" x="354.69" y="462.69" width="12.66" height="12.66"/>
      <rect class="cls-1" x="390.84" y="462.84" width="12.37" height="12.37"/>
      <rect class="cls-1" x="426.98" y="462.98" width="12.08" height="12.08"/>
      <rect class="cls-1" x="463.18" y="463.18" width="11.69" height="11.69"/>
      <rect class="cls-1" x="499.32" y="463.32" width="11.4" height="11.4"/>
      <rect class="cls-1" x="535.47" y="463.47" width="11.1" height="11.1"/>
      <rect class="cls-1" x="571.57" y="463.57" width="10.91" height="10.91"/>
      <rect class="cls-1" x="607.71" y="463.71" width="10.62" height="10.62"/>
      <rect class="cls-1" x="643.81" y="463.81" width="10.42" height="10.42"/>
      <rect class="cls-1" x="679.91" y="463.91" width="10.23" height="10.23"/>
      <rect class="cls-1" x="715.96" y="463.96" width="10.13" height="10.13"/>
      <rect class="cls-1" x="752.01" y="464.01" width="10.03" height="10.03"/>
      <rect class="cls-1" x="788.01" y="464.01" width="10.03" height="10.03"/>
      <rect class="cls-1" x="828.63" y="468.63" width=".78" height=".78"/>
      <rect class="cls-1" x=".34" y="504.34" width="1.36" height="1.36"/>
      <rect class="cls-1" x="29.18" y="497.18" width="15.68" height="15.68"/>
      <rect class="cls-1" x="64.94" y="496.94" width="16.17" height="16.17"/>
      <rect class="cls-1" x="101.03" y="497.03" width="15.98" height="15.98"/>
      <rect class="cls-1" x="137.13" y="497.13" width="15.78" height="15.78"/>
      <rect class="cls-1" x="173.28" y="497.28" width="15.49" height="15.49"/>
      <rect class="cls-1" x="209.52" y="497.52" width="15" height="15"/>
      <rect class="cls-1" x="245.72" y="497.72" width="14.61" height="14.61"/>
      <rect class="cls-1" x="281.96" y="497.96" width="14.12" height="14.12"/>
      <rect class="cls-1" x="318.25" y="498.25" width="13.54" height="13.54"/>
      <rect class="cls-1" x="354.5" y="498.5" width="13.05" height="13.05"/>
      <rect class="cls-1" x="390.79" y="498.79" width="12.47" height="12.47"/>
      <rect class="cls-1" x="427.03" y="499.03" width="11.98" height="11.98"/>
      <rect class="cls-1" x="463.32" y="499.32" width="11.4" height="11.4"/>
      <rect class="cls-1" x="499.57" y="499.57" width="10.91" height="10.91"/>
      <rect class="cls-1" x="535.81" y="499.81" width="10.42" height="10.42"/>
      <rect class="cls-1" x="572.01" y="500.01" width="10.03" height="10.03"/>
      <rect class="cls-1" x="608.2" y="500.2" width="9.64" height="9.64"/>
      <rect class="cls-1" x="644.35" y="500.35" width="9.35" height="9.35"/>
      <rect class="cls-1" x="680.49" y="500.49" width="9.06" height="9.06"/>
      <rect class="cls-1" x="716.59" y="500.59" width="8.86" height="8.86"/>
      <rect class="cls-1" x="752.69" y="500.69" width="8.67" height="8.67"/>
      <rect class="cls-1" x="788.74" y="500.74" width="8.57" height="8.57"/>
      <rect class="cls-1" x="828.68" y="504.68" width=".68" height=".68"/>
      <rect class="cls-1" x=".24" y="540.24" width="1.56" height="1.56"/>
      <rect class="cls-1" x="28.3" y="532.3" width="17.44" height="17.44"/>
      <rect class="cls-1" x="64.01" y="532.01" width="18.02" height="18.02"/>
      <rect class="cls-1" x="100.16" y="532.16" width="17.73" height="17.73"/>
      <rect class="cls-1" x="136.35" y="532.35" width="17.34" height="17.34"/>
      <rect class="cls-1" x="172.6" y="532.6" width="16.85" height="16.85"/>
      <rect class="cls-1" x="208.89" y="532.89" width="16.27" height="16.27"/>
      <rect class="cls-1" x="245.23" y="533.23" width="15.59" height="15.59"/>
      <rect class="cls-1" x="281.57" y="533.57" width="14.9" height="14.9"/>
      <rect class="cls-1" x="317.96" y="533.96" width="14.12" height="14.12"/>
      <rect class="cls-1" x="354.3" y="534.3" width="13.44" height="13.44"/>
      <rect class="cls-1" x="390.74" y="534.74" width="12.57" height="12.57"/>
      <rect class="cls-1" x="427.08" y="535.08" width="11.88" height="11.88"/>
      <rect class="cls-1" x="463.42" y="535.42" width="11.2" height="11.2"/>
      <rect class="cls-1" x="499.76" y="535.76" width="10.52" height="10.52"/>
      <rect class="cls-1" x="536.1" y="536.1" width="9.84" height="9.84"/>
      <rect class="cls-1" x="572.35" y="536.35" width="9.35" height="9.35"/>
      <rect class="cls-1" x="608.64" y="536.64" width="8.77" height="8.77"/>
      <rect class="cls-1" x="644.83" y="536.83" width="8.38" height="8.38"/>
      <rect class="cls-1" x="681.03" y="537.03" width="7.99" height="7.99"/>
      <rect class="cls-1" x="717.17" y="537.17" width="7.7" height="7.7"/>
      <rect class="cls-1" x="753.22" y="537.22" width="7.6" height="7.6"/>
      <rect class="cls-1" x="789.27" y="537.27" width="7.5" height="7.5"/>
      <rect class="cls-1" x="828.73" y="540.73" width=".58" height=".58"/>
      <rect class="cls-1" x=".19" y="576.19" width="1.66" height="1.66"/>
      <rect class="cls-1" x="27.48" y="567.48" width="19.09" height="19.09"/>
      <rect class="cls-1" x="63.14" y="567.14" width="19.77" height="19.77"/>
      <rect class="cls-1" x="99.28" y="567.28" width="19.48" height="19.48"/>
      <rect class="cls-1" x="135.57" y="567.57" width="18.9" height="18.9"/>
      <rect class="cls-1" x="171.87" y="567.87" width="18.31" height="18.31"/>
      <rect class="cls-1" x="208.26" y="568.26" width="17.53" height="17.53"/>
      <rect class="cls-1" x="244.69" y="568.69" width="16.66" height="16.66"/>
      <rect class="cls-1" x="281.18" y="569.18" width="15.68" height="15.68"/>
      <rect class="cls-1" x="317.67" y="569.67" width="14.71" height="14.71"/>
      <rect class="cls-1" x="354.16" y="570.16" width="13.73" height="13.73"/>
      <rect class="cls-1" x="390.64" y="570.64" width="12.76" height="12.76"/>
      <rect class="cls-1" x="427.08" y="571.08" width="11.88" height="11.88"/>
      <rect class="cls-1" x="463.52" y="571.52" width="11.01" height="11.01"/>
      <rect class="cls-1" x="499.96" y="571.96" width="10.13" height="10.13"/>
      <rect class="cls-1" x="536.35" y="572.35" width="9.35" height="9.35"/>
      <rect class="cls-1" x="572.69" y="572.69" width="8.67" height="8.67"/>
      <rect class="cls-1" x="608.98" y="572.98" width="8.09" height="8.09"/>
      <rect class="cls-1" x="645.27" y="573.27" width="7.5" height="7.5"/>
      <rect class="cls-1" x="681.47" y="573.47" width="7.11" height="7.11"/>
      <rect class="cls-1" x="717.61" y="573.61" width="6.82" height="6.82"/>
      <rect class="cls-1" x="753.76" y="573.76" width="6.53" height="6.53"/>
      <rect class="cls-1" x="789.81" y="573.81" width="6.43" height="6.43"/>
      <rect class="cls-1" x="828.78" y="576.78" width=".49" height=".49"/>
      <rect class="cls-1" x=".15" y="612.15" width="1.75" height="1.75"/>
      <rect class="cls-1" x="26.65" y="602.65" width="20.75" height="20.75"/>
      <rect class="cls-1" x="62.31" y="602.31" width="21.43" height="21.43"/>
      <rect class="cls-1" x="98.5" y="602.5" width="21.04" height="21.04"/>
      <rect class="cls-1" x="134.84" y="602.84" width="20.36" height="20.36"/>
      <rect class="cls-1" x="171.23" y="603.23" width="19.58" height="19.58"/>
      <rect class="cls-1" x="207.67" y="603.67" width="18.7" height="18.7"/>
      <rect class="cls-1" x="244.26" y="604.26" width="17.53" height="17.53"/>
      <rect class="cls-1" x="280.79" y="604.79" width="16.46" height="16.46"/>
      <rect class="cls-1" x="317.42" y="605.42" width="15.2" height="15.2"/>
      <rect class="cls-1" x="354.01" y="606.01" width="14.03" height="14.03"/>
      <rect class="cls-1" x="390.59" y="606.59" width="12.86" height="12.86"/>
      <rect class="cls-1" x="427.13" y="607.13" width="11.79" height="11.79"/>
      <rect class="cls-1" x="463.67" y="607.67" width="10.72" height="10.72"/>
      <rect class="cls-1" x="500.15" y="608.15" width="9.74" height="9.74"/>
      <rect class="cls-1" x="536.54" y="608.54" width="8.96" height="8.96"/>
      <rect class="cls-1" x="572.98" y="608.98" width="8.09" height="8.09"/>
      <rect class="cls-1" x="609.32" y="609.32" width="7.4" height="7.4"/>
      <rect class="cls-1" x="645.61" y="609.61" width="6.82" height="6.82"/>
      <rect class="cls-1" x="681.86" y="609.86" width="6.33" height="6.33"/>
      <rect class="cls-1" x="718.05" y="610.05" width="5.94" height="5.94"/>
      <rect class="cls-1" x="754.15" y="610.15" width="5.75" height="5.75"/>
      <rect class="cls-1" x="790.2" y="610.2" width="5.65" height="5.65"/>
      <rect class="cls-1" x="828.83" y="612.83" width=".39" height=".39"/>
      <rect class="cls-1" x=".05" y="648.05" width="1.95" height="1.95"/>
      <rect class="cls-1" x="25.97" y="637.97" width="22.11" height="22.11"/>
      <rect class="cls-1" x="61.58" y="637.58" width="22.89" height="22.89"/>
      <rect class="cls-1" x="97.82" y="637.82" width="22.4" height="22.4"/>
      <rect class="cls-1" x="134.16" y="638.16" width="21.72" height="21.72"/>
      <rect class="cls-1" x="170.65" y="638.65" width="20.75" height="20.75"/>
      <rect class="cls-1" x="207.18" y="639.18" width="19.68" height="19.68"/>
      <rect class="cls-1" x="243.82" y="639.82" width="18.41" height="18.41"/>
      <rect class="cls-1" x="280.45" y="640.45" width="17.14" height="17.14"/>
      <rect class="cls-1" x="317.18" y="641.18" width="15.68" height="15.68"/>
      <rect class="cls-1" x="353.86" y="641.86" width="14.32" height="14.32"/>
      <rect class="cls-1" x="390.54" y="642.54" width="12.96" height="12.96"/>
      <rect class="cls-1" x="427.13" y="643.13" width="11.79" height="11.79"/>
      <rect class="cls-1" x="463.71" y="643.71" width="10.62" height="10.62"/>
      <rect class="cls-1" x="500.25" y="644.25" width="9.55" height="9.55"/>
      <rect class="cls-1" x="536.74" y="644.74" width="8.57" height="8.57"/>
      <rect class="cls-1" x="573.17" y="645.17" width="7.7" height="7.7"/>
      <rect class="cls-1" x="609.56" y="645.56" width="6.92" height="6.92"/>
      <rect class="cls-1" x="645.91" y="645.91" width="6.23" height="6.23"/>
      <rect class="cls-1" x="682.15" y="646.15" width="5.75" height="5.75"/>
      <rect class="cls-1" x="718.34" y="646.34" width="5.36" height="5.36"/>
      <rect class="cls-1" x="754.44" y="646.44" width="5.16" height="5.16"/>
      <rect class="cls-1" x="790.49" y="646.49" width="5.07" height="5.07"/>
      <rect class="cls-1" x="828.83" y="648.83" width=".39" height=".39"/>
      <rect class="cls-1" y="684" width="2.05" height="2.05"/>
      <rect class="cls-1" x="25.43" y="673.43" width="23.18" height="23.18"/>
      <rect class="cls-1" x="61.04" y="673.04" width="23.96" height="23.96"/>
      <rect class="cls-1" x="97.24" y="673.24" width="23.57" height="23.57"/>
      <rect class="cls-1" x="133.63" y="673.63" width="22.79" height="22.79"/>
      <rect class="cls-1" x="170.11" y="674.11" width="21.82" height="21.82"/>
      <rect class="cls-1" x="206.75" y="674.75" width="20.55" height="20.55"/>
      <rect class="cls-1" x="243.43" y="675.43" width="19.19" height="19.19"/>
      <rect class="cls-1" x="280.21" y="676.21" width="17.63" height="17.63"/>
      <rect class="cls-1" x="316.94" y="676.94" width="16.17" height="16.17"/>
      <rect class="cls-1" x="353.72" y="677.72" width="14.61" height="14.61"/>
      <rect class="cls-1" x="390.45" y="678.45" width="13.15" height="13.15"/>
      <rect class="cls-1" x="427.13" y="679.13" width="11.79" height="11.79"/>
      <rect class="cls-1" x="463.81" y="679.81" width="10.42" height="10.42"/>
      <rect class="cls-1" x="500.4" y="680.4" width="9.25" height="9.25"/>
      <rect class="cls-1" x="536.88" y="680.88" width="8.28" height="8.28"/>
      <rect class="cls-1" x="573.37" y="681.37" width="7.31" height="7.31"/>
      <rect class="cls-1" x="609.76" y="681.76" width="6.53" height="6.53"/>
      <rect class="cls-1" x="646.1" y="682.1" width="5.84" height="5.84"/>
      <rect class="cls-1" x="682.34" y="682.34" width="5.36" height="5.36"/>
      <rect class="cls-1" x="718.54" y="682.54" width="4.97" height="4.97"/>
      <rect class="cls-1" x="754.68" y="682.68" width="4.68" height="4.68"/>
      <rect class="cls-1" x="790.73" y="682.73" width="4.58" height="4.58"/>
      <rect class="cls-1" x="828.83" y="684.83" width=".39" height=".39"/>
      <rect class="cls-1" y="720" width="2.05" height="2.05"/>
      <rect class="cls-1" x="25.14" y="709.14" width="23.77" height="23.77"/>
      <rect class="cls-1" x="60.65" y="708.65" width="24.74" height="24.74"/>
      <rect class="cls-1" x="96.8" y="708.8" width="24.45" height="24.45"/>
      <rect class="cls-1" x="133.19" y="709.19" width="23.67" height="23.67"/>
      <rect class="cls-1" x="169.77" y="709.77" width="22.5" height="22.5"/>
      <rect class="cls-1" x="206.45" y="710.45" width="21.14" height="21.14"/>
      <rect class="cls-1" x="243.18" y="711.18" width="19.68" height="19.68"/>
      <rect class="cls-1" x="279.96" y="711.96" width="18.12" height="18.12"/>
      <rect class="cls-1" x="316.79" y="712.79" width="16.46" height="16.46"/>
      <rect class="cls-1" x="353.62" y="713.62" width="14.81" height="14.81"/>
      <rect class="cls-1" x="390.4" y="714.4" width="13.25" height="13.25"/>
      <rect class="cls-1" x="427.18" y="715.18" width="11.69" height="11.69"/>
      <rect class="cls-1" x="463.86" y="715.86" width="10.33" height="10.33"/>
      <rect class="cls-1" x="500.44" y="716.44" width="9.16" height="9.16"/>
      <rect class="cls-1" x="537.03" y="717.03" width="7.99" height="7.99"/>
      <rect class="cls-1" x="573.47" y="717.47" width="7.11" height="7.11"/>
      <rect class="cls-1" x="609.86" y="717.86" width="6.33" height="6.33"/>
      <rect class="cls-1" x="646.2" y="718.2" width="5.65" height="5.65"/>
      <rect class="cls-1" x="682.49" y="718.49" width="5.07" height="5.07"/>
      <rect class="cls-1" x="718.68" y="718.68" width="4.68" height="4.68"/>
      <rect class="cls-1" x="754.83" y="718.83" width="4.38" height="4.38"/>
      <rect class="cls-1" x="790.88" y="718.88" width="4.29" height="4.29"/>
      <rect class="cls-1" x="828.88" y="720.88" width=".29" height=".29"/>
      <rect class="cls-1" y="756" width="2.05" height="2.05"/>
      <rect class="cls-1" x="25.09" y="745.09" width="23.87" height="23.87"/>
      <rect class="cls-1" x="60.6" y="744.6" width="24.84" height="24.84"/>
      <rect class="cls-1" x="96.7" y="744.7" width="24.65" height="24.65"/>
      <rect class="cls-1" x="132.99" y="744.99" width="24.06" height="24.06"/>
      <rect class="cls-1" x="169.53" y="745.53" width="22.99" height="22.99"/>
      <rect class="cls-1" x="206.21" y="746.21" width="21.63" height="21.63"/>
      <rect class="cls-1" x="242.99" y="746.99" width="20.07" height="20.07"/>
      <rect class="cls-1" x="279.82" y="747.82" width="18.41" height="18.41"/>
      <rect class="cls-1" x="316.69" y="748.69" width="16.66" height="16.66"/>
      <rect class="cls-1" x="353.57" y="749.57" width="14.9" height="14.9"/>
      <rect class="cls-1" x="390.4" y="750.4" width="13.25" height="13.25"/>
      <rect class="cls-1" x="427.18" y="751.18" width="11.69" height="11.69"/>
      <rect class="cls-1" x="463.86" y="751.86" width="10.33" height="10.33"/>
      <rect class="cls-1" x="500.49" y="752.49" width="9.06" height="9.06"/>
      <rect class="cls-1" x="537.08" y="753.08" width="7.89" height="7.89"/>
      <rect class="cls-1" x="573.56" y="753.56" width="6.92" height="6.92"/>
      <rect class="cls-1" x="609.95" y="753.95" width="6.14" height="6.14"/>
      <rect class="cls-1" x="646.3" y="754.3" width="5.45" height="5.45"/>
      <rect class="cls-1" x="682.59" y="754.59" width="4.87" height="4.87"/>
      <rect class="cls-1" x="718.78" y="754.78" width="4.48" height="4.48"/>
      <rect class="cls-1" x="754.93" y="754.93" width="4.19" height="4.19"/>
      <rect class="cls-1" x="790.98" y="754.98" width="4.09" height="4.09"/>
      <rect class="cls-1" x="828.88" y="756.88" width=".29" height=".29"/>
      <rect class="cls-1" y="792" width="2.05" height="2.05"/>
      <rect class="cls-1" x="25.33" y="781.33" width="23.38" height="23.38"/>
      <rect class="cls-1" x="60.85" y="780.85" width="24.35" height="24.35"/>
      <rect class="cls-1" x="96.94" y="780.94" width="24.16" height="24.16"/>
      <rect class="cls-1" x="133.19" y="781.19" width="23.67" height="23.67"/>
      <rect class="cls-1" x="169.67" y="781.67" width="22.7" height="22.7"/>
      <rect class="cls-1" x="206.31" y="782.31" width="21.43" height="21.43"/>
      <rect class="cls-1" x="243.09" y="783.09" width="19.87" height="19.87"/>
      <rect class="cls-1" x="279.96" y="783.96" width="18.12" height="18.12"/>
      <rect class="cls-1" x="316.79" y="784.79" width="16.46" height="16.46"/>
      <rect class="cls-1" x="353.67" y="785.67" width="14.71" height="14.71"/>
      <rect class="cls-1" x="390.5" y="786.5" width="13.05" height="13.05"/>
      <rect class="cls-1" x="427.28" y="787.28" width="11.49" height="11.49"/>
      <rect class="cls-1" x="464.01" y="788.01" width="10.03" height="10.03"/>
      <rect class="cls-1" x="500.64" y="788.64" width="8.77" height="8.77"/>
      <rect class="cls-1" x="537.17" y="789.17" width="7.7" height="7.7"/>
      <rect class="cls-1" x="573.66" y="789.66" width="6.72" height="6.72"/>
      <rect class="cls-1" x="610.05" y="790.05" width="5.94" height="5.94"/>
      <rect class="cls-1" x="646.39" y="790.39" width="5.26" height="5.26"/>
      <rect class="cls-1" x="682.68" y="790.68" width="4.68" height="4.68"/>
      <rect class="cls-1" x="718.88" y="790.88" width="4.29" height="4.29"/>
      <rect class="cls-1" x="754.98" y="790.98" width="4.09" height="4.09"/>
      <rect class="cls-1" x="791.07" y="791.07" width="3.9" height="3.9"/>
      <rect class="cls-1" x="828.88" y="792.88" width=".29" height=".29"/>
      <rect class="cls-1" x=".97" y="828.97" width=".1" height=".1"/>
      <rect class="cls-1" x="36.58" y="828.58" width=".88" height=".88"/>
      <rect class="cls-1" x="72.58" y="828.58" width=".88" height=".88"/>
      <rect class="cls-1" x="108.58" y="828.58" width=".88" height=".88"/>
      <rect class="cls-1" x="144.58" y="828.58" width=".88" height=".88"/>
      <rect class="cls-1" x="180.63" y="828.63" width=".78" height=".78"/>
      <rect class="cls-1" x="216.63" y="828.63" width=".78" height=".78"/>
      <rect class="cls-1" x="252.63" y="828.63" width=".78" height=".78"/>
      <rect class="cls-1" x="288.68" y="828.68" width=".68" height=".68"/>
      <rect class="cls-1" x="324.68" y="828.68" width=".68" height=".68"/>
      <rect class="cls-1" x="360.73" y="828.73" width=".58" height=".58"/>
      <rect class="cls-1" x="396.73" y="828.73" width=".58" height=".58"/>
      <rect class="cls-1" x="432.78" y="828.78" width=".49" height=".49"/>
      <rect class="cls-1" x="468.78" y="828.78" width=".49" height=".49"/>
      <rect class="cls-1" x="504.78" y="828.78" width=".49" height=".49"/>
      <rect class="cls-1" x="540.83" y="828.83" width=".39" height=".39"/>
      <rect class="cls-1" x="576.83" y="828.83" width=".39" height=".39"/>
      <rect class="cls-1" x="612.88" y="828.88" width=".29" height=".29"/>
      <rect class="cls-1" x="648.88" y="828.88" width=".29" height=".29"/>
      <rect class="cls-1" x="684.88" y="828.88" width=".29" height=".29"/>
      <rect class="cls-1" x="720.88" y="828.88" width=".29" height=".29"/>
      <rect class="cls-1" x="756.88" y="828.88" width=".29" height=".29"/>
      <rect class="cls-1" x="792.93" y="828.93" width=".19" height=".19"/>
    </g>
  </g>
</svg>